<?xml version="1.0" encoding="utf-8" standalone="no"?>
<!DOCTYPE svg PUBLIC "-//W3C//DTD SVG 1.1//EN"
  "http://www.w3.org/Graphics/SVG/1.1/DTD/svg11.dtd">
<svg xmlns:xlink="http://www.w3.org/1999/xlink" width="635.146896pt" height="145.44pt" viewBox="0 0 635.146896 145.44" xmlns="http://www.w3.org/2000/svg" version="1.1">
 <metadata>
  <rdf:RDF xmlns:dc="http://purl.org/dc/elements/1.1/" xmlns:cc="http://creativecommons.org/ns#" xmlns:rdf="http://www.w3.org/1999/02/22-rdf-syntax-ns#">
   <cc:Work>
    <dc:type rdf:resource="http://purl.org/dc/dcmitype/StillImage"/>
    <dc:date>2026-02-04T10:47:58.178983</dc:date>
    <dc:format>image/svg+xml</dc:format>
    <dc:creator>
     <cc:Agent>
      <dc:title>Matplotlib v3.10.8, https://matplotlib.org/</dc:title>
     </cc:Agent>
    </dc:creator>
   </cc:Work>
  </rdf:RDF>
 </metadata>
 <defs>
  <style type="text/css">*{stroke-linejoin: round; stroke-linecap: butt}</style>
 </defs>
 <g id="figure_1">
  <g id="patch_1">
   <path d="M 0 145.44 
L 635.146896 145.44 
L 635.146896 0 
L 0 0 
L 0 145.44 
z
" style="fill: none"/>
  </g>
  <g id="axes_1">
   <g id="line2d_1">
    <path d="M 64.306896 64.32 
L 623.326896 64.32 
" clip-path="url(#pfd510ceebb)" style="fill: none; stroke: #000000; stroke-width: 2; stroke-linecap: square"/>
   </g>
   <g id="line2d_2">
    <path d="M 64.306896 110.52 
L 623.326896 110.52 
" clip-path="url(#pfd510ceebb)" style="fill: none; stroke: #000000; stroke-width: 2; stroke-linecap: square"/>
   </g>
   <g id="patch_2">
    <path d="M 59.686896 41.22 
L -1095.313104 41.22 
L -1095.313104 179.82 
L 59.686896 179.82 
z
" clip-path="url(#pfd510ceebb)" style="fill: #ffffff; stroke: #ffffff; stroke-width: 1.5; stroke-linejoin: miter"/>
   </g>
   <g id="line2d_3">
    <path d="M 135.454896 110.52 
L 135.454896 64.32 
" clip-path="url(#pfd510ceebb)" style="fill: none; stroke: #002d9c; stroke-width: 2; stroke-linecap: square"/>
   </g>
   <g id="line2d_4">
    <path d="M 320.254896 110.52 
L 320.254896 64.32 
" clip-path="url(#pfd510ceebb)" style="fill: none; stroke: #002d9c; stroke-width: 2; stroke-linecap: square"/>
   </g>
   <g id="line2d_5">
    <path d="M 505.054896 110.52 
L 505.054896 64.32 
" clip-path="url(#pfd510ceebb)" style="fill: none; stroke: #002d9c; stroke-width: 2; stroke-linecap: square"/>
   </g>
   <g id="patch_3">
    <path d="M 218.845896 87.42 
L 236.863896 87.42 
L 236.863896 57.39 
L 218.845896 57.39 
z
" clip-path="url(#pfd510ceebb)" style="fill: #a8a8a8; opacity: 0.6"/>
   </g>
   <g id="patch_4">
    <path d="M 218.845896 133.62 
L 236.863896 133.62 
L 236.863896 87.42 
L 218.845896 87.42 
z
" clip-path="url(#pfd510ceebb)" style="fill: #a8a8a8; opacity: 0.6"/>
   </g>
   <g id="patch_5">
    <path d="M 403.645896 87.42 
L 421.663896 87.42 
L 421.663896 57.39 
L 403.645896 57.39 
z
" clip-path="url(#pfd510ceebb)" style="fill: #a8a8a8; opacity: 0.6"/>
   </g>
   <g id="patch_6">
    <path d="M 403.645896 133.62 
L 421.663896 133.62 
L 421.663896 87.42 
L 403.645896 87.42 
z
" clip-path="url(#pfd510ceebb)" style="fill: #a8a8a8; opacity: 0.6"/>
   </g>
   <g id="patch_7">
    <path d="M 588.445896 87.42 
L 606.463896 87.42 
L 606.463896 57.39 
L 588.445896 57.39 
z
" clip-path="url(#pfd510ceebb)" style="fill: #a8a8a8; opacity: 0.6"/>
   </g>
   <g id="patch_8">
    <path d="M 588.445896 133.62 
L 606.463896 133.62 
L 606.463896 87.42 
L 588.445896 87.42 
z
" clip-path="url(#pfd510ceebb)" style="fill: #a8a8a8; opacity: 0.6"/>
   </g>
   <g id="patch_9">
    <path d="M 74.239896 79.335 
L 104.269896 79.335 
L 104.269896 49.305 
L 74.239896 49.305 
z
" clip-path="url(#pfd510ceebb)" style="fill: #fa4d56; stroke: #fa4d56; stroke-width: 1.5; stroke-linejoin: miter"/>
   </g>
   <g id="patch_10">
    <path d="M 135.454896 68.8245 
C 136.649503 68.8245 137.795344 68.349877 138.640058 67.505162 
C 139.484773 66.660448 139.959396 65.514607 139.959396 64.32 
C 139.959396 63.125393 139.484773 61.979552 138.640058 61.134838 
C 137.795344 60.290123 136.649503 59.8155 135.454896 59.8155 
C 134.260289 59.8155 133.114448 60.290123 132.269734 61.134838 
C 131.425019 61.979552 130.950396 63.125393 130.950396 64.32 
C 130.950396 65.514607 131.425019 66.660448 132.269734 67.505162 
C 133.114448 68.349877 134.260289 68.8245 135.454896 68.8245 
z
" clip-path="url(#pfd510ceebb)" style="fill: #002d9c; stroke: #002d9c; stroke-width: 1.5; stroke-linejoin: miter"/>
   </g>
   <g id="patch_11">
    <path d="M 135.454896 121.0305 
C 138.242313 121.0305 140.91594 119.923047 142.886942 117.952046 
C 144.857943 115.981044 145.965396 113.307417 145.965396 110.52 
C 145.965396 107.732583 144.857943 105.058956 142.886942 103.087954 
C 140.91594 101.116953 138.242313 100.0095 135.454896 100.0095 
C 132.667479 100.0095 129.993852 101.116953 128.02285 103.087954 
C 126.051849 105.058956 124.944396 107.732583 124.944396 110.52 
C 124.944396 113.307417 126.051849 115.981044 128.02285 117.952046 
C 129.993852 119.923047 132.667479 121.0305 135.454896 121.0305 
z
" clip-path="url(#pfd510ceebb)" style="fill: #002d9c; stroke: #002d9c; stroke-width: 2; stroke-linejoin: miter"/>
   </g>
   <g id="patch_12">
    <path d="M 166.639896 125.535 
L 196.669896 125.535 
L 196.669896 95.505 
L 166.639896 95.505 
z
" clip-path="url(#pfd510ceebb)" style="fill: #33b1ff; stroke: #33b1ff; stroke-width: 1.5; stroke-linejoin: miter"/>
   </g>
   <g id="patch_13">
    <path d="M 259.039896 125.535 
L 289.069896 125.535 
L 289.069896 95.505 
L 259.039896 95.505 
z
" clip-path="url(#pfd510ceebb)" style="fill: #33b1ff; stroke: #33b1ff; stroke-width: 1.5; stroke-linejoin: miter"/>
   </g>
   <g id="patch_14">
    <path d="M 320.254896 68.8245 
C 321.449503 68.8245 322.595344 68.349877 323.440058 67.505162 
C 324.284773 66.660448 324.759396 65.514607 324.759396 64.32 
C 324.759396 63.125393 324.284773 61.979552 323.440058 61.134838 
C 322.595344 60.290123 321.449503 59.8155 320.254896 59.8155 
C 319.060289 59.8155 317.914448 60.290123 317.069734 61.134838 
C 316.225019 61.979552 315.750396 63.125393 315.750396 64.32 
C 315.750396 65.514607 316.225019 66.660448 317.069734 67.505162 
C 317.914448 68.349877 319.060289 68.8245 320.254896 68.8245 
z
" clip-path="url(#pfd510ceebb)" style="fill: #002d9c; stroke: #002d9c; stroke-width: 1.5; stroke-linejoin: miter"/>
   </g>
   <g id="patch_15">
    <path d="M 320.254896 121.0305 
C 323.042313 121.0305 325.71594 119.923047 327.686942 117.952046 
C 329.657943 115.981044 330.765396 113.307417 330.765396 110.52 
C 330.765396 107.732583 329.657943 105.058956 327.686942 103.087954 
C 325.71594 101.116953 323.042313 100.0095 320.254896 100.0095 
C 317.467479 100.0095 314.793852 101.116953 312.82285 103.087954 
C 310.851849 105.058956 309.744396 107.732583 309.744396 110.52 
C 309.744396 113.307417 310.851849 115.981044 312.82285 117.952046 
C 314.793852 119.923047 317.467479 121.0305 320.254896 121.0305 
z
" clip-path="url(#pfd510ceebb)" style="fill: #002d9c; stroke: #002d9c; stroke-width: 2; stroke-linejoin: miter"/>
   </g>
   <g id="patch_16">
    <path d="M 351.439896 79.335 
L 381.469896 79.335 
L 381.469896 49.305 
L 351.439896 49.305 
z
" clip-path="url(#pfd510ceebb)" style="fill: #fa4d56; stroke: #fa4d56; stroke-width: 1.5; stroke-linejoin: miter"/>
   </g>
   <g id="patch_17">
    <path d="M 443.839896 79.335 
L 473.869896 79.335 
L 473.869896 49.305 
L 443.839896 49.305 
z
" clip-path="url(#pfd510ceebb)" style="fill: #fa4d56; stroke: #fa4d56; stroke-width: 1.5; stroke-linejoin: miter"/>
   </g>
   <g id="patch_18">
    <path d="M 505.054896 68.8245 
C 506.249503 68.8245 507.395344 68.349877 508.240058 67.505162 
C 509.084773 66.660448 509.559396 65.514607 509.559396 64.32 
C 509.559396 63.125393 509.084773 61.979552 508.240058 61.134838 
C 507.395344 60.290123 506.249503 59.8155 505.054896 59.8155 
C 503.860289 59.8155 502.714448 60.290123 501.869734 61.134838 
C 501.025019 61.979552 500.550396 63.125393 500.550396 64.32 
C 500.550396 65.514607 501.025019 66.660448 501.869734 67.505162 
C 502.714448 68.349877 503.860289 68.8245 505.054896 68.8245 
z
" clip-path="url(#pfd510ceebb)" style="fill: #002d9c; stroke: #002d9c; stroke-width: 1.5; stroke-linejoin: miter"/>
   </g>
   <g id="patch_19">
    <path d="M 505.054896 121.0305 
C 507.842313 121.0305 510.51594 119.923047 512.486942 117.952046 
C 514.457943 115.981044 515.565396 113.307417 515.565396 110.52 
C 515.565396 107.732583 514.457943 105.058956 512.486942 103.087954 
C 510.51594 101.116953 507.842313 100.0095 505.054896 100.0095 
C 502.267479 100.0095 499.593852 101.116953 497.62285 103.087954 
C 495.651849 105.058956 494.544396 107.732583 494.544396 110.52 
C 494.544396 113.307417 495.651849 115.981044 497.62285 117.952046 
C 499.593852 119.923047 502.267479 121.0305 505.054896 121.0305 
z
" clip-path="url(#pfd510ceebb)" style="fill: #002d9c; stroke: #002d9c; stroke-width: 2; stroke-linejoin: miter"/>
   </g>
   <g id="patch_20">
    <path d="M 536.239896 125.535 
L 566.269896 125.535 
L 566.269896 95.505 
L 536.239896 95.505 
z
" clip-path="url(#pfd510ceebb)" style="fill: #33b1ff; stroke: #33b1ff; stroke-width: 1.5; stroke-linejoin: miter"/>
   </g>
   <g id="line2d_6">
    <path d="M 135.454896 116.526 
L 135.454896 104.514 
" clip-path="url(#pfd510ceebb)" style="fill: none; stroke: #ffffff; stroke-width: 2; stroke-linecap: square"/>
   </g>
   <g id="line2d_7">
    <path d="M 129.448896 110.52 
L 141.460896 110.52 
" clip-path="url(#pfd510ceebb)" style="fill: none; stroke: #ffffff; stroke-width: 2; stroke-linecap: square"/>
   </g>
   <g id="line2d_8">
    <path d="M 320.254896 116.526 
L 320.254896 104.514 
" clip-path="url(#pfd510ceebb)" style="fill: none; stroke: #ffffff; stroke-width: 2; stroke-linecap: square"/>
   </g>
   <g id="line2d_9">
    <path d="M 314.248896 110.52 
L 326.260896 110.52 
" clip-path="url(#pfd510ceebb)" style="fill: none; stroke: #ffffff; stroke-width: 2; stroke-linecap: square"/>
   </g>
   <g id="line2d_10">
    <path d="M 505.054896 116.526 
L 505.054896 104.514 
" clip-path="url(#pfd510ceebb)" style="fill: none; stroke: #ffffff; stroke-width: 2; stroke-linecap: square"/>
   </g>
   <g id="line2d_11">
    <path d="M 499.048896 110.52 
L 511.060896 110.52 
" clip-path="url(#pfd510ceebb)" style="fill: none; stroke: #ffffff; stroke-width: 2; stroke-linecap: square"/>
   </g>
   <g id="text_1">
    <g clip-path="url(#pfd510ceebb)">
     <!-- ${q}_{0}$ -->
     <g transform="translate(37.029396 68.770977) scale(0.1625 -0.1625)">
      <defs>
       <path id="DejaVuSans-Oblique-71" d="M 2669 525 
Q 2438 222 2123 65 
Q 1809 -91 1428 -91 
Q 897 -91 595 267 
Q 294 625 294 1253 
Q 294 1759 480 2231 
Q 666 2703 1013 3078 
Q 1238 3322 1530 3453 
Q 1822 3584 2144 3584 
Q 2531 3584 2781 3431 
Q 3031 3278 3144 2969 
L 3244 3494 
L 3822 3494 
L 2888 -1319 
L 2309 -1319 
L 2669 525 
z
M 891 1338 
Q 891 875 1084 633 
Q 1278 391 1644 391 
Q 2188 391 2572 911 
Q 2956 1431 2956 2175 
Q 2956 2625 2757 2864 
Q 2559 3103 2188 3103 
Q 1916 3103 1684 2976 
Q 1453 2850 1281 2606 
Q 1100 2350 995 2006 
Q 891 1663 891 1338 
z
" transform="scale(0.015625)"/>
       <path id="DejaVuSans-30" d="M 2034 4250 
Q 1547 4250 1301 3770 
Q 1056 3291 1056 2328 
Q 1056 1369 1301 889 
Q 1547 409 2034 409 
Q 2525 409 2770 889 
Q 3016 1369 3016 2328 
Q 3016 3291 2770 3770 
Q 2525 4250 2034 4250 
z
M 2034 4750 
Q 2819 4750 3233 4129 
Q 3647 3509 3647 2328 
Q 3647 1150 3233 529 
Q 2819 -91 2034 -91 
Q 1250 -91 836 529 
Q 422 1150 422 2328 
Q 422 3509 836 4129 
Q 1250 4750 2034 4750 
z
" transform="scale(0.015625)"/>
      </defs>
      <use xlink:href="#DejaVuSans-Oblique-71"/>
      <use xlink:href="#DejaVuSans-30" transform="translate(63.476562 -16.40625) scale(0.7)"/>
     </g>
    </g>
   </g>
   <g id="text_2">
    <g clip-path="url(#pfd510ceebb)">
     <!-- ${q}_{1}$ -->
     <g transform="translate(37.029396 114.970977) scale(0.1625 -0.1625)">
      <defs>
       <path id="DejaVuSans-31" d="M 794 531 
L 1825 531 
L 1825 4091 
L 703 3866 
L 703 4441 
L 1819 4666 
L 2450 4666 
L 2450 531 
L 3481 531 
L 3481 0 
L 794 0 
L 794 531 
z
" transform="scale(0.015625)"/>
      </defs>
      <use xlink:href="#DejaVuSans-Oblique-71"/>
      <use xlink:href="#DejaVuSans-31" transform="translate(63.476562 -16.40625) scale(0.7)"/>
     </g>
    </g>
   </g>
   <g id="text_3">
    <g clip-path="url(#pfd510ceebb)">
     <!-- H -->
     <g transform="translate(84.366693 67.907188) scale(0.13 -0.13)">
      <defs>
       <path id="DejaVuSans-48" d="M 628 4666 
L 1259 4666 
L 1259 2753 
L 3553 2753 
L 3553 4666 
L 4184 4666 
L 4184 0 
L 3553 0 
L 3553 2222 
L 1259 2222 
L 1259 0 
L 628 0 
L 628 4666 
z
" transform="scale(0.015625)"/>
      </defs>
      <use xlink:href="#DejaVuSans-48"/>
     </g>
    </g>
   </g>
   <g id="text_4">
    <g clip-path="url(#pfd510ceebb)">
     <!-- 0.5 -->
     <g transform="translate(175.293646 121.7365) scale(0.08 -0.08)">
      <defs>
       <path id="DejaVuSans-2e" d="M 684 794 
L 1344 794 
L 1344 0 
L 684 0 
L 684 794 
z
" transform="scale(0.015625)"/>
       <path id="DejaVuSans-35" d="M 691 4666 
L 3169 4666 
L 3169 4134 
L 1269 4134 
L 1269 2991 
Q 1406 3038 1543 3061 
Q 1681 3084 1819 3084 
Q 2600 3084 3056 2656 
Q 3513 2228 3513 1497 
Q 3513 744 3044 326 
Q 2575 -91 1722 -91 
Q 1428 -91 1123 -41 
Q 819 9 494 109 
L 494 744 
Q 775 591 1075 516 
Q 1375 441 1709 441 
Q 2250 441 2565 725 
Q 2881 1009 2881 1497 
Q 2881 1984 2565 2268 
Q 2250 2553 1709 2553 
Q 1456 2553 1204 2497 
Q 953 2441 691 2322 
L 691 4666 
z
" transform="scale(0.015625)"/>
      </defs>
      <use xlink:href="#DejaVuSans-30"/>
      <use xlink:href="#DejaVuSans-2e" transform="translate(63.623047 0)"/>
      <use xlink:href="#DejaVuSans-35" transform="translate(95.410156 0)"/>
     </g>
    </g>
   </g>
   <g id="text_5">
    <g clip-path="url(#pfd510ceebb)">
     <!-- $\mathrm{R_Z}$ -->
     <g transform="translate(173.724896 109.602688) scale(0.13 -0.13)">
      <defs>
       <path id="DejaVuSans-52" d="M 2841 2188 
Q 3044 2119 3236 1894 
Q 3428 1669 3622 1275 
L 4263 0 
L 3584 0 
L 2988 1197 
Q 2756 1666 2539 1819 
Q 2322 1972 1947 1972 
L 1259 1972 
L 1259 0 
L 628 0 
L 628 4666 
L 2053 4666 
Q 2853 4666 3247 4331 
Q 3641 3997 3641 3322 
Q 3641 2881 3436 2590 
Q 3231 2300 2841 2188 
z
M 1259 4147 
L 1259 2491 
L 2053 2491 
Q 2509 2491 2742 2702 
Q 2975 2913 2975 3322 
Q 2975 3731 2742 3939 
Q 2509 4147 2053 4147 
L 1259 4147 
z
" transform="scale(0.015625)"/>
       <path id="DejaVuSans-5a" d="M 359 4666 
L 4025 4666 
L 4025 4184 
L 1075 531 
L 4097 531 
L 4097 0 
L 288 0 
L 288 481 
L 3238 4134 
L 359 4134 
L 359 4666 
z
" transform="scale(0.015625)"/>
      </defs>
      <use xlink:href="#DejaVuSans-52" transform="translate(0 0.09375)"/>
      <use xlink:href="#DejaVuSans-5a" transform="translate(70.439453 -16.3125) scale(0.7)"/>
     </g>
    </g>
   </g>
   <g id="line2d_12">
    <path d="M 227.854896 57.39 
L 227.854896 87.42 
" clip-path="url(#pfd510ceebb)" style="fill: none; stroke-dasharray: 3.7,1.6; stroke-dashoffset: 0; stroke: #000000"/>
   </g>
   <g id="text_6">
    <g clip-path="url(#pfd510ceebb)">
     <!-- U -->
     <g transform="translate(223.097709 54.678469) scale(0.13 -0.13)">
      <defs>
       <path id="DejaVuSans-55" d="M 556 4666 
L 1191 4666 
L 1191 1831 
Q 1191 1081 1462 751 
Q 1734 422 2344 422 
Q 2950 422 3222 751 
Q 3494 1081 3494 1831 
L 3494 4666 
L 4128 4666 
L 4128 1753 
Q 4128 841 3676 375 
Q 3225 -91 2344 -91 
Q 1459 -91 1007 375 
Q 556 841 556 1753 
L 556 4666 
z
" transform="scale(0.015625)"/>
      </defs>
      <use xlink:href="#DejaVuSans-55"/>
     </g>
    </g>
   </g>
   <g id="line2d_13">
    <path d="M 227.854896 87.42 
L 227.854896 133.62 
" clip-path="url(#pfd510ceebb)" style="fill: none; stroke-dasharray: 3.7,1.6; stroke-dashoffset: 0; stroke: #000000"/>
   </g>
   <g id="text_7">
    <g clip-path="url(#pfd510ceebb)">
     <!-- $-$0.5 -->
     <g transform="translate(264.334896 121.7365) scale(0.08 -0.08)">
      <defs>
       <path id="DejaVuSans-2212" d="M 678 2272 
L 4684 2272 
L 4684 1741 
L 678 1741 
L 678 2272 
z
" transform="scale(0.015625)"/>
      </defs>
      <use xlink:href="#DejaVuSans-2212" transform="translate(0 0.78125)"/>
      <use xlink:href="#DejaVuSans-30" transform="translate(83.789062 0.78125)"/>
      <use xlink:href="#DejaVuSans-2e" transform="translate(147.412109 0.78125)"/>
      <use xlink:href="#DejaVuSans-35" transform="translate(179.199219 0.78125)"/>
     </g>
    </g>
   </g>
   <g id="text_8">
    <g clip-path="url(#pfd510ceebb)">
     <!-- $\mathrm{R_Z}$ -->
     <g transform="translate(266.124896 109.602688) scale(0.13 -0.13)">
      <use xlink:href="#DejaVuSans-52" transform="translate(0 0.09375)"/>
      <use xlink:href="#DejaVuSans-5a" transform="translate(70.439453 -16.3125) scale(0.7)"/>
     </g>
    </g>
   </g>
   <g id="text_9">
    <g clip-path="url(#pfd510ceebb)">
     <!-- H -->
     <g transform="translate(361.566693 67.907188) scale(0.13 -0.13)">
      <use xlink:href="#DejaVuSans-48"/>
     </g>
    </g>
   </g>
   <g id="line2d_14">
    <path d="M 412.654896 57.39 
L 412.654896 87.42 
" clip-path="url(#pfd510ceebb)" style="fill: none; stroke-dasharray: 3.7,1.6; stroke-dashoffset: 0; stroke: #000000"/>
   </g>
   <g id="text_10">
    <g clip-path="url(#pfd510ceebb)">
     <!-- U† -->
     <g transform="translate(404.647709 54.678469) scale(0.13 -0.13)">
      <defs>
       <path id="DejaVuSans-2020" d="M 1325 4666 
L 1875 4666 
L 1875 3353 
L 3022 3353 
L 3022 2875 
L 1875 2875 
L 1875 -616 
L 1325 -616 
L 1325 2875 
L 178 2875 
L 178 3353 
L 1325 3353 
L 1325 4666 
z
" transform="scale(0.015625)"/>
      </defs>
      <use xlink:href="#DejaVuSans-55"/>
      <use xlink:href="#DejaVuSans-2020" transform="translate(73.193359 0)"/>
     </g>
    </g>
   </g>
   <g id="line2d_15">
    <path d="M 412.654896 87.42 
L 412.654896 133.62 
" clip-path="url(#pfd510ceebb)" style="fill: none; stroke-dasharray: 3.7,1.6; stroke-dashoffset: 0; stroke: #000000"/>
   </g>
   <g id="text_11">
    <g clip-path="url(#pfd510ceebb)">
     <!-- H -->
     <g transform="translate(453.966693 67.907188) scale(0.13 -0.13)">
      <use xlink:href="#DejaVuSans-48"/>
     </g>
    </g>
   </g>
   <g id="text_12">
    <g clip-path="url(#pfd510ceebb)">
     <!-- 0.5 -->
     <g transform="translate(544.893646 121.7365) scale(0.08 -0.08)">
      <use xlink:href="#DejaVuSans-30"/>
      <use xlink:href="#DejaVuSans-2e" transform="translate(63.623047 0)"/>
      <use xlink:href="#DejaVuSans-35" transform="translate(95.410156 0)"/>
     </g>
    </g>
   </g>
   <g id="text_13">
    <g clip-path="url(#pfd510ceebb)">
     <!-- $\mathrm{R_Z}$ -->
     <g transform="translate(543.324896 109.602688) scale(0.13 -0.13)">
      <use xlink:href="#DejaVuSans-52" transform="translate(0 0.09375)"/>
      <use xlink:href="#DejaVuSans-5a" transform="translate(70.439453 -16.3125) scale(0.7)"/>
     </g>
    </g>
   </g>
   <g id="line2d_16">
    <path d="M 597.454896 57.39 
L 597.454896 87.42 
" clip-path="url(#pfd510ceebb)" style="fill: none; stroke-dasharray: 3.7,1.6; stroke-dashoffset: 0; stroke: #000000"/>
   </g>
   <g id="text_14">
    <g clip-path="url(#pfd510ceebb)">
     <!-- U -->
     <g transform="translate(592.697708 54.678469) scale(0.13 -0.13)">
      <use xlink:href="#DejaVuSans-55"/>
     </g>
    </g>
   </g>
   <g id="line2d_17">
    <path d="M 597.454896 87.42 
L 597.454896 133.62 
" clip-path="url(#pfd510ceebb)" style="fill: none; stroke-dasharray: 3.7,1.6; stroke-dashoffset: 0; stroke: #000000"/>
   </g>
  </g>
  <g id="text_15">
   <!-- Global Folding (λ=3): U U† U -->
   <g transform="translate(221.859573 16.318125) scale(0.12 -0.12)">
    <defs>
     <path id="DejaVuSans-47" d="M 3809 666 
L 3809 1919 
L 2778 1919 
L 2778 2438 
L 4434 2438 
L 4434 434 
Q 4069 175 3628 42 
Q 3188 -91 2688 -91 
Q 1594 -91 976 548 
Q 359 1188 359 2328 
Q 359 3472 976 4111 
Q 1594 4750 2688 4750 
Q 3144 4750 3555 4637 
Q 3966 4525 4313 4306 
L 4313 3634 
Q 3963 3931 3569 4081 
Q 3175 4231 2741 4231 
Q 1884 4231 1454 3753 
Q 1025 3275 1025 2328 
Q 1025 1384 1454 906 
Q 1884 428 2741 428 
Q 3075 428 3337 486 
Q 3600 544 3809 666 
z
" transform="scale(0.015625)"/>
     <path id="DejaVuSans-6c" d="M 603 4863 
L 1178 4863 
L 1178 0 
L 603 0 
L 603 4863 
z
" transform="scale(0.015625)"/>
     <path id="DejaVuSans-6f" d="M 1959 3097 
Q 1497 3097 1228 2736 
Q 959 2375 959 1747 
Q 959 1119 1226 758 
Q 1494 397 1959 397 
Q 2419 397 2687 759 
Q 2956 1122 2956 1747 
Q 2956 2369 2687 2733 
Q 2419 3097 1959 3097 
z
M 1959 3584 
Q 2709 3584 3137 3096 
Q 3566 2609 3566 1747 
Q 3566 888 3137 398 
Q 2709 -91 1959 -91 
Q 1206 -91 779 398 
Q 353 888 353 1747 
Q 353 2609 779 3096 
Q 1206 3584 1959 3584 
z
" transform="scale(0.015625)"/>
     <path id="DejaVuSans-62" d="M 3116 1747 
Q 3116 2381 2855 2742 
Q 2594 3103 2138 3103 
Q 1681 3103 1420 2742 
Q 1159 2381 1159 1747 
Q 1159 1113 1420 752 
Q 1681 391 2138 391 
Q 2594 391 2855 752 
Q 3116 1113 3116 1747 
z
M 1159 2969 
Q 1341 3281 1617 3432 
Q 1894 3584 2278 3584 
Q 2916 3584 3314 3078 
Q 3713 2572 3713 1747 
Q 3713 922 3314 415 
Q 2916 -91 2278 -91 
Q 1894 -91 1617 61 
Q 1341 213 1159 525 
L 1159 0 
L 581 0 
L 581 4863 
L 1159 4863 
L 1159 2969 
z
" transform="scale(0.015625)"/>
     <path id="DejaVuSans-61" d="M 2194 1759 
Q 1497 1759 1228 1600 
Q 959 1441 959 1056 
Q 959 750 1161 570 
Q 1363 391 1709 391 
Q 2188 391 2477 730 
Q 2766 1069 2766 1631 
L 2766 1759 
L 2194 1759 
z
M 3341 1997 
L 3341 0 
L 2766 0 
L 2766 531 
Q 2569 213 2275 61 
Q 1981 -91 1556 -91 
Q 1019 -91 701 211 
Q 384 513 384 1019 
Q 384 1609 779 1909 
Q 1175 2209 1959 2209 
L 2766 2209 
L 2766 2266 
Q 2766 2663 2505 2880 
Q 2244 3097 1772 3097 
Q 1472 3097 1187 3025 
Q 903 2953 641 2809 
L 641 3341 
Q 956 3463 1253 3523 
Q 1550 3584 1831 3584 
Q 2591 3584 2966 3190 
Q 3341 2797 3341 1997 
z
" transform="scale(0.015625)"/>
     <path id="DejaVuSans-20" transform="scale(0.015625)"/>
     <path id="DejaVuSans-46" d="M 628 4666 
L 3309 4666 
L 3309 4134 
L 1259 4134 
L 1259 2759 
L 3109 2759 
L 3109 2228 
L 1259 2228 
L 1259 0 
L 628 0 
L 628 4666 
z
" transform="scale(0.015625)"/>
     <path id="DejaVuSans-64" d="M 2906 2969 
L 2906 4863 
L 3481 4863 
L 3481 0 
L 2906 0 
L 2906 525 
Q 2725 213 2448 61 
Q 2172 -91 1784 -91 
Q 1150 -91 751 415 
Q 353 922 353 1747 
Q 353 2572 751 3078 
Q 1150 3584 1784 3584 
Q 2172 3584 2448 3432 
Q 2725 3281 2906 2969 
z
M 947 1747 
Q 947 1113 1208 752 
Q 1469 391 1925 391 
Q 2381 391 2643 752 
Q 2906 1113 2906 1747 
Q 2906 2381 2643 2742 
Q 2381 3103 1925 3103 
Q 1469 3103 1208 2742 
Q 947 2381 947 1747 
z
" transform="scale(0.015625)"/>
     <path id="DejaVuSans-69" d="M 603 3500 
L 1178 3500 
L 1178 0 
L 603 0 
L 603 3500 
z
M 603 4863 
L 1178 4863 
L 1178 4134 
L 603 4134 
L 603 4863 
z
" transform="scale(0.015625)"/>
     <path id="DejaVuSans-6e" d="M 3513 2113 
L 3513 0 
L 2938 0 
L 2938 2094 
Q 2938 2591 2744 2837 
Q 2550 3084 2163 3084 
Q 1697 3084 1428 2787 
Q 1159 2491 1159 1978 
L 1159 0 
L 581 0 
L 581 3500 
L 1159 3500 
L 1159 2956 
Q 1366 3272 1645 3428 
Q 1925 3584 2291 3584 
Q 2894 3584 3203 3211 
Q 3513 2838 3513 2113 
z
" transform="scale(0.015625)"/>
     <path id="DejaVuSans-67" d="M 2906 1791 
Q 2906 2416 2648 2759 
Q 2391 3103 1925 3103 
Q 1463 3103 1205 2759 
Q 947 2416 947 1791 
Q 947 1169 1205 825 
Q 1463 481 1925 481 
Q 2391 481 2648 825 
Q 2906 1169 2906 1791 
z
M 3481 434 
Q 3481 -459 3084 -895 
Q 2688 -1331 1869 -1331 
Q 1566 -1331 1297 -1286 
Q 1028 -1241 775 -1147 
L 775 -588 
Q 1028 -725 1275 -790 
Q 1522 -856 1778 -856 
Q 2344 -856 2625 -561 
Q 2906 -266 2906 331 
L 2906 616 
Q 2728 306 2450 153 
Q 2172 0 1784 0 
Q 1141 0 747 490 
Q 353 981 353 1791 
Q 353 2603 747 3093 
Q 1141 3584 1784 3584 
Q 2172 3584 2450 3431 
Q 2728 3278 2906 2969 
L 2906 3500 
L 3481 3500 
L 3481 434 
z
" transform="scale(0.015625)"/>
     <path id="DejaVuSans-28" d="M 1984 4856 
Q 1566 4138 1362 3434 
Q 1159 2731 1159 2009 
Q 1159 1288 1364 580 
Q 1569 -128 1984 -844 
L 1484 -844 
Q 1016 -109 783 600 
Q 550 1309 550 2009 
Q 550 2706 781 3412 
Q 1013 4119 1484 4856 
L 1984 4856 
z
" transform="scale(0.015625)"/>
     <path id="DejaVuSans-3bb" d="M 1981 4316 
L 3597 0 
L 2988 0 
L 2006 2588 
L 800 0 
L 191 0 
L 1725 3356 
L 1494 3975 
Q 1347 4369 1013 4369 
L 713 4369 
L 713 4863 
L 1078 4856 
Q 1784 4847 1981 4316 
z
" transform="scale(0.015625)"/>
     <path id="DejaVuSans-3d" d="M 678 2906 
L 4684 2906 
L 4684 2381 
L 678 2381 
L 678 2906 
z
M 678 1631 
L 4684 1631 
L 4684 1100 
L 678 1100 
L 678 1631 
z
" transform="scale(0.015625)"/>
     <path id="DejaVuSans-33" d="M 2597 2516 
Q 3050 2419 3304 2112 
Q 3559 1806 3559 1356 
Q 3559 666 3084 287 
Q 2609 -91 1734 -91 
Q 1441 -91 1130 -33 
Q 819 25 488 141 
L 488 750 
Q 750 597 1062 519 
Q 1375 441 1716 441 
Q 2309 441 2620 675 
Q 2931 909 2931 1356 
Q 2931 1769 2642 2001 
Q 2353 2234 1838 2234 
L 1294 2234 
L 1294 2753 
L 1863 2753 
Q 2328 2753 2575 2939 
Q 2822 3125 2822 3475 
Q 2822 3834 2567 4026 
Q 2313 4219 1838 4219 
Q 1578 4219 1281 4162 
Q 984 4106 628 3988 
L 628 4550 
Q 988 4650 1302 4700 
Q 1616 4750 1894 4750 
Q 2613 4750 3031 4423 
Q 3450 4097 3450 3541 
Q 3450 3153 3228 2886 
Q 3006 2619 2597 2516 
z
" transform="scale(0.015625)"/>
     <path id="DejaVuSans-29" d="M 513 4856 
L 1013 4856 
Q 1481 4119 1714 3412 
Q 1947 2706 1947 2009 
Q 1947 1309 1714 600 
Q 1481 -109 1013 -844 
L 513 -844 
Q 928 -128 1133 580 
Q 1338 1288 1338 2009 
Q 1338 2731 1133 3434 
Q 928 4138 513 4856 
z
" transform="scale(0.015625)"/>
     <path id="DejaVuSans-3a" d="M 750 794 
L 1409 794 
L 1409 0 
L 750 0 
L 750 794 
z
M 750 3309 
L 1409 3309 
L 1409 2516 
L 750 2516 
L 750 3309 
z
" transform="scale(0.015625)"/>
    </defs>
    <use xlink:href="#DejaVuSans-47"/>
    <use xlink:href="#DejaVuSans-6c" transform="translate(77.490234 0)"/>
    <use xlink:href="#DejaVuSans-6f" transform="translate(105.273438 0)"/>
    <use xlink:href="#DejaVuSans-62" transform="translate(166.455078 0)"/>
    <use xlink:href="#DejaVuSans-61" transform="translate(229.931641 0)"/>
    <use xlink:href="#DejaVuSans-6c" transform="translate(291.210938 0)"/>
    <use xlink:href="#DejaVuSans-20" transform="translate(318.994141 0)"/>
    <use xlink:href="#DejaVuSans-46" transform="translate(350.78125 0)"/>
    <use xlink:href="#DejaVuSans-6f" transform="translate(404.675781 0)"/>
    <use xlink:href="#DejaVuSans-6c" transform="translate(465.857422 0)"/>
    <use xlink:href="#DejaVuSans-64" transform="translate(493.640625 0)"/>
    <use xlink:href="#DejaVuSans-69" transform="translate(557.117188 0)"/>
    <use xlink:href="#DejaVuSans-6e" transform="translate(584.900391 0)"/>
    <use xlink:href="#DejaVuSans-67" transform="translate(648.279297 0)"/>
    <use xlink:href="#DejaVuSans-20" transform="translate(711.755859 0)"/>
    <use xlink:href="#DejaVuSans-28" transform="translate(743.542969 0)"/>
    <use xlink:href="#DejaVuSans-3bb" transform="translate(782.556641 0)"/>
    <use xlink:href="#DejaVuSans-3d" transform="translate(841.736328 0)"/>
    <use xlink:href="#DejaVuSans-33" transform="translate(925.525391 0)"/>
    <use xlink:href="#DejaVuSans-29" transform="translate(989.148438 0)"/>
    <use xlink:href="#DejaVuSans-3a" transform="translate(1028.162109 0)"/>
    <use xlink:href="#DejaVuSans-20" transform="translate(1061.853516 0)"/>
    <use xlink:href="#DejaVuSans-55" transform="translate(1093.640625 0)"/>
    <use xlink:href="#DejaVuSans-20" transform="translate(1166.833984 0)"/>
    <use xlink:href="#DejaVuSans-55" transform="translate(1198.621094 0)"/>
    <use xlink:href="#DejaVuSans-2020" transform="translate(1271.814453 0)"/>
    <use xlink:href="#DejaVuSans-20" transform="translate(1321.814453 0)"/>
    <use xlink:href="#DejaVuSans-55" transform="translate(1353.601562 0)"/>
   </g>
  </g>
 </g>
 <defs>
  <clipPath id="pfd510ceebb">
   <rect x="7.2" y="27.36" width="620.746896" height="110.88"/>
  </clipPath>
 </defs>
</svg>
