<?xml version="1.0" encoding="utf-8" standalone="no"?>
<!DOCTYPE svg PUBLIC "-//W3C//DTD SVG 1.1//EN"
  "http://www.w3.org/Graphics/SVG/1.1/DTD/svg11.dtd">
<svg xmlns:xlink="http://www.w3.org/1999/xlink" width="1000.8pt" height="568.7175pt" viewBox="0 0 1000.8 568.7175" xmlns="http://www.w3.org/2000/svg" version="1.1">
 <metadata>
  <rdf:RDF xmlns:dc="http://purl.org/dc/elements/1.1/" xmlns:cc="http://creativecommons.org/ns#" xmlns:rdf="http://www.w3.org/1999/02/22-rdf-syntax-ns#">
   <cc:Work>
    <dc:type rdf:resource="http://purl.org/dc/dcmitype/StillImage"/>
    <dc:date>2026-02-08T16:04:25.191776</dc:date>
    <dc:format>image/svg+xml</dc:format>
    <dc:creator>
     <cc:Agent>
      <dc:title>Matplotlib v3.10.8, https://matplotlib.org/</dc:title>
     </cc:Agent>
    </dc:creator>
   </cc:Work>
  </rdf:RDF>
 </metadata>
 <defs>
  <style type="text/css">*{stroke-linejoin: round; stroke-linecap: butt}</style>
 </defs>
 <g id="figure_1">
  <g id="patch_1">
   <path d="M 0 568.7175 
L 1000.8 568.7175 
L 1000.8 0 
L 0 0 
z
" style="fill: #ffffff"/>
  </g>
  <g id="axes_1">
   <g id="patch_2">
    <path d="M 52.997143 187.302833 
L 172.774286 187.302833 
Q 186.865714 187.302833 186.865714 175.699278 
L 186.865714 123.483278 
Q 186.865714 111.879722 172.774286 111.879722 
L 52.997143 111.879722 
Q 38.905714 111.879722 38.905714 123.483278 
L 38.905714 175.699278 
Q 38.905714 187.302833 52.997143 187.302833 
z
" clip-path="url(#pc2042c2a4d)" style="fill: #e74c3c; stroke: #000000; stroke-width: 2; stroke-linejoin: miter"/>
   </g>
   <g id="patch_3">
    <path d="M 243.231429 146.690389 
L 327.78 146.690389 
Q 341.871429 146.690389 341.871429 135.086833 
L 341.871429 106.077944 
Q 341.871429 94.474389 327.78 94.474389 
L 243.231429 94.474389 
Q 229.14 94.474389 229.14 106.077944 
L 229.14 135.086833 
Q 229.14 146.690389 243.231429 146.690389 
z
" clip-path="url(#pc2042c2a4d)" style="fill: #3498db; stroke: #000000; stroke-width: 2; stroke-linejoin: miter"/>
   </g>
   <g id="patch_4">
    <path d="M 363.008571 146.690389 
L 447.557143 146.690389 
Q 461.648571 146.690389 461.648571 135.086833 
L 461.648571 106.077944 
Q 461.648571 94.474389 447.557143 94.474389 
L 363.008571 94.474389 
Q 348.917143 94.474389 348.917143 106.077944 
L 348.917143 135.086833 
Q 348.917143 146.690389 363.008571 146.690389 
z
" clip-path="url(#pc2042c2a4d)" style="fill: #3498db; stroke: #000000; stroke-width: 2; stroke-linejoin: miter"/>
   </g>
   <g id="patch_5">
    <path d="M 482.785714 146.690389 
L 567.334286 146.690389 
Q 581.425714 146.690389 581.425714 135.086833 
L 581.425714 106.077944 
Q 581.425714 94.474389 567.334286 94.474389 
L 482.785714 94.474389 
Q 468.694286 94.474389 468.694286 106.077944 
L 468.694286 135.086833 
Q 468.694286 146.690389 482.785714 146.690389 
z
" clip-path="url(#pc2042c2a4d)" style="fill: #3498db; stroke: #000000; stroke-width: 2; stroke-linejoin: miter"/>
   </g>
   <g id="patch_6">
    <path d="M 637.791429 146.690389 
L 722.34 146.690389 
Q 736.431429 146.690389 736.431429 135.086833 
L 736.431429 106.077944 
Q 736.431429 94.474389 722.34 94.474389 
L 637.791429 94.474389 
Q 623.7 94.474389 623.7 106.077944 
L 623.7 135.086833 
Q 623.7 146.690389 637.791429 146.690389 
z
" clip-path="url(#pc2042c2a4d)" style="fill: #3498db; stroke: #000000; stroke-width: 2; stroke-linejoin: miter"/>
   </g>
   <g id="patch_7">
    <path d="M 243.231429 285.933056 
L 327.78 285.933056 
Q 341.871429 285.933056 341.871429 274.3295 
L 341.871429 245.320611 
Q 341.871429 233.717056 327.78 233.717056 
L 243.231429 233.717056 
Q 229.14 233.717056 229.14 245.320611 
L 229.14 274.3295 
Q 229.14 285.933056 243.231429 285.933056 
z
" clip-path="url(#pc2042c2a4d)" style="fill: #9b59b6; stroke: #000000; stroke-width: 2; stroke-linejoin: miter"/>
   </g>
   <g id="patch_8">
    <path d="M 363.008571 285.933056 
L 447.557143 285.933056 
Q 461.648571 285.933056 461.648571 274.3295 
L 461.648571 245.320611 
Q 461.648571 233.717056 447.557143 233.717056 
L 363.008571 233.717056 
Q 348.917143 233.717056 348.917143 245.320611 
L 348.917143 274.3295 
Q 348.917143 285.933056 363.008571 285.933056 
z
" clip-path="url(#pc2042c2a4d)" style="fill: #9b59b6; stroke: #000000; stroke-width: 2; stroke-linejoin: miter"/>
   </g>
   <g id="patch_9">
    <path d="M 482.785714 285.933056 
L 567.334286 285.933056 
Q 581.425714 285.933056 581.425714 274.3295 
L 581.425714 245.320611 
Q 581.425714 233.717056 567.334286 233.717056 
L 482.785714 233.717056 
Q 468.694286 233.717056 468.694286 245.320611 
L 468.694286 274.3295 
Q 468.694286 285.933056 482.785714 285.933056 
z
" clip-path="url(#pc2042c2a4d)" style="fill: #9b59b6; stroke: #000000; stroke-width: 2; stroke-linejoin: miter"/>
   </g>
   <g id="patch_10">
    <path d="M 637.791429 285.933056 
L 722.34 285.933056 
Q 736.431429 285.933056 736.431429 274.3295 
L 736.431429 245.320611 
Q 736.431429 233.717056 722.34 233.717056 
L 637.791429 233.717056 
Q 623.7 233.717056 623.7 245.320611 
L 623.7 274.3295 
Q 623.7 285.933056 637.791429 285.933056 
z
" clip-path="url(#pc2042c2a4d)" style="fill: #9b59b6; stroke: #000000; stroke-width: 2; stroke-linejoin: miter"/>
   </g>
   <g id="patch_11">
    <path d="M 299.597143 419.373944 
L 560.288571 419.373944 
Q 574.38 419.373944 574.38 407.770389 
L 574.38 355.554389 
Q 574.38 343.950833 560.288571 343.950833 
L 299.597143 343.950833 
Q 285.505714 343.950833 285.505714 355.554389 
L 285.505714 407.770389 
Q 285.505714 419.373944 299.597143 419.373944 
z
" clip-path="url(#pc2042c2a4d)" style="fill: #34495e; stroke: #000000; stroke-width: 2; stroke-linejoin: miter"/>
   </g>
   <g id="patch_12">
    <path d="M 299.597143 535.4095 
L 560.288571 535.4095 
Q 574.38 535.4095 574.38 523.805944 
L 574.38 471.589944 
Q 574.38 459.986389 560.288571 459.986389 
L 299.597143 459.986389 
Q 285.505714 459.986389 285.505714 471.589944 
L 285.505714 523.805944 
Q 285.505714 535.4095 299.597143 535.4095 
z
" clip-path="url(#pc2042c2a4d)" style="fill: #27ae60; stroke: #000000; stroke-width: 2; stroke-linejoin: miter"/>
   </g>
   <g id="patch_13">
    <path d="M 687.111429 535.4095 
L 912.574286 535.4095 
Q 926.665714 535.4095 926.665714 523.805944 
L 926.665714 471.589944 
Q 926.665714 459.986389 912.574286 459.986389 
L 687.111429 459.986389 
Q 673.02 459.986389 673.02 471.589944 
L 673.02 523.805944 
Q 673.02 535.4095 687.111429 535.4095 
z
" clip-path="url(#pc2042c2a4d)" style="fill: #27ae60; stroke: #000000; stroke-width: 2; stroke-linejoin: miter"/>
   </g>
   <g id="text_1">
    <!-- Noisy State -->
    <g style="fill: #ffffff" transform="translate(80.430246 146.712684) scale(0.1 -0.1)">
     <defs>
      <path id="DejaVuSans-Bold-4e" d="M 588 4666 
L 1931 4666 
L 3628 1466 
L 3628 4666 
L 4769 4666 
L 4769 0 
L 3425 0 
L 1728 3200 
L 1728 0 
L 588 0 
L 588 4666 
z
" transform="scale(0.015625)"/>
      <path id="DejaVuSans-Bold-6f" d="M 2203 2784 
Q 1831 2784 1636 2517 
Q 1441 2250 1441 1747 
Q 1441 1244 1636 976 
Q 1831 709 2203 709 
Q 2569 709 2762 976 
Q 2956 1244 2956 1747 
Q 2956 2250 2762 2517 
Q 2569 2784 2203 2784 
z
M 2203 3584 
Q 3106 3584 3614 3096 
Q 4122 2609 4122 1747 
Q 4122 884 3614 396 
Q 3106 -91 2203 -91 
Q 1297 -91 786 396 
Q 275 884 275 1747 
Q 275 2609 786 3096 
Q 1297 3584 2203 3584 
z
" transform="scale(0.015625)"/>
      <path id="DejaVuSans-Bold-69" d="M 538 3500 
L 1656 3500 
L 1656 0 
L 538 0 
L 538 3500 
z
M 538 4863 
L 1656 4863 
L 1656 3950 
L 538 3950 
L 538 4863 
z
" transform="scale(0.015625)"/>
      <path id="DejaVuSans-Bold-73" d="M 3272 3391 
L 3272 2541 
Q 2913 2691 2578 2766 
Q 2244 2841 1947 2841 
Q 1628 2841 1473 2761 
Q 1319 2681 1319 2516 
Q 1319 2381 1436 2309 
Q 1553 2238 1856 2203 
L 2053 2175 
Q 2913 2066 3209 1816 
Q 3506 1566 3506 1031 
Q 3506 472 3093 190 
Q 2681 -91 1863 -91 
Q 1516 -91 1145 -36 
Q 775 19 384 128 
L 384 978 
Q 719 816 1070 734 
Q 1422 653 1784 653 
Q 2113 653 2278 743 
Q 2444 834 2444 1013 
Q 2444 1163 2330 1236 
Q 2216 1309 1875 1350 
L 1678 1375 
Q 931 1469 631 1722 
Q 331 1975 331 2491 
Q 331 3047 712 3315 
Q 1094 3584 1881 3584 
Q 2191 3584 2531 3537 
Q 2872 3491 3272 3391 
z
" transform="scale(0.015625)"/>
      <path id="DejaVuSans-Bold-79" d="M 78 3500 
L 1197 3500 
L 2138 1125 
L 2938 3500 
L 4056 3500 
L 2584 -331 
Q 2363 -916 2067 -1148 
Q 1772 -1381 1288 -1381 
L 641 -1381 
L 641 -647 
L 991 -647 
Q 1275 -647 1404 -556 
Q 1534 -466 1606 -231 
L 1638 -134 
L 78 3500 
z
" transform="scale(0.015625)"/>
      <path id="DejaVuSans-Bold-20" transform="scale(0.015625)"/>
      <path id="DejaVuSans-Bold-53" d="M 3834 4519 
L 3834 3531 
Q 3450 3703 3084 3790 
Q 2719 3878 2394 3878 
Q 1963 3878 1756 3759 
Q 1550 3641 1550 3391 
Q 1550 3203 1689 3098 
Q 1828 2994 2194 2919 
L 2706 2816 
Q 3484 2659 3812 2340 
Q 4141 2022 4141 1434 
Q 4141 663 3683 286 
Q 3225 -91 2284 -91 
Q 1841 -91 1394 -6 
Q 947 78 500 244 
L 500 1259 
Q 947 1022 1364 901 
Q 1781 781 2169 781 
Q 2563 781 2772 912 
Q 2981 1044 2981 1288 
Q 2981 1506 2839 1625 
Q 2697 1744 2272 1838 
L 1806 1941 
Q 1106 2091 782 2419 
Q 459 2747 459 3303 
Q 459 4000 909 4375 
Q 1359 4750 2203 4750 
Q 2588 4750 2994 4692 
Q 3400 4634 3834 4519 
z
" transform="scale(0.015625)"/>
      <path id="DejaVuSans-Bold-74" d="M 1759 4494 
L 1759 3500 
L 2913 3500 
L 2913 2700 
L 1759 2700 
L 1759 1216 
Q 1759 972 1856 886 
Q 1953 800 2241 800 
L 2816 800 
L 2816 0 
L 1856 0 
Q 1194 0 917 276 
Q 641 553 641 1216 
L 641 2700 
L 84 2700 
L 84 3500 
L 641 3500 
L 641 4494 
L 1759 4494 
z
" transform="scale(0.015625)"/>
      <path id="DejaVuSans-Bold-61" d="M 2106 1575 
Q 1756 1575 1579 1456 
Q 1403 1338 1403 1106 
Q 1403 894 1545 773 
Q 1688 653 1941 653 
Q 2256 653 2472 879 
Q 2688 1106 2688 1447 
L 2688 1575 
L 2106 1575 
z
M 3816 1997 
L 3816 0 
L 2688 0 
L 2688 519 
Q 2463 200 2181 54 
Q 1900 -91 1497 -91 
Q 953 -91 614 226 
Q 275 544 275 1050 
Q 275 1666 698 1953 
Q 1122 2241 2028 2241 
L 2688 2241 
L 2688 2328 
Q 2688 2594 2478 2717 
Q 2269 2841 1825 2841 
Q 1466 2841 1156 2769 
Q 847 2697 581 2553 
L 581 3406 
Q 941 3494 1303 3539 
Q 1666 3584 2028 3584 
Q 2975 3584 3395 3211 
Q 3816 2838 3816 1997 
z
" transform="scale(0.015625)"/>
      <path id="DejaVuSans-Bold-65" d="M 4031 1759 
L 4031 1441 
L 1416 1441 
Q 1456 1047 1700 850 
Q 1944 653 2381 653 
Q 2734 653 3104 758 
Q 3475 863 3866 1075 
L 3866 213 
Q 3469 63 3072 -14 
Q 2675 -91 2278 -91 
Q 1328 -91 801 392 
Q 275 875 275 1747 
Q 275 2603 792 3093 
Q 1309 3584 2216 3584 
Q 3041 3584 3536 3087 
Q 4031 2591 4031 1759 
z
M 2881 2131 
Q 2881 2450 2695 2645 
Q 2509 2841 2209 2841 
Q 1884 2841 1681 2658 
Q 1478 2475 1428 2131 
L 2881 2131 
z
" transform="scale(0.015625)"/>
     </defs>
     <use xlink:href="#DejaVuSans-Bold-4e"/>
     <use xlink:href="#DejaVuSans-Bold-6f" transform="translate(83.691406 0)"/>
     <use xlink:href="#DejaVuSans-Bold-69" transform="translate(152.392578 0)"/>
     <use xlink:href="#DejaVuSans-Bold-73" transform="translate(186.669922 0)"/>
     <use xlink:href="#DejaVuSans-Bold-79" transform="translate(246.191406 0)"/>
     <use xlink:href="#DejaVuSans-Bold-20" transform="translate(311.376953 0)"/>
     <use xlink:href="#DejaVuSans-Bold-53" transform="translate(346.191406 0)"/>
     <use xlink:href="#DejaVuSans-Bold-74" transform="translate(418.212891 0)"/>
     <use xlink:href="#DejaVuSans-Bold-61" transform="translate(466.015625 0)"/>
     <use xlink:href="#DejaVuSans-Bold-74" transform="translate(533.496094 0)"/>
     <use xlink:href="#DejaVuSans-Bold-65" transform="translate(581.298828 0)"/>
    </g>
    <!-- ρ -->
    <g style="fill: #ffffff" transform="translate(109.306808 157.988622) scale(0.1 -0.1)">
     <defs>
      <path id="DejaVuSans-Bold-3c1" d="M 1003 3013 
Q 1425 3413 1809 3500 
Q 2203 3594 2581 3594 
Q 2700 3594 2816 3584 
Q 3425 3538 3878 3069 
Q 4294 2631 4294 1747 
Q 4294 938 3878 423 
Q 3463 -91 2816 -91 
Q 2450 -91 2169 54 
Q 1888 200 1656 506 
L 1656 -1331 
L 538 -1331 
L 538 1688 
Q 538 2566 1003 3013 
z
M 2400 2772 
Q 2041 2772 1848 2508 
Q 1656 2244 1656 1747 
Q 1656 1250 1848 986 
Q 2041 722 2400 722 
Q 2759 722 2948 984 
Q 3138 1247 3138 1747 
Q 3138 2247 2948 2509 
Q 2759 2772 2400 2772 
z
" transform="scale(0.015625)"/>
     </defs>
     <use xlink:href="#DejaVuSans-Bold-3c1"/>
    </g>
   </g>
   <g id="patch_14">
    <path d="M 185.344676 149.591278 
Q 208.003049 149.591278 228.425355 149.591278 
" style="fill: none; stroke: #000000; stroke-width: 2; stroke-linecap: round"/>
    <path d="M 224.425355 147.591278 
L 228.425355 149.591278 
L 224.425355 151.591278 
" style="fill: none; stroke: #000000; stroke-width: 2; stroke-linecap: round"/>
   </g>
   <g id="text_2">
    <!-- ρ -->
    <g style="fill: #ffffff" transform="translate(281.926808 123.341764) scale(0.1 -0.1)">
     <use xlink:href="#DejaVuSans-Bold-3c1"/>
    </g>
   </g>
   <g id="text_3">
    <!-- ρ² -->
    <g style="fill: #ffffff" transform="translate(399.514107 123.341764) scale(0.1 -0.1)">
     <defs>
      <path id="DejaVuSans-Bold-b2" d="M 1288 2613 
L 2444 2613 
L 2444 2088 
L 341 2088 
L 341 2566 
L 1319 3397 
Q 1509 3563 1590 3688 
Q 1672 3813 1672 3938 
Q 1672 4094 1558 4191 
Q 1444 4288 1259 4288 
Q 1066 4288 844 4217 
Q 622 4147 359 4000 
L 359 4581 
Q 631 4666 886 4708 
Q 1141 4750 1375 4750 
Q 1869 4750 2150 4548 
Q 2431 4347 2431 4000 
Q 2431 3775 2320 3586 
Q 2209 3397 1894 3128 
L 1288 2613 
z
" transform="scale(0.015625)"/>
     </defs>
     <use xlink:href="#DejaVuSans-Bold-3c1"/>
     <use xlink:href="#DejaVuSans-Bold-b2" transform="translate(71.582031 0)"/>
    </g>
   </g>
   <g id="text_4">
    <!-- ρ³ -->
    <g style="fill: #ffffff" transform="translate(519.29125 123.341764) scale(0.1 -0.1)">
     <defs>
      <path id="DejaVuSans-Bold-b3" d="M 1850 3500 
Q 2138 3444 2297 3272 
Q 2456 3100 2456 2847 
Q 2456 2444 2147 2242 
Q 1838 2041 1209 2041 
Q 956 2041 725 2077 
Q 494 2113 281 2181 
L 281 2725 
Q 488 2613 688 2555 
Q 888 2497 1075 2497 
Q 1372 2497 1534 2597 
Q 1697 2697 1697 2881 
Q 1697 3081 1530 3176 
Q 1363 3272 1006 3272 
L 775 3272 
L 775 3700 
L 1038 3700 
Q 1344 3700 1484 3773 
Q 1625 3847 1625 4006 
Q 1625 4147 1503 4217 
Q 1381 4288 1131 4288 
Q 969 4288 776 4247 
Q 584 4206 366 4122 
L 366 4641 
Q 569 4694 805 4722 
Q 1041 4750 1313 4750 
Q 1834 4750 2111 4575 
Q 2388 4400 2388 4072 
Q 2388 3856 2247 3706 
Q 2106 3556 1850 3500 
z
" transform="scale(0.015625)"/>
     </defs>
     <use xlink:href="#DejaVuSans-Bold-3c1"/>
     <use xlink:href="#DejaVuSans-Bold-b3" transform="translate(71.582031 0)"/>
    </g>
   </g>
   <g id="text_5">
    <!-- ... -->
    <g transform="translate(591.994286 126.384167) scale(0.14 -0.14)">
     <defs>
      <path id="DejaVuSans-Bold-2e" d="M 653 1209 
L 1778 1209 
L 1778 0 
L 653 0 
L 653 1209 
z
" transform="scale(0.015625)"/>
     </defs>
     <use xlink:href="#DejaVuSans-Bold-2e"/>
     <use xlink:href="#DejaVuSans-Bold-2e" transform="translate(37.988281 0)"/>
     <use xlink:href="#DejaVuSans-Bold-2e" transform="translate(75.976562 0)"/>
    </g>
   </g>
   <g id="text_6">
    <!-- ρᵐ -->
    <g style="fill: #ffffff" transform="translate(673.168839 123.341764) scale(0.1 -0.1)">
     <defs>
      <path id="DejaVuSans-Bold-1d50" d="M 2388 3722 
Q 2522 3903 2706 4000 
Q 2891 4094 3109 4094 
Q 3491 4094 3691 3888 
Q 3888 3678 3888 3281 
L 3888 2088 
L 3178 2088 
L 3178 3109 
Q 3181 3131 3181 3156 
Q 3184 3181 3184 3228 
Q 3184 3434 3115 3528 
Q 3047 3622 2891 3622 
Q 2691 3622 2581 3475 
Q 2472 3328 2469 3050 
L 2469 2088 
L 1759 2088 
L 1759 3109 
Q 1759 3434 1696 3528 
Q 1634 3622 1472 3622 
Q 1269 3622 1159 3475 
Q 1050 3325 1050 3053 
L 1050 2088 
L 341 2088 
L 341 4047 
L 1050 4047 
L 1050 3759 
Q 1178 3928 1347 4009 
Q 1516 4094 1719 4094 
Q 1947 4094 2122 3997 
Q 2297 3900 2388 3722 
z
" transform="scale(0.015625)"/>
     </defs>
     <use xlink:href="#DejaVuSans-Bold-3c1"/>
     <use xlink:href="#DejaVuSans-Bold-1d50" transform="translate(71.582031 0)"/>
    </g>
   </g>
   <g id="text_7">
    <!-- Expanded Subspace (Power Basis) -->
    <g style="fill: #3498db" transform="translate(323.303013 79.969944) scale(0.11 -0.11)">
     <defs>
      <path id="DejaVuSans-Bold-45" d="M 588 4666 
L 3834 4666 
L 3834 3756 
L 1791 3756 
L 1791 2888 
L 3713 2888 
L 3713 1978 
L 1791 1978 
L 1791 909 
L 3903 909 
L 3903 0 
L 588 0 
L 588 4666 
z
" transform="scale(0.015625)"/>
      <path id="DejaVuSans-Bold-78" d="M 1422 1791 
L 159 3500 
L 1344 3500 
L 2059 2463 
L 2784 3500 
L 3969 3500 
L 2706 1797 
L 4031 0 
L 2847 0 
L 2059 1106 
L 1281 0 
L 97 0 
L 1422 1791 
z
" transform="scale(0.015625)"/>
      <path id="DejaVuSans-Bold-70" d="M 1656 506 
L 1656 -1331 
L 538 -1331 
L 538 3500 
L 1656 3500 
L 1656 2988 
Q 1888 3294 2169 3439 
Q 2450 3584 2816 3584 
Q 3463 3584 3878 3070 
Q 4294 2556 4294 1747 
Q 4294 938 3878 423 
Q 3463 -91 2816 -91 
Q 2450 -91 2169 54 
Q 1888 200 1656 506 
z
M 2400 2772 
Q 2041 2772 1848 2508 
Q 1656 2244 1656 1747 
Q 1656 1250 1848 986 
Q 2041 722 2400 722 
Q 2759 722 2948 984 
Q 3138 1247 3138 1747 
Q 3138 2247 2948 2509 
Q 2759 2772 2400 2772 
z
" transform="scale(0.015625)"/>
      <path id="DejaVuSans-Bold-6e" d="M 4056 2131 
L 4056 0 
L 2931 0 
L 2931 347 
L 2931 1631 
Q 2931 2084 2911 2256 
Q 2891 2428 2841 2509 
Q 2775 2619 2662 2680 
Q 2550 2741 2406 2741 
Q 2056 2741 1856 2470 
Q 1656 2200 1656 1722 
L 1656 0 
L 538 0 
L 538 3500 
L 1656 3500 
L 1656 2988 
Q 1909 3294 2193 3439 
Q 2478 3584 2822 3584 
Q 3428 3584 3742 3212 
Q 4056 2841 4056 2131 
z
" transform="scale(0.015625)"/>
      <path id="DejaVuSans-Bold-64" d="M 2919 2988 
L 2919 4863 
L 4044 4863 
L 4044 0 
L 2919 0 
L 2919 506 
Q 2688 197 2409 53 
Q 2131 -91 1766 -91 
Q 1119 -91 703 423 
Q 288 938 288 1747 
Q 288 2556 703 3070 
Q 1119 3584 1766 3584 
Q 2128 3584 2408 3439 
Q 2688 3294 2919 2988 
z
M 2181 722 
Q 2541 722 2730 984 
Q 2919 1247 2919 1747 
Q 2919 2247 2730 2509 
Q 2541 2772 2181 2772 
Q 1825 2772 1636 2509 
Q 1447 2247 1447 1747 
Q 1447 1247 1636 984 
Q 1825 722 2181 722 
z
" transform="scale(0.015625)"/>
      <path id="DejaVuSans-Bold-75" d="M 500 1363 
L 500 3500 
L 1625 3500 
L 1625 3150 
Q 1625 2866 1622 2436 
Q 1619 2006 1619 1863 
Q 1619 1441 1641 1255 
Q 1663 1069 1716 984 
Q 1784 875 1895 815 
Q 2006 756 2150 756 
Q 2500 756 2700 1025 
Q 2900 1294 2900 1772 
L 2900 3500 
L 4019 3500 
L 4019 0 
L 2900 0 
L 2900 506 
Q 2647 200 2364 54 
Q 2081 -91 1741 -91 
Q 1134 -91 817 281 
Q 500 653 500 1363 
z
" transform="scale(0.015625)"/>
      <path id="DejaVuSans-Bold-62" d="M 2400 722 
Q 2759 722 2948 984 
Q 3138 1247 3138 1747 
Q 3138 2247 2948 2509 
Q 2759 2772 2400 2772 
Q 2041 2772 1848 2508 
Q 1656 2244 1656 1747 
Q 1656 1250 1848 986 
Q 2041 722 2400 722 
z
M 1656 2988 
Q 1888 3294 2169 3439 
Q 2450 3584 2816 3584 
Q 3463 3584 3878 3070 
Q 4294 2556 4294 1747 
Q 4294 938 3878 423 
Q 3463 -91 2816 -91 
Q 2450 -91 2169 54 
Q 1888 200 1656 506 
L 1656 0 
L 538 0 
L 538 4863 
L 1656 4863 
L 1656 2988 
z
" transform="scale(0.015625)"/>
      <path id="DejaVuSans-Bold-63" d="M 3366 3391 
L 3366 2478 
Q 3138 2634 2908 2709 
Q 2678 2784 2431 2784 
Q 1963 2784 1702 2511 
Q 1441 2238 1441 1747 
Q 1441 1256 1702 982 
Q 1963 709 2431 709 
Q 2694 709 2930 787 
Q 3166 866 3366 1019 
L 3366 103 
Q 3103 6 2833 -42 
Q 2563 -91 2291 -91 
Q 1344 -91 809 395 
Q 275 881 275 1747 
Q 275 2613 809 3098 
Q 1344 3584 2291 3584 
Q 2566 3584 2833 3536 
Q 3100 3488 3366 3391 
z
" transform="scale(0.015625)"/>
      <path id="DejaVuSans-Bold-28" d="M 2413 -844 
L 1484 -844 
Q 1006 -72 778 623 
Q 550 1319 550 2003 
Q 550 2688 779 3389 
Q 1009 4091 1484 4856 
L 2413 4856 
Q 2013 4116 1813 3408 
Q 1613 2700 1613 2009 
Q 1613 1319 1811 609 
Q 2009 -100 2413 -844 
z
" transform="scale(0.015625)"/>
      <path id="DejaVuSans-Bold-50" d="M 588 4666 
L 2584 4666 
Q 3475 4666 3951 4270 
Q 4428 3875 4428 3144 
Q 4428 2409 3951 2014 
Q 3475 1619 2584 1619 
L 1791 1619 
L 1791 0 
L 588 0 
L 588 4666 
z
M 1791 3794 
L 1791 2491 
L 2456 2491 
Q 2806 2491 2997 2661 
Q 3188 2831 3188 3144 
Q 3188 3456 2997 3625 
Q 2806 3794 2456 3794 
L 1791 3794 
z
" transform="scale(0.015625)"/>
      <path id="DejaVuSans-Bold-77" d="M 225 3500 
L 1313 3500 
L 1900 1088 
L 2491 3500 
L 3425 3500 
L 4013 1113 
L 4603 3500 
L 5691 3500 
L 4769 0 
L 3547 0 
L 2956 2406 
L 2369 0 
L 1147 0 
L 225 3500 
z
" transform="scale(0.015625)"/>
      <path id="DejaVuSans-Bold-72" d="M 3138 2547 
Q 2991 2616 2845 2648 
Q 2700 2681 2553 2681 
Q 2122 2681 1889 2404 
Q 1656 2128 1656 1613 
L 1656 0 
L 538 0 
L 538 3500 
L 1656 3500 
L 1656 2925 
Q 1872 3269 2151 3426 
Q 2431 3584 2822 3584 
Q 2878 3584 2943 3579 
Q 3009 3575 3134 3559 
L 3138 2547 
z
" transform="scale(0.015625)"/>
      <path id="DejaVuSans-Bold-42" d="M 2456 2859 
Q 2741 2859 2887 2984 
Q 3034 3109 3034 3353 
Q 3034 3594 2887 3720 
Q 2741 3847 2456 3847 
L 1791 3847 
L 1791 2859 
L 2456 2859 
z
M 2497 819 
Q 2859 819 3042 972 
Q 3225 1125 3225 1434 
Q 3225 1738 3044 1889 
Q 2863 2041 2497 2041 
L 1791 2041 
L 1791 819 
L 2497 819 
z
M 3616 2497 
Q 4003 2384 4215 2081 
Q 4428 1778 4428 1338 
Q 4428 663 3972 331 
Q 3516 0 2584 0 
L 588 0 
L 588 4666 
L 2394 4666 
Q 3366 4666 3802 4372 
Q 4238 4078 4238 3431 
Q 4238 3091 4078 2852 
Q 3919 2613 3616 2497 
z
" transform="scale(0.015625)"/>
      <path id="DejaVuSans-Bold-29" d="M 513 -844 
Q 913 -100 1113 609 
Q 1313 1319 1313 2009 
Q 1313 2700 1113 3408 
Q 913 4116 513 4856 
L 1441 4856 
Q 1916 4091 2145 3389 
Q 2375 2688 2375 2003 
Q 2375 1319 2147 623 
Q 1919 -72 1441 -844 
L 513 -844 
z
" transform="scale(0.015625)"/>
     </defs>
     <use xlink:href="#DejaVuSans-Bold-45"/>
     <use xlink:href="#DejaVuSans-Bold-78" transform="translate(68.310547 0)"/>
     <use xlink:href="#DejaVuSans-Bold-70" transform="translate(132.8125 0)"/>
     <use xlink:href="#DejaVuSans-Bold-61" transform="translate(204.394531 0)"/>
     <use xlink:href="#DejaVuSans-Bold-6e" transform="translate(271.875 0)"/>
     <use xlink:href="#DejaVuSans-Bold-64" transform="translate(343.066406 0)"/>
     <use xlink:href="#DejaVuSans-Bold-65" transform="translate(414.648438 0)"/>
     <use xlink:href="#DejaVuSans-Bold-64" transform="translate(482.470703 0)"/>
     <use xlink:href="#DejaVuSans-Bold-20" transform="translate(554.052734 0)"/>
     <use xlink:href="#DejaVuSans-Bold-53" transform="translate(588.867188 0)"/>
     <use xlink:href="#DejaVuSans-Bold-75" transform="translate(660.888672 0)"/>
     <use xlink:href="#DejaVuSans-Bold-62" transform="translate(732.080078 0)"/>
     <use xlink:href="#DejaVuSans-Bold-73" transform="translate(803.662109 0)"/>
     <use xlink:href="#DejaVuSans-Bold-70" transform="translate(863.183594 0)"/>
     <use xlink:href="#DejaVuSans-Bold-61" transform="translate(934.765625 0)"/>
     <use xlink:href="#DejaVuSans-Bold-63" transform="translate(1002.246094 0)"/>
     <use xlink:href="#DejaVuSans-Bold-65" transform="translate(1061.523438 0)"/>
     <use xlink:href="#DejaVuSans-Bold-20" transform="translate(1129.345703 0)"/>
     <use xlink:href="#DejaVuSans-Bold-28" transform="translate(1164.160156 0)"/>
     <use xlink:href="#DejaVuSans-Bold-50" transform="translate(1209.863281 0)"/>
     <use xlink:href="#DejaVuSans-Bold-6f" transform="translate(1283.154297 0)"/>
     <use xlink:href="#DejaVuSans-Bold-77" transform="translate(1351.855469 0)"/>
     <use xlink:href="#DejaVuSans-Bold-65" transform="translate(1444.238281 0)"/>
     <use xlink:href="#DejaVuSans-Bold-72" transform="translate(1512.060547 0)"/>
     <use xlink:href="#DejaVuSans-Bold-20" transform="translate(1561.376953 0)"/>
     <use xlink:href="#DejaVuSans-Bold-42" transform="translate(1596.191406 0)"/>
     <use xlink:href="#DejaVuSans-Bold-61" transform="translate(1672.412109 0)"/>
     <use xlink:href="#DejaVuSans-Bold-73" transform="translate(1739.892578 0)"/>
     <use xlink:href="#DejaVuSans-Bold-69" transform="translate(1799.414062 0)"/>
     <use xlink:href="#DejaVuSans-Bold-73" transform="translate(1833.691406 0)"/>
     <use xlink:href="#DejaVuSans-Bold-29" transform="translate(1893.212891 0)"/>
    </g>
   </g>
   <g id="text_8">
    <!-- OR -->
    <g style="fill: #7f8c8d" transform="translate(420.22192 225.014389) scale(0.12 -0.12)">
     <defs>
      <path id="DejaVuSans-Bold-4f" d="M 2719 3878 
Q 2169 3878 1866 3472 
Q 1563 3066 1563 2328 
Q 1563 1594 1866 1187 
Q 2169 781 2719 781 
Q 3272 781 3575 1187 
Q 3878 1594 3878 2328 
Q 3878 3066 3575 3472 
Q 3272 3878 2719 3878 
z
M 2719 4750 
Q 3844 4750 4481 4106 
Q 5119 3463 5119 2328 
Q 5119 1197 4481 553 
Q 3844 -91 2719 -91 
Q 1597 -91 958 553 
Q 319 1197 319 2328 
Q 319 3463 958 4106 
Q 1597 4750 2719 4750 
z
" transform="scale(0.015625)"/>
      <path id="DejaVuSans-Bold-52" d="M 2297 2597 
Q 2675 2597 2839 2737 
Q 3003 2878 3003 3200 
Q 3003 3519 2839 3656 
Q 2675 3794 2297 3794 
L 1791 3794 
L 1791 2597 
L 2297 2597 
z
M 1791 1766 
L 1791 0 
L 588 0 
L 588 4666 
L 2425 4666 
Q 3347 4666 3776 4356 
Q 4206 4047 4206 3378 
Q 4206 2916 3982 2619 
Q 3759 2322 3309 2181 
Q 3556 2125 3751 1926 
Q 3947 1728 4147 1325 
L 4800 0 
L 3519 0 
L 2950 1159 
Q 2778 1509 2601 1637 
Q 2425 1766 2131 1766 
L 1791 1766 
z
" transform="scale(0.015625)"/>
     </defs>
     <use xlink:href="#DejaVuSans-Bold-4f"/>
     <use xlink:href="#DejaVuSans-Bold-52" transform="translate(85.009766 0)"/>
    </g>
   </g>
   <g id="text_9">
    <!-- ρ_λ₁ -->
    <g style="fill: #ffffff" transform="translate(274.072902 262.445368) scale(0.1 -0.1)">
     <defs>
      <path id="DejaVuSans-Bold-5f" d="M 3200 -916 
L 3200 -1509 
L 0 -1509 
L 0 -916 
L 3200 -916 
z
" transform="scale(0.015625)"/>
      <path id="DejaVuSans-Bold-3bb" d="M 1544 3188 
L 1350 3713 
Q 1263 3953 1145 4040 
Q 1028 4128 734 4128 
L 384 4128 
L 384 4863 
L 1031 4863 
Q 1600 4863 1908 4622 
Q 2216 4381 2428 3813 
L 3859 0 
L 2741 0 
L 2044 1838 
L 1309 0 
L 191 0 
L 1544 3188 
z
" transform="scale(0.015625)"/>
      <path id="DejaVuSans-Bold-2081" d="M 441 466 
L 1088 466 
L 1088 2094 
L 384 1932 
L 384 2432 
L 1100 2585 
L 1806 2585 
L 1806 466 
L 2444 466 
L 2444 -24 
L 441 -24 
L 441 466 
z
" transform="scale(0.015625)"/>
     </defs>
     <use xlink:href="#DejaVuSans-Bold-3c1"/>
     <use xlink:href="#DejaVuSans-Bold-5f" transform="translate(71.582031 0)"/>
     <use xlink:href="#DejaVuSans-Bold-3bb" transform="translate(121.582031 0)"/>
     <use xlink:href="#DejaVuSans-Bold-2081" transform="translate(184.863281 0)"/>
    </g>
   </g>
   <g id="text_10">
    <!-- ρ_λ₂ -->
    <g style="fill: #ffffff" transform="translate(393.850045 262.445368) scale(0.1 -0.1)">
     <defs>
      <path id="DejaVuSans-Bold-2082" d="M 1288 501 
L 2444 501 
L 2444 -24 
L 341 -24 
L 341 454 
L 1319 1285 
Q 1509 1451 1590 1576 
Q 1672 1701 1672 1826 
Q 1672 1982 1558 2079 
Q 1444 2176 1259 2176 
Q 1066 2176 844 2105 
Q 622 2035 359 1888 
L 359 2469 
Q 631 2554 886 2596 
Q 1141 2638 1375 2638 
Q 1869 2638 2150 2436 
Q 2431 2235 2431 1888 
Q 2431 1663 2320 1474 
Q 2209 1285 1894 1016 
L 1288 501 
z
" transform="scale(0.015625)"/>
     </defs>
     <use xlink:href="#DejaVuSans-Bold-3c1"/>
     <use xlink:href="#DejaVuSans-Bold-5f" transform="translate(71.582031 0)"/>
     <use xlink:href="#DejaVuSans-Bold-3bb" transform="translate(121.582031 0)"/>
     <use xlink:href="#DejaVuSans-Bold-2082" transform="translate(184.863281 0)"/>
    </g>
   </g>
   <g id="text_11">
    <!-- ρ_λ₃ -->
    <g style="fill: #ffffff" transform="translate(513.627188 262.445368) scale(0.1 -0.1)">
     <defs>
      <path id="DejaVuSans-Bold-2083" d="M 1850 1388 
Q 2138 1332 2297 1160 
Q 2456 988 2456 735 
Q 2456 332 2147 130 
Q 1838 -71 1209 -71 
Q 956 -71 725 -35 
Q 494 1 281 69 
L 281 613 
Q 488 501 688 443 
Q 888 385 1075 385 
Q 1372 385 1534 485 
Q 1697 585 1697 769 
Q 1697 969 1530 1064 
Q 1363 1160 1006 1160 
L 775 1160 
L 775 1588 
L 1038 1588 
Q 1344 1588 1484 1661 
Q 1625 1735 1625 1894 
Q 1625 2035 1503 2105 
Q 1381 2176 1131 2176 
Q 969 2176 776 2135 
Q 584 2094 366 2010 
L 366 2529 
Q 569 2582 805 2610 
Q 1041 2638 1313 2638 
Q 1834 2638 2111 2463 
Q 2388 2288 2388 1960 
Q 2388 1744 2247 1594 
Q 2106 1444 1850 1388 
z
" transform="scale(0.015625)"/>
     </defs>
     <use xlink:href="#DejaVuSans-Bold-3c1"/>
     <use xlink:href="#DejaVuSans-Bold-5f" transform="translate(71.582031 0)"/>
     <use xlink:href="#DejaVuSans-Bold-3bb" transform="translate(121.582031 0)"/>
     <use xlink:href="#DejaVuSans-Bold-2083" transform="translate(184.863281 0)"/>
    </g>
   </g>
   <g id="text_12">
    <!-- ... -->
    <g transform="translate(591.994286 265.626833) scale(0.14 -0.14)">
     <use xlink:href="#DejaVuSans-Bold-2e"/>
     <use xlink:href="#DejaVuSans-Bold-2e" transform="translate(37.988281 0)"/>
     <use xlink:href="#DejaVuSans-Bold-2e" transform="translate(75.976562 0)"/>
    </g>
   </g>
   <g id="text_13">
    <!-- ρ_λₖ -->
    <g style="fill: #ffffff" transform="translate(668.386027 262.445368) scale(0.1 -0.1)">
     <defs>
      <path id="DejaVuSans-Bold-2096" d="M 341 2697 
L 1047 2697 
L 1047 1216 
L 1856 1935 
L 2675 1935 
L 1600 1035 
L 2759 -24 
L 1906 -24 
L 1047 794 
L 1047 -24 
L 341 -24 
L 341 2697 
z
" transform="scale(0.015625)"/>
     </defs>
     <use xlink:href="#DejaVuSans-Bold-3c1"/>
     <use xlink:href="#DejaVuSans-Bold-5f" transform="translate(71.582031 0)"/>
     <use xlink:href="#DejaVuSans-Bold-3bb" transform="translate(121.582031 0)"/>
     <use xlink:href="#DejaVuSans-Bold-2096" transform="translate(184.863281 0)"/>
    </g>
   </g>
   <g id="text_14">
    <!-- Error-Boosted States (Noise-Scaled) -->
    <g style="fill: #9b59b6" transform="translate(317.839107 306.239278) scale(0.11 -0.11)">
     <defs>
      <path id="DejaVuSans-Bold-2d" d="M 347 2297 
L 2309 2297 
L 2309 1388 
L 347 1388 
L 347 2297 
z
" transform="scale(0.015625)"/>
      <path id="DejaVuSans-Bold-6c" d="M 538 4863 
L 1656 4863 
L 1656 0 
L 538 0 
L 538 4863 
z
" transform="scale(0.015625)"/>
     </defs>
     <use xlink:href="#DejaVuSans-Bold-45"/>
     <use xlink:href="#DejaVuSans-Bold-72" transform="translate(68.310547 0)"/>
     <use xlink:href="#DejaVuSans-Bold-72" transform="translate(117.626953 0)"/>
     <use xlink:href="#DejaVuSans-Bold-6f" transform="translate(166.943359 0)"/>
     <use xlink:href="#DejaVuSans-Bold-72" transform="translate(235.644531 0)"/>
     <use xlink:href="#DejaVuSans-Bold-2d" transform="translate(284.960938 0)"/>
     <use xlink:href="#DejaVuSans-Bold-42" transform="translate(326.464844 0)"/>
     <use xlink:href="#DejaVuSans-Bold-6f" transform="translate(402.685547 0)"/>
     <use xlink:href="#DejaVuSans-Bold-6f" transform="translate(471.386719 0)"/>
     <use xlink:href="#DejaVuSans-Bold-73" transform="translate(540.087891 0)"/>
     <use xlink:href="#DejaVuSans-Bold-74" transform="translate(599.609375 0)"/>
     <use xlink:href="#DejaVuSans-Bold-65" transform="translate(647.412109 0)"/>
     <use xlink:href="#DejaVuSans-Bold-64" transform="translate(715.234375 0)"/>
     <use xlink:href="#DejaVuSans-Bold-20" transform="translate(786.816406 0)"/>
     <use xlink:href="#DejaVuSans-Bold-53" transform="translate(821.630859 0)"/>
     <use xlink:href="#DejaVuSans-Bold-74" transform="translate(893.652344 0)"/>
     <use xlink:href="#DejaVuSans-Bold-61" transform="translate(941.455078 0)"/>
     <use xlink:href="#DejaVuSans-Bold-74" transform="translate(1008.935547 0)"/>
     <use xlink:href="#DejaVuSans-Bold-65" transform="translate(1056.738281 0)"/>
     <use xlink:href="#DejaVuSans-Bold-73" transform="translate(1124.560547 0)"/>
     <use xlink:href="#DejaVuSans-Bold-20" transform="translate(1184.082031 0)"/>
     <use xlink:href="#DejaVuSans-Bold-28" transform="translate(1218.896484 0)"/>
     <use xlink:href="#DejaVuSans-Bold-4e" transform="translate(1264.599609 0)"/>
     <use xlink:href="#DejaVuSans-Bold-6f" transform="translate(1348.291016 0)"/>
     <use xlink:href="#DejaVuSans-Bold-69" transform="translate(1416.992188 0)"/>
     <use xlink:href="#DejaVuSans-Bold-73" transform="translate(1451.269531 0)"/>
     <use xlink:href="#DejaVuSans-Bold-65" transform="translate(1510.791016 0)"/>
     <use xlink:href="#DejaVuSans-Bold-2d" transform="translate(1578.613281 0)"/>
     <use xlink:href="#DejaVuSans-Bold-53" transform="translate(1620.117188 0)"/>
     <use xlink:href="#DejaVuSans-Bold-63" transform="translate(1692.138672 0)"/>
     <use xlink:href="#DejaVuSans-Bold-61" transform="translate(1751.416016 0)"/>
     <use xlink:href="#DejaVuSans-Bold-6c" transform="translate(1818.896484 0)"/>
     <use xlink:href="#DejaVuSans-Bold-65" transform="translate(1853.173828 0)"/>
     <use xlink:href="#DejaVuSans-Bold-64" transform="translate(1920.996094 0)"/>
     <use xlink:href="#DejaVuSans-Bold-29" transform="translate(1992.578125 0)"/>
    </g>
   </g>
   <g id="patch_15">
    <path d="M 429.942857 285.032902 
Q 429.942857 312.041363 429.942857 336.813756 
" style="fill: none; stroke: #000000; stroke-width: 2; stroke-linecap: round"/>
    <path d="M 431.942857 332.813756 
L 429.942857 336.813756 
L 427.942857 332.813756 
" style="fill: none; stroke: #000000; stroke-width: 2; stroke-linecap: round"/>
   </g>
   <g id="text_15">
    <!-- Measure H_ij and S_ij -->
    <g style="fill: #ffffff" transform="translate(370.433482 378.683795) scale(0.1 -0.1)">
     <defs>
      <path id="DejaVuSans-Bold-4d" d="M 588 4666 
L 2119 4666 
L 3181 2169 
L 4250 4666 
L 5778 4666 
L 5778 0 
L 4641 0 
L 4641 3413 
L 3566 897 
L 2803 897 
L 1728 3413 
L 1728 0 
L 588 0 
L 588 4666 
z
" transform="scale(0.015625)"/>
      <path id="DejaVuSans-Bold-48" d="M 588 4666 
L 1791 4666 
L 1791 2888 
L 3566 2888 
L 3566 4666 
L 4769 4666 
L 4769 0 
L 3566 0 
L 3566 1978 
L 1791 1978 
L 1791 0 
L 588 0 
L 588 4666 
z
" transform="scale(0.015625)"/>
      <path id="DejaVuSans-Bold-6a" d="M 538 3500 
L 1656 3500 
L 1656 63 
Q 1656 -641 1318 -1011 
Q 981 -1381 341 -1381 
L -213 -1381 
L -213 -647 
L -19 -647 
Q 300 -647 419 -503 
Q 538 -359 538 63 
L 538 3500 
z
M 538 4863 
L 1656 4863 
L 1656 3950 
L 538 3950 
L 538 4863 
z
" transform="scale(0.015625)"/>
     </defs>
     <use xlink:href="#DejaVuSans-Bold-4d"/>
     <use xlink:href="#DejaVuSans-Bold-65" transform="translate(99.511719 0)"/>
     <use xlink:href="#DejaVuSans-Bold-61" transform="translate(167.333984 0)"/>
     <use xlink:href="#DejaVuSans-Bold-73" transform="translate(234.814453 0)"/>
     <use xlink:href="#DejaVuSans-Bold-75" transform="translate(294.335938 0)"/>
     <use xlink:href="#DejaVuSans-Bold-72" transform="translate(365.527344 0)"/>
     <use xlink:href="#DejaVuSans-Bold-65" transform="translate(414.84375 0)"/>
     <use xlink:href="#DejaVuSans-Bold-20" transform="translate(482.666016 0)"/>
     <use xlink:href="#DejaVuSans-Bold-48" transform="translate(517.480469 0)"/>
     <use xlink:href="#DejaVuSans-Bold-5f" transform="translate(601.171875 0)"/>
     <use xlink:href="#DejaVuSans-Bold-69" transform="translate(651.171875 0)"/>
     <use xlink:href="#DejaVuSans-Bold-6a" transform="translate(685.449219 0)"/>
     <use xlink:href="#DejaVuSans-Bold-20" transform="translate(719.726562 0)"/>
     <use xlink:href="#DejaVuSans-Bold-61" transform="translate(754.541016 0)"/>
     <use xlink:href="#DejaVuSans-Bold-6e" transform="translate(822.021484 0)"/>
     <use xlink:href="#DejaVuSans-Bold-64" transform="translate(893.212891 0)"/>
     <use xlink:href="#DejaVuSans-Bold-20" transform="translate(964.794922 0)"/>
     <use xlink:href="#DejaVuSans-Bold-53" transform="translate(999.609375 0)"/>
     <use xlink:href="#DejaVuSans-Bold-5f" transform="translate(1071.630859 0)"/>
     <use xlink:href="#DejaVuSans-Bold-69" transform="translate(1121.630859 0)"/>
     <use xlink:href="#DejaVuSans-Bold-6a" transform="translate(1155.908203 0)"/>
    </g>
    <!-- in expanded basis -->
    <g style="fill: #ffffff" transform="translate(378.891295 390.159733) scale(0.1 -0.1)">
     <use xlink:href="#DejaVuSans-Bold-69"/>
     <use xlink:href="#DejaVuSans-Bold-6e" transform="translate(34.277344 0)"/>
     <use xlink:href="#DejaVuSans-Bold-20" transform="translate(105.46875 0)"/>
     <use xlink:href="#DejaVuSans-Bold-65" transform="translate(140.283203 0)"/>
     <use xlink:href="#DejaVuSans-Bold-78" transform="translate(208.105469 0)"/>
     <use xlink:href="#DejaVuSans-Bold-70" transform="translate(272.607422 0)"/>
     <use xlink:href="#DejaVuSans-Bold-61" transform="translate(344.189453 0)"/>
     <use xlink:href="#DejaVuSans-Bold-6e" transform="translate(411.669922 0)"/>
     <use xlink:href="#DejaVuSans-Bold-64" transform="translate(482.861328 0)"/>
     <use xlink:href="#DejaVuSans-Bold-65" transform="translate(554.443359 0)"/>
     <use xlink:href="#DejaVuSans-Bold-64" transform="translate(622.265625 0)"/>
     <use xlink:href="#DejaVuSans-Bold-20" transform="translate(693.847656 0)"/>
     <use xlink:href="#DejaVuSans-Bold-62" transform="translate(728.662109 0)"/>
     <use xlink:href="#DejaVuSans-Bold-61" transform="translate(800.244141 0)"/>
     <use xlink:href="#DejaVuSans-Bold-73" transform="translate(867.724609 0)"/>
     <use xlink:href="#DejaVuSans-Bold-69" transform="translate(927.246094 0)"/>
     <use xlink:href="#DejaVuSans-Bold-73" transform="translate(961.523438 0)"/>
    </g>
   </g>
   <g id="patch_16">
    <path d="M 429.942857 418.47025 
Q 429.942857 439.67976 429.942857 458.653203 
" style="fill: none; stroke: #000000; stroke-width: 2; stroke-linecap: round"/>
    <path d="M 431.942857 454.653203 
L 429.942857 458.653203 
L 427.942857 454.653203 
" style="fill: none; stroke: #000000; stroke-width: 2; stroke-linecap: round"/>
   </g>
   <g id="text_16">
    <!-- Solve Hc = ESc -->
    <g style="fill: #ffffff" transform="translate(388.001451 494.819351) scale(0.1 -0.1)">
     <defs>
      <path id="DejaVuSans-Bold-76" d="M 97 3500 
L 1216 3500 
L 2088 1081 
L 2956 3500 
L 4078 3500 
L 2700 0 
L 1472 0 
L 97 3500 
z
" transform="scale(0.015625)"/>
      <path id="DejaVuSans-Bold-3d" d="M 678 3084 
L 4684 3084 
L 4684 2350 
L 678 2350 
L 678 3084 
z
M 678 1663 
L 4684 1663 
L 4684 922 
L 678 922 
L 678 1663 
z
" transform="scale(0.015625)"/>
     </defs>
     <use xlink:href="#DejaVuSans-Bold-53"/>
     <use xlink:href="#DejaVuSans-Bold-6f" transform="translate(72.021484 0)"/>
     <use xlink:href="#DejaVuSans-Bold-6c" transform="translate(140.722656 0)"/>
     <use xlink:href="#DejaVuSans-Bold-76" transform="translate(175 0)"/>
     <use xlink:href="#DejaVuSans-Bold-65" transform="translate(240.185547 0)"/>
     <use xlink:href="#DejaVuSans-Bold-20" transform="translate(308.007812 0)"/>
     <use xlink:href="#DejaVuSans-Bold-48" transform="translate(342.822266 0)"/>
     <use xlink:href="#DejaVuSans-Bold-63" transform="translate(426.513672 0)"/>
     <use xlink:href="#DejaVuSans-Bold-20" transform="translate(485.791016 0)"/>
     <use xlink:href="#DejaVuSans-Bold-3d" transform="translate(520.605469 0)"/>
     <use xlink:href="#DejaVuSans-Bold-20" transform="translate(604.394531 0)"/>
     <use xlink:href="#DejaVuSans-Bold-45" transform="translate(639.208984 0)"/>
     <use xlink:href="#DejaVuSans-Bold-53" transform="translate(707.519531 0)"/>
     <use xlink:href="#DejaVuSans-Bold-63" transform="translate(779.541016 0)"/>
    </g>
    <!-- (Gen. Eigenvalue) -->
    <g style="fill: #ffffff" transform="translate(379.720201 506.017163) scale(0.1 -0.1)">
     <defs>
      <path id="DejaVuSans-Bold-47" d="M 4781 347 
Q 4331 128 3847 18 
Q 3363 -91 2847 -91 
Q 1681 -91 1000 561 
Q 319 1213 319 2328 
Q 319 3456 1012 4103 
Q 1706 4750 2913 4750 
Q 3378 4750 3804 4662 
Q 4231 4575 4609 4403 
L 4609 3438 
Q 4219 3659 3833 3768 
Q 3447 3878 3059 3878 
Q 2341 3878 1952 3476 
Q 1563 3075 1563 2328 
Q 1563 1588 1938 1184 
Q 2313 781 3003 781 
Q 3191 781 3352 804 
Q 3513 828 3641 878 
L 3641 1784 
L 2906 1784 
L 2906 2591 
L 4781 2591 
L 4781 347 
z
" transform="scale(0.015625)"/>
      <path id="DejaVuSans-Bold-67" d="M 2919 594 
Q 2688 288 2409 144 
Q 2131 0 1766 0 
Q 1125 0 706 504 
Q 288 1009 288 1791 
Q 288 2575 706 3076 
Q 1125 3578 1766 3578 
Q 2131 3578 2409 3434 
Q 2688 3291 2919 2981 
L 2919 3500 
L 4044 3500 
L 4044 353 
Q 4044 -491 3511 -936 
Q 2978 -1381 1966 -1381 
Q 1638 -1381 1331 -1331 
Q 1025 -1281 716 -1178 
L 716 -306 
Q 1009 -475 1290 -558 
Q 1572 -641 1856 -641 
Q 2406 -641 2662 -400 
Q 2919 -159 2919 353 
L 2919 594 
z
M 2181 2772 
Q 1834 2772 1640 2515 
Q 1447 2259 1447 1791 
Q 1447 1309 1634 1061 
Q 1822 813 2181 813 
Q 2531 813 2725 1069 
Q 2919 1325 2919 1791 
Q 2919 2259 2725 2515 
Q 2531 2772 2181 2772 
z
" transform="scale(0.015625)"/>
     </defs>
     <use xlink:href="#DejaVuSans-Bold-28"/>
     <use xlink:href="#DejaVuSans-Bold-47" transform="translate(45.703125 0)"/>
     <use xlink:href="#DejaVuSans-Bold-65" transform="translate(127.783203 0)"/>
     <use xlink:href="#DejaVuSans-Bold-6e" transform="translate(195.605469 0)"/>
     <use xlink:href="#DejaVuSans-Bold-2e" transform="translate(266.796875 0)"/>
     <use xlink:href="#DejaVuSans-Bold-20" transform="translate(304.785156 0)"/>
     <use xlink:href="#DejaVuSans-Bold-45" transform="translate(339.599609 0)"/>
     <use xlink:href="#DejaVuSans-Bold-69" transform="translate(407.910156 0)"/>
     <use xlink:href="#DejaVuSans-Bold-67" transform="translate(442.1875 0)"/>
     <use xlink:href="#DejaVuSans-Bold-65" transform="translate(513.769531 0)"/>
     <use xlink:href="#DejaVuSans-Bold-6e" transform="translate(581.591797 0)"/>
     <use xlink:href="#DejaVuSans-Bold-76" transform="translate(652.783203 0)"/>
     <use xlink:href="#DejaVuSans-Bold-61" transform="translate(717.96875 0)"/>
     <use xlink:href="#DejaVuSans-Bold-6c" transform="translate(785.449219 0)"/>
     <use xlink:href="#DejaVuSans-Bold-75" transform="translate(819.726562 0)"/>
     <use xlink:href="#DejaVuSans-Bold-65" transform="translate(890.917969 0)"/>
     <use xlink:href="#DejaVuSans-Bold-29" transform="translate(958.740234 0)"/>
    </g>
   </g>
   <g id="patch_17">
    <path d="M 572.860037 497.697944 
Q 623.699994 497.697944 672.303883 497.697944 
" style="fill: none; stroke: #000000; stroke-width: 2; stroke-linecap: round"/>
    <path d="M 668.303883 495.697944 
L 672.303883 497.697944 
L 668.303883 499.697944 
" style="fill: none; stroke: #000000; stroke-width: 2; stroke-linecap: round"/>
   </g>
   <g id="text_17">
    <!-- Error-Mitigated -->
    <g style="fill: #ffffff" transform="translate(756.41317 494.780288) scale(0.1 -0.1)">
     <use xlink:href="#DejaVuSans-Bold-45"/>
     <use xlink:href="#DejaVuSans-Bold-72" transform="translate(68.310547 0)"/>
     <use xlink:href="#DejaVuSans-Bold-72" transform="translate(117.626953 0)"/>
     <use xlink:href="#DejaVuSans-Bold-6f" transform="translate(166.943359 0)"/>
     <use xlink:href="#DejaVuSans-Bold-72" transform="translate(235.644531 0)"/>
     <use xlink:href="#DejaVuSans-Bold-2d" transform="translate(284.960938 0)"/>
     <use xlink:href="#DejaVuSans-Bold-4d" transform="translate(326.464844 0)"/>
     <use xlink:href="#DejaVuSans-Bold-69" transform="translate(425.976562 0)"/>
     <use xlink:href="#DejaVuSans-Bold-74" transform="translate(460.253906 0)"/>
     <use xlink:href="#DejaVuSans-Bold-69" transform="translate(508.056641 0)"/>
     <use xlink:href="#DejaVuSans-Bold-67" transform="translate(542.333984 0)"/>
     <use xlink:href="#DejaVuSans-Bold-61" transform="translate(613.916016 0)"/>
     <use xlink:href="#DejaVuSans-Bold-74" transform="translate(681.396484 0)"/>
     <use xlink:href="#DejaVuSans-Bold-65" transform="translate(729.199219 0)"/>
     <use xlink:href="#DejaVuSans-Bold-64" transform="translate(797.021484 0)"/>
    </g>
    <!-- Energy E -->
    <g style="fill: #ffffff" transform="translate(775.016295 506.056226) scale(0.1 -0.1)">
     <use xlink:href="#DejaVuSans-Bold-45"/>
     <use xlink:href="#DejaVuSans-Bold-6e" transform="translate(68.310547 0)"/>
     <use xlink:href="#DejaVuSans-Bold-65" transform="translate(139.501953 0)"/>
     <use xlink:href="#DejaVuSans-Bold-72" transform="translate(207.324219 0)"/>
     <use xlink:href="#DejaVuSans-Bold-67" transform="translate(256.640625 0)"/>
     <use xlink:href="#DejaVuSans-Bold-79" transform="translate(328.222656 0)"/>
     <use xlink:href="#DejaVuSans-Bold-20" transform="translate(393.408203 0)"/>
     <use xlink:href="#DejaVuSans-Bold-45" transform="translate(428.222656 0)"/>
    </g>
   </g>
   <g id="text_18">
    <g id="patch_18">
     <path d="M 747 392.035885 
L 827.164688 392.035885 
Q 829.864687 392.035885 829.864687 389.335885 
L 829.864687 370.547542 
Q 829.864687 367.847542 827.164688 367.847542 
L 747 367.847542 
Q 744.3 367.847542 744.3 370.547542 
L 744.3 389.335885 
Q 744.3 392.035885 747 392.035885 
z
" style="fill: #f5f5f5; stroke: #2c3e50; stroke-linejoin: miter"/>
    </g>
    <!-- Unifies QSE + -->
    <g style="fill: #2c3e50" transform="translate(747 377.386135) scale(0.09 -0.09)">
     <defs>
      <path id="DejaVuSans-55" d="M 556 4666 
L 1191 4666 
L 1191 1831 
Q 1191 1081 1462 751 
Q 1734 422 2344 422 
Q 2950 422 3222 751 
Q 3494 1081 3494 1831 
L 3494 4666 
L 4128 4666 
L 4128 1753 
Q 4128 841 3676 375 
Q 3225 -91 2344 -91 
Q 1459 -91 1007 375 
Q 556 841 556 1753 
L 556 4666 
z
" transform="scale(0.015625)"/>
      <path id="DejaVuSans-6e" d="M 3513 2113 
L 3513 0 
L 2938 0 
L 2938 2094 
Q 2938 2591 2744 2837 
Q 2550 3084 2163 3084 
Q 1697 3084 1428 2787 
Q 1159 2491 1159 1978 
L 1159 0 
L 581 0 
L 581 3500 
L 1159 3500 
L 1159 2956 
Q 1366 3272 1645 3428 
Q 1925 3584 2291 3584 
Q 2894 3584 3203 3211 
Q 3513 2838 3513 2113 
z
" transform="scale(0.015625)"/>
      <path id="DejaVuSans-69" d="M 603 3500 
L 1178 3500 
L 1178 0 
L 603 0 
L 603 3500 
z
M 603 4863 
L 1178 4863 
L 1178 4134 
L 603 4134 
L 603 4863 
z
" transform="scale(0.015625)"/>
      <path id="DejaVuSans-66" d="M 2375 4863 
L 2375 4384 
L 1825 4384 
Q 1516 4384 1395 4259 
Q 1275 4134 1275 3809 
L 1275 3500 
L 2222 3500 
L 2222 3053 
L 1275 3053 
L 1275 0 
L 697 0 
L 697 3053 
L 147 3053 
L 147 3500 
L 697 3500 
L 697 3744 
Q 697 4328 969 4595 
Q 1241 4863 1831 4863 
L 2375 4863 
z
" transform="scale(0.015625)"/>
      <path id="DejaVuSans-65" d="M 3597 1894 
L 3597 1613 
L 953 1613 
Q 991 1019 1311 708 
Q 1631 397 2203 397 
Q 2534 397 2845 478 
Q 3156 559 3463 722 
L 3463 178 
Q 3153 47 2828 -22 
Q 2503 -91 2169 -91 
Q 1331 -91 842 396 
Q 353 884 353 1716 
Q 353 2575 817 3079 
Q 1281 3584 2069 3584 
Q 2775 3584 3186 3129 
Q 3597 2675 3597 1894 
z
M 3022 2063 
Q 3016 2534 2758 2815 
Q 2500 3097 2075 3097 
Q 1594 3097 1305 2825 
Q 1016 2553 972 2059 
L 3022 2063 
z
" transform="scale(0.015625)"/>
      <path id="DejaVuSans-73" d="M 2834 3397 
L 2834 2853 
Q 2591 2978 2328 3040 
Q 2066 3103 1784 3103 
Q 1356 3103 1142 2972 
Q 928 2841 928 2578 
Q 928 2378 1081 2264 
Q 1234 2150 1697 2047 
L 1894 2003 
Q 2506 1872 2764 1633 
Q 3022 1394 3022 966 
Q 3022 478 2636 193 
Q 2250 -91 1575 -91 
Q 1294 -91 989 -36 
Q 684 19 347 128 
L 347 722 
Q 666 556 975 473 
Q 1284 391 1588 391 
Q 1994 391 2212 530 
Q 2431 669 2431 922 
Q 2431 1156 2273 1281 
Q 2116 1406 1581 1522 
L 1381 1569 
Q 847 1681 609 1914 
Q 372 2147 372 2553 
Q 372 3047 722 3315 
Q 1072 3584 1716 3584 
Q 2034 3584 2315 3537 
Q 2597 3491 2834 3397 
z
" transform="scale(0.015625)"/>
      <path id="DejaVuSans-20" transform="scale(0.015625)"/>
      <path id="DejaVuSans-51" d="M 2522 4238 
Q 1834 4238 1429 3725 
Q 1025 3213 1025 2328 
Q 1025 1447 1429 934 
Q 1834 422 2522 422 
Q 3209 422 3611 934 
Q 4013 1447 4013 2328 
Q 4013 3213 3611 3725 
Q 3209 4238 2522 4238 
z
M 3406 84 
L 4238 -825 
L 3475 -825 
L 2784 -78 
Q 2681 -84 2626 -87 
Q 2572 -91 2522 -91 
Q 1538 -91 948 567 
Q 359 1225 359 2328 
Q 359 3434 948 4092 
Q 1538 4750 2522 4750 
Q 3503 4750 4090 4092 
Q 4678 3434 4678 2328 
Q 4678 1516 4351 937 
Q 4025 359 3406 84 
z
" transform="scale(0.015625)"/>
      <path id="DejaVuSans-53" d="M 3425 4513 
L 3425 3897 
Q 3066 4069 2747 4153 
Q 2428 4238 2131 4238 
Q 1616 4238 1336 4038 
Q 1056 3838 1056 3469 
Q 1056 3159 1242 3001 
Q 1428 2844 1947 2747 
L 2328 2669 
Q 3034 2534 3370 2195 
Q 3706 1856 3706 1288 
Q 3706 609 3251 259 
Q 2797 -91 1919 -91 
Q 1588 -91 1214 -16 
Q 841 59 441 206 
L 441 856 
Q 825 641 1194 531 
Q 1563 422 1919 422 
Q 2459 422 2753 634 
Q 3047 847 3047 1241 
Q 3047 1584 2836 1778 
Q 2625 1972 2144 2069 
L 1759 2144 
Q 1053 2284 737 2584 
Q 422 2884 422 3419 
Q 422 4038 858 4394 
Q 1294 4750 2059 4750 
Q 2388 4750 2728 4690 
Q 3069 4631 3425 4513 
z
" transform="scale(0.015625)"/>
      <path id="DejaVuSans-45" d="M 628 4666 
L 3578 4666 
L 3578 4134 
L 1259 4134 
L 1259 2753 
L 3481 2753 
L 3481 2222 
L 1259 2222 
L 1259 531 
L 3634 531 
L 3634 0 
L 628 0 
L 628 4666 
z
" transform="scale(0.015625)"/>
      <path id="DejaVuSans-2b" d="M 2944 4013 
L 2944 2272 
L 4684 2272 
L 4684 1741 
L 2944 1741 
L 2944 0 
L 2419 0 
L 2419 1741 
L 678 1741 
L 678 2272 
L 2419 2272 
L 2419 4013 
L 2944 4013 
z
" transform="scale(0.015625)"/>
     </defs>
     <use xlink:href="#DejaVuSans-55"/>
     <use xlink:href="#DejaVuSans-6e" transform="translate(73.193359 0)"/>
     <use xlink:href="#DejaVuSans-69" transform="translate(136.572266 0)"/>
     <use xlink:href="#DejaVuSans-66" transform="translate(164.355469 0)"/>
     <use xlink:href="#DejaVuSans-69" transform="translate(199.560547 0)"/>
     <use xlink:href="#DejaVuSans-65" transform="translate(227.34375 0)"/>
     <use xlink:href="#DejaVuSans-73" transform="translate(288.867188 0)"/>
     <use xlink:href="#DejaVuSans-20" transform="translate(340.966797 0)"/>
     <use xlink:href="#DejaVuSans-51" transform="translate(372.753906 0)"/>
     <use xlink:href="#DejaVuSans-53" transform="translate(451.464844 0)"/>
     <use xlink:href="#DejaVuSans-45" transform="translate(514.941406 0)"/>
     <use xlink:href="#DejaVuSans-20" transform="translate(578.125 0)"/>
     <use xlink:href="#DejaVuSans-2b" transform="translate(609.912109 0)"/>
    </g>
    <!-- Virtual Distillation -->
    <g style="fill: #2c3e50" transform="translate(747 387.464167) scale(0.09 -0.09)">
     <defs>
      <path id="DejaVuSans-56" d="M 1831 0 
L 50 4666 
L 709 4666 
L 2188 738 
L 3669 4666 
L 4325 4666 
L 2547 0 
L 1831 0 
z
" transform="scale(0.015625)"/>
      <path id="DejaVuSans-72" d="M 2631 2963 
Q 2534 3019 2420 3045 
Q 2306 3072 2169 3072 
Q 1681 3072 1420 2755 
Q 1159 2438 1159 1844 
L 1159 0 
L 581 0 
L 581 3500 
L 1159 3500 
L 1159 2956 
Q 1341 3275 1631 3429 
Q 1922 3584 2338 3584 
Q 2397 3584 2469 3576 
Q 2541 3569 2628 3553 
L 2631 2963 
z
" transform="scale(0.015625)"/>
      <path id="DejaVuSans-74" d="M 1172 4494 
L 1172 3500 
L 2356 3500 
L 2356 3053 
L 1172 3053 
L 1172 1153 
Q 1172 725 1289 603 
Q 1406 481 1766 481 
L 2356 481 
L 2356 0 
L 1766 0 
Q 1100 0 847 248 
Q 594 497 594 1153 
L 594 3053 
L 172 3053 
L 172 3500 
L 594 3500 
L 594 4494 
L 1172 4494 
z
" transform="scale(0.015625)"/>
      <path id="DejaVuSans-75" d="M 544 1381 
L 544 3500 
L 1119 3500 
L 1119 1403 
Q 1119 906 1312 657 
Q 1506 409 1894 409 
Q 2359 409 2629 706 
Q 2900 1003 2900 1516 
L 2900 3500 
L 3475 3500 
L 3475 0 
L 2900 0 
L 2900 538 
Q 2691 219 2414 64 
Q 2138 -91 1772 -91 
Q 1169 -91 856 284 
Q 544 659 544 1381 
z
M 1991 3584 
L 1991 3584 
z
" transform="scale(0.015625)"/>
      <path id="DejaVuSans-61" d="M 2194 1759 
Q 1497 1759 1228 1600 
Q 959 1441 959 1056 
Q 959 750 1161 570 
Q 1363 391 1709 391 
Q 2188 391 2477 730 
Q 2766 1069 2766 1631 
L 2766 1759 
L 2194 1759 
z
M 3341 1997 
L 3341 0 
L 2766 0 
L 2766 531 
Q 2569 213 2275 61 
Q 1981 -91 1556 -91 
Q 1019 -91 701 211 
Q 384 513 384 1019 
Q 384 1609 779 1909 
Q 1175 2209 1959 2209 
L 2766 2209 
L 2766 2266 
Q 2766 2663 2505 2880 
Q 2244 3097 1772 3097 
Q 1472 3097 1187 3025 
Q 903 2953 641 2809 
L 641 3341 
Q 956 3463 1253 3523 
Q 1550 3584 1831 3584 
Q 2591 3584 2966 3190 
Q 3341 2797 3341 1997 
z
" transform="scale(0.015625)"/>
      <path id="DejaVuSans-6c" d="M 603 4863 
L 1178 4863 
L 1178 0 
L 603 0 
L 603 4863 
z
" transform="scale(0.015625)"/>
      <path id="DejaVuSans-44" d="M 1259 4147 
L 1259 519 
L 2022 519 
Q 2988 519 3436 956 
Q 3884 1394 3884 2338 
Q 3884 3275 3436 3711 
Q 2988 4147 2022 4147 
L 1259 4147 
z
M 628 4666 
L 1925 4666 
Q 3281 4666 3915 4102 
Q 4550 3538 4550 2338 
Q 4550 1131 3912 565 
Q 3275 0 1925 0 
L 628 0 
L 628 4666 
z
" transform="scale(0.015625)"/>
      <path id="DejaVuSans-6f" d="M 1959 3097 
Q 1497 3097 1228 2736 
Q 959 2375 959 1747 
Q 959 1119 1226 758 
Q 1494 397 1959 397 
Q 2419 397 2687 759 
Q 2956 1122 2956 1747 
Q 2956 2369 2687 2733 
Q 2419 3097 1959 3097 
z
M 1959 3584 
Q 2709 3584 3137 3096 
Q 3566 2609 3566 1747 
Q 3566 888 3137 398 
Q 2709 -91 1959 -91 
Q 1206 -91 779 398 
Q 353 888 353 1747 
Q 353 2609 779 3096 
Q 1206 3584 1959 3584 
z
" transform="scale(0.015625)"/>
     </defs>
     <use xlink:href="#DejaVuSans-56"/>
     <use xlink:href="#DejaVuSans-69" transform="translate(66.158203 0)"/>
     <use xlink:href="#DejaVuSans-72" transform="translate(93.941406 0)"/>
     <use xlink:href="#DejaVuSans-74" transform="translate(135.054688 0)"/>
     <use xlink:href="#DejaVuSans-75" transform="translate(174.263672 0)"/>
     <use xlink:href="#DejaVuSans-61" transform="translate(237.642578 0)"/>
     <use xlink:href="#DejaVuSans-6c" transform="translate(298.921875 0)"/>
     <use xlink:href="#DejaVuSans-20" transform="translate(326.705078 0)"/>
     <use xlink:href="#DejaVuSans-44" transform="translate(358.492188 0)"/>
     <use xlink:href="#DejaVuSans-69" transform="translate(435.494141 0)"/>
     <use xlink:href="#DejaVuSans-73" transform="translate(463.277344 0)"/>
     <use xlink:href="#DejaVuSans-74" transform="translate(515.376953 0)"/>
     <use xlink:href="#DejaVuSans-69" transform="translate(554.585938 0)"/>
     <use xlink:href="#DejaVuSans-6c" transform="translate(582.369141 0)"/>
     <use xlink:href="#DejaVuSans-6c" transform="translate(610.152344 0)"/>
     <use xlink:href="#DejaVuSans-61" transform="translate(637.935547 0)"/>
     <use xlink:href="#DejaVuSans-74" transform="translate(699.214844 0)"/>
     <use xlink:href="#DejaVuSans-69" transform="translate(738.423828 0)"/>
     <use xlink:href="#DejaVuSans-6f" transform="translate(766.207031 0)"/>
     <use xlink:href="#DejaVuSans-6e" transform="translate(827.388672 0)"/>
    </g>
   </g>
   <g id="text_19">
    <g id="patch_19">
     <path d="M 747 450.053663 
L 856.702969 450.053663 
Q 859.402969 450.053663 859.402969 447.353663 
L 859.402969 428.565319 
Q 859.402969 425.865319 856.702969 425.865319 
L 747 425.865319 
Q 744.3 425.865319 744.3 428.565319 
L 744.3 447.353663 
Q 744.3 450.053663 747 450.053663 
z
" style="fill: #e8f8f5; stroke: #27ae60; stroke-linejoin: miter"/>
    </g>
    <!-- Handles coherent + -->
    <g style="fill: #27ae60" transform="translate(747 435.403913) scale(0.09 -0.09)">
     <defs>
      <path id="DejaVuSans-48" d="M 628 4666 
L 1259 4666 
L 1259 2753 
L 3553 2753 
L 3553 4666 
L 4184 4666 
L 4184 0 
L 3553 0 
L 3553 2222 
L 1259 2222 
L 1259 0 
L 628 0 
L 628 4666 
z
" transform="scale(0.015625)"/>
      <path id="DejaVuSans-64" d="M 2906 2969 
L 2906 4863 
L 3481 4863 
L 3481 0 
L 2906 0 
L 2906 525 
Q 2725 213 2448 61 
Q 2172 -91 1784 -91 
Q 1150 -91 751 415 
Q 353 922 353 1747 
Q 353 2572 751 3078 
Q 1150 3584 1784 3584 
Q 2172 3584 2448 3432 
Q 2725 3281 2906 2969 
z
M 947 1747 
Q 947 1113 1208 752 
Q 1469 391 1925 391 
Q 2381 391 2643 752 
Q 2906 1113 2906 1747 
Q 2906 2381 2643 2742 
Q 2381 3103 1925 3103 
Q 1469 3103 1208 2742 
Q 947 2381 947 1747 
z
" transform="scale(0.015625)"/>
      <path id="DejaVuSans-63" d="M 3122 3366 
L 3122 2828 
Q 2878 2963 2633 3030 
Q 2388 3097 2138 3097 
Q 1578 3097 1268 2742 
Q 959 2388 959 1747 
Q 959 1106 1268 751 
Q 1578 397 2138 397 
Q 2388 397 2633 464 
Q 2878 531 3122 666 
L 3122 134 
Q 2881 22 2623 -34 
Q 2366 -91 2075 -91 
Q 1284 -91 818 406 
Q 353 903 353 1747 
Q 353 2603 823 3093 
Q 1294 3584 2113 3584 
Q 2378 3584 2631 3529 
Q 2884 3475 3122 3366 
z
" transform="scale(0.015625)"/>
      <path id="DejaVuSans-68" d="M 3513 2113 
L 3513 0 
L 2938 0 
L 2938 2094 
Q 2938 2591 2744 2837 
Q 2550 3084 2163 3084 
Q 1697 3084 1428 2787 
Q 1159 2491 1159 1978 
L 1159 0 
L 581 0 
L 581 4863 
L 1159 4863 
L 1159 2956 
Q 1366 3272 1645 3428 
Q 1925 3584 2291 3584 
Q 2894 3584 3203 3211 
Q 3513 2838 3513 2113 
z
" transform="scale(0.015625)"/>
     </defs>
     <use xlink:href="#DejaVuSans-48"/>
     <use xlink:href="#DejaVuSans-61" transform="translate(75.195312 0)"/>
     <use xlink:href="#DejaVuSans-6e" transform="translate(136.474609 0)"/>
     <use xlink:href="#DejaVuSans-64" transform="translate(199.853516 0)"/>
     <use xlink:href="#DejaVuSans-6c" transform="translate(263.330078 0)"/>
     <use xlink:href="#DejaVuSans-65" transform="translate(291.113281 0)"/>
     <use xlink:href="#DejaVuSans-73" transform="translate(352.636719 0)"/>
     <use xlink:href="#DejaVuSans-20" transform="translate(404.736328 0)"/>
     <use xlink:href="#DejaVuSans-63" transform="translate(436.523438 0)"/>
     <use xlink:href="#DejaVuSans-6f" transform="translate(491.503906 0)"/>
     <use xlink:href="#DejaVuSans-68" transform="translate(552.685547 0)"/>
     <use xlink:href="#DejaVuSans-65" transform="translate(616.064453 0)"/>
     <use xlink:href="#DejaVuSans-72" transform="translate(677.587891 0)"/>
     <use xlink:href="#DejaVuSans-65" transform="translate(716.451172 0)"/>
     <use xlink:href="#DejaVuSans-6e" transform="translate(777.974609 0)"/>
     <use xlink:href="#DejaVuSans-74" transform="translate(841.353516 0)"/>
     <use xlink:href="#DejaVuSans-20" transform="translate(880.5625 0)"/>
     <use xlink:href="#DejaVuSans-2b" transform="translate(912.349609 0)"/>
    </g>
    <!-- stochastic + algorithmic -->
    <g style="fill: #27ae60" transform="translate(747 445.481944) scale(0.09 -0.09)">
     <defs>
      <path id="DejaVuSans-67" d="M 2906 1791 
Q 2906 2416 2648 2759 
Q 2391 3103 1925 3103 
Q 1463 3103 1205 2759 
Q 947 2416 947 1791 
Q 947 1169 1205 825 
Q 1463 481 1925 481 
Q 2391 481 2648 825 
Q 2906 1169 2906 1791 
z
M 3481 434 
Q 3481 -459 3084 -895 
Q 2688 -1331 1869 -1331 
Q 1566 -1331 1297 -1286 
Q 1028 -1241 775 -1147 
L 775 -588 
Q 1028 -725 1275 -790 
Q 1522 -856 1778 -856 
Q 2344 -856 2625 -561 
Q 2906 -266 2906 331 
L 2906 616 
Q 2728 306 2450 153 
Q 2172 0 1784 0 
Q 1141 0 747 490 
Q 353 981 353 1791 
Q 353 2603 747 3093 
Q 1141 3584 1784 3584 
Q 2172 3584 2450 3431 
Q 2728 3278 2906 2969 
L 2906 3500 
L 3481 3500 
L 3481 434 
z
" transform="scale(0.015625)"/>
      <path id="DejaVuSans-6d" d="M 3328 2828 
Q 3544 3216 3844 3400 
Q 4144 3584 4550 3584 
Q 5097 3584 5394 3201 
Q 5691 2819 5691 2113 
L 5691 0 
L 5113 0 
L 5113 2094 
Q 5113 2597 4934 2840 
Q 4756 3084 4391 3084 
Q 3944 3084 3684 2787 
Q 3425 2491 3425 1978 
L 3425 0 
L 2847 0 
L 2847 2094 
Q 2847 2600 2669 2842 
Q 2491 3084 2119 3084 
Q 1678 3084 1418 2786 
Q 1159 2488 1159 1978 
L 1159 0 
L 581 0 
L 581 3500 
L 1159 3500 
L 1159 2956 
Q 1356 3278 1631 3431 
Q 1906 3584 2284 3584 
Q 2666 3584 2933 3390 
Q 3200 3197 3328 2828 
z
" transform="scale(0.015625)"/>
     </defs>
     <use xlink:href="#DejaVuSans-73"/>
     <use xlink:href="#DejaVuSans-74" transform="translate(52.099609 0)"/>
     <use xlink:href="#DejaVuSans-6f" transform="translate(91.308594 0)"/>
     <use xlink:href="#DejaVuSans-63" transform="translate(152.490234 0)"/>
     <use xlink:href="#DejaVuSans-68" transform="translate(207.470703 0)"/>
     <use xlink:href="#DejaVuSans-61" transform="translate(270.849609 0)"/>
     <use xlink:href="#DejaVuSans-73" transform="translate(332.128906 0)"/>
     <use xlink:href="#DejaVuSans-74" transform="translate(384.228516 0)"/>
     <use xlink:href="#DejaVuSans-69" transform="translate(423.4375 0)"/>
     <use xlink:href="#DejaVuSans-63" transform="translate(451.220703 0)"/>
     <use xlink:href="#DejaVuSans-20" transform="translate(506.201172 0)"/>
     <use xlink:href="#DejaVuSans-2b" transform="translate(537.988281 0)"/>
     <use xlink:href="#DejaVuSans-20" transform="translate(621.777344 0)"/>
     <use xlink:href="#DejaVuSans-61" transform="translate(653.564453 0)"/>
     <use xlink:href="#DejaVuSans-6c" transform="translate(714.84375 0)"/>
     <use xlink:href="#DejaVuSans-67" transform="translate(742.626953 0)"/>
     <use xlink:href="#DejaVuSans-6f" transform="translate(806.103516 0)"/>
     <use xlink:href="#DejaVuSans-72" transform="translate(867.285156 0)"/>
     <use xlink:href="#DejaVuSans-69" transform="translate(908.398438 0)"/>
     <use xlink:href="#DejaVuSans-74" transform="translate(936.181641 0)"/>
     <use xlink:href="#DejaVuSans-68" transform="translate(975.390625 0)"/>
     <use xlink:href="#DejaVuSans-6d" transform="translate(1038.769531 0)"/>
     <use xlink:href="#DejaVuSans-69" transform="translate(1136.181641 0)"/>
     <use xlink:href="#DejaVuSans-63" transform="translate(1163.964844 0)"/>
    </g>
   </g>
   <g id="text_20">
    <!-- Generalized Subspace Expansion (GSE) -->
    <g transform="translate(323.81125 19.3575) scale(0.16 -0.16)">
     <defs>
      <path id="DejaVuSans-Bold-7a" d="M 366 3500 
L 3419 3500 
L 3419 2719 
L 1575 800 
L 3419 800 
L 3419 0 
L 288 0 
L 288 781 
L 2131 2700 
L 366 2700 
L 366 3500 
z
" transform="scale(0.015625)"/>
     </defs>
     <use xlink:href="#DejaVuSans-Bold-47"/>
     <use xlink:href="#DejaVuSans-Bold-65" transform="translate(82.080078 0)"/>
     <use xlink:href="#DejaVuSans-Bold-6e" transform="translate(149.902344 0)"/>
     <use xlink:href="#DejaVuSans-Bold-65" transform="translate(221.09375 0)"/>
     <use xlink:href="#DejaVuSans-Bold-72" transform="translate(288.916016 0)"/>
     <use xlink:href="#DejaVuSans-Bold-61" transform="translate(338.232422 0)"/>
     <use xlink:href="#DejaVuSans-Bold-6c" transform="translate(405.712891 0)"/>
     <use xlink:href="#DejaVuSans-Bold-69" transform="translate(439.990234 0)"/>
     <use xlink:href="#DejaVuSans-Bold-7a" transform="translate(474.267578 0)"/>
     <use xlink:href="#DejaVuSans-Bold-65" transform="translate(532.470703 0)"/>
     <use xlink:href="#DejaVuSans-Bold-64" transform="translate(600.292969 0)"/>
     <use xlink:href="#DejaVuSans-Bold-20" transform="translate(671.875 0)"/>
     <use xlink:href="#DejaVuSans-Bold-53" transform="translate(706.689453 0)"/>
     <use xlink:href="#DejaVuSans-Bold-75" transform="translate(778.710938 0)"/>
     <use xlink:href="#DejaVuSans-Bold-62" transform="translate(849.902344 0)"/>
     <use xlink:href="#DejaVuSans-Bold-73" transform="translate(921.484375 0)"/>
     <use xlink:href="#DejaVuSans-Bold-70" transform="translate(981.005859 0)"/>
     <use xlink:href="#DejaVuSans-Bold-61" transform="translate(1052.587891 0)"/>
     <use xlink:href="#DejaVuSans-Bold-63" transform="translate(1120.068359 0)"/>
     <use xlink:href="#DejaVuSans-Bold-65" transform="translate(1179.345703 0)"/>
     <use xlink:href="#DejaVuSans-Bold-20" transform="translate(1247.167969 0)"/>
     <use xlink:href="#DejaVuSans-Bold-45" transform="translate(1281.982422 0)"/>
     <use xlink:href="#DejaVuSans-Bold-78" transform="translate(1350.292969 0)"/>
     <use xlink:href="#DejaVuSans-Bold-70" transform="translate(1414.794922 0)"/>
     <use xlink:href="#DejaVuSans-Bold-61" transform="translate(1486.376953 0)"/>
     <use xlink:href="#DejaVuSans-Bold-6e" transform="translate(1553.857422 0)"/>
     <use xlink:href="#DejaVuSans-Bold-73" transform="translate(1625.048828 0)"/>
     <use xlink:href="#DejaVuSans-Bold-69" transform="translate(1684.570312 0)"/>
     <use xlink:href="#DejaVuSans-Bold-6f" transform="translate(1718.847656 0)"/>
     <use xlink:href="#DejaVuSans-Bold-6e" transform="translate(1787.548828 0)"/>
     <use xlink:href="#DejaVuSans-Bold-20" transform="translate(1858.740234 0)"/>
     <use xlink:href="#DejaVuSans-Bold-28" transform="translate(1893.554688 0)"/>
     <use xlink:href="#DejaVuSans-Bold-47" transform="translate(1939.257812 0)"/>
     <use xlink:href="#DejaVuSans-Bold-53" transform="translate(2021.337891 0)"/>
     <use xlink:href="#DejaVuSans-Bold-45" transform="translate(2093.359375 0)"/>
     <use xlink:href="#DejaVuSans-Bold-29" transform="translate(2161.669922 0)"/>
    </g>
   </g>
  </g>
 </g>
 <defs>
  <clipPath id="pc2042c2a4d">
   <rect x="7.2" y="39.3575" width="986.4" height="522.16"/>
  </clipPath>
 </defs>
</svg>
