<?xml version="1.0" encoding="utf-8" standalone="no"?>
<!DOCTYPE svg PUBLIC "-//W3C//DTD SVG 1.1//EN"
  "http://www.w3.org/Graphics/SVG/1.1/DTD/svg11.dtd">
<svg xmlns:xlink="http://www.w3.org/1999/xlink" width="712.8pt" height="424.7175pt" viewBox="0 0 712.8 424.7175" xmlns="http://www.w3.org/2000/svg" version="1.1">
 <metadata>
  <rdf:RDF xmlns:dc="http://purl.org/dc/elements/1.1/" xmlns:cc="http://creativecommons.org/ns#" xmlns:rdf="http://www.w3.org/1999/02/22-rdf-syntax-ns#">
   <cc:Work>
    <dc:type rdf:resource="http://purl.org/dc/dcmitype/StillImage"/>
    <dc:date>2026-02-08T09:16:18.733325</dc:date>
    <dc:format>image/svg+xml</dc:format>
    <dc:creator>
     <cc:Agent>
      <dc:title>Matplotlib v3.10.8, https://matplotlib.org/</dc:title>
     </cc:Agent>
    </dc:creator>
   </cc:Work>
  </rdf:RDF>
 </metadata>
 <defs>
  <style type="text/css">*{stroke-linejoin: round; stroke-linecap: butt}</style>
 </defs>
 <g id="figure_1">
  <g id="patch_1">
   <path d="M 0 424.7175 
L 712.8 424.7175 
L 712.8 0 
L 0 0 
z
" style="fill: #ffffff"/>
  </g>
  <g id="axes_1">
   <g id="patch_2">
    <path d="M 52.596 136.261 
L 171.324 136.261 
Q 185.292 136.261 185.292 126.807 
L 185.292 84.264 
Q 185.292 74.81 171.324 74.81 
L 52.596 74.81 
Q 38.628 74.81 38.628 84.264 
L 38.628 126.807 
Q 38.628 136.261 52.596 136.261 
z
" clip-path="url(#padd7ce3373)" style="fill: #3498db; stroke: #000000; stroke-width: 2; stroke-linejoin: miter"/>
   </g>
   <g id="patch_3">
    <path d="M 297.036 98.445 
L 450.684 98.445 
Q 464.652 98.445 464.652 88.991 
L 464.652 55.902 
Q 464.652 46.448 450.684 46.448 
L 297.036 46.448 
Q 283.068 46.448 283.068 55.902 
L 283.068 88.991 
Q 283.068 98.445 297.036 98.445 
z
" clip-path="url(#padd7ce3373)" style="fill: #27ae60; stroke: #000000; stroke-width: 2; stroke-linejoin: miter"/>
   </g>
   <g id="patch_4">
    <path d="M 297.036 174.077 
L 450.684 174.077 
Q 464.652 174.077 464.652 164.623 
L 464.652 131.534 
Q 464.652 122.08 450.684 122.08 
L 297.036 122.08 
Q 283.068 122.08 283.068 131.534 
L 283.068 164.623 
Q 283.068 174.077 297.036 174.077 
z
" clip-path="url(#padd7ce3373)" style="fill: #e74c3c; stroke: #000000; stroke-width: 2; stroke-linejoin: miter"/>
   </g>
   <g id="patch_5">
    <path d="M 506.556 174.077 
L 660.204 174.077 
Q 674.172 174.077 674.172 164.623 
L 674.172 131.534 
Q 674.172 122.08 660.204 122.08 
L 506.556 122.08 
Q 492.588 122.08 492.588 131.534 
L 492.588 164.623 
Q 492.588 174.077 506.556 174.077 
z
" clip-path="url(#padd7ce3373)" style="fill: #e67e22; stroke: #000000; stroke-width: 2; stroke-linejoin: miter"/>
   </g>
   <g id="patch_6">
    <path d="M 471.636 278.071 
L 660.204 278.071 
Q 674.172 278.071 674.172 268.617 
L 674.172 226.074 
Q 674.172 216.62 660.204 216.62 
L 471.636 216.62 
Q 457.668 216.62 457.668 226.074 
L 457.668 268.617 
Q 457.668 278.071 471.636 278.071 
z
" clip-path="url(#padd7ce3373)" style="fill: #9b59b6; stroke: #000000; stroke-width: 2; stroke-linejoin: miter"/>
   </g>
   <g id="patch_7">
    <path d="M 471.636 382.065 
L 660.204 382.065 
Q 674.172 382.065 674.172 372.611 
L 674.172 339.522 
Q 674.172 330.068 660.204 330.068 
L 471.636 330.068 
Q 457.668 330.068 457.668 339.522 
L 457.668 372.611 
Q 457.668 382.065 471.636 382.065 
z
" clip-path="url(#padd7ce3373)" style="fill: #2c3e50; stroke: #000000; stroke-width: 2; stroke-linejoin: miter"/>
   </g>
   <g id="text_1">
    <!-- Circuit K -->
    <g style="fill: #ffffff" transform="translate(87.868594 108.294875) scale(0.1 -0.1)">
     <defs>
      <path id="DejaVuSans-Bold-43" d="M 4288 256 
Q 3956 84 3597 -3 
Q 3238 -91 2847 -91 
Q 1681 -91 1000 561 
Q 319 1213 319 2328 
Q 319 3447 1000 4098 
Q 1681 4750 2847 4750 
Q 3238 4750 3597 4662 
Q 3956 4575 4288 4403 
L 4288 3438 
Q 3953 3666 3628 3772 
Q 3303 3878 2944 3878 
Q 2300 3878 1931 3465 
Q 1563 3053 1563 2328 
Q 1563 1606 1931 1193 
Q 2300 781 2944 781 
Q 3303 781 3628 887 
Q 3953 994 4288 1222 
L 4288 256 
z
" transform="scale(0.015625)"/>
      <path id="DejaVuSans-Bold-69" d="M 538 3500 
L 1656 3500 
L 1656 0 
L 538 0 
L 538 3500 
z
M 538 4863 
L 1656 4863 
L 1656 3950 
L 538 3950 
L 538 4863 
z
" transform="scale(0.015625)"/>
      <path id="DejaVuSans-Bold-72" d="M 3138 2547 
Q 2991 2616 2845 2648 
Q 2700 2681 2553 2681 
Q 2122 2681 1889 2404 
Q 1656 2128 1656 1613 
L 1656 0 
L 538 0 
L 538 3500 
L 1656 3500 
L 1656 2925 
Q 1872 3269 2151 3426 
Q 2431 3584 2822 3584 
Q 2878 3584 2943 3579 
Q 3009 3575 3134 3559 
L 3138 2547 
z
" transform="scale(0.015625)"/>
      <path id="DejaVuSans-Bold-63" d="M 3366 3391 
L 3366 2478 
Q 3138 2634 2908 2709 
Q 2678 2784 2431 2784 
Q 1963 2784 1702 2511 
Q 1441 2238 1441 1747 
Q 1441 1256 1702 982 
Q 1963 709 2431 709 
Q 2694 709 2930 787 
Q 3166 866 3366 1019 
L 3366 103 
Q 3103 6 2833 -42 
Q 2563 -91 2291 -91 
Q 1344 -91 809 395 
Q 275 881 275 1747 
Q 275 2613 809 3098 
Q 1344 3584 2291 3584 
Q 2566 3584 2833 3536 
Q 3100 3488 3366 3391 
z
" transform="scale(0.015625)"/>
      <path id="DejaVuSans-Bold-75" d="M 500 1363 
L 500 3500 
L 1625 3500 
L 1625 3150 
Q 1625 2866 1622 2436 
Q 1619 2006 1619 1863 
Q 1619 1441 1641 1255 
Q 1663 1069 1716 984 
Q 1784 875 1895 815 
Q 2006 756 2150 756 
Q 2500 756 2700 1025 
Q 2900 1294 2900 1772 
L 2900 3500 
L 4019 3500 
L 4019 0 
L 2900 0 
L 2900 506 
Q 2647 200 2364 54 
Q 2081 -91 1741 -91 
Q 1134 -91 817 281 
Q 500 653 500 1363 
z
" transform="scale(0.015625)"/>
      <path id="DejaVuSans-Bold-74" d="M 1759 4494 
L 1759 3500 
L 2913 3500 
L 2913 2700 
L 1759 2700 
L 1759 1216 
Q 1759 972 1856 886 
Q 1953 800 2241 800 
L 2816 800 
L 2816 0 
L 1856 0 
Q 1194 0 917 276 
Q 641 553 641 1216 
L 641 2700 
L 84 2700 
L 84 3500 
L 641 3500 
L 641 4494 
L 1759 4494 
z
" transform="scale(0.015625)"/>
      <path id="DejaVuSans-Bold-20" transform="scale(0.015625)"/>
      <path id="DejaVuSans-Bold-4b" d="M 588 4666 
L 1791 4666 
L 1791 2963 
L 3525 4666 
L 4922 4666 
L 2675 2456 
L 5153 0 
L 3647 0 
L 1791 1838 
L 1791 0 
L 588 0 
L 588 4666 
z
" transform="scale(0.015625)"/>
     </defs>
     <use xlink:href="#DejaVuSans-Bold-43"/>
     <use xlink:href="#DejaVuSans-Bold-69" transform="translate(73.388672 0)"/>
     <use xlink:href="#DejaVuSans-Bold-72" transform="translate(107.666016 0)"/>
     <use xlink:href="#DejaVuSans-Bold-63" transform="translate(156.982422 0)"/>
     <use xlink:href="#DejaVuSans-Bold-75" transform="translate(216.259766 0)"/>
     <use xlink:href="#DejaVuSans-Bold-69" transform="translate(287.451172 0)"/>
     <use xlink:href="#DejaVuSans-Bold-74" transform="translate(321.728516 0)"/>
     <use xlink:href="#DejaVuSans-Bold-20" transform="translate(369.53125 0)"/>
     <use xlink:href="#DejaVuSans-Bold-4b" transform="translate(404.345703 0)"/>
    </g>
   </g>
   <g id="patch_8">
    <path d="M 183.799204 105.5355 
Q 199.260967 105.5355 212.486662 105.5355 
" style="fill: none; stroke: #000000; stroke-width: 2; stroke-linecap: round"/>
    <path d="M 208.486662 103.5355 
L 212.486662 105.5355 
L 208.486662 107.5355 
" style="fill: none; stroke: #000000; stroke-width: 2; stroke-linecap: round"/>
   </g>
   <g id="patch_9">
    <path d="M 218.574272 104.782481 
Q 251.639719 91.354614 282.633414 78.768085 
" style="fill: none; stroke: #000000; stroke-width: 2; stroke-linecap: round"/>
    <path d="M 278.174838 78.420085 
L 282.633414 78.768085 
L 279.679868 82.126145 
" style="fill: none; stroke: #000000; stroke-width: 2; stroke-linecap: round"/>
   </g>
   <g id="patch_10">
    <path d="M 218.574272 106.288519 
Q 251.639719 119.716386 282.633414 132.302915 
" style="fill: none; stroke: #000000; stroke-width: 2; stroke-linecap: round"/>
    <path d="M 279.679868 128.944855 
L 282.633414 132.302915 
L 278.174838 132.650915 
" style="fill: none; stroke: #000000; stroke-width: 2; stroke-linecap: round"/>
   </g>
   <g id="text_2">
    <!-- Execute K -->
    <g style="fill: #ffffff" transform="translate(345.908437 69.467906) scale(0.1 -0.1)">
     <defs>
      <path id="DejaVuSans-Bold-45" d="M 588 4666 
L 3834 4666 
L 3834 3756 
L 1791 3756 
L 1791 2888 
L 3713 2888 
L 3713 1978 
L 1791 1978 
L 1791 909 
L 3903 909 
L 3903 0 
L 588 0 
L 588 4666 
z
" transform="scale(0.015625)"/>
      <path id="DejaVuSans-Bold-78" d="M 1422 1791 
L 159 3500 
L 1344 3500 
L 2059 2463 
L 2784 3500 
L 3969 3500 
L 2706 1797 
L 4031 0 
L 2847 0 
L 2059 1106 
L 1281 0 
L 97 0 
L 1422 1791 
z
" transform="scale(0.015625)"/>
      <path id="DejaVuSans-Bold-65" d="M 4031 1759 
L 4031 1441 
L 1416 1441 
Q 1456 1047 1700 850 
Q 1944 653 2381 653 
Q 2734 653 3104 758 
Q 3475 863 3866 1075 
L 3866 213 
Q 3469 63 3072 -14 
Q 2675 -91 2278 -91 
Q 1328 -91 801 392 
Q 275 875 275 1747 
Q 275 2603 792 3093 
Q 1309 3584 2216 3584 
Q 3041 3584 3536 3087 
Q 4031 2591 4031 1759 
z
M 2881 2131 
Q 2881 2450 2695 2645 
Q 2509 2841 2209 2841 
Q 1884 2841 1681 2658 
Q 1478 2475 1428 2131 
L 2881 2131 
z
" transform="scale(0.015625)"/>
     </defs>
     <use xlink:href="#DejaVuSans-Bold-45"/>
     <use xlink:href="#DejaVuSans-Bold-78" transform="translate(68.310547 0)"/>
     <use xlink:href="#DejaVuSans-Bold-65" transform="translate(132.8125 0)"/>
     <use xlink:href="#DejaVuSans-Bold-63" transform="translate(200.634766 0)"/>
     <use xlink:href="#DejaVuSans-Bold-75" transform="translate(259.912109 0)"/>
     <use xlink:href="#DejaVuSans-Bold-74" transform="translate(331.103516 0)"/>
     <use xlink:href="#DejaVuSans-Bold-65" transform="translate(378.90625 0)"/>
     <use xlink:href="#DejaVuSans-Bold-20" transform="translate(446.728516 0)"/>
     <use xlink:href="#DejaVuSans-Bold-4b" transform="translate(481.542969 0)"/>
    </g>
    <!-- ⟨O⟩_K -->
    <g style="fill: #ffffff" transform="translate(358.664688 80.665719) scale(0.1 -0.1)">
     <defs>
      <path id="DejaVuSans-Bold-27e8" d="M 672 2006 
L 1563 4856 
L 2413 4856 
L 1519 2006 
L 2413 -844 
L 1563 -844 
L 672 2006 
z
" transform="scale(0.015625)"/>
      <path id="DejaVuSans-Bold-4f" d="M 2719 3878 
Q 2169 3878 1866 3472 
Q 1563 3066 1563 2328 
Q 1563 1594 1866 1187 
Q 2169 781 2719 781 
Q 3272 781 3575 1187 
Q 3878 1594 3878 2328 
Q 3878 3066 3575 3472 
Q 3272 3878 2719 3878 
z
M 2719 4750 
Q 3844 4750 4481 4106 
Q 5119 3463 5119 2328 
Q 5119 1197 4481 553 
Q 3844 -91 2719 -91 
Q 1597 -91 958 553 
Q 319 1197 319 2328 
Q 319 3463 958 4106 
Q 1597 4750 2719 4750 
z
" transform="scale(0.015625)"/>
      <path id="DejaVuSans-Bold-27e9" d="M 2253 2006 
L 1363 -844 
L 513 -844 
L 1406 2006 
L 513 4856 
L 1363 4856 
L 2253 2006 
z
" transform="scale(0.015625)"/>
      <path id="DejaVuSans-Bold-5f" d="M 3200 -916 
L 3200 -1509 
L 0 -1509 
L 0 -916 
L 3200 -916 
z
" transform="scale(0.015625)"/>
     </defs>
     <use xlink:href="#DejaVuSans-Bold-27e8"/>
     <use xlink:href="#DejaVuSans-Bold-4f" transform="translate(45.703125 0)"/>
     <use xlink:href="#DejaVuSans-Bold-27e9" transform="translate(130.712891 0)"/>
     <use xlink:href="#DejaVuSans-Bold-5f" transform="translate(176.416016 0)"/>
     <use xlink:href="#DejaVuSans-Bold-4b" transform="translate(226.416016 0)"/>
    </g>
   </g>
   <g id="text_3">
    <!-- Build K⁻¹ -->
    <g style="fill: #ffffff" transform="translate(349.038906 145.238969) scale(0.1 -0.1)">
     <defs>
      <path id="DejaVuSans-Bold-42" d="M 2456 2859 
Q 2741 2859 2887 2984 
Q 3034 3109 3034 3353 
Q 3034 3594 2887 3720 
Q 2741 3847 2456 3847 
L 1791 3847 
L 1791 2859 
L 2456 2859 
z
M 2497 819 
Q 2859 819 3042 972 
Q 3225 1125 3225 1434 
Q 3225 1738 3044 1889 
Q 2863 2041 2497 2041 
L 1791 2041 
L 1791 819 
L 2497 819 
z
M 3616 2497 
Q 4003 2384 4215 2081 
Q 4428 1778 4428 1338 
Q 4428 663 3972 331 
Q 3516 0 2584 0 
L 588 0 
L 588 4666 
L 2394 4666 
Q 3366 4666 3802 4372 
Q 4238 4078 4238 3431 
Q 4238 3091 4078 2852 
Q 3919 2613 3616 2497 
z
" transform="scale(0.015625)"/>
      <path id="DejaVuSans-Bold-6c" d="M 538 4863 
L 1656 4863 
L 1656 0 
L 538 0 
L 538 4863 
z
" transform="scale(0.015625)"/>
      <path id="DejaVuSans-Bold-64" d="M 2919 2988 
L 2919 4863 
L 4044 4863 
L 4044 0 
L 2919 0 
L 2919 506 
Q 2688 197 2409 53 
Q 2131 -91 1766 -91 
Q 1119 -91 703 423 
Q 288 938 288 1747 
Q 288 2556 703 3070 
Q 1119 3584 1766 3584 
Q 2128 3584 2408 3439 
Q 2688 3294 2919 2988 
z
M 2181 722 
Q 2541 722 2730 984 
Q 2919 1247 2919 1747 
Q 2919 2247 2730 2509 
Q 2541 2772 2181 2772 
Q 1825 2772 1636 2509 
Q 1447 2247 1447 1747 
Q 1447 1247 1636 984 
Q 1825 722 2181 722 
z
" transform="scale(0.015625)"/>
      <path id="DejaVuSans-Bold-207b" d="M 428 3419 
L 2950 3419 
L 2950 3003 
L 428 3003 
L 428 3419 
z
" transform="scale(0.015625)"/>
      <path id="DejaVuSans-Bold-b9" d="M 441 2578 
L 1088 2578 
L 1088 4206 
L 384 4044 
L 384 4544 
L 1100 4697 
L 1806 4697 
L 1806 2578 
L 2444 2578 
L 2444 2088 
L 441 2088 
L 441 2578 
z
" transform="scale(0.015625)"/>
     </defs>
     <use xlink:href="#DejaVuSans-Bold-42"/>
     <use xlink:href="#DejaVuSans-Bold-75" transform="translate(76.220703 0)"/>
     <use xlink:href="#DejaVuSans-Bold-69" transform="translate(147.412109 0)"/>
     <use xlink:href="#DejaVuSans-Bold-6c" transform="translate(181.689453 0)"/>
     <use xlink:href="#DejaVuSans-Bold-64" transform="translate(215.966797 0)"/>
     <use xlink:href="#DejaVuSans-Bold-20" transform="translate(287.548828 0)"/>
     <use xlink:href="#DejaVuSans-Bold-4b" transform="translate(322.363281 0)"/>
     <use xlink:href="#DejaVuSans-Bold-207b" transform="translate(399.853516 0)"/>
     <use xlink:href="#DejaVuSans-Bold-b9" transform="translate(452.636719 0)"/>
    </g>
    <!-- (pulse inverse) -->
    <g style="fill: #ffffff" transform="translate(331.5725 156.436781) scale(0.1 -0.1)">
     <defs>
      <path id="DejaVuSans-Bold-28" d="M 2413 -844 
L 1484 -844 
Q 1006 -72 778 623 
Q 550 1319 550 2003 
Q 550 2688 779 3389 
Q 1009 4091 1484 4856 
L 2413 4856 
Q 2013 4116 1813 3408 
Q 1613 2700 1613 2009 
Q 1613 1319 1811 609 
Q 2009 -100 2413 -844 
z
" transform="scale(0.015625)"/>
      <path id="DejaVuSans-Bold-70" d="M 1656 506 
L 1656 -1331 
L 538 -1331 
L 538 3500 
L 1656 3500 
L 1656 2988 
Q 1888 3294 2169 3439 
Q 2450 3584 2816 3584 
Q 3463 3584 3878 3070 
Q 4294 2556 4294 1747 
Q 4294 938 3878 423 
Q 3463 -91 2816 -91 
Q 2450 -91 2169 54 
Q 1888 200 1656 506 
z
M 2400 2772 
Q 2041 2772 1848 2508 
Q 1656 2244 1656 1747 
Q 1656 1250 1848 986 
Q 2041 722 2400 722 
Q 2759 722 2948 984 
Q 3138 1247 3138 1747 
Q 3138 2247 2948 2509 
Q 2759 2772 2400 2772 
z
" transform="scale(0.015625)"/>
      <path id="DejaVuSans-Bold-73" d="M 3272 3391 
L 3272 2541 
Q 2913 2691 2578 2766 
Q 2244 2841 1947 2841 
Q 1628 2841 1473 2761 
Q 1319 2681 1319 2516 
Q 1319 2381 1436 2309 
Q 1553 2238 1856 2203 
L 2053 2175 
Q 2913 2066 3209 1816 
Q 3506 1566 3506 1031 
Q 3506 472 3093 190 
Q 2681 -91 1863 -91 
Q 1516 -91 1145 -36 
Q 775 19 384 128 
L 384 978 
Q 719 816 1070 734 
Q 1422 653 1784 653 
Q 2113 653 2278 743 
Q 2444 834 2444 1013 
Q 2444 1163 2330 1236 
Q 2216 1309 1875 1350 
L 1678 1375 
Q 931 1469 631 1722 
Q 331 1975 331 2491 
Q 331 3047 712 3315 
Q 1094 3584 1881 3584 
Q 2191 3584 2531 3537 
Q 2872 3491 3272 3391 
z
" transform="scale(0.015625)"/>
      <path id="DejaVuSans-Bold-6e" d="M 4056 2131 
L 4056 0 
L 2931 0 
L 2931 347 
L 2931 1631 
Q 2931 2084 2911 2256 
Q 2891 2428 2841 2509 
Q 2775 2619 2662 2680 
Q 2550 2741 2406 2741 
Q 2056 2741 1856 2470 
Q 1656 2200 1656 1722 
L 1656 0 
L 538 0 
L 538 3500 
L 1656 3500 
L 1656 2988 
Q 1909 3294 2193 3439 
Q 2478 3584 2822 3584 
Q 3428 3584 3742 3212 
Q 4056 2841 4056 2131 
z
" transform="scale(0.015625)"/>
      <path id="DejaVuSans-Bold-76" d="M 97 3500 
L 1216 3500 
L 2088 1081 
L 2956 3500 
L 4078 3500 
L 2700 0 
L 1472 0 
L 97 3500 
z
" transform="scale(0.015625)"/>
      <path id="DejaVuSans-Bold-29" d="M 513 -844 
Q 913 -100 1113 609 
Q 1313 1319 1313 2009 
Q 1313 2700 1113 3408 
Q 913 4116 513 4856 
L 1441 4856 
Q 1916 4091 2145 3389 
Q 2375 2688 2375 2003 
Q 2375 1319 2147 623 
Q 1919 -72 1441 -844 
L 513 -844 
z
" transform="scale(0.015625)"/>
     </defs>
     <use xlink:href="#DejaVuSans-Bold-28"/>
     <use xlink:href="#DejaVuSans-Bold-70" transform="translate(45.703125 0)"/>
     <use xlink:href="#DejaVuSans-Bold-75" transform="translate(117.285156 0)"/>
     <use xlink:href="#DejaVuSans-Bold-6c" transform="translate(188.476562 0)"/>
     <use xlink:href="#DejaVuSans-Bold-73" transform="translate(222.753906 0)"/>
     <use xlink:href="#DejaVuSans-Bold-65" transform="translate(282.275391 0)"/>
     <use xlink:href="#DejaVuSans-Bold-20" transform="translate(350.097656 0)"/>
     <use xlink:href="#DejaVuSans-Bold-69" transform="translate(384.912109 0)"/>
     <use xlink:href="#DejaVuSans-Bold-6e" transform="translate(419.189453 0)"/>
     <use xlink:href="#DejaVuSans-Bold-76" transform="translate(490.380859 0)"/>
     <use xlink:href="#DejaVuSans-Bold-65" transform="translate(555.566406 0)"/>
     <use xlink:href="#DejaVuSans-Bold-72" transform="translate(623.388672 0)"/>
     <use xlink:href="#DejaVuSans-Bold-73" transform="translate(672.705078 0)"/>
     <use xlink:href="#DejaVuSans-Bold-65" transform="translate(732.226562 0)"/>
     <use xlink:href="#DejaVuSans-Bold-29" transform="translate(800.048828 0)"/>
    </g>
   </g>
   <g id="patch_11">
    <path d="M 463.159204 148.0785 
Q 478.620967 148.0785 491.846662 148.0785 
" style="fill: none; stroke: #000000; stroke-width: 2; stroke-linecap: round"/>
    <path d="M 487.846662 146.0785 
L 491.846662 148.0785 
L 487.846662 150.0785 
" style="fill: none; stroke: #000000; stroke-width: 2; stroke-linecap: round"/>
   </g>
   <g id="text_4">
    <!-- Execute KIK -->
    <g style="fill: #ffffff" transform="translate(549.694063 145.099906) scale(0.1 -0.1)">
     <defs>
      <path id="DejaVuSans-Bold-49" d="M 588 4666 
L 1791 4666 
L 1791 0 
L 588 0 
L 588 4666 
z
" transform="scale(0.015625)"/>
     </defs>
     <use xlink:href="#DejaVuSans-Bold-45"/>
     <use xlink:href="#DejaVuSans-Bold-78" transform="translate(68.310547 0)"/>
     <use xlink:href="#DejaVuSans-Bold-65" transform="translate(132.8125 0)"/>
     <use xlink:href="#DejaVuSans-Bold-63" transform="translate(200.634766 0)"/>
     <use xlink:href="#DejaVuSans-Bold-75" transform="translate(259.912109 0)"/>
     <use xlink:href="#DejaVuSans-Bold-74" transform="translate(331.103516 0)"/>
     <use xlink:href="#DejaVuSans-Bold-65" transform="translate(378.90625 0)"/>
     <use xlink:href="#DejaVuSans-Bold-20" transform="translate(446.728516 0)"/>
     <use xlink:href="#DejaVuSans-Bold-4b" transform="translate(481.542969 0)"/>
     <use xlink:href="#DejaVuSans-Bold-49" transform="translate(559.033203 0)"/>
     <use xlink:href="#DejaVuSans-Bold-4b" transform="translate(596.240234 0)"/>
    </g>
    <!-- ⟨O⟩_KIK -->
    <g style="fill: #ffffff" transform="translate(562.450313 156.297719) scale(0.1 -0.1)">
     <use xlink:href="#DejaVuSans-Bold-27e8"/>
     <use xlink:href="#DejaVuSans-Bold-4f" transform="translate(45.703125 0)"/>
     <use xlink:href="#DejaVuSans-Bold-27e9" transform="translate(130.712891 0)"/>
     <use xlink:href="#DejaVuSans-Bold-5f" transform="translate(176.416016 0)"/>
     <use xlink:href="#DejaVuSans-Bold-4b" transform="translate(226.416016 0)"/>
     <use xlink:href="#DejaVuSans-Bold-49" transform="translate(303.90625 0)"/>
     <use xlink:href="#DejaVuSans-Bold-4b" transform="translate(341.113281 0)"/>
    </g>
   </g>
   <g id="patch_12">
    <path d="M 375.597848 97.065258 
Q 469.88915 150.441519 562.234533 202.716237 
" style="fill: none; stroke: #000000; stroke-width: 2; stroke-linecap: round"/>
    <path d="M 559.738816 199.005254 
L 562.234533 202.716237 
L 557.768316 202.486221 
" style="fill: none; stroke: #000000; stroke-width: 2; stroke-linecap: round"/>
   </g>
   <g id="patch_13">
    <path d="M 582.448601 173.478624 
Q 574.651387 188.255372 567.897707 201.054486 
" style="fill: none; stroke: #000000; stroke-width: 2; stroke-linecap: round"/>
    <path d="M 571.533287 198.450151 
L 567.897707 201.054486 
L 567.995587 196.583421 
" style="fill: none; stroke: #000000; stroke-width: 2; stroke-linecap: round"/>
   </g>
   <g id="text_5">
    <!-- Combine with -->
    <g style="fill: #ffffff" transform="translate(527.337969 244.424406) scale(0.1 -0.1)">
     <defs>
      <path id="DejaVuSans-Bold-6f" d="M 2203 2784 
Q 1831 2784 1636 2517 
Q 1441 2250 1441 1747 
Q 1441 1244 1636 976 
Q 1831 709 2203 709 
Q 2569 709 2762 976 
Q 2956 1244 2956 1747 
Q 2956 2250 2762 2517 
Q 2569 2784 2203 2784 
z
M 2203 3584 
Q 3106 3584 3614 3096 
Q 4122 2609 4122 1747 
Q 4122 884 3614 396 
Q 3106 -91 2203 -91 
Q 1297 -91 786 396 
Q 275 884 275 1747 
Q 275 2609 786 3096 
Q 1297 3584 2203 3584 
z
" transform="scale(0.015625)"/>
      <path id="DejaVuSans-Bold-6d" d="M 3781 2919 
Q 3994 3244 4286 3414 
Q 4578 3584 4928 3584 
Q 5531 3584 5847 3212 
Q 6163 2841 6163 2131 
L 6163 0 
L 5038 0 
L 5038 1825 
Q 5041 1866 5042 1909 
Q 5044 1953 5044 2034 
Q 5044 2406 4934 2573 
Q 4825 2741 4581 2741 
Q 4263 2741 4089 2478 
Q 3916 2216 3909 1719 
L 3909 0 
L 2784 0 
L 2784 1825 
Q 2784 2406 2684 2573 
Q 2584 2741 2328 2741 
Q 2006 2741 1831 2477 
Q 1656 2213 1656 1722 
L 1656 0 
L 531 0 
L 531 3500 
L 1656 3500 
L 1656 2988 
Q 1863 3284 2130 3434 
Q 2397 3584 2719 3584 
Q 3081 3584 3359 3409 
Q 3638 3234 3781 2919 
z
" transform="scale(0.015625)"/>
      <path id="DejaVuSans-Bold-62" d="M 2400 722 
Q 2759 722 2948 984 
Q 3138 1247 3138 1747 
Q 3138 2247 2948 2509 
Q 2759 2772 2400 2772 
Q 2041 2772 1848 2508 
Q 1656 2244 1656 1747 
Q 1656 1250 1848 986 
Q 2041 722 2400 722 
z
M 1656 2988 
Q 1888 3294 2169 3439 
Q 2450 3584 2816 3584 
Q 3463 3584 3878 3070 
Q 4294 2556 4294 1747 
Q 4294 938 3878 423 
Q 3463 -91 2816 -91 
Q 2450 -91 2169 54 
Q 1888 200 1656 506 
L 1656 0 
L 538 0 
L 538 4863 
L 1656 4863 
L 1656 2988 
z
" transform="scale(0.015625)"/>
      <path id="DejaVuSans-Bold-77" d="M 225 3500 
L 1313 3500 
L 1900 1088 
L 2491 3500 
L 3425 3500 
L 4013 1113 
L 4603 3500 
L 5691 3500 
L 4769 0 
L 3547 0 
L 2956 2406 
L 2369 0 
L 1147 0 
L 225 3500 
z
" transform="scale(0.015625)"/>
      <path id="DejaVuSans-Bold-68" d="M 4056 2131 
L 4056 0 
L 2931 0 
L 2931 347 
L 2931 1625 
Q 2931 2084 2911 2256 
Q 2891 2428 2841 2509 
Q 2775 2619 2662 2680 
Q 2550 2741 2406 2741 
Q 2056 2741 1856 2470 
Q 1656 2200 1656 1722 
L 1656 0 
L 538 0 
L 538 4863 
L 1656 4863 
L 1656 2988 
Q 1909 3294 2193 3439 
Q 2478 3584 2822 3584 
Q 3428 3584 3742 3212 
Q 4056 2841 4056 2131 
z
" transform="scale(0.015625)"/>
     </defs>
     <use xlink:href="#DejaVuSans-Bold-43"/>
     <use xlink:href="#DejaVuSans-Bold-6f" transform="translate(73.388672 0)"/>
     <use xlink:href="#DejaVuSans-Bold-6d" transform="translate(142.089844 0)"/>
     <use xlink:href="#DejaVuSans-Bold-62" transform="translate(246.289062 0)"/>
     <use xlink:href="#DejaVuSans-Bold-69" transform="translate(317.871094 0)"/>
     <use xlink:href="#DejaVuSans-Bold-6e" transform="translate(352.148438 0)"/>
     <use xlink:href="#DejaVuSans-Bold-65" transform="translate(423.339844 0)"/>
     <use xlink:href="#DejaVuSans-Bold-20" transform="translate(491.162109 0)"/>
     <use xlink:href="#DejaVuSans-Bold-77" transform="translate(525.976562 0)"/>
     <use xlink:href="#DejaVuSans-Bold-69" transform="translate(618.359375 0)"/>
     <use xlink:href="#DejaVuSans-Bold-74" transform="translate(652.636719 0)"/>
     <use xlink:href="#DejaVuSans-Bold-68" transform="translate(700.439453 0)"/>
    </g>
    <!-- adaptive α, β -->
    <g style="fill: #ffffff" transform="translate(528.864531 255.785344) scale(0.1 -0.1)">
     <defs>
      <path id="DejaVuSans-Bold-61" d="M 2106 1575 
Q 1756 1575 1579 1456 
Q 1403 1338 1403 1106 
Q 1403 894 1545 773 
Q 1688 653 1941 653 
Q 2256 653 2472 879 
Q 2688 1106 2688 1447 
L 2688 1575 
L 2106 1575 
z
M 3816 1997 
L 3816 0 
L 2688 0 
L 2688 519 
Q 2463 200 2181 54 
Q 1900 -91 1497 -91 
Q 953 -91 614 226 
Q 275 544 275 1050 
Q 275 1666 698 1953 
Q 1122 2241 2028 2241 
L 2688 2241 
L 2688 2328 
Q 2688 2594 2478 2717 
Q 2269 2841 1825 2841 
Q 1466 2841 1156 2769 
Q 847 2697 581 2553 
L 581 3406 
Q 941 3494 1303 3539 
Q 1666 3584 2028 3584 
Q 2975 3584 3395 3211 
Q 3816 2838 3816 1997 
z
" transform="scale(0.015625)"/>
      <path id="DejaVuSans-Bold-3b1" d="M 3006 3163 
L 3119 3500 
L 4088 3500 
L 3484 1697 
L 3569 1219 
Q 3659 703 3872 703 
L 4128 703 
L 4128 0 
L 3809 0 
Q 3313 0 3059 263 
Q 3003 322 2988 353 
Q 2838 163 2689 39 
Q 2541 -84 1763 -78 
Q 988 -72 648 400 
Q 309 872 309 1794 
Q 309 2713 663 3088 
Q 1109 3569 1966 3578 
Q 2688 3588 3006 3163 
z
M 2575 1841 
L 2481 2350 
Q 2394 2825 1981 2828 
Q 1772 2828 1598 2558 
Q 1425 2288 1425 1741 
Q 1425 1191 1581 944 
Q 1738 697 1969 691 
Q 2213 684 2363 1163 
L 2575 1841 
z
" transform="scale(0.015625)"/>
      <path id="DejaVuSans-Bold-2c" d="M 653 1209 
L 1778 1209 
L 1778 256 
L 1006 -909 
L 341 -909 
L 653 256 
L 653 1209 
z
" transform="scale(0.015625)"/>
      <path id="DejaVuSans-Bold-3b2" d="M 2575 3038 
Q 2772 3309 2772 3503 
Q 2772 3769 2648 3948 
Q 2525 4128 2241 4128 
Q 1900 4128 1778 3864 
Q 1656 3600 1656 3103 
L 1656 1747 
Q 1656 1250 1848 986 
Q 2041 722 2400 722 
Q 2800 722 2953 934 
Q 3106 1147 3106 1275 
Q 3106 1722 2738 1988 
Q 2538 2122 1988 2134 
L 1988 2847 
Q 2497 2925 2575 3038 
z
M 538 -1331 
L 538 3044 
Q 538 3922 969 4369 
Q 1325 4741 1672 4845 
Q 2019 4950 2259 4950 
Q 2500 4947 2538 4941 
Q 3178 4841 3538 4438 
Q 3788 4163 3788 3600 
Q 3788 3313 3616 3053 
Q 3406 2734 3094 2709 
Q 3556 2584 3844 2322 
Q 4294 1919 4294 1288 
Q 4294 731 3903 320 
Q 3513 -91 2809 -91 
Q 2106 -91 1656 506 
L 1656 -1331 
L 538 -1331 
z
" transform="scale(0.015625)"/>
     </defs>
     <use xlink:href="#DejaVuSans-Bold-61"/>
     <use xlink:href="#DejaVuSans-Bold-64" transform="translate(67.480469 0)"/>
     <use xlink:href="#DejaVuSans-Bold-61" transform="translate(139.0625 0)"/>
     <use xlink:href="#DejaVuSans-Bold-70" transform="translate(206.542969 0)"/>
     <use xlink:href="#DejaVuSans-Bold-74" transform="translate(278.125 0)"/>
     <use xlink:href="#DejaVuSans-Bold-69" transform="translate(325.927734 0)"/>
     <use xlink:href="#DejaVuSans-Bold-76" transform="translate(360.205078 0)"/>
     <use xlink:href="#DejaVuSans-Bold-65" transform="translate(425.390625 0)"/>
     <use xlink:href="#DejaVuSans-Bold-20" transform="translate(493.212891 0)"/>
     <use xlink:href="#DejaVuSans-Bold-3b1" transform="translate(528.027344 0)"/>
     <use xlink:href="#DejaVuSans-Bold-2c" transform="translate(596.728516 0)"/>
     <use xlink:href="#DejaVuSans-Bold-20" transform="translate(634.716797 0)"/>
     <use xlink:href="#DejaVuSans-Bold-3b2" transform="translate(669.53125 0)"/>
    </g>
   </g>
   <g id="patch_14">
    <path d="M 565.92 277.706896 
Q 565.92 299.343338 565.92 318.743712 
" style="fill: none; stroke: #000000; stroke-width: 2; stroke-linecap: round"/>
    <path d="M 567.92 314.743712 
L 565.92 318.743712 
L 563.92 314.743712 
" style="fill: none; stroke: #000000; stroke-width: 2; stroke-linecap: round"/>
   </g>
   <g id="text_6">
    <!-- ⟨O⟩_mit = α⟨O⟩_K + β⟨O⟩_KIK -->
    <g style="fill: #ffffff" transform="translate(486.803594 358.754781) scale(0.1 -0.1)">
     <defs>
      <path id="DejaVuSans-Bold-3d" d="M 678 3084 
L 4684 3084 
L 4684 2350 
L 678 2350 
L 678 3084 
z
M 678 1663 
L 4684 1663 
L 4684 922 
L 678 922 
L 678 1663 
z
" transform="scale(0.015625)"/>
      <path id="DejaVuSans-Bold-2b" d="M 3053 4013 
L 3053 2375 
L 4684 2375 
L 4684 1638 
L 3053 1638 
L 3053 0 
L 2309 0 
L 2309 1638 
L 678 1638 
L 678 2375 
L 2309 2375 
L 2309 4013 
L 3053 4013 
z
" transform="scale(0.015625)"/>
     </defs>
     <use xlink:href="#DejaVuSans-Bold-27e8"/>
     <use xlink:href="#DejaVuSans-Bold-4f" transform="translate(45.703125 0)"/>
     <use xlink:href="#DejaVuSans-Bold-27e9" transform="translate(130.712891 0)"/>
     <use xlink:href="#DejaVuSans-Bold-5f" transform="translate(176.416016 0)"/>
     <use xlink:href="#DejaVuSans-Bold-6d" transform="translate(226.416016 0)"/>
     <use xlink:href="#DejaVuSans-Bold-69" transform="translate(330.615234 0)"/>
     <use xlink:href="#DejaVuSans-Bold-74" transform="translate(364.892578 0)"/>
     <use xlink:href="#DejaVuSans-Bold-20" transform="translate(412.695312 0)"/>
     <use xlink:href="#DejaVuSans-Bold-3d" transform="translate(447.509766 0)"/>
     <use xlink:href="#DejaVuSans-Bold-20" transform="translate(531.298828 0)"/>
     <use xlink:href="#DejaVuSans-Bold-3b1" transform="translate(566.113281 0)"/>
     <use xlink:href="#DejaVuSans-Bold-27e8" transform="translate(634.814453 0)"/>
     <use xlink:href="#DejaVuSans-Bold-4f" transform="translate(680.517578 0)"/>
     <use xlink:href="#DejaVuSans-Bold-27e9" transform="translate(765.527344 0)"/>
     <use xlink:href="#DejaVuSans-Bold-5f" transform="translate(811.230469 0)"/>
     <use xlink:href="#DejaVuSans-Bold-4b" transform="translate(861.230469 0)"/>
     <use xlink:href="#DejaVuSans-Bold-20" transform="translate(938.720703 0)"/>
     <use xlink:href="#DejaVuSans-Bold-2b" transform="translate(973.535156 0)"/>
     <use xlink:href="#DejaVuSans-Bold-20" transform="translate(1057.324219 0)"/>
     <use xlink:href="#DejaVuSans-Bold-3b2" transform="translate(1092.138672 0)"/>
     <use xlink:href="#DejaVuSans-Bold-27e8" transform="translate(1163.720703 0)"/>
     <use xlink:href="#DejaVuSans-Bold-4f" transform="translate(1209.423828 0)"/>
     <use xlink:href="#DejaVuSans-Bold-27e9" transform="translate(1294.433594 0)"/>
     <use xlink:href="#DejaVuSans-Bold-5f" transform="translate(1340.136719 0)"/>
     <use xlink:href="#DejaVuSans-Bold-4b" transform="translate(1390.136719 0)"/>
     <use xlink:href="#DejaVuSans-Bold-49" transform="translate(1467.626953 0)"/>
     <use xlink:href="#DejaVuSans-Bold-4b" transform="translate(1504.833984 0)"/>
    </g>
   </g>
   <g id="text_7">
    <g id="patch_15">
     <path d="M 49.0725 209.374219 
L 105.0075 209.374219 
Q 107.7075 209.374219 107.7075 206.674219 
L 107.7075 177.807844 
Q 107.7075 175.107844 105.0075 175.107844 
L 49.0725 175.107844 
Q 46.3725 175.107844 46.3725 177.807844 
L 46.3725 206.674219 
Q 46.3725 209.374219 49.0725 209.374219 
z
" style="fill: #ecf0f1; stroke: #bdc3c7; stroke-linejoin: miter"/>
    </g>
    <!-- Optional: -->
    <g style="fill: #7f8c8d" transform="translate(56.4975 184.646437) scale(0.09 -0.09)">
     <defs>
      <path id="DejaVuSans-Oblique-4f" d="M 2919 4238 
Q 2400 4238 2003 3986 
Q 1606 3734 1313 3219 
Q 1125 2891 1026 2522 
Q 928 2153 928 1778 
Q 928 1128 1239 775 
Q 1550 422 2119 422 
Q 2631 422 3032 676 
Q 3434 931 3719 1434 
Q 3909 1772 4009 2142 
Q 4109 2513 4109 2881 
Q 4109 3528 3796 3883 
Q 3484 4238 2919 4238 
z
M 2100 -91 
Q 1241 -91 748 418 
Q 256 928 256 1813 
Q 256 2319 448 2847 
Q 641 3375 978 3788 
Q 1375 4272 1862 4511 
Q 2350 4750 2938 4750 
Q 3794 4750 4287 4245 
Q 4781 3741 4781 2869 
Q 4781 2331 4593 1812 
Q 4406 1294 4056 872 
Q 3656 384 3173 146 
Q 2691 -91 2100 -91 
z
" transform="scale(0.015625)"/>
      <path id="DejaVuSans-Oblique-70" d="M 3175 2156 
Q 3175 2616 2975 2859 
Q 2775 3103 2400 3103 
Q 2144 3103 1911 2972 
Q 1678 2841 1497 2591 
Q 1319 2344 1212 1994 
Q 1106 1644 1106 1300 
Q 1106 863 1306 627 
Q 1506 391 1875 391 
Q 2147 391 2380 519 
Q 2613 647 2778 891 
Q 2956 1147 3065 1494 
Q 3175 1841 3175 2156 
z
M 1394 2969 
Q 1625 3272 1939 3428 
Q 2253 3584 2638 3584 
Q 3175 3584 3472 3232 
Q 3769 2881 3769 2247 
Q 3769 1728 3584 1258 
Q 3400 788 3053 416 
Q 2822 169 2531 39 
Q 2241 -91 1919 -91 
Q 1547 -91 1294 64 
Q 1041 219 916 525 
L 556 -1331 
L -19 -1331 
L 922 3500 
L 1497 3500 
L 1394 2969 
z
" transform="scale(0.015625)"/>
      <path id="DejaVuSans-Oblique-74" d="M 2706 3500 
L 2619 3053 
L 1472 3053 
L 1100 1153 
Q 1081 1047 1072 975 
Q 1063 903 1063 863 
Q 1063 663 1183 572 
Q 1303 481 1569 481 
L 2150 481 
L 2053 0 
L 1503 0 
Q 991 0 739 200 
Q 488 400 488 806 
Q 488 878 497 964 
Q 506 1050 525 1153 
L 897 3053 
L 409 3053 
L 500 3500 
L 978 3500 
L 1172 4494 
L 1747 4494 
L 1556 3500 
L 2706 3500 
z
" transform="scale(0.015625)"/>
      <path id="DejaVuSans-Oblique-69" d="M 1172 4863 
L 1747 4863 
L 1606 4134 
L 1031 4134 
L 1172 4863 
z
M 909 3500 
L 1484 3500 
L 800 0 
L 225 0 
L 909 3500 
z
" transform="scale(0.015625)"/>
      <path id="DejaVuSans-Oblique-6f" d="M 1625 -91 
Q 1009 -91 651 289 
Q 294 669 294 1325 
Q 294 1706 417 2101 
Q 541 2497 738 2766 
Q 1047 3184 1428 3384 
Q 1809 3584 2291 3584 
Q 2888 3584 3255 3212 
Q 3622 2841 3622 2241 
Q 3622 1825 3500 1412 
Q 3378 1000 3181 728 
Q 2875 309 2494 109 
Q 2113 -91 1625 -91 
z
M 891 1344 
Q 891 869 1089 633 
Q 1288 397 1691 397 
Q 2269 397 2648 901 
Q 3028 1406 3028 2181 
Q 3028 2634 2825 2865 
Q 2622 3097 2228 3097 
Q 1903 3097 1650 2945 
Q 1397 2794 1197 2484 
Q 1050 2253 970 1956 
Q 891 1659 891 1344 
z
" transform="scale(0.015625)"/>
      <path id="DejaVuSans-Oblique-6e" d="M 3566 2113 
L 3156 0 
L 2578 0 
L 2988 2091 
Q 3016 2238 3031 2350 
Q 3047 2463 3047 2528 
Q 3047 2791 2881 2937 
Q 2716 3084 2419 3084 
Q 1956 3084 1622 2776 
Q 1288 2469 1184 1941 
L 800 0 
L 225 0 
L 903 3500 
L 1478 3500 
L 1363 2950 
Q 1603 3253 1940 3418 
Q 2278 3584 2650 3584 
Q 3113 3584 3367 3334 
Q 3622 3084 3622 2631 
Q 3622 2519 3608 2391 
Q 3594 2263 3566 2113 
z
" transform="scale(0.015625)"/>
      <path id="DejaVuSans-Oblique-61" d="M 3438 1997 
L 3047 0 
L 2472 0 
L 2578 531 
Q 2325 219 2001 64 
Q 1678 -91 1281 -91 
Q 834 -91 548 182 
Q 263 456 263 884 
Q 263 1497 752 1853 
Q 1241 2209 2100 2209 
L 2900 2209 
L 2931 2363 
Q 2938 2388 2941 2417 
Q 2944 2447 2944 2509 
Q 2944 2788 2717 2942 
Q 2491 3097 2081 3097 
Q 1800 3097 1504 3025 
Q 1209 2953 897 2809 
L 997 3341 
Q 1322 3463 1633 3523 
Q 1944 3584 2234 3584 
Q 2853 3584 3176 3315 
Q 3500 3047 3500 2534 
Q 3500 2431 3484 2292 
Q 3469 2153 3438 1997 
z
M 2816 1759 
L 2241 1759 
Q 1534 1759 1195 1570 
Q 856 1381 856 984 
Q 856 709 1029 553 
Q 1203 397 1509 397 
Q 1978 397 2328 733 
Q 2678 1069 2791 1631 
L 2816 1759 
z
" transform="scale(0.015625)"/>
      <path id="DejaVuSans-Oblique-6c" d="M 1172 4863 
L 1747 4863 
L 800 0 
L 225 0 
L 1172 4863 
z
" transform="scale(0.015625)"/>
      <path id="DejaVuSans-Oblique-3a" d="M 978 3309 
L 1638 3309 
L 1484 2516 
L 825 2516 
L 978 3309 
z
M 488 794 
L 1147 794 
L 991 0 
L 331 0 
L 488 794 
z
" transform="scale(0.015625)"/>
     </defs>
     <use xlink:href="#DejaVuSans-Oblique-4f"/>
     <use xlink:href="#DejaVuSans-Oblique-70" transform="translate(78.710938 0)"/>
     <use xlink:href="#DejaVuSans-Oblique-74" transform="translate(142.1875 0)"/>
     <use xlink:href="#DejaVuSans-Oblique-69" transform="translate(181.396484 0)"/>
     <use xlink:href="#DejaVuSans-Oblique-6f" transform="translate(209.179688 0)"/>
     <use xlink:href="#DejaVuSans-Oblique-6e" transform="translate(270.361328 0)"/>
     <use xlink:href="#DejaVuSans-Oblique-61" transform="translate(333.740234 0)"/>
     <use xlink:href="#DejaVuSans-Oblique-6c" transform="translate(395.019531 0)"/>
     <use xlink:href="#DejaVuSans-Oblique-3a" transform="translate(422.802734 0)"/>
    </g>
    <!-- Randomized -->
    <g style="fill: #7f8c8d" transform="translate(49.0725 194.724469) scale(0.09 -0.09)">
     <defs>
      <path id="DejaVuSans-Oblique-52" d="M 1613 4147 
L 1294 2491 
L 2106 2491 
Q 2584 2491 2879 2755 
Q 3175 3019 3175 3444 
Q 3175 3784 2976 3965 
Q 2778 4147 2406 4147 
L 1613 4147 
z
M 2772 2241 
Q 2972 2194 3105 2009 
Q 3238 1825 3413 1275 
L 3809 0 
L 3144 0 
L 2778 1197 
Q 2638 1659 2453 1815 
Q 2269 1972 1888 1972 
L 1191 1972 
L 806 0 
L 172 0 
L 1081 4666 
L 2503 4666 
Q 3150 4666 3495 4373 
Q 3841 4081 3841 3531 
Q 3841 3044 3547 2687 
Q 3253 2331 2772 2241 
z
" transform="scale(0.015625)"/>
      <path id="DejaVuSans-Oblique-64" d="M 2675 525 
Q 2444 222 2128 65 
Q 1813 -91 1428 -91 
Q 903 -91 598 267 
Q 294 625 294 1247 
Q 294 1766 478 2236 
Q 663 2706 1013 3078 
Q 1244 3325 1534 3454 
Q 1825 3584 2144 3584 
Q 2481 3584 2739 3421 
Q 2997 3259 3138 2956 
L 3513 4863 
L 4091 4863 
L 3144 0 
L 2566 0 
L 2675 525 
z
M 891 1350 
Q 891 897 1095 644 
Q 1300 391 1663 391 
Q 1931 391 2161 520 
Q 2391 650 2566 903 
Q 2750 1166 2856 1509 
Q 2963 1853 2963 2188 
Q 2963 2622 2758 2865 
Q 2553 3109 2194 3109 
Q 1922 3109 1687 2981 
Q 1453 2853 1288 2613 
Q 1106 2353 998 2009 
Q 891 1666 891 1350 
z
" transform="scale(0.015625)"/>
      <path id="DejaVuSans-Oblique-6d" d="M 5747 2113 
L 5338 0 
L 4763 0 
L 5166 2094 
Q 5191 2228 5203 2325 
Q 5216 2422 5216 2491 
Q 5216 2772 5059 2928 
Q 4903 3084 4622 3084 
Q 4203 3084 3875 2770 
Q 3547 2456 3450 1953 
L 3066 0 
L 2491 0 
L 2900 2094 
Q 2925 2209 2937 2307 
Q 2950 2406 2950 2484 
Q 2950 2769 2794 2926 
Q 2638 3084 2363 3084 
Q 1938 3084 1609 2770 
Q 1281 2456 1184 1953 
L 800 0 
L 225 0 
L 909 3500 
L 1484 3500 
L 1375 2956 
Q 1609 3263 1923 3423 
Q 2238 3584 2597 3584 
Q 2978 3584 3223 3384 
Q 3469 3184 3519 2828 
Q 3781 3197 4126 3390 
Q 4472 3584 4856 3584 
Q 5306 3584 5551 3325 
Q 5797 3066 5797 2591 
Q 5797 2488 5784 2364 
Q 5772 2241 5747 2113 
z
" transform="scale(0.015625)"/>
      <path id="DejaVuSans-Oblique-7a" d="M 744 3500 
L 3475 3500 
L 3372 2975 
L 738 459 
L 2913 459 
L 2822 0 
L -19 0 
L 84 525 
L 2719 3041 
L 653 3041 
L 744 3500 
z
" transform="scale(0.015625)"/>
      <path id="DejaVuSans-Oblique-65" d="M 3078 2063 
Q 3088 2113 3092 2166 
Q 3097 2219 3097 2272 
Q 3097 2653 2873 2875 
Q 2650 3097 2266 3097 
Q 1838 3097 1509 2826 
Q 1181 2556 1013 2059 
L 3078 2063 
z
M 3578 1613 
L 903 1613 
Q 884 1494 878 1425 
Q 872 1356 872 1306 
Q 872 872 1139 634 
Q 1406 397 1894 397 
Q 2269 397 2603 481 
Q 2938 566 3225 728 
L 3116 159 
Q 2806 34 2476 -28 
Q 2147 -91 1806 -91 
Q 1078 -91 686 257 
Q 294 606 294 1247 
Q 294 1794 489 2264 
Q 684 2734 1063 3103 
Q 1306 3334 1642 3459 
Q 1978 3584 2356 3584 
Q 2950 3584 3301 3228 
Q 3653 2872 3653 2272 
Q 3653 2128 3634 1964 
Q 3616 1800 3578 1613 
z
" transform="scale(0.015625)"/>
     </defs>
     <use xlink:href="#DejaVuSans-Oblique-52"/>
     <use xlink:href="#DejaVuSans-Oblique-61" transform="translate(69.482422 0)"/>
     <use xlink:href="#DejaVuSans-Oblique-6e" transform="translate(130.761719 0)"/>
     <use xlink:href="#DejaVuSans-Oblique-64" transform="translate(194.140625 0)"/>
     <use xlink:href="#DejaVuSans-Oblique-6f" transform="translate(257.617188 0)"/>
     <use xlink:href="#DejaVuSans-Oblique-6d" transform="translate(318.798828 0)"/>
     <use xlink:href="#DejaVuSans-Oblique-69" transform="translate(416.210938 0)"/>
     <use xlink:href="#DejaVuSans-Oblique-7a" transform="translate(443.994141 0)"/>
     <use xlink:href="#DejaVuSans-Oblique-65" transform="translate(496.484375 0)"/>
     <use xlink:href="#DejaVuSans-Oblique-64" transform="translate(558.007812 0)"/>
    </g>
    <!-- Compiling -->
    <g style="fill: #7f8c8d" transform="translate(54.445078 204.8025) scale(0.09 -0.09)">
     <defs>
      <path id="DejaVuSans-Oblique-43" d="M 4447 4306 
L 4319 3641 
Q 4019 3944 3683 4091 
Q 3347 4238 2956 4238 
Q 2422 4238 2017 3981 
Q 1613 3725 1319 3200 
Q 1131 2863 1032 2486 
Q 934 2109 934 1728 
Q 934 1091 1264 756 
Q 1594 422 2222 422 
Q 2656 422 3056 561 
Q 3456 700 3834 978 
L 3688 231 
Q 3316 72 2936 -9 
Q 2556 -91 2175 -91 
Q 1278 -91 773 396 
Q 269 884 269 1753 
Q 269 2309 461 2846 
Q 653 3384 1013 3828 
Q 1394 4300 1883 4525 
Q 2372 4750 3022 4750 
Q 3422 4750 3780 4639 
Q 4138 4528 4447 4306 
z
" transform="scale(0.015625)"/>
      <path id="DejaVuSans-Oblique-67" d="M 3816 3500 
L 3219 434 
Q 3047 -456 2561 -893 
Q 2075 -1331 1253 -1331 
Q 950 -1331 690 -1286 
Q 431 -1241 206 -1147 
L 313 -588 
Q 525 -725 762 -790 
Q 1000 -856 1269 -856 
Q 1816 -856 2167 -557 
Q 2519 -259 2631 300 
L 2681 563 
Q 2441 288 2122 144 
Q 1803 0 1434 0 
Q 903 0 598 351 
Q 294 703 294 1319 
Q 294 1803 478 2267 
Q 663 2731 997 3091 
Q 1219 3328 1514 3456 
Q 1809 3584 2131 3584 
Q 2484 3584 2746 3420 
Q 3009 3256 3138 2956 
L 3238 3500 
L 3816 3500 
z
M 2950 2216 
Q 2950 2641 2750 2872 
Q 2550 3103 2181 3103 
Q 1953 3103 1747 3012 
Q 1541 2922 1394 2759 
Q 1156 2491 1023 2127 
Q 891 1763 891 1375 
Q 891 944 1092 712 
Q 1294 481 1672 481 
Q 2219 481 2584 976 
Q 2950 1472 2950 2216 
z
" transform="scale(0.015625)"/>
     </defs>
     <use xlink:href="#DejaVuSans-Oblique-43"/>
     <use xlink:href="#DejaVuSans-Oblique-6f" transform="translate(69.824219 0)"/>
     <use xlink:href="#DejaVuSans-Oblique-6d" transform="translate(131.005859 0)"/>
     <use xlink:href="#DejaVuSans-Oblique-70" transform="translate(228.417969 0)"/>
     <use xlink:href="#DejaVuSans-Oblique-69" transform="translate(291.894531 0)"/>
     <use xlink:href="#DejaVuSans-Oblique-6c" transform="translate(319.677734 0)"/>
     <use xlink:href="#DejaVuSans-Oblique-69" transform="translate(347.460938 0)"/>
     <use xlink:href="#DejaVuSans-Oblique-6e" transform="translate(375.244141 0)"/>
     <use xlink:href="#DejaVuSans-Oblique-67" transform="translate(438.623047 0)"/>
    </g>
   </g>
   <g id="patch_16">
    <path d="M 78.308152 174.895512 
Q 94.500434 155.168472 109.628699 136.737722 
" style="fill: none; stroke-dasharray: 5.55,2.4; stroke-dashoffset: 0; stroke: #7f8c8d; stroke-width: 1.5; stroke-linecap: round"/>
    <path d="M 105.544955 138.560641 
L 109.628699 136.737722 
L 108.636788 141.098469 
" style="fill: none; stroke-dasharray: 5.55,2.4; stroke-dashoffset: 0; stroke: #7f8c8d; stroke-width: 1.5; stroke-linecap: round"/>
   </g>
   <g id="text_8">
    <!-- Adaptive KIK Workflow -->
    <g transform="translate(252.80125 19.3575) scale(0.16 -0.16)">
     <defs>
      <path id="DejaVuSans-Bold-41" d="M 3419 850 
L 1538 850 
L 1241 0 
L 31 0 
L 1759 4666 
L 3194 4666 
L 4922 0 
L 3713 0 
L 3419 850 
z
M 1838 1716 
L 3116 1716 
L 2478 3572 
L 1838 1716 
z
" transform="scale(0.015625)"/>
      <path id="DejaVuSans-Bold-57" d="M 191 4666 
L 1344 4666 
L 2150 1275 
L 2950 4666 
L 4109 4666 
L 4909 1275 
L 5716 4666 
L 6859 4666 
L 5759 0 
L 4372 0 
L 3525 3547 
L 2688 0 
L 1300 0 
L 191 4666 
z
" transform="scale(0.015625)"/>
      <path id="DejaVuSans-Bold-6b" d="M 538 4863 
L 1656 4863 
L 1656 2216 
L 2944 3500 
L 4244 3500 
L 2534 1894 
L 4378 0 
L 3022 0 
L 1656 1459 
L 1656 0 
L 538 0 
L 538 4863 
z
" transform="scale(0.015625)"/>
      <path id="DejaVuSans-Bold-66" d="M 2841 4863 
L 2841 4128 
L 2222 4128 
Q 1984 4128 1890 4042 
Q 1797 3956 1797 3744 
L 1797 3500 
L 2753 3500 
L 2753 2700 
L 1797 2700 
L 1797 0 
L 678 0 
L 678 2700 
L 122 2700 
L 122 3500 
L 678 3500 
L 678 3744 
Q 678 4316 997 4589 
Q 1316 4863 1984 4863 
L 2841 4863 
z
" transform="scale(0.015625)"/>
     </defs>
     <use xlink:href="#DejaVuSans-Bold-41"/>
     <use xlink:href="#DejaVuSans-Bold-64" transform="translate(77.392578 0)"/>
     <use xlink:href="#DejaVuSans-Bold-61" transform="translate(148.974609 0)"/>
     <use xlink:href="#DejaVuSans-Bold-70" transform="translate(216.455078 0)"/>
     <use xlink:href="#DejaVuSans-Bold-74" transform="translate(288.037109 0)"/>
     <use xlink:href="#DejaVuSans-Bold-69" transform="translate(335.839844 0)"/>
     <use xlink:href="#DejaVuSans-Bold-76" transform="translate(370.117188 0)"/>
     <use xlink:href="#DejaVuSans-Bold-65" transform="translate(435.302734 0)"/>
     <use xlink:href="#DejaVuSans-Bold-20" transform="translate(503.125 0)"/>
     <use xlink:href="#DejaVuSans-Bold-4b" transform="translate(537.939453 0)"/>
     <use xlink:href="#DejaVuSans-Bold-49" transform="translate(615.429688 0)"/>
     <use xlink:href="#DejaVuSans-Bold-4b" transform="translate(652.636719 0)"/>
     <use xlink:href="#DejaVuSans-Bold-20" transform="translate(730.126953 0)"/>
     <use xlink:href="#DejaVuSans-Bold-57" transform="translate(764.941406 0)"/>
     <use xlink:href="#DejaVuSans-Bold-6f" transform="translate(871.619141 0)"/>
     <use xlink:href="#DejaVuSans-Bold-72" transform="translate(940.320312 0)"/>
     <use xlink:href="#DejaVuSans-Bold-6b" transform="translate(989.636719 0)"/>
     <use xlink:href="#DejaVuSans-Bold-66" transform="translate(1056.140625 0)"/>
     <use xlink:href="#DejaVuSans-Bold-6c" transform="translate(1099.646484 0)"/>
     <use xlink:href="#DejaVuSans-Bold-6f" transform="translate(1133.923828 0)"/>
     <use xlink:href="#DejaVuSans-Bold-77" transform="translate(1202.625 0)"/>
    </g>
   </g>
  </g>
 </g>
 <defs>
  <clipPath id="padd7ce3373">
   <rect x="7.2" y="39.3575" width="698.4" height="378.16"/>
  </clipPath>
 </defs>
</svg>
