<?xml version="1.0" encoding="utf-8" standalone="no"?>
<!DOCTYPE svg PUBLIC "-//W3C//DTD SVG 1.1//EN"
  "http://www.w3.org/Graphics/SVG/1.1/DTD/svg11.dtd">
<svg xmlns:xlink="http://www.w3.org/1999/xlink" width="1000.8pt" height="568.7175pt" viewBox="0 0 1000.8 568.7175" xmlns="http://www.w3.org/2000/svg" version="1.1">
 <metadata>
  <rdf:RDF xmlns:dc="http://purl.org/dc/elements/1.1/" xmlns:cc="http://creativecommons.org/ns#" xmlns:rdf="http://www.w3.org/1999/02/22-rdf-syntax-ns#">
   <cc:Work>
    <dc:type rdf:resource="http://purl.org/dc/dcmitype/StillImage"/>
    <dc:date>2026-02-08T16:04:24.813615</dc:date>
    <dc:format>image/svg+xml</dc:format>
    <dc:creator>
     <cc:Agent>
      <dc:title>Matplotlib v3.10.8, https://matplotlib.org/</dc:title>
     </cc:Agent>
    </dc:creator>
   </cc:Work>
  </rdf:RDF>
 </metadata>
 <defs>
  <style type="text/css">*{stroke-linejoin: round; stroke-linecap: butt}</style>
 </defs>
 <g id="figure_1">
  <g id="patch_1">
   <path d="M 0 568.7175 
L 1000.8 568.7175 
L 1000.8 0 
L 0 0 
z
" style="fill: #ffffff"/>
  </g>
  <g id="axes_1">
   <g id="patch_2">
    <path d="M 52.997143 187.302833 
L 208.002857 187.302833 
Q 222.094286 187.302833 222.094286 175.699278 
L 222.094286 123.483278 
Q 222.094286 111.879722 208.002857 111.879722 
L 52.997143 111.879722 
Q 38.905714 111.879722 38.905714 123.483278 
L 38.905714 175.699278 
Q 38.905714 187.302833 52.997143 187.302833 
z
" clip-path="url(#pb02e0d0761)" style="fill: #9b59b6; stroke: #000000; stroke-width: 2; stroke-linejoin: miter"/>
   </g>
   <g id="patch_3">
    <path d="M 52.997143 285.933056 
L 208.002857 285.933056 
Q 222.094286 285.933056 222.094286 274.3295 
L 222.094286 222.1135 
Q 222.094286 210.509944 208.002857 210.509944 
L 52.997143 210.509944 
Q 38.905714 210.509944 38.905714 222.1135 
L 38.905714 274.3295 
Q 38.905714 285.933056 52.997143 285.933056 
z
" clip-path="url(#pb02e0d0761)" style="fill: #27ae60; stroke: #000000; stroke-width: 2; stroke-linejoin: miter"/>
   </g>
   <g id="patch_4">
    <path d="M 264.368571 187.302833 
L 419.374286 187.302833 
Q 433.465714 187.302833 433.465714 175.699278 
L 433.465714 123.483278 
Q 433.465714 111.879722 419.374286 111.879722 
L 264.368571 111.879722 
Q 250.277143 111.879722 250.277143 123.483278 
L 250.277143 175.699278 
Q 250.277143 187.302833 264.368571 187.302833 
z
" clip-path="url(#pb02e0d0761)" style="fill: #e74c3c; stroke: #000000; stroke-width: 2; stroke-linejoin: miter"/>
   </g>
   <g id="patch_5">
    <path d="M 264.368571 285.933056 
L 419.374286 285.933056 
Q 433.465714 285.933056 433.465714 274.3295 
L 433.465714 222.1135 
Q 433.465714 210.509944 419.374286 210.509944 
L 264.368571 210.509944 
Q 250.277143 210.509944 250.277143 222.1135 
L 250.277143 274.3295 
Q 250.277143 285.933056 264.368571 285.933056 
z
" clip-path="url(#pb02e0d0761)" style="fill: #e74c3c; stroke: #000000; stroke-width: 2; stroke-linejoin: miter"/>
   </g>
   <g id="patch_6">
    <path d="M 158.682857 378.7615 
L 348.917143 378.7615 
Q 363.008571 378.7615 363.008571 367.157944 
L 363.008571 314.941944 
Q 363.008571 303.338389 348.917143 303.338389 
L 158.682857 303.338389 
Q 144.591429 303.338389 144.591429 314.941944 
L 144.591429 367.157944 
Q 144.591429 378.7615 158.682857 378.7615 
z
" clip-path="url(#pb02e0d0761)" style="fill: #34495e; stroke: #000000; stroke-width: 2; stroke-linejoin: miter"/>
   </g>
   <g id="patch_7">
    <path d="M 475.74 378.7615 
L 630.745714 378.7615 
Q 644.837143 378.7615 644.837143 367.157944 
L 644.837143 314.941944 
Q 644.837143 303.338389 630.745714 303.338389 
L 475.74 303.338389 
Q 461.648571 303.338389 461.648571 314.941944 
L 461.648571 367.157944 
Q 461.648571 378.7615 475.74 378.7615 
z
" clip-path="url(#pb02e0d0761)" style="fill: #3498db; stroke: #000000; stroke-width: 2; stroke-linejoin: miter"/>
   </g>
   <g id="patch_8">
    <path d="M 687.111429 187.302833 
L 842.117143 187.302833 
Q 856.208571 187.302833 856.208571 175.699278 
L 856.208571 123.483278 
Q 856.208571 111.879722 842.117143 111.879722 
L 687.111429 111.879722 
Q 673.02 111.879722 673.02 123.483278 
L 673.02 175.699278 
Q 673.02 187.302833 687.111429 187.302833 
z
" clip-path="url(#pb02e0d0761)" style="fill: #2c3e50; stroke: #000000; stroke-width: 2; stroke-linejoin: miter"/>
   </g>
   <g id="patch_9">
    <path d="M 687.111429 285.933056 
L 842.117143 285.933056 
Q 856.208571 285.933056 856.208571 274.3295 
L 856.208571 222.1135 
Q 856.208571 210.509944 842.117143 210.509944 
L 687.111429 210.509944 
Q 673.02 210.509944 673.02 222.1135 
L 673.02 274.3295 
Q 673.02 285.933056 687.111429 285.933056 
z
" clip-path="url(#pb02e0d0761)" style="fill: #e74c3c; stroke: #000000; stroke-width: 2; stroke-linejoin: miter"/>
   </g>
   <g id="patch_10">
    <path d="M 687.111429 494.797056 
L 842.117143 494.797056 
Q 856.208571 494.797056 856.208571 483.1935 
L 856.208571 430.9775 
Q 856.208571 419.373944 842.117143 419.373944 
L 687.111429 419.373944 
Q 673.02 419.373944 673.02 430.9775 
L 673.02 483.1935 
Q 673.02 494.797056 687.111429 494.797056 
z
" clip-path="url(#pb02e0d0761)" style="fill: #27ae60; stroke: #000000; stroke-width: 2; stroke-linejoin: miter"/>
   </g>
   <g id="text_1">
    <!-- Training Phase -->
    <g style="fill: #2c3e50" transform="translate(289.028571 79.969944) scale(0.12 -0.12)">
     <defs>
      <path id="DejaVuSans-Bold-54" d="M 31 4666 
L 4331 4666 
L 4331 3756 
L 2784 3756 
L 2784 0 
L 1581 0 
L 1581 3756 
L 31 3756 
L 31 4666 
z
" transform="scale(0.015625)"/>
      <path id="DejaVuSans-Bold-72" d="M 3138 2547 
Q 2991 2616 2845 2648 
Q 2700 2681 2553 2681 
Q 2122 2681 1889 2404 
Q 1656 2128 1656 1613 
L 1656 0 
L 538 0 
L 538 3500 
L 1656 3500 
L 1656 2925 
Q 1872 3269 2151 3426 
Q 2431 3584 2822 3584 
Q 2878 3584 2943 3579 
Q 3009 3575 3134 3559 
L 3138 2547 
z
" transform="scale(0.015625)"/>
      <path id="DejaVuSans-Bold-61" d="M 2106 1575 
Q 1756 1575 1579 1456 
Q 1403 1338 1403 1106 
Q 1403 894 1545 773 
Q 1688 653 1941 653 
Q 2256 653 2472 879 
Q 2688 1106 2688 1447 
L 2688 1575 
L 2106 1575 
z
M 3816 1997 
L 3816 0 
L 2688 0 
L 2688 519 
Q 2463 200 2181 54 
Q 1900 -91 1497 -91 
Q 953 -91 614 226 
Q 275 544 275 1050 
Q 275 1666 698 1953 
Q 1122 2241 2028 2241 
L 2688 2241 
L 2688 2328 
Q 2688 2594 2478 2717 
Q 2269 2841 1825 2841 
Q 1466 2841 1156 2769 
Q 847 2697 581 2553 
L 581 3406 
Q 941 3494 1303 3539 
Q 1666 3584 2028 3584 
Q 2975 3584 3395 3211 
Q 3816 2838 3816 1997 
z
" transform="scale(0.015625)"/>
      <path id="DejaVuSans-Bold-69" d="M 538 3500 
L 1656 3500 
L 1656 0 
L 538 0 
L 538 3500 
z
M 538 4863 
L 1656 4863 
L 1656 3950 
L 538 3950 
L 538 4863 
z
" transform="scale(0.015625)"/>
      <path id="DejaVuSans-Bold-6e" d="M 4056 2131 
L 4056 0 
L 2931 0 
L 2931 347 
L 2931 1631 
Q 2931 2084 2911 2256 
Q 2891 2428 2841 2509 
Q 2775 2619 2662 2680 
Q 2550 2741 2406 2741 
Q 2056 2741 1856 2470 
Q 1656 2200 1656 1722 
L 1656 0 
L 538 0 
L 538 3500 
L 1656 3500 
L 1656 2988 
Q 1909 3294 2193 3439 
Q 2478 3584 2822 3584 
Q 3428 3584 3742 3212 
Q 4056 2841 4056 2131 
z
" transform="scale(0.015625)"/>
      <path id="DejaVuSans-Bold-67" d="M 2919 594 
Q 2688 288 2409 144 
Q 2131 0 1766 0 
Q 1125 0 706 504 
Q 288 1009 288 1791 
Q 288 2575 706 3076 
Q 1125 3578 1766 3578 
Q 2131 3578 2409 3434 
Q 2688 3291 2919 2981 
L 2919 3500 
L 4044 3500 
L 4044 353 
Q 4044 -491 3511 -936 
Q 2978 -1381 1966 -1381 
Q 1638 -1381 1331 -1331 
Q 1025 -1281 716 -1178 
L 716 -306 
Q 1009 -475 1290 -558 
Q 1572 -641 1856 -641 
Q 2406 -641 2662 -400 
Q 2919 -159 2919 353 
L 2919 594 
z
M 2181 2772 
Q 1834 2772 1640 2515 
Q 1447 2259 1447 1791 
Q 1447 1309 1634 1061 
Q 1822 813 2181 813 
Q 2531 813 2725 1069 
Q 2919 1325 2919 1791 
Q 2919 2259 2725 2515 
Q 2531 2772 2181 2772 
z
" transform="scale(0.015625)"/>
      <path id="DejaVuSans-Bold-20" transform="scale(0.015625)"/>
      <path id="DejaVuSans-Bold-50" d="M 588 4666 
L 2584 4666 
Q 3475 4666 3951 4270 
Q 4428 3875 4428 3144 
Q 4428 2409 3951 2014 
Q 3475 1619 2584 1619 
L 1791 1619 
L 1791 0 
L 588 0 
L 588 4666 
z
M 1791 3794 
L 1791 2491 
L 2456 2491 
Q 2806 2491 2997 2661 
Q 3188 2831 3188 3144 
Q 3188 3456 2997 3625 
Q 2806 3794 2456 3794 
L 1791 3794 
z
" transform="scale(0.015625)"/>
      <path id="DejaVuSans-Bold-68" d="M 4056 2131 
L 4056 0 
L 2931 0 
L 2931 347 
L 2931 1625 
Q 2931 2084 2911 2256 
Q 2891 2428 2841 2509 
Q 2775 2619 2662 2680 
Q 2550 2741 2406 2741 
Q 2056 2741 1856 2470 
Q 1656 2200 1656 1722 
L 1656 0 
L 538 0 
L 538 4863 
L 1656 4863 
L 1656 2988 
Q 1909 3294 2193 3439 
Q 2478 3584 2822 3584 
Q 3428 3584 3742 3212 
Q 4056 2841 4056 2131 
z
" transform="scale(0.015625)"/>
      <path id="DejaVuSans-Bold-73" d="M 3272 3391 
L 3272 2541 
Q 2913 2691 2578 2766 
Q 2244 2841 1947 2841 
Q 1628 2841 1473 2761 
Q 1319 2681 1319 2516 
Q 1319 2381 1436 2309 
Q 1553 2238 1856 2203 
L 2053 2175 
Q 2913 2066 3209 1816 
Q 3506 1566 3506 1031 
Q 3506 472 3093 190 
Q 2681 -91 1863 -91 
Q 1516 -91 1145 -36 
Q 775 19 384 128 
L 384 978 
Q 719 816 1070 734 
Q 1422 653 1784 653 
Q 2113 653 2278 743 
Q 2444 834 2444 1013 
Q 2444 1163 2330 1236 
Q 2216 1309 1875 1350 
L 1678 1375 
Q 931 1469 631 1722 
Q 331 1975 331 2491 
Q 331 3047 712 3315 
Q 1094 3584 1881 3584 
Q 2191 3584 2531 3537 
Q 2872 3491 3272 3391 
z
" transform="scale(0.015625)"/>
      <path id="DejaVuSans-Bold-65" d="M 4031 1759 
L 4031 1441 
L 1416 1441 
Q 1456 1047 1700 850 
Q 1944 653 2381 653 
Q 2734 653 3104 758 
Q 3475 863 3866 1075 
L 3866 213 
Q 3469 63 3072 -14 
Q 2675 -91 2278 -91 
Q 1328 -91 801 392 
Q 275 875 275 1747 
Q 275 2603 792 3093 
Q 1309 3584 2216 3584 
Q 3041 3584 3536 3087 
Q 4031 2591 4031 1759 
z
M 2881 2131 
Q 2881 2450 2695 2645 
Q 2509 2841 2209 2841 
Q 1884 2841 1681 2658 
Q 1478 2475 1428 2131 
L 2881 2131 
z
" transform="scale(0.015625)"/>
     </defs>
     <use xlink:href="#DejaVuSans-Bold-54"/>
     <use xlink:href="#DejaVuSans-Bold-72" transform="translate(57.212891 0)"/>
     <use xlink:href="#DejaVuSans-Bold-61" transform="translate(106.529297 0)"/>
     <use xlink:href="#DejaVuSans-Bold-69" transform="translate(174.009766 0)"/>
     <use xlink:href="#DejaVuSans-Bold-6e" transform="translate(208.287109 0)"/>
     <use xlink:href="#DejaVuSans-Bold-69" transform="translate(279.478516 0)"/>
     <use xlink:href="#DejaVuSans-Bold-6e" transform="translate(313.755859 0)"/>
     <use xlink:href="#DejaVuSans-Bold-67" transform="translate(384.947266 0)"/>
     <use xlink:href="#DejaVuSans-Bold-20" transform="translate(456.529297 0)"/>
     <use xlink:href="#DejaVuSans-Bold-50" transform="translate(491.34375 0)"/>
     <use xlink:href="#DejaVuSans-Bold-68" transform="translate(564.634766 0)"/>
     <use xlink:href="#DejaVuSans-Bold-61" transform="translate(635.826172 0)"/>
     <use xlink:href="#DejaVuSans-Bold-73" transform="translate(703.306641 0)"/>
     <use xlink:href="#DejaVuSans-Bold-65" transform="translate(762.828125 0)"/>
    </g>
   </g>
   <g id="text_2">
    <!-- Near-Clifford -->
    <g style="fill: #ffffff" transform="translate(94.082031 146.751747) scale(0.1 -0.1)">
     <defs>
      <path id="DejaVuSans-Bold-4e" d="M 588 4666 
L 1931 4666 
L 3628 1466 
L 3628 4666 
L 4769 4666 
L 4769 0 
L 3425 0 
L 1728 3200 
L 1728 0 
L 588 0 
L 588 4666 
z
" transform="scale(0.015625)"/>
      <path id="DejaVuSans-Bold-2d" d="M 347 2297 
L 2309 2297 
L 2309 1388 
L 347 1388 
L 347 2297 
z
" transform="scale(0.015625)"/>
      <path id="DejaVuSans-Bold-43" d="M 4288 256 
Q 3956 84 3597 -3 
Q 3238 -91 2847 -91 
Q 1681 -91 1000 561 
Q 319 1213 319 2328 
Q 319 3447 1000 4098 
Q 1681 4750 2847 4750 
Q 3238 4750 3597 4662 
Q 3956 4575 4288 4403 
L 4288 3438 
Q 3953 3666 3628 3772 
Q 3303 3878 2944 3878 
Q 2300 3878 1931 3465 
Q 1563 3053 1563 2328 
Q 1563 1606 1931 1193 
Q 2300 781 2944 781 
Q 3303 781 3628 887 
Q 3953 994 4288 1222 
L 4288 256 
z
" transform="scale(0.015625)"/>
      <path id="DejaVuSans-Bold-6c" d="M 538 4863 
L 1656 4863 
L 1656 0 
L 538 0 
L 538 4863 
z
" transform="scale(0.015625)"/>
      <path id="DejaVuSans-Bold-66" d="M 2841 4863 
L 2841 4128 
L 2222 4128 
Q 1984 4128 1890 4042 
Q 1797 3956 1797 3744 
L 1797 3500 
L 2753 3500 
L 2753 2700 
L 1797 2700 
L 1797 0 
L 678 0 
L 678 2700 
L 122 2700 
L 122 3500 
L 678 3500 
L 678 3744 
Q 678 4316 997 4589 
Q 1316 4863 1984 4863 
L 2841 4863 
z
" transform="scale(0.015625)"/>
      <path id="DejaVuSans-Bold-6f" d="M 2203 2784 
Q 1831 2784 1636 2517 
Q 1441 2250 1441 1747 
Q 1441 1244 1636 976 
Q 1831 709 2203 709 
Q 2569 709 2762 976 
Q 2956 1244 2956 1747 
Q 2956 2250 2762 2517 
Q 2569 2784 2203 2784 
z
M 2203 3584 
Q 3106 3584 3614 3096 
Q 4122 2609 4122 1747 
Q 4122 884 3614 396 
Q 3106 -91 2203 -91 
Q 1297 -91 786 396 
Q 275 884 275 1747 
Q 275 2609 786 3096 
Q 1297 3584 2203 3584 
z
" transform="scale(0.015625)"/>
      <path id="DejaVuSans-Bold-64" d="M 2919 2988 
L 2919 4863 
L 4044 4863 
L 4044 0 
L 2919 0 
L 2919 506 
Q 2688 197 2409 53 
Q 2131 -91 1766 -91 
Q 1119 -91 703 423 
Q 288 938 288 1747 
Q 288 2556 703 3070 
Q 1119 3584 1766 3584 
Q 2128 3584 2408 3439 
Q 2688 3294 2919 2988 
z
M 2181 722 
Q 2541 722 2730 984 
Q 2919 1247 2919 1747 
Q 2919 2247 2730 2509 
Q 2541 2772 2181 2772 
Q 1825 2772 1636 2509 
Q 1447 2247 1447 1747 
Q 1447 1247 1636 984 
Q 1825 722 2181 722 
z
" transform="scale(0.015625)"/>
     </defs>
     <use xlink:href="#DejaVuSans-Bold-4e"/>
     <use xlink:href="#DejaVuSans-Bold-65" transform="translate(83.691406 0)"/>
     <use xlink:href="#DejaVuSans-Bold-61" transform="translate(151.513672 0)"/>
     <use xlink:href="#DejaVuSans-Bold-72" transform="translate(218.994141 0)"/>
     <use xlink:href="#DejaVuSans-Bold-2d" transform="translate(268.310547 0)"/>
     <use xlink:href="#DejaVuSans-Bold-43" transform="translate(309.814453 0)"/>
     <use xlink:href="#DejaVuSans-Bold-6c" transform="translate(383.203125 0)"/>
     <use xlink:href="#DejaVuSans-Bold-69" transform="translate(417.480469 0)"/>
     <use xlink:href="#DejaVuSans-Bold-66" transform="translate(451.757812 0)"/>
     <use xlink:href="#DejaVuSans-Bold-66" transform="translate(495.263672 0)"/>
     <use xlink:href="#DejaVuSans-Bold-6f" transform="translate(538.769531 0)"/>
     <use xlink:href="#DejaVuSans-Bold-72" transform="translate(607.470703 0)"/>
     <use xlink:href="#DejaVuSans-Bold-64" transform="translate(656.787109 0)"/>
    </g>
    <!-- Circuits -->
    <g style="fill: #ffffff" transform="translate(109.047656 157.949559) scale(0.1 -0.1)">
     <defs>
      <path id="DejaVuSans-Bold-63" d="M 3366 3391 
L 3366 2478 
Q 3138 2634 2908 2709 
Q 2678 2784 2431 2784 
Q 1963 2784 1702 2511 
Q 1441 2238 1441 1747 
Q 1441 1256 1702 982 
Q 1963 709 2431 709 
Q 2694 709 2930 787 
Q 3166 866 3366 1019 
L 3366 103 
Q 3103 6 2833 -42 
Q 2563 -91 2291 -91 
Q 1344 -91 809 395 
Q 275 881 275 1747 
Q 275 2613 809 3098 
Q 1344 3584 2291 3584 
Q 2566 3584 2833 3536 
Q 3100 3488 3366 3391 
z
" transform="scale(0.015625)"/>
      <path id="DejaVuSans-Bold-75" d="M 500 1363 
L 500 3500 
L 1625 3500 
L 1625 3150 
Q 1625 2866 1622 2436 
Q 1619 2006 1619 1863 
Q 1619 1441 1641 1255 
Q 1663 1069 1716 984 
Q 1784 875 1895 815 
Q 2006 756 2150 756 
Q 2500 756 2700 1025 
Q 2900 1294 2900 1772 
L 2900 3500 
L 4019 3500 
L 4019 0 
L 2900 0 
L 2900 506 
Q 2647 200 2364 54 
Q 2081 -91 1741 -91 
Q 1134 -91 817 281 
Q 500 653 500 1363 
z
" transform="scale(0.015625)"/>
      <path id="DejaVuSans-Bold-74" d="M 1759 4494 
L 1759 3500 
L 2913 3500 
L 2913 2700 
L 1759 2700 
L 1759 1216 
Q 1759 972 1856 886 
Q 1953 800 2241 800 
L 2816 800 
L 2816 0 
L 1856 0 
Q 1194 0 917 276 
Q 641 553 641 1216 
L 641 2700 
L 84 2700 
L 84 3500 
L 641 3500 
L 641 4494 
L 1759 4494 
z
" transform="scale(0.015625)"/>
     </defs>
     <use xlink:href="#DejaVuSans-Bold-43"/>
     <use xlink:href="#DejaVuSans-Bold-69" transform="translate(73.388672 0)"/>
     <use xlink:href="#DejaVuSans-Bold-72" transform="translate(107.666016 0)"/>
     <use xlink:href="#DejaVuSans-Bold-63" transform="translate(156.982422 0)"/>
     <use xlink:href="#DejaVuSans-Bold-75" transform="translate(216.259766 0)"/>
     <use xlink:href="#DejaVuSans-Bold-69" transform="translate(287.451172 0)"/>
     <use xlink:href="#DejaVuSans-Bold-74" transform="translate(321.728516 0)"/>
     <use xlink:href="#DejaVuSans-Bold-73" transform="translate(369.53125 0)"/>
    </g>
   </g>
   <g id="text_3">
    <!-- Classical -->
    <g style="fill: #ffffff" transform="translate(106.024219 245.381969) scale(0.1 -0.1)">
     <use xlink:href="#DejaVuSans-Bold-43"/>
     <use xlink:href="#DejaVuSans-Bold-6c" transform="translate(73.388672 0)"/>
     <use xlink:href="#DejaVuSans-Bold-61" transform="translate(107.666016 0)"/>
     <use xlink:href="#DejaVuSans-Bold-73" transform="translate(175.146484 0)"/>
     <use xlink:href="#DejaVuSans-Bold-73" transform="translate(234.667969 0)"/>
     <use xlink:href="#DejaVuSans-Bold-69" transform="translate(294.189453 0)"/>
     <use xlink:href="#DejaVuSans-Bold-63" transform="translate(328.466797 0)"/>
     <use xlink:href="#DejaVuSans-Bold-61" transform="translate(387.744141 0)"/>
     <use xlink:href="#DejaVuSans-Bold-6c" transform="translate(455.224609 0)"/>
    </g>
    <!-- Simulation -->
    <g style="fill: #ffffff" transform="translate(100.228906 256.579781) scale(0.1 -0.1)">
     <defs>
      <path id="DejaVuSans-Bold-53" d="M 3834 4519 
L 3834 3531 
Q 3450 3703 3084 3790 
Q 2719 3878 2394 3878 
Q 1963 3878 1756 3759 
Q 1550 3641 1550 3391 
Q 1550 3203 1689 3098 
Q 1828 2994 2194 2919 
L 2706 2816 
Q 3484 2659 3812 2340 
Q 4141 2022 4141 1434 
Q 4141 663 3683 286 
Q 3225 -91 2284 -91 
Q 1841 -91 1394 -6 
Q 947 78 500 244 
L 500 1259 
Q 947 1022 1364 901 
Q 1781 781 2169 781 
Q 2563 781 2772 912 
Q 2981 1044 2981 1288 
Q 2981 1506 2839 1625 
Q 2697 1744 2272 1838 
L 1806 1941 
Q 1106 2091 782 2419 
Q 459 2747 459 3303 
Q 459 4000 909 4375 
Q 1359 4750 2203 4750 
Q 2588 4750 2994 4692 
Q 3400 4634 3834 4519 
z
" transform="scale(0.015625)"/>
      <path id="DejaVuSans-Bold-6d" d="M 3781 2919 
Q 3994 3244 4286 3414 
Q 4578 3584 4928 3584 
Q 5531 3584 5847 3212 
Q 6163 2841 6163 2131 
L 6163 0 
L 5038 0 
L 5038 1825 
Q 5041 1866 5042 1909 
Q 5044 1953 5044 2034 
Q 5044 2406 4934 2573 
Q 4825 2741 4581 2741 
Q 4263 2741 4089 2478 
Q 3916 2216 3909 1719 
L 3909 0 
L 2784 0 
L 2784 1825 
Q 2784 2406 2684 2573 
Q 2584 2741 2328 2741 
Q 2006 2741 1831 2477 
Q 1656 2213 1656 1722 
L 1656 0 
L 531 0 
L 531 3500 
L 1656 3500 
L 1656 2988 
Q 1863 3284 2130 3434 
Q 2397 3584 2719 3584 
Q 3081 3584 3359 3409 
Q 3638 3234 3781 2919 
z
" transform="scale(0.015625)"/>
     </defs>
     <use xlink:href="#DejaVuSans-Bold-53"/>
     <use xlink:href="#DejaVuSans-Bold-69" transform="translate(72.021484 0)"/>
     <use xlink:href="#DejaVuSans-Bold-6d" transform="translate(106.298828 0)"/>
     <use xlink:href="#DejaVuSans-Bold-75" transform="translate(210.498047 0)"/>
     <use xlink:href="#DejaVuSans-Bold-6c" transform="translate(281.689453 0)"/>
     <use xlink:href="#DejaVuSans-Bold-61" transform="translate(315.966797 0)"/>
     <use xlink:href="#DejaVuSans-Bold-74" transform="translate(383.447266 0)"/>
     <use xlink:href="#DejaVuSans-Bold-69" transform="translate(431.25 0)"/>
     <use xlink:href="#DejaVuSans-Bold-6f" transform="translate(465.527344 0)"/>
     <use xlink:href="#DejaVuSans-Bold-6e" transform="translate(534.228516 0)"/>
    </g>
   </g>
   <g id="patch_11">
    <path d="M 130.5 186.40268 
Q 130.5 198.906149 130.5 209.173551 
" style="fill: none; stroke: #000000; stroke-width: 2; stroke-linecap: round"/>
    <path d="M 132.5 205.173551 
L 130.5 209.173551 
L 128.5 205.173551 
" style="fill: none; stroke: #000000; stroke-width: 2; stroke-linecap: round"/>
   </g>
   <g id="text_4">
    <!-- Ideal -->
    <g style="fill: #27ae60" transform="translate(148.114286 192.849028) scale(0.08 -0.08)">
     <defs>
      <path id="DejaVuSans-49" d="M 628 4666 
L 1259 4666 
L 1259 0 
L 628 0 
L 628 4666 
z
" transform="scale(0.015625)"/>
      <path id="DejaVuSans-64" d="M 2906 2969 
L 2906 4863 
L 3481 4863 
L 3481 0 
L 2906 0 
L 2906 525 
Q 2725 213 2448 61 
Q 2172 -91 1784 -91 
Q 1150 -91 751 415 
Q 353 922 353 1747 
Q 353 2572 751 3078 
Q 1150 3584 1784 3584 
Q 2172 3584 2448 3432 
Q 2725 3281 2906 2969 
z
M 947 1747 
Q 947 1113 1208 752 
Q 1469 391 1925 391 
Q 2381 391 2643 752 
Q 2906 1113 2906 1747 
Q 2906 2381 2643 2742 
Q 2381 3103 1925 3103 
Q 1469 3103 1208 2742 
Q 947 2381 947 1747 
z
" transform="scale(0.015625)"/>
      <path id="DejaVuSans-65" d="M 3597 1894 
L 3597 1613 
L 953 1613 
Q 991 1019 1311 708 
Q 1631 397 2203 397 
Q 2534 397 2845 478 
Q 3156 559 3463 722 
L 3463 178 
Q 3153 47 2828 -22 
Q 2503 -91 2169 -91 
Q 1331 -91 842 396 
Q 353 884 353 1716 
Q 353 2575 817 3079 
Q 1281 3584 2069 3584 
Q 2775 3584 3186 3129 
Q 3597 2675 3597 1894 
z
M 3022 2063 
Q 3016 2534 2758 2815 
Q 2500 3097 2075 3097 
Q 1594 3097 1305 2825 
Q 1016 2553 972 2059 
L 3022 2063 
z
" transform="scale(0.015625)"/>
      <path id="DejaVuSans-61" d="M 2194 1759 
Q 1497 1759 1228 1600 
Q 959 1441 959 1056 
Q 959 750 1161 570 
Q 1363 391 1709 391 
Q 2188 391 2477 730 
Q 2766 1069 2766 1631 
L 2766 1759 
L 2194 1759 
z
M 3341 1997 
L 3341 0 
L 2766 0 
L 2766 531 
Q 2569 213 2275 61 
Q 1981 -91 1556 -91 
Q 1019 -91 701 211 
Q 384 513 384 1019 
Q 384 1609 779 1909 
Q 1175 2209 1959 2209 
L 2766 2209 
L 2766 2266 
Q 2766 2663 2505 2880 
Q 2244 3097 1772 3097 
Q 1472 3097 1187 3025 
Q 903 2953 641 2809 
L 641 3341 
Q 956 3463 1253 3523 
Q 1550 3584 1831 3584 
Q 2591 3584 2966 3190 
Q 3341 2797 3341 1997 
z
" transform="scale(0.015625)"/>
      <path id="DejaVuSans-6c" d="M 603 4863 
L 1178 4863 
L 1178 0 
L 603 0 
L 603 4863 
z
" transform="scale(0.015625)"/>
     </defs>
     <use xlink:href="#DejaVuSans-49"/>
     <use xlink:href="#DejaVuSans-64" transform="translate(29.492188 0)"/>
     <use xlink:href="#DejaVuSans-65" transform="translate(92.96875 0)"/>
     <use xlink:href="#DejaVuSans-61" transform="translate(154.492188 0)"/>
     <use xlink:href="#DejaVuSans-6c" transform="translate(215.771484 0)"/>
    </g>
    <!-- values -->
    <g style="fill: #27ae60" transform="translate(148.114286 201.807278) scale(0.08 -0.08)">
     <defs>
      <path id="DejaVuSans-76" d="M 191 3500 
L 800 3500 
L 1894 563 
L 2988 3500 
L 3597 3500 
L 2284 0 
L 1503 0 
L 191 3500 
z
" transform="scale(0.015625)"/>
      <path id="DejaVuSans-75" d="M 544 1381 
L 544 3500 
L 1119 3500 
L 1119 1403 
Q 1119 906 1312 657 
Q 1506 409 1894 409 
Q 2359 409 2629 706 
Q 2900 1003 2900 1516 
L 2900 3500 
L 3475 3500 
L 3475 0 
L 2900 0 
L 2900 538 
Q 2691 219 2414 64 
Q 2138 -91 1772 -91 
Q 1169 -91 856 284 
Q 544 659 544 1381 
z
M 1991 3584 
L 1991 3584 
z
" transform="scale(0.015625)"/>
      <path id="DejaVuSans-73" d="M 2834 3397 
L 2834 2853 
Q 2591 2978 2328 3040 
Q 2066 3103 1784 3103 
Q 1356 3103 1142 2972 
Q 928 2841 928 2578 
Q 928 2378 1081 2264 
Q 1234 2150 1697 2047 
L 1894 2003 
Q 2506 1872 2764 1633 
Q 3022 1394 3022 966 
Q 3022 478 2636 193 
Q 2250 -91 1575 -91 
Q 1294 -91 989 -36 
Q 684 19 347 128 
L 347 722 
Q 666 556 975 473 
Q 1284 391 1588 391 
Q 1994 391 2212 530 
Q 2431 669 2431 922 
Q 2431 1156 2273 1281 
Q 2116 1406 1581 1522 
L 1381 1569 
Q 847 1681 609 1914 
Q 372 2147 372 2553 
Q 372 3047 722 3315 
Q 1072 3584 1716 3584 
Q 2034 3584 2315 3537 
Q 2597 3491 2834 3397 
z
" transform="scale(0.015625)"/>
     </defs>
     <use xlink:href="#DejaVuSans-76"/>
     <use xlink:href="#DejaVuSans-61" transform="translate(59.179688 0)"/>
     <use xlink:href="#DejaVuSans-6c" transform="translate(120.458984 0)"/>
     <use xlink:href="#DejaVuSans-75" transform="translate(148.242188 0)"/>
     <use xlink:href="#DejaVuSans-65" transform="translate(211.621094 0)"/>
     <use xlink:href="#DejaVuSans-73" transform="translate(273.144531 0)"/>
    </g>
   </g>
   <g id="text_5">
    <!-- Quantum -->
    <g style="fill: #ffffff" transform="translate(315.968304 146.751747) scale(0.1 -0.1)">
     <defs>
      <path id="DejaVuSans-Bold-51" d="M 2847 -84 
L 2753 -84 
Q 1600 -84 959 553 
Q 319 1191 319 2328 
Q 319 3463 958 4106 
Q 1597 4750 2719 4750 
Q 3853 4750 4486 4112 
Q 5119 3475 5119 2328 
Q 5119 1541 4783 972 
Q 4447 403 3816 116 
L 4756 -934 
L 3609 -934 
L 2847 -84 
z
M 2719 3878 
Q 2169 3878 1866 3472 
Q 1563 3066 1563 2328 
Q 1563 1578 1859 1179 
Q 2156 781 2719 781 
Q 3272 781 3575 1187 
Q 3878 1594 3878 2328 
Q 3878 3066 3575 3472 
Q 3272 3878 2719 3878 
z
" transform="scale(0.015625)"/>
     </defs>
     <use xlink:href="#DejaVuSans-Bold-51"/>
     <use xlink:href="#DejaVuSans-Bold-75" transform="translate(85.009766 0)"/>
     <use xlink:href="#DejaVuSans-Bold-61" transform="translate(156.201172 0)"/>
     <use xlink:href="#DejaVuSans-Bold-6e" transform="translate(223.681641 0)"/>
     <use xlink:href="#DejaVuSans-Bold-74" transform="translate(294.873047 0)"/>
     <use xlink:href="#DejaVuSans-Bold-75" transform="translate(342.675781 0)"/>
     <use xlink:href="#DejaVuSans-Bold-6d" transform="translate(413.867188 0)"/>
    </g>
    <!-- Execution -->
    <g style="fill: #ffffff" transform="translate(314.217522 157.949559) scale(0.1 -0.1)">
     <defs>
      <path id="DejaVuSans-Bold-45" d="M 588 4666 
L 3834 4666 
L 3834 3756 
L 1791 3756 
L 1791 2888 
L 3713 2888 
L 3713 1978 
L 1791 1978 
L 1791 909 
L 3903 909 
L 3903 0 
L 588 0 
L 588 4666 
z
" transform="scale(0.015625)"/>
      <path id="DejaVuSans-Bold-78" d="M 1422 1791 
L 159 3500 
L 1344 3500 
L 2059 2463 
L 2784 3500 
L 3969 3500 
L 2706 1797 
L 4031 0 
L 2847 0 
L 2059 1106 
L 1281 0 
L 97 0 
L 1422 1791 
z
" transform="scale(0.015625)"/>
     </defs>
     <use xlink:href="#DejaVuSans-Bold-45"/>
     <use xlink:href="#DejaVuSans-Bold-78" transform="translate(68.310547 0)"/>
     <use xlink:href="#DejaVuSans-Bold-65" transform="translate(132.8125 0)"/>
     <use xlink:href="#DejaVuSans-Bold-63" transform="translate(200.634766 0)"/>
     <use xlink:href="#DejaVuSans-Bold-75" transform="translate(259.912109 0)"/>
     <use xlink:href="#DejaVuSans-Bold-74" transform="translate(331.103516 0)"/>
     <use xlink:href="#DejaVuSans-Bold-69" transform="translate(378.90625 0)"/>
     <use xlink:href="#DejaVuSans-Bold-6f" transform="translate(413.183594 0)"/>
     <use xlink:href="#DejaVuSans-Bold-6e" transform="translate(481.884766 0)"/>
    </g>
   </g>
   <g id="patch_12">
    <path d="M 220.571097 149.591278 
Q 236.18568 149.591278 249.564195 149.591278 
" style="fill: none; stroke: #000000; stroke-width: 2; stroke-linecap: round"/>
    <path d="M 245.564195 147.591278 
L 249.564195 149.591278 
L 245.564195 151.591278 
" style="fill: none; stroke: #000000; stroke-width: 2; stroke-linecap: round"/>
   </g>
   <g id="text_6">
    <!-- Noisy -->
    <g style="fill: #ffffff" transform="translate(326.302679 245.342906) scale(0.1 -0.1)">
     <defs>
      <path id="DejaVuSans-Bold-79" d="M 78 3500 
L 1197 3500 
L 2138 1125 
L 2938 3500 
L 4056 3500 
L 2584 -331 
Q 2363 -916 2067 -1148 
Q 1772 -1381 1288 -1381 
L 641 -1381 
L 641 -647 
L 991 -647 
Q 1275 -647 1404 -556 
Q 1534 -466 1606 -231 
L 1638 -134 
L 78 3500 
z
" transform="scale(0.015625)"/>
     </defs>
     <use xlink:href="#DejaVuSans-Bold-4e"/>
     <use xlink:href="#DejaVuSans-Bold-6f" transform="translate(83.691406 0)"/>
     <use xlink:href="#DejaVuSans-Bold-69" transform="translate(152.392578 0)"/>
     <use xlink:href="#DejaVuSans-Bold-73" transform="translate(186.669922 0)"/>
     <use xlink:href="#DejaVuSans-Bold-79" transform="translate(246.191406 0)"/>
    </g>
    <!-- Outputs -->
    <g style="fill: #ffffff" transform="translate(319.167522 256.618844) scale(0.1 -0.1)">
     <defs>
      <path id="DejaVuSans-Bold-4f" d="M 2719 3878 
Q 2169 3878 1866 3472 
Q 1563 3066 1563 2328 
Q 1563 1594 1866 1187 
Q 2169 781 2719 781 
Q 3272 781 3575 1187 
Q 3878 1594 3878 2328 
Q 3878 3066 3575 3472 
Q 3272 3878 2719 3878 
z
M 2719 4750 
Q 3844 4750 4481 4106 
Q 5119 3463 5119 2328 
Q 5119 1197 4481 553 
Q 3844 -91 2719 -91 
Q 1597 -91 958 553 
Q 319 1197 319 2328 
Q 319 3463 958 4106 
Q 1597 4750 2719 4750 
z
" transform="scale(0.015625)"/>
      <path id="DejaVuSans-Bold-70" d="M 1656 506 
L 1656 -1331 
L 538 -1331 
L 538 3500 
L 1656 3500 
L 1656 2988 
Q 1888 3294 2169 3439 
Q 2450 3584 2816 3584 
Q 3463 3584 3878 3070 
Q 4294 2556 4294 1747 
Q 4294 938 3878 423 
Q 3463 -91 2816 -91 
Q 2450 -91 2169 54 
Q 1888 200 1656 506 
z
M 2400 2772 
Q 2041 2772 1848 2508 
Q 1656 2244 1656 1747 
Q 1656 1250 1848 986 
Q 2041 722 2400 722 
Q 2759 722 2948 984 
Q 3138 1247 3138 1747 
Q 3138 2247 2948 2509 
Q 2759 2772 2400 2772 
z
" transform="scale(0.015625)"/>
     </defs>
     <use xlink:href="#DejaVuSans-Bold-4f"/>
     <use xlink:href="#DejaVuSans-Bold-75" transform="translate(85.009766 0)"/>
     <use xlink:href="#DejaVuSans-Bold-74" transform="translate(156.201172 0)"/>
     <use xlink:href="#DejaVuSans-Bold-70" transform="translate(204.003906 0)"/>
     <use xlink:href="#DejaVuSans-Bold-75" transform="translate(275.585938 0)"/>
     <use xlink:href="#DejaVuSans-Bold-74" transform="translate(346.777344 0)"/>
     <use xlink:href="#DejaVuSans-Bold-73" transform="translate(394.580078 0)"/>
    </g>
   </g>
   <g id="patch_13">
    <path d="M 341.871429 186.40268 
Q 341.871429 198.906149 341.871429 209.173551 
" style="fill: none; stroke: #000000; stroke-width: 2; stroke-linecap: round"/>
    <path d="M 343.871429 205.173551 
L 341.871429 209.173551 
L 339.871429 205.173551 
" style="fill: none; stroke: #000000; stroke-width: 2; stroke-linecap: round"/>
   </g>
   <g id="text_7">
    <!-- Training Data -->
    <g style="fill: #ffffff" transform="translate(215.94375 338.132288) scale(0.1 -0.1)">
     <defs>
      <path id="DejaVuSans-Bold-44" d="M 1791 3756 
L 1791 909 
L 2222 909 
Q 2959 909 3348 1275 
Q 3738 1641 3738 2338 
Q 3738 3031 3350 3393 
Q 2963 3756 2222 3756 
L 1791 3756 
z
M 588 4666 
L 1856 4666 
Q 2919 4666 3439 4514 
Q 3959 4363 4331 4000 
Q 4659 3684 4818 3271 
Q 4978 2859 4978 2338 
Q 4978 1809 4818 1395 
Q 4659 981 4331 666 
Q 3956 303 3431 151 
Q 2906 0 1856 0 
L 588 0 
L 588 4666 
z
" transform="scale(0.015625)"/>
     </defs>
     <use xlink:href="#DejaVuSans-Bold-54"/>
     <use xlink:href="#DejaVuSans-Bold-72" transform="translate(57.212891 0)"/>
     <use xlink:href="#DejaVuSans-Bold-61" transform="translate(106.529297 0)"/>
     <use xlink:href="#DejaVuSans-Bold-69" transform="translate(174.009766 0)"/>
     <use xlink:href="#DejaVuSans-Bold-6e" transform="translate(208.287109 0)"/>
     <use xlink:href="#DejaVuSans-Bold-69" transform="translate(279.478516 0)"/>
     <use xlink:href="#DejaVuSans-Bold-6e" transform="translate(313.755859 0)"/>
     <use xlink:href="#DejaVuSans-Bold-67" transform="translate(384.947266 0)"/>
     <use xlink:href="#DejaVuSans-Bold-20" transform="translate(456.529297 0)"/>
     <use xlink:href="#DejaVuSans-Bold-44" transform="translate(491.34375 0)"/>
     <use xlink:href="#DejaVuSans-Bold-61" transform="translate(574.351562 0)"/>
     <use xlink:href="#DejaVuSans-Bold-74" transform="translate(641.832031 0)"/>
     <use xlink:href="#DejaVuSans-Bold-61" transform="translate(689.634766 0)"/>
    </g>
    <!-- (features, noisy, ideal) -->
    <g style="fill: #ffffff" transform="translate(189.898437 349.408226) scale(0.1 -0.1)">
     <defs>
      <path id="DejaVuSans-Bold-28" d="M 2413 -844 
L 1484 -844 
Q 1006 -72 778 623 
Q 550 1319 550 2003 
Q 550 2688 779 3389 
Q 1009 4091 1484 4856 
L 2413 4856 
Q 2013 4116 1813 3408 
Q 1613 2700 1613 2009 
Q 1613 1319 1811 609 
Q 2009 -100 2413 -844 
z
" transform="scale(0.015625)"/>
      <path id="DejaVuSans-Bold-2c" d="M 653 1209 
L 1778 1209 
L 1778 256 
L 1006 -909 
L 341 -909 
L 653 256 
L 653 1209 
z
" transform="scale(0.015625)"/>
      <path id="DejaVuSans-Bold-29" d="M 513 -844 
Q 913 -100 1113 609 
Q 1313 1319 1313 2009 
Q 1313 2700 1113 3408 
Q 913 4116 513 4856 
L 1441 4856 
Q 1916 4091 2145 3389 
Q 2375 2688 2375 2003 
Q 2375 1319 2147 623 
Q 1919 -72 1441 -844 
L 513 -844 
z
" transform="scale(0.015625)"/>
     </defs>
     <use xlink:href="#DejaVuSans-Bold-28"/>
     <use xlink:href="#DejaVuSans-Bold-66" transform="translate(45.703125 0)"/>
     <use xlink:href="#DejaVuSans-Bold-65" transform="translate(89.208984 0)"/>
     <use xlink:href="#DejaVuSans-Bold-61" transform="translate(157.03125 0)"/>
     <use xlink:href="#DejaVuSans-Bold-74" transform="translate(224.511719 0)"/>
     <use xlink:href="#DejaVuSans-Bold-75" transform="translate(272.314453 0)"/>
     <use xlink:href="#DejaVuSans-Bold-72" transform="translate(343.505859 0)"/>
     <use xlink:href="#DejaVuSans-Bold-65" transform="translate(392.822266 0)"/>
     <use xlink:href="#DejaVuSans-Bold-73" transform="translate(460.644531 0)"/>
     <use xlink:href="#DejaVuSans-Bold-2c" transform="translate(520.166016 0)"/>
     <use xlink:href="#DejaVuSans-Bold-20" transform="translate(558.154297 0)"/>
     <use xlink:href="#DejaVuSans-Bold-6e" transform="translate(592.96875 0)"/>
     <use xlink:href="#DejaVuSans-Bold-6f" transform="translate(664.160156 0)"/>
     <use xlink:href="#DejaVuSans-Bold-69" transform="translate(732.861328 0)"/>
     <use xlink:href="#DejaVuSans-Bold-73" transform="translate(767.138672 0)"/>
     <use xlink:href="#DejaVuSans-Bold-79" transform="translate(826.660156 0)"/>
     <use xlink:href="#DejaVuSans-Bold-2c" transform="translate(884.095703 0)"/>
     <use xlink:href="#DejaVuSans-Bold-20" transform="translate(922.083984 0)"/>
     <use xlink:href="#DejaVuSans-Bold-69" transform="translate(956.898438 0)"/>
     <use xlink:href="#DejaVuSans-Bold-64" transform="translate(991.175781 0)"/>
     <use xlink:href="#DejaVuSans-Bold-65" transform="translate(1062.757812 0)"/>
     <use xlink:href="#DejaVuSans-Bold-61" transform="translate(1130.580078 0)"/>
     <use xlink:href="#DejaVuSans-Bold-6c" transform="translate(1198.060547 0)"/>
     <use xlink:href="#DejaVuSans-Bold-29" transform="translate(1232.337891 0)"/>
    </g>
   </g>
   <g id="patch_14">
    <path d="M 132.328729 283.835294 
Q 156.918822 294.634577 179.461583 304.53473 
" style="fill: none; stroke: #000000; stroke-width: 2; stroke-linecap: round"/>
    <path d="M 176.603413 301.095128 
L 179.461583 304.53473 
L 174.994999 304.757505 
" style="fill: none; stroke: #000000; stroke-width: 2; stroke-linecap: round"/>
   </g>
   <g id="patch_15">
    <path d="M 340.660876 284.627089 
Q 333.062736 294.637764 326.816478 302.867312 
" style="fill: none; stroke: #000000; stroke-width: 2; stroke-linecap: round"/>
    <path d="M 330.827887 300.890295 
L 326.816478 302.867312 
L 327.64171 298.471974 
" style="fill: none; stroke: #000000; stroke-width: 2; stroke-linecap: round"/>
   </g>
   <g id="text_8">
    <!-- ML Model -->
    <g style="fill: #ffffff" transform="translate(526.245201 338.210413) scale(0.1 -0.1)">
     <defs>
      <path id="DejaVuSans-Bold-4d" d="M 588 4666 
L 2119 4666 
L 3181 2169 
L 4250 4666 
L 5778 4666 
L 5778 0 
L 4641 0 
L 4641 3413 
L 3566 897 
L 2803 897 
L 1728 3413 
L 1728 0 
L 588 0 
L 588 4666 
z
" transform="scale(0.015625)"/>
      <path id="DejaVuSans-Bold-4c" d="M 588 4666 
L 1791 4666 
L 1791 909 
L 3903 909 
L 3903 0 
L 588 0 
L 588 4666 
z
" transform="scale(0.015625)"/>
     </defs>
     <use xlink:href="#DejaVuSans-Bold-4d"/>
     <use xlink:href="#DejaVuSans-Bold-4c" transform="translate(99.511719 0)"/>
     <use xlink:href="#DejaVuSans-Bold-20" transform="translate(163.232422 0)"/>
     <use xlink:href="#DejaVuSans-Bold-4d" transform="translate(198.046875 0)"/>
     <use xlink:href="#DejaVuSans-Bold-6f" transform="translate(297.558594 0)"/>
     <use xlink:href="#DejaVuSans-Bold-64" transform="translate(366.259766 0)"/>
     <use xlink:href="#DejaVuSans-Bold-65" transform="translate(437.841797 0)"/>
     <use xlink:href="#DejaVuSans-Bold-6c" transform="translate(505.664062 0)"/>
    </g>
    <!-- (RF, NN, GNN) -->
    <g style="fill: #ffffff" transform="translate(514.092076 349.408226) scale(0.1 -0.1)">
     <defs>
      <path id="DejaVuSans-Bold-52" d="M 2297 2597 
Q 2675 2597 2839 2737 
Q 3003 2878 3003 3200 
Q 3003 3519 2839 3656 
Q 2675 3794 2297 3794 
L 1791 3794 
L 1791 2597 
L 2297 2597 
z
M 1791 1766 
L 1791 0 
L 588 0 
L 588 4666 
L 2425 4666 
Q 3347 4666 3776 4356 
Q 4206 4047 4206 3378 
Q 4206 2916 3982 2619 
Q 3759 2322 3309 2181 
Q 3556 2125 3751 1926 
Q 3947 1728 4147 1325 
L 4800 0 
L 3519 0 
L 2950 1159 
Q 2778 1509 2601 1637 
Q 2425 1766 2131 1766 
L 1791 1766 
z
" transform="scale(0.015625)"/>
      <path id="DejaVuSans-Bold-46" d="M 588 4666 
L 3834 4666 
L 3834 3756 
L 1791 3756 
L 1791 2888 
L 3713 2888 
L 3713 1978 
L 1791 1978 
L 1791 0 
L 588 0 
L 588 4666 
z
" transform="scale(0.015625)"/>
      <path id="DejaVuSans-Bold-47" d="M 4781 347 
Q 4331 128 3847 18 
Q 3363 -91 2847 -91 
Q 1681 -91 1000 561 
Q 319 1213 319 2328 
Q 319 3456 1012 4103 
Q 1706 4750 2913 4750 
Q 3378 4750 3804 4662 
Q 4231 4575 4609 4403 
L 4609 3438 
Q 4219 3659 3833 3768 
Q 3447 3878 3059 3878 
Q 2341 3878 1952 3476 
Q 1563 3075 1563 2328 
Q 1563 1588 1938 1184 
Q 2313 781 3003 781 
Q 3191 781 3352 804 
Q 3513 828 3641 878 
L 3641 1784 
L 2906 1784 
L 2906 2591 
L 4781 2591 
L 4781 347 
z
" transform="scale(0.015625)"/>
     </defs>
     <use xlink:href="#DejaVuSans-Bold-28"/>
     <use xlink:href="#DejaVuSans-Bold-52" transform="translate(45.703125 0)"/>
     <use xlink:href="#DejaVuSans-Bold-46" transform="translate(122.705078 0)"/>
     <use xlink:href="#DejaVuSans-Bold-2c" transform="translate(174.890625 0)"/>
     <use xlink:href="#DejaVuSans-Bold-20" transform="translate(212.878906 0)"/>
     <use xlink:href="#DejaVuSans-Bold-4e" transform="translate(247.693359 0)"/>
     <use xlink:href="#DejaVuSans-Bold-4e" transform="translate(331.384766 0)"/>
     <use xlink:href="#DejaVuSans-Bold-2c" transform="translate(415.076172 0)"/>
     <use xlink:href="#DejaVuSans-Bold-20" transform="translate(453.064453 0)"/>
     <use xlink:href="#DejaVuSans-Bold-47" transform="translate(487.878906 0)"/>
     <use xlink:href="#DejaVuSans-Bold-4e" transform="translate(569.958984 0)"/>
     <use xlink:href="#DejaVuSans-Bold-4e" transform="translate(653.650391 0)"/>
     <use xlink:href="#DejaVuSans-Bold-29" transform="translate(737.341797 0)"/>
    </g>
   </g>
   <g id="patch_16">
    <path d="M 361.488608 341.049944 
Q 412.328565 341.049944 460.932455 341.049944 
" style="fill: none; stroke: #000000; stroke-width: 2; stroke-linecap: round"/>
    <path d="M 456.932455 339.049944 
L 460.932455 341.049944 
L 456.932455 343.049944 
" style="fill: none; stroke: #000000; stroke-width: 2; stroke-linecap: round"/>
   </g>
   <g id="text_9">
    <!-- Train -->
    <g style="fill: #3498db" transform="translate(394.714286 323.644611) scale(0.09 -0.09)">
     <defs>
      <path id="DejaVuSans-54" d="M -19 4666 
L 3928 4666 
L 3928 4134 
L 2272 4134 
L 2272 0 
L 1638 0 
L 1638 4134 
L -19 4134 
L -19 4666 
z
" transform="scale(0.015625)"/>
      <path id="DejaVuSans-72" d="M 2631 2963 
Q 2534 3019 2420 3045 
Q 2306 3072 2169 3072 
Q 1681 3072 1420 2755 
Q 1159 2438 1159 1844 
L 1159 0 
L 581 0 
L 581 3500 
L 1159 3500 
L 1159 2956 
Q 1341 3275 1631 3429 
Q 1922 3584 2338 3584 
Q 2397 3584 2469 3576 
Q 2541 3569 2628 3553 
L 2631 2963 
z
" transform="scale(0.015625)"/>
      <path id="DejaVuSans-69" d="M 603 3500 
L 1178 3500 
L 1178 0 
L 603 0 
L 603 3500 
z
M 603 4863 
L 1178 4863 
L 1178 4134 
L 603 4134 
L 603 4863 
z
" transform="scale(0.015625)"/>
      <path id="DejaVuSans-6e" d="M 3513 2113 
L 3513 0 
L 2938 0 
L 2938 2094 
Q 2938 2591 2744 2837 
Q 2550 3084 2163 3084 
Q 1697 3084 1428 2787 
Q 1159 2491 1159 1978 
L 1159 0 
L 581 0 
L 581 3500 
L 1159 3500 
L 1159 2956 
Q 1366 3272 1645 3428 
Q 1925 3584 2291 3584 
Q 2894 3584 3203 3211 
Q 3513 2838 3513 2113 
z
" transform="scale(0.015625)"/>
     </defs>
     <use xlink:href="#DejaVuSans-54"/>
     <use xlink:href="#DejaVuSans-72" transform="translate(46.333984 0)"/>
     <use xlink:href="#DejaVuSans-61" transform="translate(87.447266 0)"/>
     <use xlink:href="#DejaVuSans-69" transform="translate(148.726562 0)"/>
     <use xlink:href="#DejaVuSans-6e" transform="translate(176.509766 0)"/>
    </g>
   </g>
   <g id="text_10">
    <!-- Inference Phase -->
    <g style="fill: #2c3e50" transform="translate(711.771429 79.969944) scale(0.12 -0.12)">
     <defs>
      <path id="DejaVuSans-Bold-49" d="M 588 4666 
L 1791 4666 
L 1791 0 
L 588 0 
L 588 4666 
z
" transform="scale(0.015625)"/>
     </defs>
     <use xlink:href="#DejaVuSans-Bold-49"/>
     <use xlink:href="#DejaVuSans-Bold-6e" transform="translate(37.207031 0)"/>
     <use xlink:href="#DejaVuSans-Bold-66" transform="translate(108.398438 0)"/>
     <use xlink:href="#DejaVuSans-Bold-65" transform="translate(151.904297 0)"/>
     <use xlink:href="#DejaVuSans-Bold-72" transform="translate(219.726562 0)"/>
     <use xlink:href="#DejaVuSans-Bold-65" transform="translate(269.042969 0)"/>
     <use xlink:href="#DejaVuSans-Bold-6e" transform="translate(336.865234 0)"/>
     <use xlink:href="#DejaVuSans-Bold-63" transform="translate(408.056641 0)"/>
     <use xlink:href="#DejaVuSans-Bold-65" transform="translate(467.333984 0)"/>
     <use xlink:href="#DejaVuSans-Bold-20" transform="translate(535.15625 0)"/>
     <use xlink:href="#DejaVuSans-Bold-50" transform="translate(569.970703 0)"/>
     <use xlink:href="#DejaVuSans-Bold-68" transform="translate(643.261719 0)"/>
     <use xlink:href="#DejaVuSans-Bold-61" transform="translate(714.453125 0)"/>
     <use xlink:href="#DejaVuSans-Bold-73" transform="translate(781.933594 0)"/>
     <use xlink:href="#DejaVuSans-Bold-65" transform="translate(841.455078 0)"/>
    </g>
   </g>
   <g id="text_11">
    <!-- Target -->
    <g style="fill: #ffffff" transform="translate(746.647098 146.673622) scale(0.1 -0.1)">
     <use xlink:href="#DejaVuSans-Bold-54"/>
     <use xlink:href="#DejaVuSans-Bold-61" transform="translate(55.337891 0)"/>
     <use xlink:href="#DejaVuSans-Bold-72" transform="translate(122.818359 0)"/>
     <use xlink:href="#DejaVuSans-Bold-67" transform="translate(172.134766 0)"/>
     <use xlink:href="#DejaVuSans-Bold-65" transform="translate(243.716797 0)"/>
     <use xlink:href="#DejaVuSans-Bold-74" transform="translate(311.539062 0)"/>
    </g>
    <!-- Circuit -->
    <g style="fill: #ffffff" transform="translate(746.137723 157.949559) scale(0.1 -0.1)">
     <use xlink:href="#DejaVuSans-Bold-43"/>
     <use xlink:href="#DejaVuSans-Bold-69" transform="translate(73.388672 0)"/>
     <use xlink:href="#DejaVuSans-Bold-72" transform="translate(107.666016 0)"/>
     <use xlink:href="#DejaVuSans-Bold-63" transform="translate(156.982422 0)"/>
     <use xlink:href="#DejaVuSans-Bold-75" transform="translate(216.259766 0)"/>
     <use xlink:href="#DejaVuSans-Bold-69" transform="translate(287.451172 0)"/>
     <use xlink:href="#DejaVuSans-Bold-74" transform="translate(321.728516 0)"/>
    </g>
   </g>
   <g id="text_12">
    <!-- Noisy -->
    <g style="fill: #ffffff" transform="translate(749.045536 245.342906) scale(0.1 -0.1)">
     <use xlink:href="#DejaVuSans-Bold-4e"/>
     <use xlink:href="#DejaVuSans-Bold-6f" transform="translate(83.691406 0)"/>
     <use xlink:href="#DejaVuSans-Bold-69" transform="translate(152.392578 0)"/>
     <use xlink:href="#DejaVuSans-Bold-73" transform="translate(186.669922 0)"/>
     <use xlink:href="#DejaVuSans-Bold-79" transform="translate(246.191406 0)"/>
    </g>
    <!-- Execution -->
    <g style="fill: #ffffff" transform="translate(736.960379 256.618844) scale(0.1 -0.1)">
     <use xlink:href="#DejaVuSans-Bold-45"/>
     <use xlink:href="#DejaVuSans-Bold-78" transform="translate(68.310547 0)"/>
     <use xlink:href="#DejaVuSans-Bold-65" transform="translate(132.8125 0)"/>
     <use xlink:href="#DejaVuSans-Bold-63" transform="translate(200.634766 0)"/>
     <use xlink:href="#DejaVuSans-Bold-75" transform="translate(259.912109 0)"/>
     <use xlink:href="#DejaVuSans-Bold-74" transform="translate(331.103516 0)"/>
     <use xlink:href="#DejaVuSans-Bold-69" transform="translate(378.90625 0)"/>
     <use xlink:href="#DejaVuSans-Bold-6f" transform="translate(413.183594 0)"/>
     <use xlink:href="#DejaVuSans-Bold-6e" transform="translate(481.884766 0)"/>
    </g>
   </g>
   <g id="patch_17">
    <path d="M 764.614286 186.40268 
Q 764.614286 198.906149 764.614286 209.173551 
" style="fill: none; stroke: #000000; stroke-width: 2; stroke-linecap: round"/>
    <path d="M 766.614286 205.173551 
L 764.614286 209.173551 
L 762.614286 205.173551 
" style="fill: none; stroke: #000000; stroke-width: 2; stroke-linecap: round"/>
   </g>
   <g id="patch_18">
    <path d="M 642.352823 339.339581 
Q 658.929272 312.039902 674.345166 286.651534 
" style="fill: none; stroke: #000000; stroke-width: 2; stroke-linecap: round"/>
    <path d="M 670.559574 289.032562 
L 674.345166 286.651534 
L 673.978633 291.108625 
" style="fill: none; stroke: #000000; stroke-width: 2; stroke-linecap: round"/>
   </g>
   <g id="patch_19">
    <path d="M 764.614286 285.03361 
Q 764.614286 352.655319 764.614286 418.040961 
" style="fill: none; stroke: #000000; stroke-width: 2; stroke-linecap: round"/>
    <path d="M 766.614286 414.040961 
L 764.614286 418.040961 
L 762.614286 414.040961 
" style="fill: none; stroke: #000000; stroke-width: 2; stroke-linecap: round"/>
   </g>
   <g id="text_13">
    <!-- Error-Mitigated -->
    <g style="fill: #ffffff" transform="translate(721.184598 454.206906) scale(0.1 -0.1)">
     <use xlink:href="#DejaVuSans-Bold-45"/>
     <use xlink:href="#DejaVuSans-Bold-72" transform="translate(68.310547 0)"/>
     <use xlink:href="#DejaVuSans-Bold-72" transform="translate(117.626953 0)"/>
     <use xlink:href="#DejaVuSans-Bold-6f" transform="translate(166.943359 0)"/>
     <use xlink:href="#DejaVuSans-Bold-72" transform="translate(235.644531 0)"/>
     <use xlink:href="#DejaVuSans-Bold-2d" transform="translate(284.960938 0)"/>
     <use xlink:href="#DejaVuSans-Bold-4d" transform="translate(326.464844 0)"/>
     <use xlink:href="#DejaVuSans-Bold-69" transform="translate(425.976562 0)"/>
     <use xlink:href="#DejaVuSans-Bold-74" transform="translate(460.253906 0)"/>
     <use xlink:href="#DejaVuSans-Bold-69" transform="translate(508.056641 0)"/>
     <use xlink:href="#DejaVuSans-Bold-67" transform="translate(542.333984 0)"/>
     <use xlink:href="#DejaVuSans-Bold-61" transform="translate(613.916016 0)"/>
     <use xlink:href="#DejaVuSans-Bold-74" transform="translate(681.396484 0)"/>
     <use xlink:href="#DejaVuSans-Bold-65" transform="translate(729.199219 0)"/>
     <use xlink:href="#DejaVuSans-Bold-64" transform="translate(797.021484 0)"/>
    </g>
    <!-- Estimate -->
    <g style="fill: #ffffff" transform="translate(739.753348 465.482844) scale(0.1 -0.1)">
     <use xlink:href="#DejaVuSans-Bold-45"/>
     <use xlink:href="#DejaVuSans-Bold-73" transform="translate(68.310547 0)"/>
     <use xlink:href="#DejaVuSans-Bold-74" transform="translate(127.832031 0)"/>
     <use xlink:href="#DejaVuSans-Bold-69" transform="translate(175.634766 0)"/>
     <use xlink:href="#DejaVuSans-Bold-6d" transform="translate(209.912109 0)"/>
     <use xlink:href="#DejaVuSans-Bold-61" transform="translate(314.111328 0)"/>
     <use xlink:href="#DejaVuSans-Bold-74" transform="translate(381.591797 0)"/>
     <use xlink:href="#DejaVuSans-Bold-65" transform="translate(429.394531 0)"/>
    </g>
   </g>
   <g id="text_14">
    <g id="patch_20">
     <path d="M 42.428571 421.552743 
L 95.309821 421.552743 
Q 98.309821 421.552743 98.309821 418.552743 
L 98.309821 397.676806 
Q 98.309821 394.676806 95.309821 394.676806 
L 42.428571 394.676806 
Q 39.428571 394.676806 39.428571 397.676806 
L 39.428571 418.552743 
Q 39.428571 421.552743 42.428571 421.552743 
z
" style="fill: #e8f8f5; stroke: #27ae60; stroke-linejoin: miter"/>
    </g>
    <!-- 2x+ faster -->
    <g style="fill: #27ae60" transform="translate(42.428571 405.275243) scale(0.1 -0.1)">
     <defs>
      <path id="DejaVuSans-32" d="M 1228 531 
L 3431 531 
L 3431 0 
L 469 0 
L 469 531 
Q 828 903 1448 1529 
Q 2069 2156 2228 2338 
Q 2531 2678 2651 2914 
Q 2772 3150 2772 3378 
Q 2772 3750 2511 3984 
Q 2250 4219 1831 4219 
Q 1534 4219 1204 4116 
Q 875 4013 500 3803 
L 500 4441 
Q 881 4594 1212 4672 
Q 1544 4750 1819 4750 
Q 2544 4750 2975 4387 
Q 3406 4025 3406 3419 
Q 3406 3131 3298 2873 
Q 3191 2616 2906 2266 
Q 2828 2175 2409 1742 
Q 1991 1309 1228 531 
z
" transform="scale(0.015625)"/>
      <path id="DejaVuSans-78" d="M 3513 3500 
L 2247 1797 
L 3578 0 
L 2900 0 
L 1881 1375 
L 863 0 
L 184 0 
L 1544 1831 
L 300 3500 
L 978 3500 
L 1906 2253 
L 2834 3500 
L 3513 3500 
z
" transform="scale(0.015625)"/>
      <path id="DejaVuSans-2b" d="M 2944 4013 
L 2944 2272 
L 4684 2272 
L 4684 1741 
L 2944 1741 
L 2944 0 
L 2419 0 
L 2419 1741 
L 678 1741 
L 678 2272 
L 2419 2272 
L 2419 4013 
L 2944 4013 
z
" transform="scale(0.015625)"/>
      <path id="DejaVuSans-20" transform="scale(0.015625)"/>
      <path id="DejaVuSans-66" d="M 2375 4863 
L 2375 4384 
L 1825 4384 
Q 1516 4384 1395 4259 
Q 1275 4134 1275 3809 
L 1275 3500 
L 2222 3500 
L 2222 3053 
L 1275 3053 
L 1275 0 
L 697 0 
L 697 3053 
L 147 3053 
L 147 3500 
L 697 3500 
L 697 3744 
Q 697 4328 969 4595 
Q 1241 4863 1831 4863 
L 2375 4863 
z
" transform="scale(0.015625)"/>
      <path id="DejaVuSans-74" d="M 1172 4494 
L 1172 3500 
L 2356 3500 
L 2356 3053 
L 1172 3053 
L 1172 1153 
Q 1172 725 1289 603 
Q 1406 481 1766 481 
L 2356 481 
L 2356 0 
L 1766 0 
Q 1100 0 847 248 
Q 594 497 594 1153 
L 594 3053 
L 172 3053 
L 172 3500 
L 594 3500 
L 594 4494 
L 1172 4494 
z
" transform="scale(0.015625)"/>
     </defs>
     <use xlink:href="#DejaVuSans-32"/>
     <use xlink:href="#DejaVuSans-78" transform="translate(63.623047 0)"/>
     <use xlink:href="#DejaVuSans-2b" transform="translate(122.802734 0)"/>
     <use xlink:href="#DejaVuSans-20" transform="translate(206.591797 0)"/>
     <use xlink:href="#DejaVuSans-66" transform="translate(238.378906 0)"/>
     <use xlink:href="#DejaVuSans-61" transform="translate(273.583984 0)"/>
     <use xlink:href="#DejaVuSans-73" transform="translate(334.863281 0)"/>
     <use xlink:href="#DejaVuSans-74" transform="translate(386.962891 0)"/>
     <use xlink:href="#DejaVuSans-65" transform="translate(426.171875 0)"/>
     <use xlink:href="#DejaVuSans-72" transform="translate(487.695312 0)"/>
    </g>
    <!-- than ZNE -->
    <g style="fill: #27ae60" transform="translate(42.428571 416.473056) scale(0.1 -0.1)">
     <defs>
      <path id="DejaVuSans-68" d="M 3513 2113 
L 3513 0 
L 2938 0 
L 2938 2094 
Q 2938 2591 2744 2837 
Q 2550 3084 2163 3084 
Q 1697 3084 1428 2787 
Q 1159 2491 1159 1978 
L 1159 0 
L 581 0 
L 581 4863 
L 1159 4863 
L 1159 2956 
Q 1366 3272 1645 3428 
Q 1925 3584 2291 3584 
Q 2894 3584 3203 3211 
Q 3513 2838 3513 2113 
z
" transform="scale(0.015625)"/>
      <path id="DejaVuSans-5a" d="M 359 4666 
L 4025 4666 
L 4025 4184 
L 1075 531 
L 4097 531 
L 4097 0 
L 288 0 
L 288 481 
L 3238 4134 
L 359 4134 
L 359 4666 
z
" transform="scale(0.015625)"/>
      <path id="DejaVuSans-4e" d="M 628 4666 
L 1478 4666 
L 3547 763 
L 3547 4666 
L 4159 4666 
L 4159 0 
L 3309 0 
L 1241 3903 
L 1241 0 
L 628 0 
L 628 4666 
z
" transform="scale(0.015625)"/>
      <path id="DejaVuSans-45" d="M 628 4666 
L 3578 4666 
L 3578 4134 
L 1259 4134 
L 1259 2753 
L 3481 2753 
L 3481 2222 
L 1259 2222 
L 1259 531 
L 3634 531 
L 3634 0 
L 628 0 
L 628 4666 
z
" transform="scale(0.015625)"/>
     </defs>
     <use xlink:href="#DejaVuSans-74"/>
     <use xlink:href="#DejaVuSans-68" transform="translate(39.208984 0)"/>
     <use xlink:href="#DejaVuSans-61" transform="translate(102.587891 0)"/>
     <use xlink:href="#DejaVuSans-6e" transform="translate(163.867188 0)"/>
     <use xlink:href="#DejaVuSans-20" transform="translate(227.246094 0)"/>
     <use xlink:href="#DejaVuSans-5a" transform="translate(259.033203 0)"/>
     <use xlink:href="#DejaVuSans-4e" transform="translate(327.539062 0)"/>
     <use xlink:href="#DejaVuSans-45" transform="translate(402.34375 0)"/>
    </g>
   </g>
   <g id="text_15">
    <g id="patch_21">
     <path d="M 42.428571 496.975854 
L 103.342634 496.975854 
Q 106.342634 496.975854 106.342634 493.975854 
L 106.342634 473.099917 
Q 106.342634 470.099917 103.342634 470.099917 
L 42.428571 470.099917 
Q 39.428571 470.099917 39.428571 473.099917 
L 39.428571 493.975854 
Q 39.428571 496.975854 42.428571 496.975854 
z
" style="fill: #ebf5fb; stroke: #3498db; stroke-linejoin: miter"/>
    </g>
    <!-- No explicit -->
    <g style="fill: #3498db" transform="translate(42.428571 480.698354) scale(0.1 -0.1)">
     <defs>
      <path id="DejaVuSans-6f" d="M 1959 3097 
Q 1497 3097 1228 2736 
Q 959 2375 959 1747 
Q 959 1119 1226 758 
Q 1494 397 1959 397 
Q 2419 397 2687 759 
Q 2956 1122 2956 1747 
Q 2956 2369 2687 2733 
Q 2419 3097 1959 3097 
z
M 1959 3584 
Q 2709 3584 3137 3096 
Q 3566 2609 3566 1747 
Q 3566 888 3137 398 
Q 2709 -91 1959 -91 
Q 1206 -91 779 398 
Q 353 888 353 1747 
Q 353 2609 779 3096 
Q 1206 3584 1959 3584 
z
" transform="scale(0.015625)"/>
      <path id="DejaVuSans-70" d="M 1159 525 
L 1159 -1331 
L 581 -1331 
L 581 3500 
L 1159 3500 
L 1159 2969 
Q 1341 3281 1617 3432 
Q 1894 3584 2278 3584 
Q 2916 3584 3314 3078 
Q 3713 2572 3713 1747 
Q 3713 922 3314 415 
Q 2916 -91 2278 -91 
Q 1894 -91 1617 61 
Q 1341 213 1159 525 
z
M 3116 1747 
Q 3116 2381 2855 2742 
Q 2594 3103 2138 3103 
Q 1681 3103 1420 2742 
Q 1159 2381 1159 1747 
Q 1159 1113 1420 752 
Q 1681 391 2138 391 
Q 2594 391 2855 752 
Q 3116 1113 3116 1747 
z
" transform="scale(0.015625)"/>
      <path id="DejaVuSans-63" d="M 3122 3366 
L 3122 2828 
Q 2878 2963 2633 3030 
Q 2388 3097 2138 3097 
Q 1578 3097 1268 2742 
Q 959 2388 959 1747 
Q 959 1106 1268 751 
Q 1578 397 2138 397 
Q 2388 397 2633 464 
Q 2878 531 3122 666 
L 3122 134 
Q 2881 22 2623 -34 
Q 2366 -91 2075 -91 
Q 1284 -91 818 406 
Q 353 903 353 1747 
Q 353 2603 823 3093 
Q 1294 3584 2113 3584 
Q 2378 3584 2631 3529 
Q 2884 3475 3122 3366 
z
" transform="scale(0.015625)"/>
     </defs>
     <use xlink:href="#DejaVuSans-4e"/>
     <use xlink:href="#DejaVuSans-6f" transform="translate(74.804688 0)"/>
     <use xlink:href="#DejaVuSans-20" transform="translate(135.986328 0)"/>
     <use xlink:href="#DejaVuSans-65" transform="translate(167.773438 0)"/>
     <use xlink:href="#DejaVuSans-78" transform="translate(227.546875 0)"/>
     <use xlink:href="#DejaVuSans-70" transform="translate(286.726562 0)"/>
     <use xlink:href="#DejaVuSans-6c" transform="translate(350.203125 0)"/>
     <use xlink:href="#DejaVuSans-69" transform="translate(377.986328 0)"/>
     <use xlink:href="#DejaVuSans-63" transform="translate(405.769531 0)"/>
     <use xlink:href="#DejaVuSans-69" transform="translate(460.75 0)"/>
     <use xlink:href="#DejaVuSans-74" transform="translate(488.533203 0)"/>
    </g>
    <!-- noise model -->
    <g style="fill: #3498db" transform="translate(42.428571 491.896167) scale(0.1 -0.1)">
     <defs>
      <path id="DejaVuSans-6d" d="M 3328 2828 
Q 3544 3216 3844 3400 
Q 4144 3584 4550 3584 
Q 5097 3584 5394 3201 
Q 5691 2819 5691 2113 
L 5691 0 
L 5113 0 
L 5113 2094 
Q 5113 2597 4934 2840 
Q 4756 3084 4391 3084 
Q 3944 3084 3684 2787 
Q 3425 2491 3425 1978 
L 3425 0 
L 2847 0 
L 2847 2094 
Q 2847 2600 2669 2842 
Q 2491 3084 2119 3084 
Q 1678 3084 1418 2786 
Q 1159 2488 1159 1978 
L 1159 0 
L 581 0 
L 581 3500 
L 1159 3500 
L 1159 2956 
Q 1356 3278 1631 3431 
Q 1906 3584 2284 3584 
Q 2666 3584 2933 3390 
Q 3200 3197 3328 2828 
z
" transform="scale(0.015625)"/>
     </defs>
     <use xlink:href="#DejaVuSans-6e"/>
     <use xlink:href="#DejaVuSans-6f" transform="translate(63.378906 0)"/>
     <use xlink:href="#DejaVuSans-69" transform="translate(124.560547 0)"/>
     <use xlink:href="#DejaVuSans-73" transform="translate(152.34375 0)"/>
     <use xlink:href="#DejaVuSans-65" transform="translate(204.443359 0)"/>
     <use xlink:href="#DejaVuSans-20" transform="translate(265.966797 0)"/>
     <use xlink:href="#DejaVuSans-6d" transform="translate(297.753906 0)"/>
     <use xlink:href="#DejaVuSans-6f" transform="translate(395.166016 0)"/>
     <use xlink:href="#DejaVuSans-64" transform="translate(456.347656 0)"/>
     <use xlink:href="#DejaVuSans-65" transform="translate(519.824219 0)"/>
     <use xlink:href="#DejaVuSans-6c" transform="translate(581.347656 0)"/>
    </g>
   </g>
   <g id="text_16">
    <!-- Machine Learning QEM Workflow -->
    <g transform="translate(352.025 19.3575) scale(0.16 -0.16)">
     <defs>
      <path id="DejaVuSans-Bold-57" d="M 191 4666 
L 1344 4666 
L 2150 1275 
L 2950 4666 
L 4109 4666 
L 4909 1275 
L 5716 4666 
L 6859 4666 
L 5759 0 
L 4372 0 
L 3525 3547 
L 2688 0 
L 1300 0 
L 191 4666 
z
" transform="scale(0.015625)"/>
      <path id="DejaVuSans-Bold-6b" d="M 538 4863 
L 1656 4863 
L 1656 2216 
L 2944 3500 
L 4244 3500 
L 2534 1894 
L 4378 0 
L 3022 0 
L 1656 1459 
L 1656 0 
L 538 0 
L 538 4863 
z
" transform="scale(0.015625)"/>
      <path id="DejaVuSans-Bold-77" d="M 225 3500 
L 1313 3500 
L 1900 1088 
L 2491 3500 
L 3425 3500 
L 4013 1113 
L 4603 3500 
L 5691 3500 
L 4769 0 
L 3547 0 
L 2956 2406 
L 2369 0 
L 1147 0 
L 225 3500 
z
" transform="scale(0.015625)"/>
     </defs>
     <use xlink:href="#DejaVuSans-Bold-4d"/>
     <use xlink:href="#DejaVuSans-Bold-61" transform="translate(99.511719 0)"/>
     <use xlink:href="#DejaVuSans-Bold-63" transform="translate(166.992188 0)"/>
     <use xlink:href="#DejaVuSans-Bold-68" transform="translate(226.269531 0)"/>
     <use xlink:href="#DejaVuSans-Bold-69" transform="translate(297.460938 0)"/>
     <use xlink:href="#DejaVuSans-Bold-6e" transform="translate(331.738281 0)"/>
     <use xlink:href="#DejaVuSans-Bold-65" transform="translate(402.929688 0)"/>
     <use xlink:href="#DejaVuSans-Bold-20" transform="translate(470.751953 0)"/>
     <use xlink:href="#DejaVuSans-Bold-4c" transform="translate(505.566406 0)"/>
     <use xlink:href="#DejaVuSans-Bold-65" transform="translate(569.287109 0)"/>
     <use xlink:href="#DejaVuSans-Bold-61" transform="translate(637.109375 0)"/>
     <use xlink:href="#DejaVuSans-Bold-72" transform="translate(704.589844 0)"/>
     <use xlink:href="#DejaVuSans-Bold-6e" transform="translate(753.90625 0)"/>
     <use xlink:href="#DejaVuSans-Bold-69" transform="translate(825.097656 0)"/>
     <use xlink:href="#DejaVuSans-Bold-6e" transform="translate(859.375 0)"/>
     <use xlink:href="#DejaVuSans-Bold-67" transform="translate(930.566406 0)"/>
     <use xlink:href="#DejaVuSans-Bold-20" transform="translate(1002.148438 0)"/>
     <use xlink:href="#DejaVuSans-Bold-51" transform="translate(1036.962891 0)"/>
     <use xlink:href="#DejaVuSans-Bold-45" transform="translate(1121.972656 0)"/>
     <use xlink:href="#DejaVuSans-Bold-4d" transform="translate(1190.283203 0)"/>
     <use xlink:href="#DejaVuSans-Bold-20" transform="translate(1289.794922 0)"/>
     <use xlink:href="#DejaVuSans-Bold-57" transform="translate(1324.609375 0)"/>
     <use xlink:href="#DejaVuSans-Bold-6f" transform="translate(1431.287109 0)"/>
     <use xlink:href="#DejaVuSans-Bold-72" transform="translate(1499.988281 0)"/>
     <use xlink:href="#DejaVuSans-Bold-6b" transform="translate(1549.304688 0)"/>
     <use xlink:href="#DejaVuSans-Bold-66" transform="translate(1615.808594 0)"/>
     <use xlink:href="#DejaVuSans-Bold-6c" transform="translate(1659.314453 0)"/>
     <use xlink:href="#DejaVuSans-Bold-6f" transform="translate(1693.591797 0)"/>
     <use xlink:href="#DejaVuSans-Bold-77" transform="translate(1762.292969 0)"/>
    </g>
   </g>
  </g>
 </g>
 <defs>
  <clipPath id="pb02e0d0761">
   <rect x="7.2" y="39.3575" width="986.4" height="522.16"/>
  </clipPath>
 </defs>
</svg>
