<?xml version="1.0" encoding="utf-8" standalone="no"?>
<!DOCTYPE svg PUBLIC "-//W3C//DTD SVG 1.1//EN"
  "http://www.w3.org/Graphics/SVG/1.1/DTD/svg11.dtd">
<svg xmlns:xlink="http://www.w3.org/1999/xlink" width="1000.8pt" height="496.7175pt" viewBox="0 0 1000.8 496.7175" xmlns="http://www.w3.org/2000/svg" version="1.1">
 <metadata>
  <rdf:RDF xmlns:dc="http://purl.org/dc/elements/1.1/" xmlns:cc="http://creativecommons.org/ns#" xmlns:rdf="http://www.w3.org/1999/02/22-rdf-syntax-ns#">
   <cc:Work>
    <dc:type rdf:resource="http://purl.org/dc/dcmitype/StillImage"/>
    <dc:date>2026-02-08T16:04:25.537927</dc:date>
    <dc:format>image/svg+xml</dc:format>
    <dc:creator>
     <cc:Agent>
      <dc:title>Matplotlib v3.10.8, https://matplotlib.org/</dc:title>
     </cc:Agent>
    </dc:creator>
   </cc:Work>
  </rdf:RDF>
 </metadata>
 <defs>
  <style type="text/css">*{stroke-linejoin: round; stroke-linecap: butt}</style>
 </defs>
 <g id="figure_1">
  <g id="patch_1">
   <path d="M 0 496.7175 
L 1000.8 496.7175 
L 1000.8 0 
L 0 0 
z
" style="fill: #ffffff"/>
  </g>
  <g id="axes_1">
   <g id="patch_2">
    <path d="M 52.997143 210.981 
L 208.002857 210.981 
Q 222.094286 210.981 222.094286 199.727 
L 222.094286 132.203 
Q 222.094286 120.949 208.002857 120.949 
L 52.997143 120.949 
Q 38.905714 120.949 38.905714 132.203 
L 38.905714 199.727 
Q 38.905714 210.981 52.997143 210.981 
z
" clip-path="url(#p181c8cf631)" style="fill: #e74c3c; stroke: #000000; stroke-width: 2; stroke-linejoin: miter"/>
   </g>
   <g id="patch_3">
    <path d="M 299.597143 239.116 
L 525.06 239.116 
Q 539.151429 239.116 539.151429 227.862 
L 539.151429 104.068 
Q 539.151429 92.814 525.06 92.814 
L 299.597143 92.814 
Q 285.505714 92.814 285.505714 104.068 
L 285.505714 227.862 
Q 285.505714 239.116 299.597143 239.116 
z
" clip-path="url(#p181c8cf631)" style="fill: #3498db; stroke: #000000; stroke-width: 2; stroke-linejoin: miter"/>
   </g>
   <g id="patch_4">
    <path d="M 616.654286 154.711 
L 771.66 154.711 
Q 785.751429 154.711 785.751429 143.457 
L 785.751429 104.068 
Q 785.751429 92.814 771.66 92.814 
L 616.654286 92.814 
Q 602.562857 92.814 602.562857 104.068 
L 602.562857 143.457 
Q 602.562857 154.711 616.654286 154.711 
z
" clip-path="url(#p181c8cf631)" style="fill: #9b59b6; stroke: #000000; stroke-width: 2; stroke-linejoin: miter"/>
   </g>
   <g id="patch_5">
    <path d="M 616.654286 222.235 
L 771.66 222.235 
Q 785.751429 222.235 785.751429 210.981 
L 785.751429 171.592 
Q 785.751429 160.338 771.66 160.338 
L 616.654286 160.338 
Q 602.562857 160.338 602.562857 171.592 
L 602.562857 210.981 
Q 602.562857 222.235 616.654286 222.235 
z
" clip-path="url(#p181c8cf631)" style="fill: #9b59b6; stroke: #000000; stroke-width: 2; stroke-linejoin: miter"/>
   </g>
   <g id="patch_6">
    <path d="M 616.654286 289.759 
L 771.66 289.759 
Q 785.751429 289.759 785.751429 278.505 
L 785.751429 239.116 
Q 785.751429 227.862 771.66 227.862 
L 616.654286 227.862 
Q 602.562857 227.862 602.562857 239.116 
L 602.562857 278.505 
Q 602.562857 289.759 616.654286 289.759 
z
" clip-path="url(#p181c8cf631)" style="fill: #9b59b6; stroke: #000000; stroke-width: 2; stroke-linejoin: miter"/>
   </g>
   <g id="patch_7">
    <path d="M 828.025714 239.116 
L 947.802857 239.116 
Q 961.894286 239.116 961.894286 227.862 
L 961.894286 160.338 
Q 961.894286 149.084 947.802857 149.084 
L 828.025714 149.084 
Q 813.934286 149.084 813.934286 160.338 
L 813.934286 227.862 
Q 813.934286 239.116 828.025714 239.116 
z
" clip-path="url(#p181c8cf631)" style="fill: #27ae60; stroke: #000000; stroke-width: 2; stroke-linejoin: miter"/>
   </g>
   <g id="patch_8">
    <path d="M 52.997143 475.45 
L 243.231429 475.45 
Q 257.322857 475.45 257.322857 464.196 
L 257.322857 424.807 
Q 257.322857 413.553 243.231429 413.553 
L 52.997143 413.553 
Q 38.905714 413.553 38.905714 424.807 
L 38.905714 464.196 
Q 38.905714 475.45 52.997143 475.45 
z
" clip-path="url(#p181c8cf631)" style="fill: #3498db; stroke: #000000; stroke-width: 2; stroke-linejoin: miter"/>
   </g>
   <g id="patch_9">
    <path d="M 299.597143 475.45 
L 489.831429 475.45 
Q 503.922857 475.45 503.922857 464.196 
L 503.922857 424.807 
Q 503.922857 413.553 489.831429 413.553 
L 299.597143 413.553 
Q 285.505714 413.553 285.505714 424.807 
L 285.505714 464.196 
Q 285.505714 475.45 299.597143 475.45 
z
" clip-path="url(#p181c8cf631)" style="fill: #9b59b6; stroke: #000000; stroke-width: 2; stroke-linejoin: miter"/>
   </g>
   <g id="patch_10">
    <path d="M 546.197143 475.45 
L 771.66 475.45 
Q 785.751429 475.45 785.751429 464.196 
L 785.751429 424.807 
Q 785.751429 413.553 771.66 413.553 
L 546.197143 413.553 
Q 532.105714 413.553 532.105714 424.807 
L 532.105714 464.196 
Q 532.105714 475.45 546.197143 475.45 
z
" clip-path="url(#p181c8cf631)" style="fill: #27ae60; stroke: #000000; stroke-width: 2; stroke-linejoin: miter"/>
   </g>
   <g id="text_1">
    <!-- Non-Clifford -->
    <g style="fill: #ffffff" transform="translate(96.31875 157.4875) scale(0.1 -0.1)">
     <defs>
      <path id="DejaVuSans-Bold-4e" d="M 588 4666 
L 1931 4666 
L 3628 1466 
L 3628 4666 
L 4769 4666 
L 4769 0 
L 3425 0 
L 1728 3200 
L 1728 0 
L 588 0 
L 588 4666 
z
" transform="scale(0.015625)"/>
      <path id="DejaVuSans-Bold-6f" d="M 2203 2784 
Q 1831 2784 1636 2517 
Q 1441 2250 1441 1747 
Q 1441 1244 1636 976 
Q 1831 709 2203 709 
Q 2569 709 2762 976 
Q 2956 1244 2956 1747 
Q 2956 2250 2762 2517 
Q 2569 2784 2203 2784 
z
M 2203 3584 
Q 3106 3584 3614 3096 
Q 4122 2609 4122 1747 
Q 4122 884 3614 396 
Q 3106 -91 2203 -91 
Q 1297 -91 786 396 
Q 275 884 275 1747 
Q 275 2609 786 3096 
Q 1297 3584 2203 3584 
z
" transform="scale(0.015625)"/>
      <path id="DejaVuSans-Bold-6e" d="M 4056 2131 
L 4056 0 
L 2931 0 
L 2931 347 
L 2931 1631 
Q 2931 2084 2911 2256 
Q 2891 2428 2841 2509 
Q 2775 2619 2662 2680 
Q 2550 2741 2406 2741 
Q 2056 2741 1856 2470 
Q 1656 2200 1656 1722 
L 1656 0 
L 538 0 
L 538 3500 
L 1656 3500 
L 1656 2988 
Q 1909 3294 2193 3439 
Q 2478 3584 2822 3584 
Q 3428 3584 3742 3212 
Q 4056 2841 4056 2131 
z
" transform="scale(0.015625)"/>
      <path id="DejaVuSans-Bold-2d" d="M 347 2297 
L 2309 2297 
L 2309 1388 
L 347 1388 
L 347 2297 
z
" transform="scale(0.015625)"/>
      <path id="DejaVuSans-Bold-43" d="M 4288 256 
Q 3956 84 3597 -3 
Q 3238 -91 2847 -91 
Q 1681 -91 1000 561 
Q 319 1213 319 2328 
Q 319 3447 1000 4098 
Q 1681 4750 2847 4750 
Q 3238 4750 3597 4662 
Q 3956 4575 4288 4403 
L 4288 3438 
Q 3953 3666 3628 3772 
Q 3303 3878 2944 3878 
Q 2300 3878 1931 3465 
Q 1563 3053 1563 2328 
Q 1563 1606 1931 1193 
Q 2300 781 2944 781 
Q 3303 781 3628 887 
Q 3953 994 4288 1222 
L 4288 256 
z
" transform="scale(0.015625)"/>
      <path id="DejaVuSans-Bold-6c" d="M 538 4863 
L 1656 4863 
L 1656 0 
L 538 0 
L 538 4863 
z
" transform="scale(0.015625)"/>
      <path id="DejaVuSans-Bold-69" d="M 538 3500 
L 1656 3500 
L 1656 0 
L 538 0 
L 538 3500 
z
M 538 4863 
L 1656 4863 
L 1656 3950 
L 538 3950 
L 538 4863 
z
" transform="scale(0.015625)"/>
      <path id="DejaVuSans-Bold-66" d="M 2841 4863 
L 2841 4128 
L 2222 4128 
Q 1984 4128 1890 4042 
Q 1797 3956 1797 3744 
L 1797 3500 
L 2753 3500 
L 2753 2700 
L 1797 2700 
L 1797 0 
L 678 0 
L 678 2700 
L 122 2700 
L 122 3500 
L 678 3500 
L 678 3744 
Q 678 4316 997 4589 
Q 1316 4863 1984 4863 
L 2841 4863 
z
" transform="scale(0.015625)"/>
      <path id="DejaVuSans-Bold-72" d="M 3138 2547 
Q 2991 2616 2845 2648 
Q 2700 2681 2553 2681 
Q 2122 2681 1889 2404 
Q 1656 2128 1656 1613 
L 1656 0 
L 538 0 
L 538 3500 
L 1656 3500 
L 1656 2925 
Q 1872 3269 2151 3426 
Q 2431 3584 2822 3584 
Q 2878 3584 2943 3579 
Q 3009 3575 3134 3559 
L 3138 2547 
z
" transform="scale(0.015625)"/>
      <path id="DejaVuSans-Bold-64" d="M 2919 2988 
L 2919 4863 
L 4044 4863 
L 4044 0 
L 2919 0 
L 2919 506 
Q 2688 197 2409 53 
Q 2131 -91 1766 -91 
Q 1119 -91 703 423 
Q 288 938 288 1747 
Q 288 2556 703 3070 
Q 1119 3584 1766 3584 
Q 2128 3584 2408 3439 
Q 2688 3294 2919 2988 
z
M 2181 722 
Q 2541 722 2730 984 
Q 2919 1247 2919 1747 
Q 2919 2247 2730 2509 
Q 2541 2772 2181 2772 
Q 1825 2772 1636 2509 
Q 1447 2247 1447 1747 
Q 1447 1247 1636 984 
Q 1825 722 2181 722 
z
" transform="scale(0.015625)"/>
     </defs>
     <use xlink:href="#DejaVuSans-Bold-4e"/>
     <use xlink:href="#DejaVuSans-Bold-6f" transform="translate(83.691406 0)"/>
     <use xlink:href="#DejaVuSans-Bold-6e" transform="translate(152.392578 0)"/>
     <use xlink:href="#DejaVuSans-Bold-2d" transform="translate(223.583984 0)"/>
     <use xlink:href="#DejaVuSans-Bold-43" transform="translate(265.087891 0)"/>
     <use xlink:href="#DejaVuSans-Bold-6c" transform="translate(338.476562 0)"/>
     <use xlink:href="#DejaVuSans-Bold-69" transform="translate(372.753906 0)"/>
     <use xlink:href="#DejaVuSans-Bold-66" transform="translate(407.03125 0)"/>
     <use xlink:href="#DejaVuSans-Bold-66" transform="translate(450.537109 0)"/>
     <use xlink:href="#DejaVuSans-Bold-6f" transform="translate(494.042969 0)"/>
     <use xlink:href="#DejaVuSans-Bold-72" transform="translate(562.744141 0)"/>
     <use xlink:href="#DejaVuSans-Bold-64" transform="translate(612.060547 0)"/>
    </g>
    <!-- Gate G -->
    <g style="fill: #ffffff" transform="translate(111.396094 168.685313) scale(0.1 -0.1)">
     <defs>
      <path id="DejaVuSans-Bold-47" d="M 4781 347 
Q 4331 128 3847 18 
Q 3363 -91 2847 -91 
Q 1681 -91 1000 561 
Q 319 1213 319 2328 
Q 319 3456 1012 4103 
Q 1706 4750 2913 4750 
Q 3378 4750 3804 4662 
Q 4231 4575 4609 4403 
L 4609 3438 
Q 4219 3659 3833 3768 
Q 3447 3878 3059 3878 
Q 2341 3878 1952 3476 
Q 1563 3075 1563 2328 
Q 1563 1588 1938 1184 
Q 2313 781 3003 781 
Q 3191 781 3352 804 
Q 3513 828 3641 878 
L 3641 1784 
L 2906 1784 
L 2906 2591 
L 4781 2591 
L 4781 347 
z
" transform="scale(0.015625)"/>
      <path id="DejaVuSans-Bold-61" d="M 2106 1575 
Q 1756 1575 1579 1456 
Q 1403 1338 1403 1106 
Q 1403 894 1545 773 
Q 1688 653 1941 653 
Q 2256 653 2472 879 
Q 2688 1106 2688 1447 
L 2688 1575 
L 2106 1575 
z
M 3816 1997 
L 3816 0 
L 2688 0 
L 2688 519 
Q 2463 200 2181 54 
Q 1900 -91 1497 -91 
Q 953 -91 614 226 
Q 275 544 275 1050 
Q 275 1666 698 1953 
Q 1122 2241 2028 2241 
L 2688 2241 
L 2688 2328 
Q 2688 2594 2478 2717 
Q 2269 2841 1825 2841 
Q 1466 2841 1156 2769 
Q 847 2697 581 2553 
L 581 3406 
Q 941 3494 1303 3539 
Q 1666 3584 2028 3584 
Q 2975 3584 3395 3211 
Q 3816 2838 3816 1997 
z
" transform="scale(0.015625)"/>
      <path id="DejaVuSans-Bold-74" d="M 1759 4494 
L 1759 3500 
L 2913 3500 
L 2913 2700 
L 1759 2700 
L 1759 1216 
Q 1759 972 1856 886 
Q 1953 800 2241 800 
L 2816 800 
L 2816 0 
L 1856 0 
Q 1194 0 917 276 
Q 641 553 641 1216 
L 641 2700 
L 84 2700 
L 84 3500 
L 641 3500 
L 641 4494 
L 1759 4494 
z
" transform="scale(0.015625)"/>
      <path id="DejaVuSans-Bold-65" d="M 4031 1759 
L 4031 1441 
L 1416 1441 
Q 1456 1047 1700 850 
Q 1944 653 2381 653 
Q 2734 653 3104 758 
Q 3475 863 3866 1075 
L 3866 213 
Q 3469 63 3072 -14 
Q 2675 -91 2278 -91 
Q 1328 -91 801 392 
Q 275 875 275 1747 
Q 275 2603 792 3093 
Q 1309 3584 2216 3584 
Q 3041 3584 3536 3087 
Q 4031 2591 4031 1759 
z
M 2881 2131 
Q 2881 2450 2695 2645 
Q 2509 2841 2209 2841 
Q 1884 2841 1681 2658 
Q 1478 2475 1428 2131 
L 2881 2131 
z
" transform="scale(0.015625)"/>
      <path id="DejaVuSans-Bold-20" transform="scale(0.015625)"/>
     </defs>
     <use xlink:href="#DejaVuSans-Bold-47"/>
     <use xlink:href="#DejaVuSans-Bold-61" transform="translate(82.080078 0)"/>
     <use xlink:href="#DejaVuSans-Bold-74" transform="translate(149.560547 0)"/>
     <use xlink:href="#DejaVuSans-Bold-65" transform="translate(197.363281 0)"/>
     <use xlink:href="#DejaVuSans-Bold-20" transform="translate(265.185547 0)"/>
     <use xlink:href="#DejaVuSans-Bold-47" transform="translate(300 0)"/>
    </g>
    <!-- (e.g., partial CZ) -->
    <g style="fill: #ffffff" transform="translate(83.874219 179.883125) scale(0.1 -0.1)">
     <defs>
      <path id="DejaVuSans-Bold-28" d="M 2413 -844 
L 1484 -844 
Q 1006 -72 778 623 
Q 550 1319 550 2003 
Q 550 2688 779 3389 
Q 1009 4091 1484 4856 
L 2413 4856 
Q 2013 4116 1813 3408 
Q 1613 2700 1613 2009 
Q 1613 1319 1811 609 
Q 2009 -100 2413 -844 
z
" transform="scale(0.015625)"/>
      <path id="DejaVuSans-Bold-2e" d="M 653 1209 
L 1778 1209 
L 1778 0 
L 653 0 
L 653 1209 
z
" transform="scale(0.015625)"/>
      <path id="DejaVuSans-Bold-67" d="M 2919 594 
Q 2688 288 2409 144 
Q 2131 0 1766 0 
Q 1125 0 706 504 
Q 288 1009 288 1791 
Q 288 2575 706 3076 
Q 1125 3578 1766 3578 
Q 2131 3578 2409 3434 
Q 2688 3291 2919 2981 
L 2919 3500 
L 4044 3500 
L 4044 353 
Q 4044 -491 3511 -936 
Q 2978 -1381 1966 -1381 
Q 1638 -1381 1331 -1331 
Q 1025 -1281 716 -1178 
L 716 -306 
Q 1009 -475 1290 -558 
Q 1572 -641 1856 -641 
Q 2406 -641 2662 -400 
Q 2919 -159 2919 353 
L 2919 594 
z
M 2181 2772 
Q 1834 2772 1640 2515 
Q 1447 2259 1447 1791 
Q 1447 1309 1634 1061 
Q 1822 813 2181 813 
Q 2531 813 2725 1069 
Q 2919 1325 2919 1791 
Q 2919 2259 2725 2515 
Q 2531 2772 2181 2772 
z
" transform="scale(0.015625)"/>
      <path id="DejaVuSans-Bold-2c" d="M 653 1209 
L 1778 1209 
L 1778 256 
L 1006 -909 
L 341 -909 
L 653 256 
L 653 1209 
z
" transform="scale(0.015625)"/>
      <path id="DejaVuSans-Bold-70" d="M 1656 506 
L 1656 -1331 
L 538 -1331 
L 538 3500 
L 1656 3500 
L 1656 2988 
Q 1888 3294 2169 3439 
Q 2450 3584 2816 3584 
Q 3463 3584 3878 3070 
Q 4294 2556 4294 1747 
Q 4294 938 3878 423 
Q 3463 -91 2816 -91 
Q 2450 -91 2169 54 
Q 1888 200 1656 506 
z
M 2400 2772 
Q 2041 2772 1848 2508 
Q 1656 2244 1656 1747 
Q 1656 1250 1848 986 
Q 2041 722 2400 722 
Q 2759 722 2948 984 
Q 3138 1247 3138 1747 
Q 3138 2247 2948 2509 
Q 2759 2772 2400 2772 
z
" transform="scale(0.015625)"/>
      <path id="DejaVuSans-Bold-5a" d="M 359 4666 
L 4281 4666 
L 4281 3938 
L 1778 909 
L 4353 909 
L 4353 0 
L 288 0 
L 288 728 
L 2791 3756 
L 359 3756 
L 359 4666 
z
" transform="scale(0.015625)"/>
      <path id="DejaVuSans-Bold-29" d="M 513 -844 
Q 913 -100 1113 609 
Q 1313 1319 1313 2009 
Q 1313 2700 1113 3408 
Q 913 4116 513 4856 
L 1441 4856 
Q 1916 4091 2145 3389 
Q 2375 2688 2375 2003 
Q 2375 1319 2147 623 
Q 1919 -72 1441 -844 
L 513 -844 
z
" transform="scale(0.015625)"/>
     </defs>
     <use xlink:href="#DejaVuSans-Bold-28"/>
     <use xlink:href="#DejaVuSans-Bold-65" transform="translate(45.703125 0)"/>
     <use xlink:href="#DejaVuSans-Bold-2e" transform="translate(113.525391 0)"/>
     <use xlink:href="#DejaVuSans-Bold-67" transform="translate(151.513672 0)"/>
     <use xlink:href="#DejaVuSans-Bold-2e" transform="translate(223.095703 0)"/>
     <use xlink:href="#DejaVuSans-Bold-2c" transform="translate(261.083984 0)"/>
     <use xlink:href="#DejaVuSans-Bold-20" transform="translate(299.072266 0)"/>
     <use xlink:href="#DejaVuSans-Bold-70" transform="translate(333.886719 0)"/>
     <use xlink:href="#DejaVuSans-Bold-61" transform="translate(405.46875 0)"/>
     <use xlink:href="#DejaVuSans-Bold-72" transform="translate(472.949219 0)"/>
     <use xlink:href="#DejaVuSans-Bold-74" transform="translate(522.265625 0)"/>
     <use xlink:href="#DejaVuSans-Bold-69" transform="translate(570.068359 0)"/>
     <use xlink:href="#DejaVuSans-Bold-61" transform="translate(604.345703 0)"/>
     <use xlink:href="#DejaVuSans-Bold-6c" transform="translate(671.826172 0)"/>
     <use xlink:href="#DejaVuSans-Bold-20" transform="translate(706.103516 0)"/>
     <use xlink:href="#DejaVuSans-Bold-43" transform="translate(740.917969 0)"/>
     <use xlink:href="#DejaVuSans-Bold-5a" transform="translate(814.306641 0)"/>
     <use xlink:href="#DejaVuSans-Bold-29" transform="translate(886.816406 0)"/>
    </g>
   </g>
   <g id="text_2">
    <g id="patch_11">
     <path d="M 42.428571 252.128219 
L 100.037009 252.128219 
Q 102.737009 252.128219 102.737009 249.428219 
L 102.737009 230.639875 
Q 102.737009 227.939875 100.037009 227.939875 
L 42.428571 227.939875 
Q 39.728571 227.939875 39.728571 230.639875 
L 39.728571 249.428219 
Q 39.728571 252.128219 42.428571 252.128219 
z
" style="fill: #fadbd8; stroke: #e74c3c; stroke-linejoin: miter"/>
    </g>
    <!-- Pauli twirling -->
    <g style="fill: #e74c3c" transform="translate(42.428571 237.478469) scale(0.09 -0.09)">
     <defs>
      <path id="DejaVuSans-50" d="M 1259 4147 
L 1259 2394 
L 2053 2394 
Q 2494 2394 2734 2622 
Q 2975 2850 2975 3272 
Q 2975 3691 2734 3919 
Q 2494 4147 2053 4147 
L 1259 4147 
z
M 628 4666 
L 2053 4666 
Q 2838 4666 3239 4311 
Q 3641 3956 3641 3272 
Q 3641 2581 3239 2228 
Q 2838 1875 2053 1875 
L 1259 1875 
L 1259 0 
L 628 0 
L 628 4666 
z
" transform="scale(0.015625)"/>
      <path id="DejaVuSans-61" d="M 2194 1759 
Q 1497 1759 1228 1600 
Q 959 1441 959 1056 
Q 959 750 1161 570 
Q 1363 391 1709 391 
Q 2188 391 2477 730 
Q 2766 1069 2766 1631 
L 2766 1759 
L 2194 1759 
z
M 3341 1997 
L 3341 0 
L 2766 0 
L 2766 531 
Q 2569 213 2275 61 
Q 1981 -91 1556 -91 
Q 1019 -91 701 211 
Q 384 513 384 1019 
Q 384 1609 779 1909 
Q 1175 2209 1959 2209 
L 2766 2209 
L 2766 2266 
Q 2766 2663 2505 2880 
Q 2244 3097 1772 3097 
Q 1472 3097 1187 3025 
Q 903 2953 641 2809 
L 641 3341 
Q 956 3463 1253 3523 
Q 1550 3584 1831 3584 
Q 2591 3584 2966 3190 
Q 3341 2797 3341 1997 
z
" transform="scale(0.015625)"/>
      <path id="DejaVuSans-75" d="M 544 1381 
L 544 3500 
L 1119 3500 
L 1119 1403 
Q 1119 906 1312 657 
Q 1506 409 1894 409 
Q 2359 409 2629 706 
Q 2900 1003 2900 1516 
L 2900 3500 
L 3475 3500 
L 3475 0 
L 2900 0 
L 2900 538 
Q 2691 219 2414 64 
Q 2138 -91 1772 -91 
Q 1169 -91 856 284 
Q 544 659 544 1381 
z
M 1991 3584 
L 1991 3584 
z
" transform="scale(0.015625)"/>
      <path id="DejaVuSans-6c" d="M 603 4863 
L 1178 4863 
L 1178 0 
L 603 0 
L 603 4863 
z
" transform="scale(0.015625)"/>
      <path id="DejaVuSans-69" d="M 603 3500 
L 1178 3500 
L 1178 0 
L 603 0 
L 603 3500 
z
M 603 4863 
L 1178 4863 
L 1178 4134 
L 603 4134 
L 603 4863 
z
" transform="scale(0.015625)"/>
      <path id="DejaVuSans-20" transform="scale(0.015625)"/>
      <path id="DejaVuSans-74" d="M 1172 4494 
L 1172 3500 
L 2356 3500 
L 2356 3053 
L 1172 3053 
L 1172 1153 
Q 1172 725 1289 603 
Q 1406 481 1766 481 
L 2356 481 
L 2356 0 
L 1766 0 
Q 1100 0 847 248 
Q 594 497 594 1153 
L 594 3053 
L 172 3053 
L 172 3500 
L 594 3500 
L 594 4494 
L 1172 4494 
z
" transform="scale(0.015625)"/>
      <path id="DejaVuSans-77" d="M 269 3500 
L 844 3500 
L 1563 769 
L 2278 3500 
L 2956 3500 
L 3675 769 
L 4391 3500 
L 4966 3500 
L 4050 0 
L 3372 0 
L 2619 2869 
L 1863 0 
L 1184 0 
L 269 3500 
z
" transform="scale(0.015625)"/>
      <path id="DejaVuSans-72" d="M 2631 2963 
Q 2534 3019 2420 3045 
Q 2306 3072 2169 3072 
Q 1681 3072 1420 2755 
Q 1159 2438 1159 1844 
L 1159 0 
L 581 0 
L 581 3500 
L 1159 3500 
L 1159 2956 
Q 1341 3275 1631 3429 
Q 1922 3584 2338 3584 
Q 2397 3584 2469 3576 
Q 2541 3569 2628 3553 
L 2631 2963 
z
" transform="scale(0.015625)"/>
      <path id="DejaVuSans-6e" d="M 3513 2113 
L 3513 0 
L 2938 0 
L 2938 2094 
Q 2938 2591 2744 2837 
Q 2550 3084 2163 3084 
Q 1697 3084 1428 2787 
Q 1159 2491 1159 1978 
L 1159 0 
L 581 0 
L 581 3500 
L 1159 3500 
L 1159 2956 
Q 1366 3272 1645 3428 
Q 1925 3584 2291 3584 
Q 2894 3584 3203 3211 
Q 3513 2838 3513 2113 
z
" transform="scale(0.015625)"/>
      <path id="DejaVuSans-67" d="M 2906 1791 
Q 2906 2416 2648 2759 
Q 2391 3103 1925 3103 
Q 1463 3103 1205 2759 
Q 947 2416 947 1791 
Q 947 1169 1205 825 
Q 1463 481 1925 481 
Q 2391 481 2648 825 
Q 2906 1169 2906 1791 
z
M 3481 434 
Q 3481 -459 3084 -895 
Q 2688 -1331 1869 -1331 
Q 1566 -1331 1297 -1286 
Q 1028 -1241 775 -1147 
L 775 -588 
Q 1028 -725 1275 -790 
Q 1522 -856 1778 -856 
Q 2344 -856 2625 -561 
Q 2906 -266 2906 331 
L 2906 616 
Q 2728 306 2450 153 
Q 2172 0 1784 0 
Q 1141 0 747 490 
Q 353 981 353 1791 
Q 353 2603 747 3093 
Q 1141 3584 1784 3584 
Q 2172 3584 2450 3431 
Q 2728 3278 2906 2969 
L 2906 3500 
L 3481 3500 
L 3481 434 
z
" transform="scale(0.015625)"/>
     </defs>
     <use xlink:href="#DejaVuSans-50"/>
     <use xlink:href="#DejaVuSans-61" transform="translate(55.802734 0)"/>
     <use xlink:href="#DejaVuSans-75" transform="translate(117.082031 0)"/>
     <use xlink:href="#DejaVuSans-6c" transform="translate(180.460938 0)"/>
     <use xlink:href="#DejaVuSans-69" transform="translate(208.244141 0)"/>
     <use xlink:href="#DejaVuSans-20" transform="translate(236.027344 0)"/>
     <use xlink:href="#DejaVuSans-74" transform="translate(267.814453 0)"/>
     <use xlink:href="#DejaVuSans-77" transform="translate(307.023438 0)"/>
     <use xlink:href="#DejaVuSans-69" transform="translate(388.810547 0)"/>
     <use xlink:href="#DejaVuSans-72" transform="translate(416.59375 0)"/>
     <use xlink:href="#DejaVuSans-6c" transform="translate(457.707031 0)"/>
     <use xlink:href="#DejaVuSans-69" transform="translate(485.490234 0)"/>
     <use xlink:href="#DejaVuSans-6e" transform="translate(513.273438 0)"/>
     <use xlink:href="#DejaVuSans-67" transform="translate(576.652344 0)"/>
    </g>
    <!-- fails here! -->
    <g style="fill: #e74c3c" transform="translate(42.428571 247.5565) scale(0.09 -0.09)">
     <defs>
      <path id="DejaVuSans-66" d="M 2375 4863 
L 2375 4384 
L 1825 4384 
Q 1516 4384 1395 4259 
Q 1275 4134 1275 3809 
L 1275 3500 
L 2222 3500 
L 2222 3053 
L 1275 3053 
L 1275 0 
L 697 0 
L 697 3053 
L 147 3053 
L 147 3500 
L 697 3500 
L 697 3744 
Q 697 4328 969 4595 
Q 1241 4863 1831 4863 
L 2375 4863 
z
" transform="scale(0.015625)"/>
      <path id="DejaVuSans-73" d="M 2834 3397 
L 2834 2853 
Q 2591 2978 2328 3040 
Q 2066 3103 1784 3103 
Q 1356 3103 1142 2972 
Q 928 2841 928 2578 
Q 928 2378 1081 2264 
Q 1234 2150 1697 2047 
L 1894 2003 
Q 2506 1872 2764 1633 
Q 3022 1394 3022 966 
Q 3022 478 2636 193 
Q 2250 -91 1575 -91 
Q 1294 -91 989 -36 
Q 684 19 347 128 
L 347 722 
Q 666 556 975 473 
Q 1284 391 1588 391 
Q 1994 391 2212 530 
Q 2431 669 2431 922 
Q 2431 1156 2273 1281 
Q 2116 1406 1581 1522 
L 1381 1569 
Q 847 1681 609 1914 
Q 372 2147 372 2553 
Q 372 3047 722 3315 
Q 1072 3584 1716 3584 
Q 2034 3584 2315 3537 
Q 2597 3491 2834 3397 
z
" transform="scale(0.015625)"/>
      <path id="DejaVuSans-68" d="M 3513 2113 
L 3513 0 
L 2938 0 
L 2938 2094 
Q 2938 2591 2744 2837 
Q 2550 3084 2163 3084 
Q 1697 3084 1428 2787 
Q 1159 2491 1159 1978 
L 1159 0 
L 581 0 
L 581 4863 
L 1159 4863 
L 1159 2956 
Q 1366 3272 1645 3428 
Q 1925 3584 2291 3584 
Q 2894 3584 3203 3211 
Q 3513 2838 3513 2113 
z
" transform="scale(0.015625)"/>
      <path id="DejaVuSans-65" d="M 3597 1894 
L 3597 1613 
L 953 1613 
Q 991 1019 1311 708 
Q 1631 397 2203 397 
Q 2534 397 2845 478 
Q 3156 559 3463 722 
L 3463 178 
Q 3153 47 2828 -22 
Q 2503 -91 2169 -91 
Q 1331 -91 842 396 
Q 353 884 353 1716 
Q 353 2575 817 3079 
Q 1281 3584 2069 3584 
Q 2775 3584 3186 3129 
Q 3597 2675 3597 1894 
z
M 3022 2063 
Q 3016 2534 2758 2815 
Q 2500 3097 2075 3097 
Q 1594 3097 1305 2825 
Q 1016 2553 972 2059 
L 3022 2063 
z
" transform="scale(0.015625)"/>
      <path id="DejaVuSans-21" d="M 966 794 
L 1600 794 
L 1600 0 
L 966 0 
L 966 794 
z
M 966 4666 
L 1600 4666 
L 1600 2619 
L 1538 1503 
L 1031 1503 
L 966 2619 
L 966 4666 
z
" transform="scale(0.015625)"/>
     </defs>
     <use xlink:href="#DejaVuSans-66"/>
     <use xlink:href="#DejaVuSans-61" transform="translate(35.205078 0)"/>
     <use xlink:href="#DejaVuSans-69" transform="translate(96.484375 0)"/>
     <use xlink:href="#DejaVuSans-6c" transform="translate(124.267578 0)"/>
     <use xlink:href="#DejaVuSans-73" transform="translate(152.050781 0)"/>
     <use xlink:href="#DejaVuSans-20" transform="translate(204.150391 0)"/>
     <use xlink:href="#DejaVuSans-68" transform="translate(235.9375 0)"/>
     <use xlink:href="#DejaVuSans-65" transform="translate(299.316406 0)"/>
     <use xlink:href="#DejaVuSans-72" transform="translate(360.839844 0)"/>
     <use xlink:href="#DejaVuSans-65" transform="translate(399.703125 0)"/>
     <use xlink:href="#DejaVuSans-21" transform="translate(461.226562 0)"/>
    </g>
   </g>
   <g id="patch_12">
    <path d="M 220.571097 165.965 
Q 253.799128 165.965 284.791092 165.965 
" style="fill: none; stroke: #000000; stroke-width: 2; stroke-linecap: round"/>
    <path d="M 280.791092 163.965 
L 284.791092 165.965 
L 280.791092 167.965 
" style="fill: none; stroke: #000000; stroke-width: 2; stroke-linecap: round"/>
   </g>
   <g id="text_3">
    <!-- Pseudo Twirling -->
    <g style="fill: #ffffff" transform="translate(367.843415 140.690781) scale(0.1 -0.1)">
     <defs>
      <path id="DejaVuSans-Bold-50" d="M 588 4666 
L 2584 4666 
Q 3475 4666 3951 4270 
Q 4428 3875 4428 3144 
Q 4428 2409 3951 2014 
Q 3475 1619 2584 1619 
L 1791 1619 
L 1791 0 
L 588 0 
L 588 4666 
z
M 1791 3794 
L 1791 2491 
L 2456 2491 
Q 2806 2491 2997 2661 
Q 3188 2831 3188 3144 
Q 3188 3456 2997 3625 
Q 2806 3794 2456 3794 
L 1791 3794 
z
" transform="scale(0.015625)"/>
      <path id="DejaVuSans-Bold-73" d="M 3272 3391 
L 3272 2541 
Q 2913 2691 2578 2766 
Q 2244 2841 1947 2841 
Q 1628 2841 1473 2761 
Q 1319 2681 1319 2516 
Q 1319 2381 1436 2309 
Q 1553 2238 1856 2203 
L 2053 2175 
Q 2913 2066 3209 1816 
Q 3506 1566 3506 1031 
Q 3506 472 3093 190 
Q 2681 -91 1863 -91 
Q 1516 -91 1145 -36 
Q 775 19 384 128 
L 384 978 
Q 719 816 1070 734 
Q 1422 653 1784 653 
Q 2113 653 2278 743 
Q 2444 834 2444 1013 
Q 2444 1163 2330 1236 
Q 2216 1309 1875 1350 
L 1678 1375 
Q 931 1469 631 1722 
Q 331 1975 331 2491 
Q 331 3047 712 3315 
Q 1094 3584 1881 3584 
Q 2191 3584 2531 3537 
Q 2872 3491 3272 3391 
z
" transform="scale(0.015625)"/>
      <path id="DejaVuSans-Bold-75" d="M 500 1363 
L 500 3500 
L 1625 3500 
L 1625 3150 
Q 1625 2866 1622 2436 
Q 1619 2006 1619 1863 
Q 1619 1441 1641 1255 
Q 1663 1069 1716 984 
Q 1784 875 1895 815 
Q 2006 756 2150 756 
Q 2500 756 2700 1025 
Q 2900 1294 2900 1772 
L 2900 3500 
L 4019 3500 
L 4019 0 
L 2900 0 
L 2900 506 
Q 2647 200 2364 54 
Q 2081 -91 1741 -91 
Q 1134 -91 817 281 
Q 500 653 500 1363 
z
" transform="scale(0.015625)"/>
      <path id="DejaVuSans-Bold-54" d="M 31 4666 
L 4331 4666 
L 4331 3756 
L 2784 3756 
L 2784 0 
L 1581 0 
L 1581 3756 
L 31 3756 
L 31 4666 
z
" transform="scale(0.015625)"/>
      <path id="DejaVuSans-Bold-77" d="M 225 3500 
L 1313 3500 
L 1900 1088 
L 2491 3500 
L 3425 3500 
L 4013 1113 
L 4603 3500 
L 5691 3500 
L 4769 0 
L 3547 0 
L 2956 2406 
L 2369 0 
L 1147 0 
L 225 3500 
z
" transform="scale(0.015625)"/>
     </defs>
     <use xlink:href="#DejaVuSans-Bold-50"/>
     <use xlink:href="#DejaVuSans-Bold-73" transform="translate(71.541016 0)"/>
     <use xlink:href="#DejaVuSans-Bold-65" transform="translate(131.0625 0)"/>
     <use xlink:href="#DejaVuSans-Bold-75" transform="translate(198.884766 0)"/>
     <use xlink:href="#DejaVuSans-Bold-64" transform="translate(270.076172 0)"/>
     <use xlink:href="#DejaVuSans-Bold-6f" transform="translate(341.658203 0)"/>
     <use xlink:href="#DejaVuSans-Bold-20" transform="translate(410.359375 0)"/>
     <use xlink:href="#DejaVuSans-Bold-54" transform="translate(445.173828 0)"/>
     <use xlink:href="#DejaVuSans-Bold-77" transform="translate(502.386719 0)"/>
     <use xlink:href="#DejaVuSans-Bold-69" transform="translate(594.769531 0)"/>
     <use xlink:href="#DejaVuSans-Bold-72" transform="translate(629.046875 0)"/>
     <use xlink:href="#DejaVuSans-Bold-6c" transform="translate(678.363281 0)"/>
     <use xlink:href="#DejaVuSans-Bold-69" transform="translate(712.640625 0)"/>
     <use xlink:href="#DejaVuSans-Bold-6e" transform="translate(746.917969 0)"/>
     <use xlink:href="#DejaVuSans-Bold-67" transform="translate(818.109375 0)"/>
    </g>
    <!--  -->
    <g style="fill: #ffffff" transform="translate(412.328571 151.966719) scale(0.1 -0.1)"/>
    <!-- Q·G·P ≈ G + O(ε) -->
    <g style="fill: #ffffff" transform="translate(365.459821 163.164531) scale(0.1 -0.1)">
     <defs>
      <path id="DejaVuSans-Bold-51" d="M 2847 -84 
L 2753 -84 
Q 1600 -84 959 553 
Q 319 1191 319 2328 
Q 319 3463 958 4106 
Q 1597 4750 2719 4750 
Q 3853 4750 4486 4112 
Q 5119 3475 5119 2328 
Q 5119 1541 4783 972 
Q 4447 403 3816 116 
L 4756 -934 
L 3609 -934 
L 2847 -84 
z
M 2719 3878 
Q 2169 3878 1866 3472 
Q 1563 3066 1563 2328 
Q 1563 1578 1859 1179 
Q 2156 781 2719 781 
Q 3272 781 3575 1187 
Q 3878 1594 3878 2328 
Q 3878 3066 3575 3472 
Q 3272 3878 2719 3878 
z
" transform="scale(0.015625)"/>
      <path id="DejaVuSans-Bold-b7" d="M 653 2828 
L 1778 2828 
L 1778 1619 
L 653 1619 
L 653 2828 
z
" transform="scale(0.015625)"/>
      <path id="DejaVuSans-Bold-2248" d="M 4684 3309 
L 4684 2547 
Q 4353 2297 4073 2189 
Q 3794 2081 3494 2081 
Q 3159 2081 2713 2263 
Q 2669 2281 2644 2291 
Q 2622 2300 2575 2319 
Q 2091 2509 1797 2509 
Q 1522 2509 1253 2389 
Q 984 2269 678 2009 
L 678 2772 
Q 1006 3016 1286 3123 
Q 1566 3231 1869 3231 
Q 2213 3231 2672 3047 
Q 2703 3034 2719 3028 
Q 2744 3019 2788 3000 
Q 3272 2809 3566 2809 
Q 3834 2809 4098 2926 
Q 4363 3044 4684 3309 
z
M 4684 2003 
L 4684 1241 
Q 4353 991 4073 883 
Q 3794 775 3494 775 
Q 3159 775 2713 956 
Q 2669 975 2641 988 
Q 2622 994 2575 1013 
Q 2091 1203 1797 1203 
Q 1522 1203 1253 1084 
Q 984 966 678 703 
L 678 1466 
Q 1013 1716 1291 1823 
Q 1569 1931 1869 1931 
Q 2203 1931 2650 1750 
Q 2697 1731 2719 1722 
Q 2744 1713 2788 1697 
Q 3272 1503 3566 1503 
Q 3834 1503 4098 1620 
Q 4363 1738 4684 2003 
z
" transform="scale(0.015625)"/>
      <path id="DejaVuSans-Bold-2b" d="M 3053 4013 
L 3053 2375 
L 4684 2375 
L 4684 1638 
L 3053 1638 
L 3053 0 
L 2309 0 
L 2309 1638 
L 678 1638 
L 678 2375 
L 2309 2375 
L 2309 4013 
L 3053 4013 
z
" transform="scale(0.015625)"/>
      <path id="DejaVuSans-Bold-4f" d="M 2719 3878 
Q 2169 3878 1866 3472 
Q 1563 3066 1563 2328 
Q 1563 1594 1866 1187 
Q 2169 781 2719 781 
Q 3272 781 3575 1187 
Q 3878 1594 3878 2328 
Q 3878 3066 3575 3472 
Q 3272 3878 2719 3878 
z
M 2719 4750 
Q 3844 4750 4481 4106 
Q 5119 3463 5119 2328 
Q 5119 1197 4481 553 
Q 3844 -91 2719 -91 
Q 1597 -91 958 553 
Q 319 1197 319 2328 
Q 319 3463 958 4106 
Q 1597 4750 2719 4750 
z
" transform="scale(0.015625)"/>
      <path id="DejaVuSans-Bold-3b5" d="M 1116 1888 
Q 778 1966 606 2163 
Q 431 2363 431 2666 
Q 431 3138 794 3359 
Q 1156 3584 1881 3584 
Q 2153 3584 2431 3547 
Q 2713 3509 2997 3434 
L 2997 2688 
Q 2809 2772 2543 2822 
Q 2278 2872 2094 2872 
Q 1797 2872 1625 2763 
Q 1450 2650 1450 2519 
Q 1450 2381 1628 2275 
Q 1784 2181 2150 2181 
L 2538 2181 
L 2538 1481 
L 2169 1481 
Q 1766 1481 1572 1366 
Q 1363 1244 1363 1056 
Q 1363 875 1569 750 
Q 1772 628 2134 628 
Q 2375 628 2641 691 
Q 2934 759 3156 872 
L 3156 84 
Q 2875 -3 2588 -47 
Q 2297 -91 2009 -91 
Q 1194 -91 769 181 
Q 344 453 344 994 
Q 344 1344 541 1569 
Q 738 1794 1116 1888 
z
" transform="scale(0.015625)"/>
     </defs>
     <use xlink:href="#DejaVuSans-Bold-51"/>
     <use xlink:href="#DejaVuSans-Bold-b7" transform="translate(85.009766 0)"/>
     <use xlink:href="#DejaVuSans-Bold-47" transform="translate(122.998047 0)"/>
     <use xlink:href="#DejaVuSans-Bold-b7" transform="translate(205.078125 0)"/>
     <use xlink:href="#DejaVuSans-Bold-50" transform="translate(243.066406 0)"/>
     <use xlink:href="#DejaVuSans-Bold-20" transform="translate(316.357422 0)"/>
     <use xlink:href="#DejaVuSans-Bold-2248" transform="translate(351.171875 0)"/>
     <use xlink:href="#DejaVuSans-Bold-20" transform="translate(434.960938 0)"/>
     <use xlink:href="#DejaVuSans-Bold-47" transform="translate(469.775391 0)"/>
     <use xlink:href="#DejaVuSans-Bold-20" transform="translate(551.855469 0)"/>
     <use xlink:href="#DejaVuSans-Bold-2b" transform="translate(586.669922 0)"/>
     <use xlink:href="#DejaVuSans-Bold-20" transform="translate(670.458984 0)"/>
     <use xlink:href="#DejaVuSans-Bold-4f" transform="translate(705.273438 0)"/>
     <use xlink:href="#DejaVuSans-Bold-28" transform="translate(790.283203 0)"/>
     <use xlink:href="#DejaVuSans-Bold-3b5" transform="translate(835.986328 0)"/>
     <use xlink:href="#DejaVuSans-Bold-29" transform="translate(891.650391 0)"/>
    </g>
    <!--  -->
    <g style="fill: #ffffff" transform="translate(412.328571 174.362344) scale(0.1 -0.1)"/>
    <!-- Approximate -->
    <g style="fill: #ffffff" transform="translate(376.095759 185.560156) scale(0.1 -0.1)">
     <defs>
      <path id="DejaVuSans-Bold-41" d="M 3419 850 
L 1538 850 
L 1241 0 
L 31 0 
L 1759 4666 
L 3194 4666 
L 4922 0 
L 3713 0 
L 3419 850 
z
M 1838 1716 
L 3116 1716 
L 2478 3572 
L 1838 1716 
z
" transform="scale(0.015625)"/>
      <path id="DejaVuSans-Bold-78" d="M 1422 1791 
L 159 3500 
L 1344 3500 
L 2059 2463 
L 2784 3500 
L 3969 3500 
L 2706 1797 
L 4031 0 
L 2847 0 
L 2059 1106 
L 1281 0 
L 97 0 
L 1422 1791 
z
" transform="scale(0.015625)"/>
      <path id="DejaVuSans-Bold-6d" d="M 3781 2919 
Q 3994 3244 4286 3414 
Q 4578 3584 4928 3584 
Q 5531 3584 5847 3212 
Q 6163 2841 6163 2131 
L 6163 0 
L 5038 0 
L 5038 1825 
Q 5041 1866 5042 1909 
Q 5044 1953 5044 2034 
Q 5044 2406 4934 2573 
Q 4825 2741 4581 2741 
Q 4263 2741 4089 2478 
Q 3916 2216 3909 1719 
L 3909 0 
L 2784 0 
L 2784 1825 
Q 2784 2406 2684 2573 
Q 2584 2741 2328 2741 
Q 2006 2741 1831 2477 
Q 1656 2213 1656 1722 
L 1656 0 
L 531 0 
L 531 3500 
L 1656 3500 
L 1656 2988 
Q 1863 3284 2130 3434 
Q 2397 3584 2719 3584 
Q 3081 3584 3359 3409 
Q 3638 3234 3781 2919 
z
" transform="scale(0.015625)"/>
     </defs>
     <use xlink:href="#DejaVuSans-Bold-41"/>
     <use xlink:href="#DejaVuSans-Bold-70" transform="translate(77.392578 0)"/>
     <use xlink:href="#DejaVuSans-Bold-70" transform="translate(148.974609 0)"/>
     <use xlink:href="#DejaVuSans-Bold-72" transform="translate(220.556641 0)"/>
     <use xlink:href="#DejaVuSans-Bold-6f" transform="translate(269.873047 0)"/>
     <use xlink:href="#DejaVuSans-Bold-78" transform="translate(338.574219 0)"/>
     <use xlink:href="#DejaVuSans-Bold-69" transform="translate(403.076172 0)"/>
     <use xlink:href="#DejaVuSans-Bold-6d" transform="translate(437.353516 0)"/>
     <use xlink:href="#DejaVuSans-Bold-61" transform="translate(541.552734 0)"/>
     <use xlink:href="#DejaVuSans-Bold-74" transform="translate(609.033203 0)"/>
     <use xlink:href="#DejaVuSans-Bold-65" transform="translate(656.835938 0)"/>
    </g>
    <!-- commutation -->
    <g style="fill: #ffffff" transform="translate(375.087165 196.757969) scale(0.1 -0.1)">
     <defs>
      <path id="DejaVuSans-Bold-63" d="M 3366 3391 
L 3366 2478 
Q 3138 2634 2908 2709 
Q 2678 2784 2431 2784 
Q 1963 2784 1702 2511 
Q 1441 2238 1441 1747 
Q 1441 1256 1702 982 
Q 1963 709 2431 709 
Q 2694 709 2930 787 
Q 3166 866 3366 1019 
L 3366 103 
Q 3103 6 2833 -42 
Q 2563 -91 2291 -91 
Q 1344 -91 809 395 
Q 275 881 275 1747 
Q 275 2613 809 3098 
Q 1344 3584 2291 3584 
Q 2566 3584 2833 3536 
Q 3100 3488 3366 3391 
z
" transform="scale(0.015625)"/>
     </defs>
     <use xlink:href="#DejaVuSans-Bold-63"/>
     <use xlink:href="#DejaVuSans-Bold-6f" transform="translate(59.277344 0)"/>
     <use xlink:href="#DejaVuSans-Bold-6d" transform="translate(127.978516 0)"/>
     <use xlink:href="#DejaVuSans-Bold-6d" transform="translate(232.177734 0)"/>
     <use xlink:href="#DejaVuSans-Bold-75" transform="translate(336.376953 0)"/>
     <use xlink:href="#DejaVuSans-Bold-74" transform="translate(407.568359 0)"/>
     <use xlink:href="#DejaVuSans-Bold-61" transform="translate(455.371094 0)"/>
     <use xlink:href="#DejaVuSans-Bold-74" transform="translate(522.851562 0)"/>
     <use xlink:href="#DejaVuSans-Bold-69" transform="translate(570.654297 0)"/>
     <use xlink:href="#DejaVuSans-Bold-6f" transform="translate(604.931641 0)"/>
     <use xlink:href="#DejaVuSans-Bold-6e" transform="translate(673.632812 0)"/>
    </g>
   </g>
   <g id="patch_13">
    <path d="M 537.342266 164.938529 
Q 570.855956 144.864461 602.451371 125.939403 
" style="fill: none; stroke: #000000; stroke-width: 2; stroke-linecap: round"/>
    <path d="M 597.992152 126.279058 
L 602.451371 125.939403 
L 600.047564 129.710571 
" style="fill: none; stroke: #000000; stroke-width: 2; stroke-linecap: round"/>
   </g>
   <g id="patch_14">
    <path d="M 537.62824 165.965 
Q 570.856271 165.965 601.848235 165.965 
" style="fill: none; stroke: #000000; stroke-width: 2; stroke-linecap: round"/>
    <path d="M 597.848235 163.965 
L 601.848235 165.965 
L 597.848235 167.965 
" style="fill: none; stroke: #000000; stroke-width: 2; stroke-linecap: round"/>
   </g>
   <g id="patch_15">
    <path d="M 537.342266 166.991471 
Q 570.855956 187.065539 602.451371 205.990597 
" style="fill: none; stroke: #000000; stroke-width: 2; stroke-linecap: round"/>
    <path d="M 600.047564 202.219429 
L 602.451371 205.990597 
L 597.992152 205.650942 
" style="fill: none; stroke: #000000; stroke-width: 2; stroke-linecap: round"/>
   </g>
   <g id="text_4">
    <!-- Q₁·G·P₁ -->
    <g style="fill: #ffffff" transform="translate(673.959487 126.521875) scale(0.1 -0.1)">
     <defs>
      <path id="DejaVuSans-Bold-2081" d="M 441 466 
L 1088 466 
L 1088 2094 
L 384 1932 
L 384 2432 
L 1100 2585 
L 1806 2585 
L 1806 466 
L 2444 466 
L 2444 -24 
L 441 -24 
L 441 466 
z
" transform="scale(0.015625)"/>
     </defs>
     <use xlink:href="#DejaVuSans-Bold-51"/>
     <use xlink:href="#DejaVuSans-Bold-2081" transform="translate(85.009766 0)"/>
     <use xlink:href="#DejaVuSans-Bold-b7" transform="translate(128.808594 0)"/>
     <use xlink:href="#DejaVuSans-Bold-47" transform="translate(166.796875 0)"/>
     <use xlink:href="#DejaVuSans-Bold-b7" transform="translate(248.876953 0)"/>
     <use xlink:href="#DejaVuSans-Bold-50" transform="translate(286.865234 0)"/>
     <use xlink:href="#DejaVuSans-Bold-2081" transform="translate(360.15625 0)"/>
    </g>
   </g>
   <g id="text_5">
    <!-- Q₂·G·P₂ -->
    <g style="fill: #ffffff" transform="translate(673.959487 194.045875) scale(0.1 -0.1)">
     <defs>
      <path id="DejaVuSans-Bold-2082" d="M 1288 501 
L 2444 501 
L 2444 -24 
L 341 -24 
L 341 454 
L 1319 1285 
Q 1509 1451 1590 1576 
Q 1672 1701 1672 1826 
Q 1672 1982 1558 2079 
Q 1444 2176 1259 2176 
Q 1066 2176 844 2105 
Q 622 2035 359 1888 
L 359 2469 
Q 631 2554 886 2596 
Q 1141 2638 1375 2638 
Q 1869 2638 2150 2436 
Q 2431 2235 2431 1888 
Q 2431 1663 2320 1474 
Q 2209 1285 1894 1016 
L 1288 501 
z
" transform="scale(0.015625)"/>
     </defs>
     <use xlink:href="#DejaVuSans-Bold-51"/>
     <use xlink:href="#DejaVuSans-Bold-2082" transform="translate(85.009766 0)"/>
     <use xlink:href="#DejaVuSans-Bold-b7" transform="translate(128.808594 0)"/>
     <use xlink:href="#DejaVuSans-Bold-47" transform="translate(166.796875 0)"/>
     <use xlink:href="#DejaVuSans-Bold-b7" transform="translate(248.876953 0)"/>
     <use xlink:href="#DejaVuSans-Bold-50" transform="translate(286.865234 0)"/>
     <use xlink:href="#DejaVuSans-Bold-2082" transform="translate(360.15625 0)"/>
    </g>
   </g>
   <g id="text_6">
    <!-- Q₃·G·P₃ -->
    <g style="fill: #ffffff" transform="translate(673.959487 261.569875) scale(0.1 -0.1)">
     <defs>
      <path id="DejaVuSans-Bold-2083" d="M 1850 1388 
Q 2138 1332 2297 1160 
Q 2456 988 2456 735 
Q 2456 332 2147 130 
Q 1838 -71 1209 -71 
Q 956 -71 725 -35 
Q 494 1 281 69 
L 281 613 
Q 488 501 688 443 
Q 888 385 1075 385 
Q 1372 385 1534 485 
Q 1697 585 1697 769 
Q 1697 969 1530 1064 
Q 1363 1160 1006 1160 
L 775 1160 
L 775 1588 
L 1038 1588 
Q 1344 1588 1484 1661 
Q 1625 1735 1625 1894 
Q 1625 2035 1503 2105 
Q 1381 2176 1131 2176 
Q 969 2176 776 2135 
Q 584 2094 366 2010 
L 366 2529 
Q 569 2582 805 2610 
Q 1041 2638 1313 2638 
Q 1834 2638 2111 2463 
Q 2388 2288 2388 1960 
Q 2388 1744 2247 1594 
Q 2106 1444 1850 1388 
z
" transform="scale(0.015625)"/>
     </defs>
     <use xlink:href="#DejaVuSans-Bold-51"/>
     <use xlink:href="#DejaVuSans-Bold-2083" transform="translate(85.009766 0)"/>
     <use xlink:href="#DejaVuSans-Bold-b7" transform="translate(128.808594 0)"/>
     <use xlink:href="#DejaVuSans-Bold-47" transform="translate(166.796875 0)"/>
     <use xlink:href="#DejaVuSans-Bold-b7" transform="translate(248.876953 0)"/>
     <use xlink:href="#DejaVuSans-Bold-50" transform="translate(286.865234 0)"/>
     <use xlink:href="#DejaVuSans-Bold-2083" transform="translate(360.15625 0)"/>
    </g>
   </g>
   <g id="text_7">
    <!-- ... -->
    <g transform="translate(686.180424 309.4535) scale(0.14 -0.14)">
     <use xlink:href="#DejaVuSans-Bold-2e"/>
     <use xlink:href="#DejaVuSans-Bold-2e" transform="translate(37.988281 0)"/>
     <use xlink:href="#DejaVuSans-Bold-2e" transform="translate(75.976562 0)"/>
    </g>
   </g>
   <g id="patch_16">
    <path d="M 784.22824 196.9135 
Q 799.842823 196.9135 813.221337 196.9135 
" style="fill: none; stroke: #000000; stroke-width: 2; stroke-linecap: round"/>
    <path d="M 809.221337 194.9135 
L 813.221337 196.9135 
L 809.221337 198.9135 
" style="fill: none; stroke: #000000; stroke-width: 2; stroke-linecap: round"/>
   </g>
   <g id="text_8">
    <!-- Average -->
    <g style="fill: #ffffff" transform="translate(864.765067 191.182344) scale(0.1 -0.1)">
     <defs>
      <path id="DejaVuSans-Bold-76" d="M 97 3500 
L 1216 3500 
L 2088 1081 
L 2956 3500 
L 4078 3500 
L 2700 0 
L 1472 0 
L 97 3500 
z
" transform="scale(0.015625)"/>
     </defs>
     <use xlink:href="#DejaVuSans-Bold-41"/>
     <use xlink:href="#DejaVuSans-Bold-76" transform="translate(73.767578 0)"/>
     <use xlink:href="#DejaVuSans-Bold-65" transform="translate(138.953125 0)"/>
     <use xlink:href="#DejaVuSans-Bold-72" transform="translate(206.775391 0)"/>
     <use xlink:href="#DejaVuSans-Bold-61" transform="translate(256.091797 0)"/>
     <use xlink:href="#DejaVuSans-Bold-67" transform="translate(323.572266 0)"/>
     <use xlink:href="#DejaVuSans-Bold-65" transform="translate(395.154297 0)"/>
    </g>
    <!-- Results -->
    <g style="fill: #ffffff" transform="translate(867.058036 202.458281) scale(0.1 -0.1)">
     <defs>
      <path id="DejaVuSans-Bold-52" d="M 2297 2597 
Q 2675 2597 2839 2737 
Q 3003 2878 3003 3200 
Q 3003 3519 2839 3656 
Q 2675 3794 2297 3794 
L 1791 3794 
L 1791 2597 
L 2297 2597 
z
M 1791 1766 
L 1791 0 
L 588 0 
L 588 4666 
L 2425 4666 
Q 3347 4666 3776 4356 
Q 4206 4047 4206 3378 
Q 4206 2916 3982 2619 
Q 3759 2322 3309 2181 
Q 3556 2125 3751 1926 
Q 3947 1728 4147 1325 
L 4800 0 
L 3519 0 
L 2950 1159 
Q 2778 1509 2601 1637 
Q 2425 1766 2131 1766 
L 1791 1766 
z
" transform="scale(0.015625)"/>
     </defs>
     <use xlink:href="#DejaVuSans-Bold-52"/>
     <use xlink:href="#DejaVuSans-Bold-65" transform="translate(77.001953 0)"/>
     <use xlink:href="#DejaVuSans-Bold-73" transform="translate(144.824219 0)"/>
     <use xlink:href="#DejaVuSans-Bold-75" transform="translate(204.345703 0)"/>
     <use xlink:href="#DejaVuSans-Bold-6c" transform="translate(275.537109 0)"/>
     <use xlink:href="#DejaVuSans-Bold-74" transform="translate(309.814453 0)"/>
     <use xlink:href="#DejaVuSans-Bold-73" transform="translate(357.617188 0)"/>
    </g>
   </g>
   <g id="patch_17">
    <path d="M 887.914286 238.303925 
Q 887.914286 278.506096 887.914286 316.4722 
" style="fill: none; stroke: #000000; stroke-width: 2; stroke-linecap: round"/>
    <path d="M 889.914286 312.4722 
L 887.914286 316.4722 
L 885.914286 312.4722 
" style="fill: none; stroke: #000000; stroke-width: 2; stroke-linecap: round"/>
   </g>
   <g id="text_9">
    <g id="patch_18">
     <path d="M 782.228571 353.922188 
L 943.927009 353.922188 
Q 946.927009 353.922188 946.927009 350.922188 
L 946.927009 341.244062 
Q 946.927009 338.244062 943.927009 338.244062 
L 782.228571 338.244062 
Q 779.228571 338.244062 779.228571 341.244062 
L 779.228571 350.922188 
Q 779.228571 353.922188 782.228571 353.922188 
z
" style="fill: #e8f8f5; stroke: #27ae60; stroke-linejoin: miter"/>
    </g>
    <!-- Coherent → Quasi-Stochastic -->
    <g style="fill: #27ae60" transform="translate(782.228571 348.8425) scale(0.1 -0.1)">
     <defs>
      <path id="DejaVuSans-Bold-68" d="M 4056 2131 
L 4056 0 
L 2931 0 
L 2931 347 
L 2931 1625 
Q 2931 2084 2911 2256 
Q 2891 2428 2841 2509 
Q 2775 2619 2662 2680 
Q 2550 2741 2406 2741 
Q 2056 2741 1856 2470 
Q 1656 2200 1656 1722 
L 1656 0 
L 538 0 
L 538 4863 
L 1656 4863 
L 1656 2988 
Q 1909 3294 2193 3439 
Q 2478 3584 2822 3584 
Q 3428 3584 3742 3212 
Q 4056 2841 4056 2131 
z
" transform="scale(0.015625)"/>
      <path id="DejaVuSans-Bold-2192" d="M 5050 2225 
L 5050 1788 
L 3822 559 
L 3369 1013 
L 3988 1631 
L 366 1631 
L 366 2381 
L 3988 2381 
L 3369 3000 
L 3822 3453 
L 5050 2225 
z
" transform="scale(0.015625)"/>
      <path id="DejaVuSans-Bold-53" d="M 3834 4519 
L 3834 3531 
Q 3450 3703 3084 3790 
Q 2719 3878 2394 3878 
Q 1963 3878 1756 3759 
Q 1550 3641 1550 3391 
Q 1550 3203 1689 3098 
Q 1828 2994 2194 2919 
L 2706 2816 
Q 3484 2659 3812 2340 
Q 4141 2022 4141 1434 
Q 4141 663 3683 286 
Q 3225 -91 2284 -91 
Q 1841 -91 1394 -6 
Q 947 78 500 244 
L 500 1259 
Q 947 1022 1364 901 
Q 1781 781 2169 781 
Q 2563 781 2772 912 
Q 2981 1044 2981 1288 
Q 2981 1506 2839 1625 
Q 2697 1744 2272 1838 
L 1806 1941 
Q 1106 2091 782 2419 
Q 459 2747 459 3303 
Q 459 4000 909 4375 
Q 1359 4750 2203 4750 
Q 2588 4750 2994 4692 
Q 3400 4634 3834 4519 
z
" transform="scale(0.015625)"/>
     </defs>
     <use xlink:href="#DejaVuSans-Bold-43"/>
     <use xlink:href="#DejaVuSans-Bold-6f" transform="translate(73.388672 0)"/>
     <use xlink:href="#DejaVuSans-Bold-68" transform="translate(142.089844 0)"/>
     <use xlink:href="#DejaVuSans-Bold-65" transform="translate(213.28125 0)"/>
     <use xlink:href="#DejaVuSans-Bold-72" transform="translate(281.103516 0)"/>
     <use xlink:href="#DejaVuSans-Bold-65" transform="translate(330.419922 0)"/>
     <use xlink:href="#DejaVuSans-Bold-6e" transform="translate(398.242188 0)"/>
     <use xlink:href="#DejaVuSans-Bold-74" transform="translate(469.433594 0)"/>
     <use xlink:href="#DejaVuSans-Bold-20" transform="translate(517.236328 0)"/>
     <use xlink:href="#DejaVuSans-Bold-2192" transform="translate(552.050781 0)"/>
     <use xlink:href="#DejaVuSans-Bold-20" transform="translate(635.839844 0)"/>
     <use xlink:href="#DejaVuSans-Bold-51" transform="translate(670.654297 0)"/>
     <use xlink:href="#DejaVuSans-Bold-75" transform="translate(755.664062 0)"/>
     <use xlink:href="#DejaVuSans-Bold-61" transform="translate(826.855469 0)"/>
     <use xlink:href="#DejaVuSans-Bold-73" transform="translate(894.335938 0)"/>
     <use xlink:href="#DejaVuSans-Bold-69" transform="translate(953.857422 0)"/>
     <use xlink:href="#DejaVuSans-Bold-2d" transform="translate(988.134766 0)"/>
     <use xlink:href="#DejaVuSans-Bold-53" transform="translate(1029.638672 0)"/>
     <use xlink:href="#DejaVuSans-Bold-74" transform="translate(1101.660156 0)"/>
     <use xlink:href="#DejaVuSans-Bold-6f" transform="translate(1149.462891 0)"/>
     <use xlink:href="#DejaVuSans-Bold-63" transform="translate(1218.164062 0)"/>
     <use xlink:href="#DejaVuSans-Bold-68" transform="translate(1277.441406 0)"/>
     <use xlink:href="#DejaVuSans-Bold-61" transform="translate(1348.632812 0)"/>
     <use xlink:href="#DejaVuSans-Bold-73" transform="translate(1416.113281 0)"/>
     <use xlink:href="#DejaVuSans-Bold-74" transform="translate(1475.634766 0)"/>
     <use xlink:href="#DejaVuSans-Bold-69" transform="translate(1523.4375 0)"/>
     <use xlink:href="#DejaVuSans-Bold-63" transform="translate(1557.714844 0)"/>
    </g>
   </g>
   <g id="text_10">
    <!-- Can combine with KIK: -->
    <g style="fill: #2c3e50" transform="translate(42.428571 405.1125) scale(0.1 -0.1)">
     <defs>
      <path id="DejaVuSans-Bold-62" d="M 2400 722 
Q 2759 722 2948 984 
Q 3138 1247 3138 1747 
Q 3138 2247 2948 2509 
Q 2759 2772 2400 2772 
Q 2041 2772 1848 2508 
Q 1656 2244 1656 1747 
Q 1656 1250 1848 986 
Q 2041 722 2400 722 
z
M 1656 2988 
Q 1888 3294 2169 3439 
Q 2450 3584 2816 3584 
Q 3463 3584 3878 3070 
Q 4294 2556 4294 1747 
Q 4294 938 3878 423 
Q 3463 -91 2816 -91 
Q 2450 -91 2169 54 
Q 1888 200 1656 506 
L 1656 0 
L 538 0 
L 538 4863 
L 1656 4863 
L 1656 2988 
z
" transform="scale(0.015625)"/>
      <path id="DejaVuSans-Bold-4b" d="M 588 4666 
L 1791 4666 
L 1791 2963 
L 3525 4666 
L 4922 4666 
L 2675 2456 
L 5153 0 
L 3647 0 
L 1791 1838 
L 1791 0 
L 588 0 
L 588 4666 
z
" transform="scale(0.015625)"/>
      <path id="DejaVuSans-Bold-49" d="M 588 4666 
L 1791 4666 
L 1791 0 
L 588 0 
L 588 4666 
z
" transform="scale(0.015625)"/>
      <path id="DejaVuSans-Bold-3a" d="M 716 3500 
L 1844 3500 
L 1844 2291 
L 716 2291 
L 716 3500 
z
M 716 1209 
L 1844 1209 
L 1844 0 
L 716 0 
L 716 1209 
z
" transform="scale(0.015625)"/>
     </defs>
     <use xlink:href="#DejaVuSans-Bold-43"/>
     <use xlink:href="#DejaVuSans-Bold-61" transform="translate(73.388672 0)"/>
     <use xlink:href="#DejaVuSans-Bold-6e" transform="translate(140.869141 0)"/>
     <use xlink:href="#DejaVuSans-Bold-20" transform="translate(212.060547 0)"/>
     <use xlink:href="#DejaVuSans-Bold-63" transform="translate(246.875 0)"/>
     <use xlink:href="#DejaVuSans-Bold-6f" transform="translate(306.152344 0)"/>
     <use xlink:href="#DejaVuSans-Bold-6d" transform="translate(374.853516 0)"/>
     <use xlink:href="#DejaVuSans-Bold-62" transform="translate(479.052734 0)"/>
     <use xlink:href="#DejaVuSans-Bold-69" transform="translate(550.634766 0)"/>
     <use xlink:href="#DejaVuSans-Bold-6e" transform="translate(584.912109 0)"/>
     <use xlink:href="#DejaVuSans-Bold-65" transform="translate(656.103516 0)"/>
     <use xlink:href="#DejaVuSans-Bold-20" transform="translate(723.925781 0)"/>
     <use xlink:href="#DejaVuSans-Bold-77" transform="translate(758.740234 0)"/>
     <use xlink:href="#DejaVuSans-Bold-69" transform="translate(851.123047 0)"/>
     <use xlink:href="#DejaVuSans-Bold-74" transform="translate(885.400391 0)"/>
     <use xlink:href="#DejaVuSans-Bold-68" transform="translate(933.203125 0)"/>
     <use xlink:href="#DejaVuSans-Bold-20" transform="translate(1004.394531 0)"/>
     <use xlink:href="#DejaVuSans-Bold-4b" transform="translate(1039.208984 0)"/>
     <use xlink:href="#DejaVuSans-Bold-49" transform="translate(1116.699219 0)"/>
     <use xlink:href="#DejaVuSans-Bold-4b" transform="translate(1153.90625 0)"/>
     <use xlink:href="#DejaVuSans-Bold-3a" transform="translate(1231.396484 0)"/>
    </g>
   </g>
   <g id="text_11">
    <!-- Pseudo Twirling -->
    <g style="fill: #ffffff" transform="translate(103.629129 441.622906) scale(0.1 -0.1)">
     <use xlink:href="#DejaVuSans-Bold-50"/>
     <use xlink:href="#DejaVuSans-Bold-73" transform="translate(71.541016 0)"/>
     <use xlink:href="#DejaVuSans-Bold-65" transform="translate(131.0625 0)"/>
     <use xlink:href="#DejaVuSans-Bold-75" transform="translate(198.884766 0)"/>
     <use xlink:href="#DejaVuSans-Bold-64" transform="translate(270.076172 0)"/>
     <use xlink:href="#DejaVuSans-Bold-6f" transform="translate(341.658203 0)"/>
     <use xlink:href="#DejaVuSans-Bold-20" transform="translate(410.359375 0)"/>
     <use xlink:href="#DejaVuSans-Bold-54" transform="translate(445.173828 0)"/>
     <use xlink:href="#DejaVuSans-Bold-77" transform="translate(502.386719 0)"/>
     <use xlink:href="#DejaVuSans-Bold-69" transform="translate(594.769531 0)"/>
     <use xlink:href="#DejaVuSans-Bold-72" transform="translate(629.046875 0)"/>
     <use xlink:href="#DejaVuSans-Bold-6c" transform="translate(678.363281 0)"/>
     <use xlink:href="#DejaVuSans-Bold-69" transform="translate(712.640625 0)"/>
     <use xlink:href="#DejaVuSans-Bold-6e" transform="translate(746.917969 0)"/>
     <use xlink:href="#DejaVuSans-Bold-67" transform="translate(818.109375 0)"/>
    </g>
    <!-- (coherent) -->
    <g style="fill: #ffffff" transform="translate(118.387723 452.898844) scale(0.1 -0.1)">
     <use xlink:href="#DejaVuSans-Bold-28"/>
     <use xlink:href="#DejaVuSans-Bold-63" transform="translate(45.703125 0)"/>
     <use xlink:href="#DejaVuSans-Bold-6f" transform="translate(104.980469 0)"/>
     <use xlink:href="#DejaVuSans-Bold-68" transform="translate(173.681641 0)"/>
     <use xlink:href="#DejaVuSans-Bold-65" transform="translate(244.873047 0)"/>
     <use xlink:href="#DejaVuSans-Bold-72" transform="translate(312.695312 0)"/>
     <use xlink:href="#DejaVuSans-Bold-65" transform="translate(362.011719 0)"/>
     <use xlink:href="#DejaVuSans-Bold-6e" transform="translate(429.833984 0)"/>
     <use xlink:href="#DejaVuSans-Bold-74" transform="translate(501.025391 0)"/>
     <use xlink:href="#DejaVuSans-Bold-29" transform="translate(548.828125 0)"/>
    </g>
   </g>
   <g id="text_12">
    <!-- + -->
    <g transform="translate(267.891429 444.5015) scale(0.14 -0.14)">
     <use xlink:href="#DejaVuSans-Bold-2b"/>
    </g>
   </g>
   <g id="text_13">
    <!-- Adaptive KIK -->
    <g style="fill: #ffffff" transform="translate(358.208817 441.661969) scale(0.1 -0.1)">
     <use xlink:href="#DejaVuSans-Bold-41"/>
     <use xlink:href="#DejaVuSans-Bold-64" transform="translate(77.392578 0)"/>
     <use xlink:href="#DejaVuSans-Bold-61" transform="translate(148.974609 0)"/>
     <use xlink:href="#DejaVuSans-Bold-70" transform="translate(216.455078 0)"/>
     <use xlink:href="#DejaVuSans-Bold-74" transform="translate(288.037109 0)"/>
     <use xlink:href="#DejaVuSans-Bold-69" transform="translate(335.839844 0)"/>
     <use xlink:href="#DejaVuSans-Bold-76" transform="translate(370.117188 0)"/>
     <use xlink:href="#DejaVuSans-Bold-65" transform="translate(435.302734 0)"/>
     <use xlink:href="#DejaVuSans-Bold-20" transform="translate(503.125 0)"/>
     <use xlink:href="#DejaVuSans-Bold-4b" transform="translate(537.939453 0)"/>
     <use xlink:href="#DejaVuSans-Bold-49" transform="translate(615.429688 0)"/>
     <use xlink:href="#DejaVuSans-Bold-4b" transform="translate(652.636719 0)"/>
    </g>
    <!-- (incoherent) -->
    <g style="fill: #ffffff" transform="translate(359.714286 452.859781) scale(0.1 -0.1)">
     <use xlink:href="#DejaVuSans-Bold-28"/>
     <use xlink:href="#DejaVuSans-Bold-69" transform="translate(45.703125 0)"/>
     <use xlink:href="#DejaVuSans-Bold-6e" transform="translate(79.980469 0)"/>
     <use xlink:href="#DejaVuSans-Bold-63" transform="translate(151.171875 0)"/>
     <use xlink:href="#DejaVuSans-Bold-6f" transform="translate(210.449219 0)"/>
     <use xlink:href="#DejaVuSans-Bold-68" transform="translate(279.150391 0)"/>
     <use xlink:href="#DejaVuSans-Bold-65" transform="translate(350.341797 0)"/>
     <use xlink:href="#DejaVuSans-Bold-72" transform="translate(418.164062 0)"/>
     <use xlink:href="#DejaVuSans-Bold-65" transform="translate(467.480469 0)"/>
     <use xlink:href="#DejaVuSans-Bold-6e" transform="translate(535.302734 0)"/>
     <use xlink:href="#DejaVuSans-Bold-74" transform="translate(606.494141 0)"/>
     <use xlink:href="#DejaVuSans-Bold-29" transform="translate(654.296875 0)"/>
    </g>
   </g>
   <g id="text_14">
    <!-- = -->
    <g transform="translate(514.491429 444.5015) scale(0.14 -0.14)">
     <defs>
      <path id="DejaVuSans-Bold-3d" d="M 678 3084 
L 4684 3084 
L 4684 2350 
L 678 2350 
L 678 3084 
z
M 678 1663 
L 4684 1663 
L 4684 922 
L 678 922 
L 678 1663 
z
" transform="scale(0.015625)"/>
     </defs>
     <use xlink:href="#DejaVuSans-Bold-3d"/>
    </g>
   </g>
   <g id="text_15">
    <!-- Full Error -->
    <g style="fill: #ffffff" transform="translate(632.787165 441.622906) scale(0.1 -0.1)">
     <defs>
      <path id="DejaVuSans-Bold-46" d="M 588 4666 
L 3834 4666 
L 3834 3756 
L 1791 3756 
L 1791 2888 
L 3713 2888 
L 3713 1978 
L 1791 1978 
L 1791 0 
L 588 0 
L 588 4666 
z
" transform="scale(0.015625)"/>
      <path id="DejaVuSans-Bold-45" d="M 588 4666 
L 3834 4666 
L 3834 3756 
L 1791 3756 
L 1791 2888 
L 3713 2888 
L 3713 1978 
L 1791 1978 
L 1791 909 
L 3903 909 
L 3903 0 
L 588 0 
L 588 4666 
z
" transform="scale(0.015625)"/>
     </defs>
     <use xlink:href="#DejaVuSans-Bold-46"/>
     <use xlink:href="#DejaVuSans-Bold-75" transform="translate(63.310547 0)"/>
     <use xlink:href="#DejaVuSans-Bold-6c" transform="translate(134.501953 0)"/>
     <use xlink:href="#DejaVuSans-Bold-6c" transform="translate(168.779297 0)"/>
     <use xlink:href="#DejaVuSans-Bold-20" transform="translate(203.056641 0)"/>
     <use xlink:href="#DejaVuSans-Bold-45" transform="translate(237.871094 0)"/>
     <use xlink:href="#DejaVuSans-Bold-72" transform="translate(306.181641 0)"/>
     <use xlink:href="#DejaVuSans-Bold-72" transform="translate(355.498047 0)"/>
     <use xlink:href="#DejaVuSans-Bold-6f" transform="translate(404.814453 0)"/>
     <use xlink:href="#DejaVuSans-Bold-72" transform="translate(473.515625 0)"/>
    </g>
    <!-- Mitigation -->
    <g style="fill: #ffffff" transform="translate(630.083259 452.820719) scale(0.1 -0.1)">
     <defs>
      <path id="DejaVuSans-Bold-4d" d="M 588 4666 
L 2119 4666 
L 3181 2169 
L 4250 4666 
L 5778 4666 
L 5778 0 
L 4641 0 
L 4641 3413 
L 3566 897 
L 2803 897 
L 1728 3413 
L 1728 0 
L 588 0 
L 588 4666 
z
" transform="scale(0.015625)"/>
     </defs>
     <use xlink:href="#DejaVuSans-Bold-4d"/>
     <use xlink:href="#DejaVuSans-Bold-69" transform="translate(99.511719 0)"/>
     <use xlink:href="#DejaVuSans-Bold-74" transform="translate(133.789062 0)"/>
     <use xlink:href="#DejaVuSans-Bold-69" transform="translate(181.591797 0)"/>
     <use xlink:href="#DejaVuSans-Bold-67" transform="translate(215.869141 0)"/>
     <use xlink:href="#DejaVuSans-Bold-61" transform="translate(287.451172 0)"/>
     <use xlink:href="#DejaVuSans-Bold-74" transform="translate(354.931641 0)"/>
     <use xlink:href="#DejaVuSans-Bold-69" transform="translate(402.734375 0)"/>
     <use xlink:href="#DejaVuSans-Bold-6f" transform="translate(437.011719 0)"/>
     <use xlink:href="#DejaVuSans-Bold-6e" transform="translate(505.712891 0)"/>
    </g>
   </g>
   <g id="text_16">
    <!-- Pseudo Twirling for Non-Clifford Gates -->
    <g transform="translate(327.28125 19.3575) scale(0.16 -0.16)">
     <use xlink:href="#DejaVuSans-Bold-50"/>
     <use xlink:href="#DejaVuSans-Bold-73" transform="translate(71.541016 0)"/>
     <use xlink:href="#DejaVuSans-Bold-65" transform="translate(131.0625 0)"/>
     <use xlink:href="#DejaVuSans-Bold-75" transform="translate(198.884766 0)"/>
     <use xlink:href="#DejaVuSans-Bold-64" transform="translate(270.076172 0)"/>
     <use xlink:href="#DejaVuSans-Bold-6f" transform="translate(341.658203 0)"/>
     <use xlink:href="#DejaVuSans-Bold-20" transform="translate(410.359375 0)"/>
     <use xlink:href="#DejaVuSans-Bold-54" transform="translate(445.173828 0)"/>
     <use xlink:href="#DejaVuSans-Bold-77" transform="translate(502.386719 0)"/>
     <use xlink:href="#DejaVuSans-Bold-69" transform="translate(594.769531 0)"/>
     <use xlink:href="#DejaVuSans-Bold-72" transform="translate(629.046875 0)"/>
     <use xlink:href="#DejaVuSans-Bold-6c" transform="translate(678.363281 0)"/>
     <use xlink:href="#DejaVuSans-Bold-69" transform="translate(712.640625 0)"/>
     <use xlink:href="#DejaVuSans-Bold-6e" transform="translate(746.917969 0)"/>
     <use xlink:href="#DejaVuSans-Bold-67" transform="translate(818.109375 0)"/>
     <use xlink:href="#DejaVuSans-Bold-20" transform="translate(889.691406 0)"/>
     <use xlink:href="#DejaVuSans-Bold-66" transform="translate(924.505859 0)"/>
     <use xlink:href="#DejaVuSans-Bold-6f" transform="translate(968.011719 0)"/>
     <use xlink:href="#DejaVuSans-Bold-72" transform="translate(1036.712891 0)"/>
     <use xlink:href="#DejaVuSans-Bold-20" transform="translate(1086.029297 0)"/>
     <use xlink:href="#DejaVuSans-Bold-4e" transform="translate(1120.84375 0)"/>
     <use xlink:href="#DejaVuSans-Bold-6f" transform="translate(1204.535156 0)"/>
     <use xlink:href="#DejaVuSans-Bold-6e" transform="translate(1273.236328 0)"/>
     <use xlink:href="#DejaVuSans-Bold-2d" transform="translate(1344.427734 0)"/>
     <use xlink:href="#DejaVuSans-Bold-43" transform="translate(1385.931641 0)"/>
     <use xlink:href="#DejaVuSans-Bold-6c" transform="translate(1459.320312 0)"/>
     <use xlink:href="#DejaVuSans-Bold-69" transform="translate(1493.597656 0)"/>
     <use xlink:href="#DejaVuSans-Bold-66" transform="translate(1527.875 0)"/>
     <use xlink:href="#DejaVuSans-Bold-66" transform="translate(1571.380859 0)"/>
     <use xlink:href="#DejaVuSans-Bold-6f" transform="translate(1614.886719 0)"/>
     <use xlink:href="#DejaVuSans-Bold-72" transform="translate(1683.587891 0)"/>
     <use xlink:href="#DejaVuSans-Bold-64" transform="translate(1732.904297 0)"/>
     <use xlink:href="#DejaVuSans-Bold-20" transform="translate(1804.486328 0)"/>
     <use xlink:href="#DejaVuSans-Bold-47" transform="translate(1839.300781 0)"/>
     <use xlink:href="#DejaVuSans-Bold-61" transform="translate(1921.380859 0)"/>
     <use xlink:href="#DejaVuSans-Bold-74" transform="translate(1988.861328 0)"/>
     <use xlink:href="#DejaVuSans-Bold-65" transform="translate(2036.664062 0)"/>
     <use xlink:href="#DejaVuSans-Bold-73" transform="translate(2104.486328 0)"/>
    </g>
   </g>
  </g>
 </g>
 <defs>
  <clipPath id="p181c8cf631">
   <rect x="7.2" y="39.3575" width="986.4" height="450.16"/>
  </clipPath>
 </defs>
</svg>
