<?xml version="1.0" encoding="utf-8" standalone="no"?>
<!DOCTYPE svg PUBLIC "-//W3C//DTD SVG 1.1//EN"
  "http://www.w3.org/Graphics/SVG/1.1/DTD/svg11.dtd">
<svg xmlns:xlink="http://www.w3.org/1999/xlink" width="1000.8pt" height="568.7175pt" viewBox="0 0 1000.8 568.7175" xmlns="http://www.w3.org/2000/svg" version="1.1">
 <metadata>
  <rdf:RDF xmlns:dc="http://purl.org/dc/elements/1.1/" xmlns:cc="http://creativecommons.org/ns#" xmlns:rdf="http://www.w3.org/1999/02/22-rdf-syntax-ns#">
   <cc:Work>
    <dc:type rdf:resource="http://purl.org/dc/dcmitype/StillImage"/>
    <dc:date>2026-02-08T16:04:26.244127</dc:date>
    <dc:format>image/svg+xml</dc:format>
    <dc:creator>
     <cc:Agent>
      <dc:title>Matplotlib v3.10.8, https://matplotlib.org/</dc:title>
     </cc:Agent>
    </dc:creator>
   </cc:Work>
  </rdf:RDF>
 </metadata>
 <defs>
  <style type="text/css">*{stroke-linejoin: round; stroke-linecap: butt}</style>
 </defs>
 <g id="figure_1">
  <g id="patch_1">
   <path d="M 0 568.7175 
L 1000.8 568.7175 
L 1000.8 0 
L 0 0 
z
" style="fill: #ffffff"/>
  </g>
  <g id="axes_1">
   <g id="patch_2">
    <path d="M 52.997143 187.302833 
L 208.002857 187.302833 
Q 222.094286 187.302833 222.094286 175.699278 
L 222.094286 106.077944 
Q 222.094286 94.474389 208.002857 94.474389 
L 52.997143 94.474389 
Q 38.905714 94.474389 38.905714 106.077944 
L 38.905714 175.699278 
Q 38.905714 187.302833 52.997143 187.302833 
z
" clip-path="url(#p2a96034b8e)" style="fill: #9b59b6; stroke: #000000; stroke-width: 2; stroke-linejoin: miter"/>
   </g>
   <g id="patch_3">
    <path d="M 299.597143 187.302833 
L 454.602857 187.302833 
Q 468.694286 187.302833 468.694286 175.699278 
L 468.694286 106.077944 
Q 468.694286 94.474389 454.602857 94.474389 
L 299.597143 94.474389 
Q 285.505714 94.474389 285.505714 106.077944 
L 285.505714 175.699278 
Q 285.505714 187.302833 299.597143 187.302833 
z
" clip-path="url(#p2a96034b8e)" style="fill: #e74c3c; stroke: #000000; stroke-width: 2; stroke-linejoin: miter"/>
   </g>
   <g id="patch_4">
    <path d="M 546.197143 204.708167 
L 806.888571 204.708167 
Q 820.98 204.708167 820.98 193.104611 
L 820.98 94.474389 
Q 820.98 82.870833 806.888571 82.870833 
L 546.197143 82.870833 
Q 532.105714 82.870833 532.105714 94.474389 
L 532.105714 193.104611 
Q 532.105714 204.708167 546.197143 204.708167 
z
" clip-path="url(#p2a96034b8e)" style="fill: #3498db; stroke: #000000; stroke-width: 2; stroke-linejoin: miter"/>
   </g>
   <g id="patch_5">
    <path d="M 475.74 361.356167 
L 665.974286 361.356167 
Q 680.065714 361.356167 680.065714 349.752611 
L 680.065714 291.734833 
Q 680.065714 280.131278 665.974286 280.131278 
L 475.74 280.131278 
Q 461.648571 280.131278 461.648571 291.734833 
L 461.648571 349.752611 
Q 461.648571 361.356167 475.74 361.356167 
z
" clip-path="url(#p2a96034b8e)" style="fill: #27ae60; stroke: #000000; stroke-width: 2; stroke-linejoin: miter"/>
   </g>
   <g id="patch_6">
    <path d="M 475.74 506.400611 
L 665.974286 506.400611 
Q 680.065714 506.400611 680.065714 494.797056 
L 680.065714 442.581056 
Q 680.065714 430.9775 665.974286 430.9775 
L 475.74 430.9775 
Q 461.648571 430.9775 461.648571 442.581056 
L 461.648571 494.797056 
Q 461.648571 506.400611 475.74 506.400611 
z
" clip-path="url(#p2a96034b8e)" style="fill: #27ae60; stroke: #000000; stroke-width: 2; stroke-linejoin: miter"/>
   </g>
   <g id="patch_7">
    <path d="M 722.34 361.356167 
L 912.574286 361.356167 
Q 926.665714 361.356167 926.665714 349.752611 
L 926.665714 291.734833 
Q 926.665714 280.131278 912.574286 280.131278 
L 722.34 280.131278 
Q 708.248571 280.131278 708.248571 291.734833 
L 708.248571 349.752611 
Q 708.248571 361.356167 722.34 361.356167 
z
" clip-path="url(#p2a96034b8e)" style="fill: #f39c12; stroke: #000000; stroke-width: 2; stroke-linejoin: miter"/>
   </g>
   <g id="patch_8">
    <path d="M 722.34 506.400611 
L 912.574286 506.400611 
Q 926.665714 506.400611 926.665714 494.797056 
L 926.665714 442.581056 
Q 926.665714 430.9775 912.574286 430.9775 
L 722.34 430.9775 
Q 708.248571 430.9775 708.248571 442.581056 
L 708.248571 494.797056 
Q 708.248571 506.400611 722.34 506.400611 
z
" clip-path="url(#p2a96034b8e)" style="fill: #f39c12; stroke: #000000; stroke-width: 2; stroke-linejoin: miter"/>
   </g>
   <g id="text_1">
    <!-- Calibration -->
    <g style="fill: #ffffff" transform="translate(99.510937 132.411111) scale(0.1 -0.1)">
     <defs>
      <path id="DejaVuSans-Bold-43" d="M 4288 256 
Q 3956 84 3597 -3 
Q 3238 -91 2847 -91 
Q 1681 -91 1000 561 
Q 319 1213 319 2328 
Q 319 3447 1000 4098 
Q 1681 4750 2847 4750 
Q 3238 4750 3597 4662 
Q 3956 4575 4288 4403 
L 4288 3438 
Q 3953 3666 3628 3772 
Q 3303 3878 2944 3878 
Q 2300 3878 1931 3465 
Q 1563 3053 1563 2328 
Q 1563 1606 1931 1193 
Q 2300 781 2944 781 
Q 3303 781 3628 887 
Q 3953 994 4288 1222 
L 4288 256 
z
" transform="scale(0.015625)"/>
      <path id="DejaVuSans-Bold-61" d="M 2106 1575 
Q 1756 1575 1579 1456 
Q 1403 1338 1403 1106 
Q 1403 894 1545 773 
Q 1688 653 1941 653 
Q 2256 653 2472 879 
Q 2688 1106 2688 1447 
L 2688 1575 
L 2106 1575 
z
M 3816 1997 
L 3816 0 
L 2688 0 
L 2688 519 
Q 2463 200 2181 54 
Q 1900 -91 1497 -91 
Q 953 -91 614 226 
Q 275 544 275 1050 
Q 275 1666 698 1953 
Q 1122 2241 2028 2241 
L 2688 2241 
L 2688 2328 
Q 2688 2594 2478 2717 
Q 2269 2841 1825 2841 
Q 1466 2841 1156 2769 
Q 847 2697 581 2553 
L 581 3406 
Q 941 3494 1303 3539 
Q 1666 3584 2028 3584 
Q 2975 3584 3395 3211 
Q 3816 2838 3816 1997 
z
" transform="scale(0.015625)"/>
      <path id="DejaVuSans-Bold-6c" d="M 538 4863 
L 1656 4863 
L 1656 0 
L 538 0 
L 538 4863 
z
" transform="scale(0.015625)"/>
      <path id="DejaVuSans-Bold-69" d="M 538 3500 
L 1656 3500 
L 1656 0 
L 538 0 
L 538 3500 
z
M 538 4863 
L 1656 4863 
L 1656 3950 
L 538 3950 
L 538 4863 
z
" transform="scale(0.015625)"/>
      <path id="DejaVuSans-Bold-62" d="M 2400 722 
Q 2759 722 2948 984 
Q 3138 1247 3138 1747 
Q 3138 2247 2948 2509 
Q 2759 2772 2400 2772 
Q 2041 2772 1848 2508 
Q 1656 2244 1656 1747 
Q 1656 1250 1848 986 
Q 2041 722 2400 722 
z
M 1656 2988 
Q 1888 3294 2169 3439 
Q 2450 3584 2816 3584 
Q 3463 3584 3878 3070 
Q 4294 2556 4294 1747 
Q 4294 938 3878 423 
Q 3463 -91 2816 -91 
Q 2450 -91 2169 54 
Q 1888 200 1656 506 
L 1656 0 
L 538 0 
L 538 4863 
L 1656 4863 
L 1656 2988 
z
" transform="scale(0.015625)"/>
      <path id="DejaVuSans-Bold-72" d="M 3138 2547 
Q 2991 2616 2845 2648 
Q 2700 2681 2553 2681 
Q 2122 2681 1889 2404 
Q 1656 2128 1656 1613 
L 1656 0 
L 538 0 
L 538 3500 
L 1656 3500 
L 1656 2925 
Q 1872 3269 2151 3426 
Q 2431 3584 2822 3584 
Q 2878 3584 2943 3579 
Q 3009 3575 3134 3559 
L 3138 2547 
z
" transform="scale(0.015625)"/>
      <path id="DejaVuSans-Bold-74" d="M 1759 4494 
L 1759 3500 
L 2913 3500 
L 2913 2700 
L 1759 2700 
L 1759 1216 
Q 1759 972 1856 886 
Q 1953 800 2241 800 
L 2816 800 
L 2816 0 
L 1856 0 
Q 1194 0 917 276 
Q 641 553 641 1216 
L 641 2700 
L 84 2700 
L 84 3500 
L 641 3500 
L 641 4494 
L 1759 4494 
z
" transform="scale(0.015625)"/>
      <path id="DejaVuSans-Bold-6f" d="M 2203 2784 
Q 1831 2784 1636 2517 
Q 1441 2250 1441 1747 
Q 1441 1244 1636 976 
Q 1831 709 2203 709 
Q 2569 709 2762 976 
Q 2956 1244 2956 1747 
Q 2956 2250 2762 2517 
Q 2569 2784 2203 2784 
z
M 2203 3584 
Q 3106 3584 3614 3096 
Q 4122 2609 4122 1747 
Q 4122 884 3614 396 
Q 3106 -91 2203 -91 
Q 1297 -91 786 396 
Q 275 884 275 1747 
Q 275 2609 786 3096 
Q 1297 3584 2203 3584 
z
" transform="scale(0.015625)"/>
      <path id="DejaVuSans-Bold-6e" d="M 4056 2131 
L 4056 0 
L 2931 0 
L 2931 347 
L 2931 1631 
Q 2931 2084 2911 2256 
Q 2891 2428 2841 2509 
Q 2775 2619 2662 2680 
Q 2550 2741 2406 2741 
Q 2056 2741 1856 2470 
Q 1656 2200 1656 1722 
L 1656 0 
L 538 0 
L 538 3500 
L 1656 3500 
L 1656 2988 
Q 1909 3294 2193 3439 
Q 2478 3584 2822 3584 
Q 3428 3584 3742 3212 
Q 4056 2841 4056 2131 
z
" transform="scale(0.015625)"/>
     </defs>
     <use xlink:href="#DejaVuSans-Bold-43"/>
     <use xlink:href="#DejaVuSans-Bold-61" transform="translate(73.388672 0)"/>
     <use xlink:href="#DejaVuSans-Bold-6c" transform="translate(140.869141 0)"/>
     <use xlink:href="#DejaVuSans-Bold-69" transform="translate(175.146484 0)"/>
     <use xlink:href="#DejaVuSans-Bold-62" transform="translate(209.423828 0)"/>
     <use xlink:href="#DejaVuSans-Bold-72" transform="translate(281.005859 0)"/>
     <use xlink:href="#DejaVuSans-Bold-61" transform="translate(330.322266 0)"/>
     <use xlink:href="#DejaVuSans-Bold-74" transform="translate(397.802734 0)"/>
     <use xlink:href="#DejaVuSans-Bold-69" transform="translate(445.605469 0)"/>
     <use xlink:href="#DejaVuSans-Bold-6f" transform="translate(479.882812 0)"/>
     <use xlink:href="#DejaVuSans-Bold-6e" transform="translate(548.583984 0)"/>
    </g>
    <!-- Circuits -->
    <g style="fill: #ffffff" transform="translate(109.047656 143.608924) scale(0.1 -0.1)">
     <defs>
      <path id="DejaVuSans-Bold-63" d="M 3366 3391 
L 3366 2478 
Q 3138 2634 2908 2709 
Q 2678 2784 2431 2784 
Q 1963 2784 1702 2511 
Q 1441 2238 1441 1747 
Q 1441 1256 1702 982 
Q 1963 709 2431 709 
Q 2694 709 2930 787 
Q 3166 866 3366 1019 
L 3366 103 
Q 3103 6 2833 -42 
Q 2563 -91 2291 -91 
Q 1344 -91 809 395 
Q 275 881 275 1747 
Q 275 2613 809 3098 
Q 1344 3584 2291 3584 
Q 2566 3584 2833 3536 
Q 3100 3488 3366 3391 
z
" transform="scale(0.015625)"/>
      <path id="DejaVuSans-Bold-75" d="M 500 1363 
L 500 3500 
L 1625 3500 
L 1625 3150 
Q 1625 2866 1622 2436 
Q 1619 2006 1619 1863 
Q 1619 1441 1641 1255 
Q 1663 1069 1716 984 
Q 1784 875 1895 815 
Q 2006 756 2150 756 
Q 2500 756 2700 1025 
Q 2900 1294 2900 1772 
L 2900 3500 
L 4019 3500 
L 4019 0 
L 2900 0 
L 2900 506 
Q 2647 200 2364 54 
Q 2081 -91 1741 -91 
Q 1134 -91 817 281 
Q 500 653 500 1363 
z
" transform="scale(0.015625)"/>
      <path id="DejaVuSans-Bold-73" d="M 3272 3391 
L 3272 2541 
Q 2913 2691 2578 2766 
Q 2244 2841 1947 2841 
Q 1628 2841 1473 2761 
Q 1319 2681 1319 2516 
Q 1319 2381 1436 2309 
Q 1553 2238 1856 2203 
L 2053 2175 
Q 2913 2066 3209 1816 
Q 3506 1566 3506 1031 
Q 3506 472 3093 190 
Q 2681 -91 1863 -91 
Q 1516 -91 1145 -36 
Q 775 19 384 128 
L 384 978 
Q 719 816 1070 734 
Q 1422 653 1784 653 
Q 2113 653 2278 743 
Q 2444 834 2444 1013 
Q 2444 1163 2330 1236 
Q 2216 1309 1875 1350 
L 1678 1375 
Q 931 1469 631 1722 
Q 331 1975 331 2491 
Q 331 3047 712 3315 
Q 1094 3584 1881 3584 
Q 2191 3584 2531 3537 
Q 2872 3491 3272 3391 
z
" transform="scale(0.015625)"/>
     </defs>
     <use xlink:href="#DejaVuSans-Bold-43"/>
     <use xlink:href="#DejaVuSans-Bold-69" transform="translate(73.388672 0)"/>
     <use xlink:href="#DejaVuSans-Bold-72" transform="translate(107.666016 0)"/>
     <use xlink:href="#DejaVuSans-Bold-63" transform="translate(156.982422 0)"/>
     <use xlink:href="#DejaVuSans-Bold-75" transform="translate(216.259766 0)"/>
     <use xlink:href="#DejaVuSans-Bold-69" transform="translate(287.451172 0)"/>
     <use xlink:href="#DejaVuSans-Bold-74" transform="translate(321.728516 0)"/>
     <use xlink:href="#DejaVuSans-Bold-73" transform="translate(369.53125 0)"/>
    </g>
    <!-- (per layer) -->
    <g style="fill: #ffffff" transform="translate(100.704688 154.806736) scale(0.1 -0.1)">
     <defs>
      <path id="DejaVuSans-Bold-28" d="M 2413 -844 
L 1484 -844 
Q 1006 -72 778 623 
Q 550 1319 550 2003 
Q 550 2688 779 3389 
Q 1009 4091 1484 4856 
L 2413 4856 
Q 2013 4116 1813 3408 
Q 1613 2700 1613 2009 
Q 1613 1319 1811 609 
Q 2009 -100 2413 -844 
z
" transform="scale(0.015625)"/>
      <path id="DejaVuSans-Bold-70" d="M 1656 506 
L 1656 -1331 
L 538 -1331 
L 538 3500 
L 1656 3500 
L 1656 2988 
Q 1888 3294 2169 3439 
Q 2450 3584 2816 3584 
Q 3463 3584 3878 3070 
Q 4294 2556 4294 1747 
Q 4294 938 3878 423 
Q 3463 -91 2816 -91 
Q 2450 -91 2169 54 
Q 1888 200 1656 506 
z
M 2400 2772 
Q 2041 2772 1848 2508 
Q 1656 2244 1656 1747 
Q 1656 1250 1848 986 
Q 2041 722 2400 722 
Q 2759 722 2948 984 
Q 3138 1247 3138 1747 
Q 3138 2247 2948 2509 
Q 2759 2772 2400 2772 
z
" transform="scale(0.015625)"/>
      <path id="DejaVuSans-Bold-65" d="M 4031 1759 
L 4031 1441 
L 1416 1441 
Q 1456 1047 1700 850 
Q 1944 653 2381 653 
Q 2734 653 3104 758 
Q 3475 863 3866 1075 
L 3866 213 
Q 3469 63 3072 -14 
Q 2675 -91 2278 -91 
Q 1328 -91 801 392 
Q 275 875 275 1747 
Q 275 2603 792 3093 
Q 1309 3584 2216 3584 
Q 3041 3584 3536 3087 
Q 4031 2591 4031 1759 
z
M 2881 2131 
Q 2881 2450 2695 2645 
Q 2509 2841 2209 2841 
Q 1884 2841 1681 2658 
Q 1478 2475 1428 2131 
L 2881 2131 
z
" transform="scale(0.015625)"/>
      <path id="DejaVuSans-Bold-20" transform="scale(0.015625)"/>
      <path id="DejaVuSans-Bold-79" d="M 78 3500 
L 1197 3500 
L 2138 1125 
L 2938 3500 
L 4056 3500 
L 2584 -331 
Q 2363 -916 2067 -1148 
Q 1772 -1381 1288 -1381 
L 641 -1381 
L 641 -647 
L 991 -647 
Q 1275 -647 1404 -556 
Q 1534 -466 1606 -231 
L 1638 -134 
L 78 3500 
z
" transform="scale(0.015625)"/>
      <path id="DejaVuSans-Bold-29" d="M 513 -844 
Q 913 -100 1113 609 
Q 1313 1319 1313 2009 
Q 1313 2700 1113 3408 
Q 913 4116 513 4856 
L 1441 4856 
Q 1916 4091 2145 3389 
Q 2375 2688 2375 2003 
Q 2375 1319 2147 623 
Q 1919 -72 1441 -844 
L 513 -844 
z
" transform="scale(0.015625)"/>
     </defs>
     <use xlink:href="#DejaVuSans-Bold-28"/>
     <use xlink:href="#DejaVuSans-Bold-70" transform="translate(45.703125 0)"/>
     <use xlink:href="#DejaVuSans-Bold-65" transform="translate(117.285156 0)"/>
     <use xlink:href="#DejaVuSans-Bold-72" transform="translate(185.107422 0)"/>
     <use xlink:href="#DejaVuSans-Bold-20" transform="translate(234.423828 0)"/>
     <use xlink:href="#DejaVuSans-Bold-6c" transform="translate(269.238281 0)"/>
     <use xlink:href="#DejaVuSans-Bold-61" transform="translate(303.515625 0)"/>
     <use xlink:href="#DejaVuSans-Bold-79" transform="translate(367.871094 0)"/>
     <use xlink:href="#DejaVuSans-Bold-65" transform="translate(433.056641 0)"/>
     <use xlink:href="#DejaVuSans-Bold-72" transform="translate(500.878906 0)"/>
     <use xlink:href="#DejaVuSans-Bold-29" transform="translate(550.195312 0)"/>
    </g>
   </g>
   <g id="patch_9">
    <path d="M 220.571097 140.888611 
Q 253.799128 140.888611 284.791092 140.888611 
" style="fill: none; stroke: #000000; stroke-width: 2; stroke-linecap: round"/>
    <path d="M 280.791092 138.888611 
L 284.791092 140.888611 
L 280.791092 142.888611 
" style="fill: none; stroke: #000000; stroke-width: 2; stroke-linecap: round"/>
   </g>
   <g id="text_2">
    <!-- Execute on -->
    <g style="fill: #ffffff" transform="translate(346.028125 132.450174) scale(0.1 -0.1)">
     <defs>
      <path id="DejaVuSans-Bold-45" d="M 588 4666 
L 3834 4666 
L 3834 3756 
L 1791 3756 
L 1791 2888 
L 3713 2888 
L 3713 1978 
L 1791 1978 
L 1791 909 
L 3903 909 
L 3903 0 
L 588 0 
L 588 4666 
z
" transform="scale(0.015625)"/>
      <path id="DejaVuSans-Bold-78" d="M 1422 1791 
L 159 3500 
L 1344 3500 
L 2059 2463 
L 2784 3500 
L 3969 3500 
L 2706 1797 
L 4031 0 
L 2847 0 
L 2059 1106 
L 1281 0 
L 97 0 
L 1422 1791 
z
" transform="scale(0.015625)"/>
     </defs>
     <use xlink:href="#DejaVuSans-Bold-45"/>
     <use xlink:href="#DejaVuSans-Bold-78" transform="translate(68.310547 0)"/>
     <use xlink:href="#DejaVuSans-Bold-65" transform="translate(132.8125 0)"/>
     <use xlink:href="#DejaVuSans-Bold-63" transform="translate(200.634766 0)"/>
     <use xlink:href="#DejaVuSans-Bold-75" transform="translate(259.912109 0)"/>
     <use xlink:href="#DejaVuSans-Bold-74" transform="translate(331.103516 0)"/>
     <use xlink:href="#DejaVuSans-Bold-65" transform="translate(378.90625 0)"/>
     <use xlink:href="#DejaVuSans-Bold-20" transform="translate(446.728516 0)"/>
     <use xlink:href="#DejaVuSans-Bold-6f" transform="translate(481.542969 0)"/>
     <use xlink:href="#DejaVuSans-Bold-6e" transform="translate(550.244141 0)"/>
    </g>
    <!-- Quantum -->
    <g style="fill: #ffffff" transform="translate(351.196875 143.647986) scale(0.1 -0.1)">
     <defs>
      <path id="DejaVuSans-Bold-51" d="M 2847 -84 
L 2753 -84 
Q 1600 -84 959 553 
Q 319 1191 319 2328 
Q 319 3463 958 4106 
Q 1597 4750 2719 4750 
Q 3853 4750 4486 4112 
Q 5119 3475 5119 2328 
Q 5119 1541 4783 972 
Q 4447 403 3816 116 
L 4756 -934 
L 3609 -934 
L 2847 -84 
z
M 2719 3878 
Q 2169 3878 1866 3472 
Q 1563 3066 1563 2328 
Q 1563 1578 1859 1179 
Q 2156 781 2719 781 
Q 3272 781 3575 1187 
Q 3878 1594 3878 2328 
Q 3878 3066 3575 3472 
Q 3272 3878 2719 3878 
z
" transform="scale(0.015625)"/>
      <path id="DejaVuSans-Bold-6d" d="M 3781 2919 
Q 3994 3244 4286 3414 
Q 4578 3584 4928 3584 
Q 5531 3584 5847 3212 
Q 6163 2841 6163 2131 
L 6163 0 
L 5038 0 
L 5038 1825 
Q 5041 1866 5042 1909 
Q 5044 1953 5044 2034 
Q 5044 2406 4934 2573 
Q 4825 2741 4581 2741 
Q 4263 2741 4089 2478 
Q 3916 2216 3909 1719 
L 3909 0 
L 2784 0 
L 2784 1825 
Q 2784 2406 2684 2573 
Q 2584 2741 2328 2741 
Q 2006 2741 1831 2477 
Q 1656 2213 1656 1722 
L 1656 0 
L 531 0 
L 531 3500 
L 1656 3500 
L 1656 2988 
Q 1863 3284 2130 3434 
Q 2397 3584 2719 3584 
Q 3081 3584 3359 3409 
Q 3638 3234 3781 2919 
z
" transform="scale(0.015625)"/>
     </defs>
     <use xlink:href="#DejaVuSans-Bold-51"/>
     <use xlink:href="#DejaVuSans-Bold-75" transform="translate(85.009766 0)"/>
     <use xlink:href="#DejaVuSans-Bold-61" transform="translate(156.201172 0)"/>
     <use xlink:href="#DejaVuSans-Bold-6e" transform="translate(223.681641 0)"/>
     <use xlink:href="#DejaVuSans-Bold-74" transform="translate(294.873047 0)"/>
     <use xlink:href="#DejaVuSans-Bold-75" transform="translate(342.675781 0)"/>
     <use xlink:href="#DejaVuSans-Bold-6d" transform="translate(413.867188 0)"/>
    </g>
    <!-- Hardware -->
    <g style="fill: #ffffff" transform="translate(349.646094 154.845799) scale(0.1 -0.1)">
     <defs>
      <path id="DejaVuSans-Bold-48" d="M 588 4666 
L 1791 4666 
L 1791 2888 
L 3566 2888 
L 3566 4666 
L 4769 4666 
L 4769 0 
L 3566 0 
L 3566 1978 
L 1791 1978 
L 1791 0 
L 588 0 
L 588 4666 
z
" transform="scale(0.015625)"/>
      <path id="DejaVuSans-Bold-64" d="M 2919 2988 
L 2919 4863 
L 4044 4863 
L 4044 0 
L 2919 0 
L 2919 506 
Q 2688 197 2409 53 
Q 2131 -91 1766 -91 
Q 1119 -91 703 423 
Q 288 938 288 1747 
Q 288 2556 703 3070 
Q 1119 3584 1766 3584 
Q 2128 3584 2408 3439 
Q 2688 3294 2919 2988 
z
M 2181 722 
Q 2541 722 2730 984 
Q 2919 1247 2919 1747 
Q 2919 2247 2730 2509 
Q 2541 2772 2181 2772 
Q 1825 2772 1636 2509 
Q 1447 2247 1447 1747 
Q 1447 1247 1636 984 
Q 1825 722 2181 722 
z
" transform="scale(0.015625)"/>
      <path id="DejaVuSans-Bold-77" d="M 225 3500 
L 1313 3500 
L 1900 1088 
L 2491 3500 
L 3425 3500 
L 4013 1113 
L 4603 3500 
L 5691 3500 
L 4769 0 
L 3547 0 
L 2956 2406 
L 2369 0 
L 1147 0 
L 225 3500 
z
" transform="scale(0.015625)"/>
     </defs>
     <use xlink:href="#DejaVuSans-Bold-48"/>
     <use xlink:href="#DejaVuSans-Bold-61" transform="translate(83.691406 0)"/>
     <use xlink:href="#DejaVuSans-Bold-72" transform="translate(151.171875 0)"/>
     <use xlink:href="#DejaVuSans-Bold-64" transform="translate(200.488281 0)"/>
     <use xlink:href="#DejaVuSans-Bold-77" transform="translate(272.070312 0)"/>
     <use xlink:href="#DejaVuSans-Bold-61" transform="translate(364.453125 0)"/>
     <use xlink:href="#DejaVuSans-Bold-72" transform="translate(431.933594 0)"/>
     <use xlink:href="#DejaVuSans-Bold-65" transform="translate(481.25 0)"/>
    </g>
   </g>
   <g id="patch_10">
    <path d="M 467.171097 140.888611 
Q 500.399128 140.888611 531.391092 140.888611 
" style="fill: none; stroke: #000000; stroke-width: 2; stroke-linecap: round"/>
    <path d="M 527.391092 138.888611 
L 531.391092 140.888611 
L 527.391092 142.888611 
" style="fill: none; stroke: #000000; stroke-width: 2; stroke-linecap: round"/>
   </g>
   <g id="text_3">
    <!-- Fit Sparse Pauli-Lindblad -->
    <g style="fill: #ffffff" transform="translate(605.90067 124.114187) scale(0.1 -0.1)">
     <defs>
      <path id="DejaVuSans-Bold-46" d="M 588 4666 
L 3834 4666 
L 3834 3756 
L 1791 3756 
L 1791 2888 
L 3713 2888 
L 3713 1978 
L 1791 1978 
L 1791 0 
L 588 0 
L 588 4666 
z
" transform="scale(0.015625)"/>
      <path id="DejaVuSans-Bold-53" d="M 3834 4519 
L 3834 3531 
Q 3450 3703 3084 3790 
Q 2719 3878 2394 3878 
Q 1963 3878 1756 3759 
Q 1550 3641 1550 3391 
Q 1550 3203 1689 3098 
Q 1828 2994 2194 2919 
L 2706 2816 
Q 3484 2659 3812 2340 
Q 4141 2022 4141 1434 
Q 4141 663 3683 286 
Q 3225 -91 2284 -91 
Q 1841 -91 1394 -6 
Q 947 78 500 244 
L 500 1259 
Q 947 1022 1364 901 
Q 1781 781 2169 781 
Q 2563 781 2772 912 
Q 2981 1044 2981 1288 
Q 2981 1506 2839 1625 
Q 2697 1744 2272 1838 
L 1806 1941 
Q 1106 2091 782 2419 
Q 459 2747 459 3303 
Q 459 4000 909 4375 
Q 1359 4750 2203 4750 
Q 2588 4750 2994 4692 
Q 3400 4634 3834 4519 
z
" transform="scale(0.015625)"/>
      <path id="DejaVuSans-Bold-50" d="M 588 4666 
L 2584 4666 
Q 3475 4666 3951 4270 
Q 4428 3875 4428 3144 
Q 4428 2409 3951 2014 
Q 3475 1619 2584 1619 
L 1791 1619 
L 1791 0 
L 588 0 
L 588 4666 
z
M 1791 3794 
L 1791 2491 
L 2456 2491 
Q 2806 2491 2997 2661 
Q 3188 2831 3188 3144 
Q 3188 3456 2997 3625 
Q 2806 3794 2456 3794 
L 1791 3794 
z
" transform="scale(0.015625)"/>
      <path id="DejaVuSans-Bold-2d" d="M 347 2297 
L 2309 2297 
L 2309 1388 
L 347 1388 
L 347 2297 
z
" transform="scale(0.015625)"/>
      <path id="DejaVuSans-Bold-4c" d="M 588 4666 
L 1791 4666 
L 1791 909 
L 3903 909 
L 3903 0 
L 588 0 
L 588 4666 
z
" transform="scale(0.015625)"/>
     </defs>
     <use xlink:href="#DejaVuSans-Bold-46"/>
     <use xlink:href="#DejaVuSans-Bold-69" transform="translate(68.310547 0)"/>
     <use xlink:href="#DejaVuSans-Bold-74" transform="translate(102.587891 0)"/>
     <use xlink:href="#DejaVuSans-Bold-20" transform="translate(150.390625 0)"/>
     <use xlink:href="#DejaVuSans-Bold-53" transform="translate(185.205078 0)"/>
     <use xlink:href="#DejaVuSans-Bold-70" transform="translate(257.226562 0)"/>
     <use xlink:href="#DejaVuSans-Bold-61" transform="translate(328.808594 0)"/>
     <use xlink:href="#DejaVuSans-Bold-72" transform="translate(396.289062 0)"/>
     <use xlink:href="#DejaVuSans-Bold-73" transform="translate(445.605469 0)"/>
     <use xlink:href="#DejaVuSans-Bold-65" transform="translate(505.126953 0)"/>
     <use xlink:href="#DejaVuSans-Bold-20" transform="translate(572.949219 0)"/>
     <use xlink:href="#DejaVuSans-Bold-50" transform="translate(607.763672 0)"/>
     <use xlink:href="#DejaVuSans-Bold-61" transform="translate(678.429688 0)"/>
     <use xlink:href="#DejaVuSans-Bold-75" transform="translate(745.910156 0)"/>
     <use xlink:href="#DejaVuSans-Bold-6c" transform="translate(817.101562 0)"/>
     <use xlink:href="#DejaVuSans-Bold-69" transform="translate(851.378906 0)"/>
     <use xlink:href="#DejaVuSans-Bold-2d" transform="translate(885.65625 0)"/>
     <use xlink:href="#DejaVuSans-Bold-4c" transform="translate(927.160156 0)"/>
     <use xlink:href="#DejaVuSans-Bold-69" transform="translate(990.880859 0)"/>
     <use xlink:href="#DejaVuSans-Bold-6e" transform="translate(1025.158203 0)"/>
     <use xlink:href="#DejaVuSans-Bold-64" transform="translate(1096.349609 0)"/>
     <use xlink:href="#DejaVuSans-Bold-62" transform="translate(1167.931641 0)"/>
     <use xlink:href="#DejaVuSans-Bold-6c" transform="translate(1239.513672 0)"/>
     <use xlink:href="#DejaVuSans-Bold-61" transform="translate(1273.791016 0)"/>
     <use xlink:href="#DejaVuSans-Bold-64" transform="translate(1341.271484 0)"/>
    </g>
    <!--  -->
    <g style="fill: #ffffff" transform="translate(676.542857 135.312) scale(0.1 -0.1)"/>
    <!-- ℒ(ρ) = Σᵢ λᵢ(PᵢρPᵢ - ρ) -->
    <g style="fill: #ffffff" transform="translate(619.121763 146.509812) scale(0.1 -0.1)">
     <defs>
      <path id="DejaVuSans-Bold-2112" d="M 1244 2206 
L 1216 2850 
Q 1200 3197 1294 3575 
Q 1409 4044 1663 4313 
Q 2075 4747 2944 4750 
Q 3481 4750 3731 4553 
Q 3975 4363 3975 4078 
Q 3975 3916 3866 3803 
Q 3766 3703 3597 3703 
Q 3378 3703 3284 3775 
Q 3188 3850 3109 4100 
Q 3047 4303 2947 4384 
Q 2828 4481 2653 4481 
Q 2394 4481 2306 4384 
Q 2194 4259 2150 3978 
Q 2097 3644 2097 3200 
Q 2097 2641 2022 2266 
Q 1950 1897 1809 1744 
Q 1675 1597 1184 1216 
Q 1544 1216 2500 894 
Q 3422 584 3766 584 
Q 4250 584 4484 797 
Q 4591 894 4666 1072 
Q 4741 1256 4788 1519 
Q 4838 1794 4838 1844 
L 5034 1853 
L 5034 1391 
Q 5034 684 4553 288 
Q 4094 -91 3613 -91 
Q 3416 -91 3028 22 
Q 2584 150 2103 363 
Q 1763 513 1484 591 
Q 1206 669 1066 669 
Q 775 669 641 525 
Q 525 400 422 -6 
L 238 75 
Q 266 653 541 947 
Q 578 988 816 1194 
Q 888 1256 1016 1384 
Q 1150 1522 1209 1809 
Q 1253 2013 1244 2206 
z
" transform="scale(0.015625)"/>
      <path id="DejaVuSans-Bold-3c1" d="M 1003 3013 
Q 1425 3413 1809 3500 
Q 2203 3594 2581 3594 
Q 2700 3594 2816 3584 
Q 3425 3538 3878 3069 
Q 4294 2631 4294 1747 
Q 4294 938 3878 423 
Q 3463 -91 2816 -91 
Q 2450 -91 2169 54 
Q 1888 200 1656 506 
L 1656 -1331 
L 538 -1331 
L 538 1688 
Q 538 2566 1003 3013 
z
M 2400 2772 
Q 2041 2772 1848 2508 
Q 1656 2244 1656 1747 
Q 1656 1250 1848 986 
Q 2041 722 2400 722 
Q 2759 722 2948 984 
Q 3138 1247 3138 1747 
Q 3138 2247 2948 2509 
Q 2759 2772 2400 2772 
z
" transform="scale(0.015625)"/>
      <path id="DejaVuSans-Bold-3d" d="M 678 3084 
L 4684 3084 
L 4684 2350 
L 678 2350 
L 678 3084 
z
M 678 1663 
L 4684 1663 
L 4684 922 
L 678 922 
L 678 1663 
z
" transform="scale(0.015625)"/>
      <path id="DejaVuSans-Bold-3a3" d="M 1684 909 
L 3903 909 
L 3903 0 
L 588 0 
L 588 1003 
L 2075 2481 
L 588 3703 
L 588 4666 
L 3834 4666 
L 3834 3756 
L 1738 3756 
L 3278 2494 
L 1684 909 
z
" transform="scale(0.015625)"/>
      <path id="DejaVuSans-Bold-1d62" d="M 341 2697 
L 1047 2697 
L 1047 2188 
L 341 2188 
L 341 2697 
z
M 341 1935 
L 1047 1935 
L 1047 -24 
L 341 -24 
L 341 1935 
z
" transform="scale(0.015625)"/>
      <path id="DejaVuSans-Bold-3bb" d="M 1544 3188 
L 1350 3713 
Q 1263 3953 1145 4040 
Q 1028 4128 734 4128 
L 384 4128 
L 384 4863 
L 1031 4863 
Q 1600 4863 1908 4622 
Q 2216 4381 2428 3813 
L 3859 0 
L 2741 0 
L 2044 1838 
L 1309 0 
L 191 0 
L 1544 3188 
z
" transform="scale(0.015625)"/>
     </defs>
     <use xlink:href="#DejaVuSans-Bold-2112"/>
     <use xlink:href="#DejaVuSans-Bold-28" transform="translate(85.644531 0)"/>
     <use xlink:href="#DejaVuSans-Bold-3c1" transform="translate(131.347656 0)"/>
     <use xlink:href="#DejaVuSans-Bold-29" transform="translate(202.929688 0)"/>
     <use xlink:href="#DejaVuSans-Bold-20" transform="translate(248.632812 0)"/>
     <use xlink:href="#DejaVuSans-Bold-3d" transform="translate(283.447266 0)"/>
     <use xlink:href="#DejaVuSans-Bold-20" transform="translate(367.236328 0)"/>
     <use xlink:href="#DejaVuSans-Bold-3a3" transform="translate(402.050781 0)"/>
     <use xlink:href="#DejaVuSans-Bold-1d62" transform="translate(470.361328 0)"/>
     <use xlink:href="#DejaVuSans-Bold-20" transform="translate(492.285156 0)"/>
     <use xlink:href="#DejaVuSans-Bold-3bb" transform="translate(527.099609 0)"/>
     <use xlink:href="#DejaVuSans-Bold-1d62" transform="translate(590.380859 0)"/>
     <use xlink:href="#DejaVuSans-Bold-28" transform="translate(612.304688 0)"/>
     <use xlink:href="#DejaVuSans-Bold-50" transform="translate(658.007812 0)"/>
     <use xlink:href="#DejaVuSans-Bold-1d62" transform="translate(731.298828 0)"/>
     <use xlink:href="#DejaVuSans-Bold-3c1" transform="translate(753.222656 0)"/>
     <use xlink:href="#DejaVuSans-Bold-50" transform="translate(824.804688 0)"/>
     <use xlink:href="#DejaVuSans-Bold-1d62" transform="translate(898.095703 0)"/>
     <use xlink:href="#DejaVuSans-Bold-20" transform="translate(920.019531 0)"/>
     <use xlink:href="#DejaVuSans-Bold-2d" transform="translate(954.833984 0)"/>
     <use xlink:href="#DejaVuSans-Bold-20" transform="translate(996.337891 0)"/>
     <use xlink:href="#DejaVuSans-Bold-3c1" transform="translate(1031.152344 0)"/>
     <use xlink:href="#DejaVuSans-Bold-29" transform="translate(1102.734375 0)"/>
    </g>
    <!--  -->
    <g style="fill: #ffffff" transform="translate(676.542857 157.707625) scale(0.1 -0.1)"/>
    <!-- Low-weight, local Paulis -->
    <g style="fill: #ffffff" transform="translate(608.520982 168.905437) scale(0.1 -0.1)">
     <defs>
      <path id="DejaVuSans-Bold-67" d="M 2919 594 
Q 2688 288 2409 144 
Q 2131 0 1766 0 
Q 1125 0 706 504 
Q 288 1009 288 1791 
Q 288 2575 706 3076 
Q 1125 3578 1766 3578 
Q 2131 3578 2409 3434 
Q 2688 3291 2919 2981 
L 2919 3500 
L 4044 3500 
L 4044 353 
Q 4044 -491 3511 -936 
Q 2978 -1381 1966 -1381 
Q 1638 -1381 1331 -1331 
Q 1025 -1281 716 -1178 
L 716 -306 
Q 1009 -475 1290 -558 
Q 1572 -641 1856 -641 
Q 2406 -641 2662 -400 
Q 2919 -159 2919 353 
L 2919 594 
z
M 2181 2772 
Q 1834 2772 1640 2515 
Q 1447 2259 1447 1791 
Q 1447 1309 1634 1061 
Q 1822 813 2181 813 
Q 2531 813 2725 1069 
Q 2919 1325 2919 1791 
Q 2919 2259 2725 2515 
Q 2531 2772 2181 2772 
z
" transform="scale(0.015625)"/>
      <path id="DejaVuSans-Bold-68" d="M 4056 2131 
L 4056 0 
L 2931 0 
L 2931 347 
L 2931 1625 
Q 2931 2084 2911 2256 
Q 2891 2428 2841 2509 
Q 2775 2619 2662 2680 
Q 2550 2741 2406 2741 
Q 2056 2741 1856 2470 
Q 1656 2200 1656 1722 
L 1656 0 
L 538 0 
L 538 4863 
L 1656 4863 
L 1656 2988 
Q 1909 3294 2193 3439 
Q 2478 3584 2822 3584 
Q 3428 3584 3742 3212 
Q 4056 2841 4056 2131 
z
" transform="scale(0.015625)"/>
      <path id="DejaVuSans-Bold-2c" d="M 653 1209 
L 1778 1209 
L 1778 256 
L 1006 -909 
L 341 -909 
L 653 256 
L 653 1209 
z
" transform="scale(0.015625)"/>
     </defs>
     <use xlink:href="#DejaVuSans-Bold-4c"/>
     <use xlink:href="#DejaVuSans-Bold-6f" transform="translate(63.720703 0)"/>
     <use xlink:href="#DejaVuSans-Bold-77" transform="translate(132.421875 0)"/>
     <use xlink:href="#DejaVuSans-Bold-2d" transform="translate(224.804688 0)"/>
     <use xlink:href="#DejaVuSans-Bold-77" transform="translate(266.308594 0)"/>
     <use xlink:href="#DejaVuSans-Bold-65" transform="translate(358.691406 0)"/>
     <use xlink:href="#DejaVuSans-Bold-69" transform="translate(426.513672 0)"/>
     <use xlink:href="#DejaVuSans-Bold-67" transform="translate(460.791016 0)"/>
     <use xlink:href="#DejaVuSans-Bold-68" transform="translate(532.373047 0)"/>
     <use xlink:href="#DejaVuSans-Bold-74" transform="translate(603.564453 0)"/>
     <use xlink:href="#DejaVuSans-Bold-2c" transform="translate(651.367188 0)"/>
     <use xlink:href="#DejaVuSans-Bold-20" transform="translate(689.355469 0)"/>
     <use xlink:href="#DejaVuSans-Bold-6c" transform="translate(724.169922 0)"/>
     <use xlink:href="#DejaVuSans-Bold-6f" transform="translate(758.447266 0)"/>
     <use xlink:href="#DejaVuSans-Bold-63" transform="translate(827.148438 0)"/>
     <use xlink:href="#DejaVuSans-Bold-61" transform="translate(886.425781 0)"/>
     <use xlink:href="#DejaVuSans-Bold-6c" transform="translate(953.90625 0)"/>
     <use xlink:href="#DejaVuSans-Bold-20" transform="translate(988.183594 0)"/>
     <use xlink:href="#DejaVuSans-Bold-50" transform="translate(1022.998047 0)"/>
     <use xlink:href="#DejaVuSans-Bold-61" transform="translate(1093.664062 0)"/>
     <use xlink:href="#DejaVuSans-Bold-75" transform="translate(1161.144531 0)"/>
     <use xlink:href="#DejaVuSans-Bold-6c" transform="translate(1232.335938 0)"/>
     <use xlink:href="#DejaVuSans-Bold-69" transform="translate(1266.613281 0)"/>
     <use xlink:href="#DejaVuSans-Bold-73" transform="translate(1300.890625 0)"/>
    </g>
   </g>
   <g id="patch_11">
    <path d="M 674.875391 202.905734 
Q 623.702718 236.616154 574.397352 269.096469 
" style="fill: none; stroke: #000000; stroke-width: 2; stroke-linecap: round"/>
    <path d="M 578.837935 268.566162 
L 574.397352 269.096469 
L 576.637456 265.225819 
" style="fill: none; stroke: #000000; stroke-width: 2; stroke-linecap: round"/>
   </g>
   <g id="patch_12">
    <path d="M 678.210323 202.905734 
Q 729.382997 236.616154 778.688362 269.096469 
" style="fill: none; stroke: #000000; stroke-width: 2; stroke-linecap: round"/>
    <path d="M 776.448258 265.225819 
L 778.688362 269.096469 
L 774.247779 268.566162 
" style="fill: none; stroke: #000000; stroke-width: 2; stroke-linecap: round"/>
   </g>
   <g id="text_4">
    <!-- Invert for PEC -->
    <g style="fill: #ffffff" transform="translate(531.62433 317.904191) scale(0.1 -0.1)">
     <defs>
      <path id="DejaVuSans-Bold-49" d="M 588 4666 
L 1791 4666 
L 1791 0 
L 588 0 
L 588 4666 
z
" transform="scale(0.015625)"/>
      <path id="DejaVuSans-Bold-76" d="M 97 3500 
L 1216 3500 
L 2088 1081 
L 2956 3500 
L 4078 3500 
L 2700 0 
L 1472 0 
L 97 3500 
z
" transform="scale(0.015625)"/>
      <path id="DejaVuSans-Bold-66" d="M 2841 4863 
L 2841 4128 
L 2222 4128 
Q 1984 4128 1890 4042 
Q 1797 3956 1797 3744 
L 1797 3500 
L 2753 3500 
L 2753 2700 
L 1797 2700 
L 1797 0 
L 678 0 
L 678 2700 
L 122 2700 
L 122 3500 
L 678 3500 
L 678 3744 
Q 678 4316 997 4589 
Q 1316 4863 1984 4863 
L 2841 4863 
z
" transform="scale(0.015625)"/>
     </defs>
     <use xlink:href="#DejaVuSans-Bold-49"/>
     <use xlink:href="#DejaVuSans-Bold-6e" transform="translate(37.207031 0)"/>
     <use xlink:href="#DejaVuSans-Bold-76" transform="translate(108.398438 0)"/>
     <use xlink:href="#DejaVuSans-Bold-65" transform="translate(173.583984 0)"/>
     <use xlink:href="#DejaVuSans-Bold-72" transform="translate(241.40625 0)"/>
     <use xlink:href="#DejaVuSans-Bold-74" transform="translate(290.722656 0)"/>
     <use xlink:href="#DejaVuSans-Bold-20" transform="translate(338.525391 0)"/>
     <use xlink:href="#DejaVuSans-Bold-66" transform="translate(373.339844 0)"/>
     <use xlink:href="#DejaVuSans-Bold-6f" transform="translate(416.845703 0)"/>
     <use xlink:href="#DejaVuSans-Bold-72" transform="translate(485.546875 0)"/>
     <use xlink:href="#DejaVuSans-Bold-20" transform="translate(534.863281 0)"/>
     <use xlink:href="#DejaVuSans-Bold-50" transform="translate(569.677734 0)"/>
     <use xlink:href="#DejaVuSans-Bold-45" transform="translate(642.96875 0)"/>
     <use xlink:href="#DejaVuSans-Bold-43" transform="translate(711.279297 0)"/>
    </g>
    <!-- N^-1 = exp(-L) -->
    <g style="fill: #ffffff" transform="translate(529.231362 329.102003) scale(0.1 -0.1)">
     <defs>
      <path id="DejaVuSans-Bold-4e" d="M 588 4666 
L 1931 4666 
L 3628 1466 
L 3628 4666 
L 4769 4666 
L 4769 0 
L 3425 0 
L 1728 3200 
L 1728 0 
L 588 0 
L 588 4666 
z
" transform="scale(0.015625)"/>
      <path id="DejaVuSans-Bold-5e" d="M 3066 4666 
L 4716 2925 
L 3963 2925 
L 2681 3866 
L 1403 2925 
L 647 2925 
L 2297 4666 
L 3066 4666 
z
" transform="scale(0.015625)"/>
      <path id="DejaVuSans-Bold-31" d="M 750 831 
L 1813 831 
L 1813 3847 
L 722 3622 
L 722 4441 
L 1806 4666 
L 2950 4666 
L 2950 831 
L 4013 831 
L 4013 0 
L 750 0 
L 750 831 
z
" transform="scale(0.015625)"/>
     </defs>
     <use xlink:href="#DejaVuSans-Bold-4e"/>
     <use xlink:href="#DejaVuSans-Bold-5e" transform="translate(83.691406 0)"/>
     <use xlink:href="#DejaVuSans-Bold-2d" transform="translate(167.480469 0)"/>
     <use xlink:href="#DejaVuSans-Bold-31" transform="translate(208.984375 0)"/>
     <use xlink:href="#DejaVuSans-Bold-20" transform="translate(278.564453 0)"/>
     <use xlink:href="#DejaVuSans-Bold-3d" transform="translate(313.378906 0)"/>
     <use xlink:href="#DejaVuSans-Bold-20" transform="translate(397.167969 0)"/>
     <use xlink:href="#DejaVuSans-Bold-65" transform="translate(431.982422 0)"/>
     <use xlink:href="#DejaVuSans-Bold-78" transform="translate(499.804688 0)"/>
     <use xlink:href="#DejaVuSans-Bold-70" transform="translate(564.306641 0)"/>
     <use xlink:href="#DejaVuSans-Bold-28" transform="translate(635.888672 0)"/>
     <use xlink:href="#DejaVuSans-Bold-2d" transform="translate(681.591797 0)"/>
     <use xlink:href="#DejaVuSans-Bold-4c" transform="translate(723.095703 0)"/>
     <use xlink:href="#DejaVuSans-Bold-29" transform="translate(786.816406 0)"/>
    </g>
   </g>
   <g id="patch_13">
    <path d="M 570.857143 360.457783 
Q 570.857143 396.166529 570.857143 429.639207 
" style="fill: none; stroke: #000000; stroke-width: 2; stroke-linecap: round"/>
    <path d="M 572.857143 425.639207 
L 570.857143 429.639207 
L 568.857143 425.639207 
" style="fill: none; stroke: #000000; stroke-width: 2; stroke-linecap: round"/>
   </g>
   <g id="text_5">
    <!-- Scalable -->
    <g style="fill: #ffffff" transform="translate(547.145424 465.849524) scale(0.1 -0.1)">
     <use xlink:href="#DejaVuSans-Bold-53"/>
     <use xlink:href="#DejaVuSans-Bold-63" transform="translate(72.021484 0)"/>
     <use xlink:href="#DejaVuSans-Bold-61" transform="translate(131.298828 0)"/>
     <use xlink:href="#DejaVuSans-Bold-6c" transform="translate(198.779297 0)"/>
     <use xlink:href="#DejaVuSans-Bold-61" transform="translate(233.056641 0)"/>
     <use xlink:href="#DejaVuSans-Bold-62" transform="translate(300.537109 0)"/>
     <use xlink:href="#DejaVuSans-Bold-6c" transform="translate(372.119141 0)"/>
     <use xlink:href="#DejaVuSans-Bold-65" transform="translate(406.396484 0)"/>
    </g>
    <!-- PEC -->
    <g style="fill: #ffffff" transform="translate(560.107143 477.047337) scale(0.1 -0.1)">
     <use xlink:href="#DejaVuSans-Bold-50"/>
     <use xlink:href="#DejaVuSans-Bold-45" transform="translate(73.291016 0)"/>
     <use xlink:href="#DejaVuSans-Bold-43" transform="translate(141.601562 0)"/>
    </g>
   </g>
   <g id="text_6">
    <!-- Amplify for ZNE -->
    <g style="fill: #ffffff" transform="translate(773.153237 317.826066) scale(0.1 -0.1)">
     <defs>
      <path id="DejaVuSans-Bold-41" d="M 3419 850 
L 1538 850 
L 1241 0 
L 31 0 
L 1759 4666 
L 3194 4666 
L 4922 0 
L 3713 0 
L 3419 850 
z
M 1838 1716 
L 3116 1716 
L 2478 3572 
L 1838 1716 
z
" transform="scale(0.015625)"/>
      <path id="DejaVuSans-Bold-5a" d="M 359 4666 
L 4281 4666 
L 4281 3938 
L 1778 909 
L 4353 909 
L 4353 0 
L 288 0 
L 288 728 
L 2791 3756 
L 359 3756 
L 359 4666 
z
" transform="scale(0.015625)"/>
     </defs>
     <use xlink:href="#DejaVuSans-Bold-41"/>
     <use xlink:href="#DejaVuSans-Bold-6d" transform="translate(77.392578 0)"/>
     <use xlink:href="#DejaVuSans-Bold-70" transform="translate(181.591797 0)"/>
     <use xlink:href="#DejaVuSans-Bold-6c" transform="translate(253.173828 0)"/>
     <use xlink:href="#DejaVuSans-Bold-69" transform="translate(287.451172 0)"/>
     <use xlink:href="#DejaVuSans-Bold-66" transform="translate(321.728516 0)"/>
     <use xlink:href="#DejaVuSans-Bold-79" transform="translate(365.234375 0)"/>
     <use xlink:href="#DejaVuSans-Bold-20" transform="translate(430.419922 0)"/>
     <use xlink:href="#DejaVuSans-Bold-66" transform="translate(465.234375 0)"/>
     <use xlink:href="#DejaVuSans-Bold-6f" transform="translate(508.740234 0)"/>
     <use xlink:href="#DejaVuSans-Bold-72" transform="translate(577.441406 0)"/>
     <use xlink:href="#DejaVuSans-Bold-20" transform="translate(626.757812 0)"/>
     <use xlink:href="#DejaVuSans-Bold-5a" transform="translate(661.572266 0)"/>
     <use xlink:href="#DejaVuSans-Bold-4e" transform="translate(734.082031 0)"/>
     <use xlink:href="#DejaVuSans-Bold-45" transform="translate(817.773438 0)"/>
    </g>
    <!-- Inject cλᵢ noise -->
    <g style="fill: #ffffff" transform="translate(775.796987 329.102003) scale(0.1 -0.1)">
     <defs>
      <path id="DejaVuSans-Bold-6a" d="M 538 3500 
L 1656 3500 
L 1656 63 
Q 1656 -641 1318 -1011 
Q 981 -1381 341 -1381 
L -213 -1381 
L -213 -647 
L -19 -647 
Q 300 -647 419 -503 
Q 538 -359 538 63 
L 538 3500 
z
M 538 4863 
L 1656 4863 
L 1656 3950 
L 538 3950 
L 538 4863 
z
" transform="scale(0.015625)"/>
     </defs>
     <use xlink:href="#DejaVuSans-Bold-49"/>
     <use xlink:href="#DejaVuSans-Bold-6e" transform="translate(37.207031 0)"/>
     <use xlink:href="#DejaVuSans-Bold-6a" transform="translate(108.398438 0)"/>
     <use xlink:href="#DejaVuSans-Bold-65" transform="translate(142.675781 0)"/>
     <use xlink:href="#DejaVuSans-Bold-63" transform="translate(210.498047 0)"/>
     <use xlink:href="#DejaVuSans-Bold-74" transform="translate(269.775391 0)"/>
     <use xlink:href="#DejaVuSans-Bold-20" transform="translate(317.578125 0)"/>
     <use xlink:href="#DejaVuSans-Bold-63" transform="translate(352.392578 0)"/>
     <use xlink:href="#DejaVuSans-Bold-3bb" transform="translate(411.669922 0)"/>
     <use xlink:href="#DejaVuSans-Bold-1d62" transform="translate(474.951172 0)"/>
     <use xlink:href="#DejaVuSans-Bold-20" transform="translate(496.875 0)"/>
     <use xlink:href="#DejaVuSans-Bold-6e" transform="translate(531.689453 0)"/>
     <use xlink:href="#DejaVuSans-Bold-6f" transform="translate(602.880859 0)"/>
     <use xlink:href="#DejaVuSans-Bold-69" transform="translate(671.582031 0)"/>
     <use xlink:href="#DejaVuSans-Bold-73" transform="translate(705.859375 0)"/>
     <use xlink:href="#DejaVuSans-Bold-65" transform="translate(765.380859 0)"/>
    </g>
   </g>
   <g id="patch_14">
    <path d="M 817.457143 360.457783 
Q 817.457143 396.166529 817.457143 429.639207 
" style="fill: none; stroke: #000000; stroke-width: 2; stroke-linecap: round"/>
    <path d="M 819.457143 425.639207 
L 817.457143 429.639207 
L 815.457143 425.639207 
" style="fill: none; stroke: #000000; stroke-width: 2; stroke-linecap: round"/>
   </g>
   <g id="text_7">
    <!-- Accurate -->
    <g style="fill: #ffffff" transform="translate(792.479018 465.849524) scale(0.1 -0.1)">
     <use xlink:href="#DejaVuSans-Bold-41"/>
     <use xlink:href="#DejaVuSans-Bold-63" transform="translate(77.392578 0)"/>
     <use xlink:href="#DejaVuSans-Bold-63" transform="translate(136.669922 0)"/>
     <use xlink:href="#DejaVuSans-Bold-75" transform="translate(195.947266 0)"/>
     <use xlink:href="#DejaVuSans-Bold-72" transform="translate(267.138672 0)"/>
     <use xlink:href="#DejaVuSans-Bold-61" transform="translate(316.455078 0)"/>
     <use xlink:href="#DejaVuSans-Bold-74" transform="translate(383.935547 0)"/>
     <use xlink:href="#DejaVuSans-Bold-65" transform="translate(431.738281 0)"/>
    </g>
    <!-- PEA/ZNE -->
    <g style="fill: #ffffff" transform="translate(793.454799 477.047337) scale(0.1 -0.1)">
     <defs>
      <path id="DejaVuSans-Bold-2f" d="M 1644 4666 
L 2338 4666 
L 691 -594 
L 0 -594 
L 1644 4666 
z
" transform="scale(0.015625)"/>
     </defs>
     <use xlink:href="#DejaVuSans-Bold-50"/>
     <use xlink:href="#DejaVuSans-Bold-45" transform="translate(73.291016 0)"/>
     <use xlink:href="#DejaVuSans-Bold-41" transform="translate(141.601562 0)"/>
     <use xlink:href="#DejaVuSans-Bold-2f" transform="translate(218.994141 0)"/>
     <use xlink:href="#DejaVuSans-Bold-5a" transform="translate(255.517578 0)"/>
     <use xlink:href="#DejaVuSans-Bold-4e" transform="translate(328.027344 0)"/>
     <use xlink:href="#DejaVuSans-Bold-45" transform="translate(411.71875 0)"/>
    </g>
   </g>
   <g id="text_8">
    <!-- Key Properties: -->
    <g style="fill: #2c3e50" transform="translate(42.428571 329.446389) scale(0.1 -0.1)">
     <defs>
      <path id="DejaVuSans-Bold-4b" d="M 588 4666 
L 1791 4666 
L 1791 2963 
L 3525 4666 
L 4922 4666 
L 2675 2456 
L 5153 0 
L 3647 0 
L 1791 1838 
L 1791 0 
L 588 0 
L 588 4666 
z
" transform="scale(0.015625)"/>
      <path id="DejaVuSans-Bold-3a" d="M 716 3500 
L 1844 3500 
L 1844 2291 
L 716 2291 
L 716 3500 
z
M 716 1209 
L 1844 1209 
L 1844 0 
L 716 0 
L 716 1209 
z
" transform="scale(0.015625)"/>
     </defs>
     <use xlink:href="#DejaVuSans-Bold-4b"/>
     <use xlink:href="#DejaVuSans-Bold-65" transform="translate(75.740234 0)"/>
     <use xlink:href="#DejaVuSans-Bold-79" transform="translate(143.5625 0)"/>
     <use xlink:href="#DejaVuSans-Bold-20" transform="translate(208.748047 0)"/>
     <use xlink:href="#DejaVuSans-Bold-50" transform="translate(243.5625 0)"/>
     <use xlink:href="#DejaVuSans-Bold-72" transform="translate(316.853516 0)"/>
     <use xlink:href="#DejaVuSans-Bold-6f" transform="translate(366.169922 0)"/>
     <use xlink:href="#DejaVuSans-Bold-70" transform="translate(434.871094 0)"/>
     <use xlink:href="#DejaVuSans-Bold-65" transform="translate(506.453125 0)"/>
     <use xlink:href="#DejaVuSans-Bold-72" transform="translate(574.275391 0)"/>
     <use xlink:href="#DejaVuSans-Bold-74" transform="translate(623.591797 0)"/>
     <use xlink:href="#DejaVuSans-Bold-69" transform="translate(671.394531 0)"/>
     <use xlink:href="#DejaVuSans-Bold-65" transform="translate(705.671875 0)"/>
     <use xlink:href="#DejaVuSans-Bold-73" transform="translate(773.494141 0)"/>
     <use xlink:href="#DejaVuSans-Bold-3a" transform="translate(833.015625 0)"/>
    </g>
   </g>
   <g id="text_9">
    <!-- • Scales to 100+ qubits -->
    <g transform="translate(42.428571 370.058833) scale(0.09 -0.09)">
     <defs>
      <path id="DejaVuSans-2022" d="M 959 2381 
Q 959 2769 1229 3036 
Q 1500 3303 1894 3303 
Q 2281 3303 2548 3036 
Q 2816 2769 2816 2381 
Q 2816 1991 2547 1722 
Q 2278 1453 1888 1453 
Q 1497 1453 1228 1722 
Q 959 1991 959 2381 
z
" transform="scale(0.015625)"/>
      <path id="DejaVuSans-20" transform="scale(0.015625)"/>
      <path id="DejaVuSans-53" d="M 3425 4513 
L 3425 3897 
Q 3066 4069 2747 4153 
Q 2428 4238 2131 4238 
Q 1616 4238 1336 4038 
Q 1056 3838 1056 3469 
Q 1056 3159 1242 3001 
Q 1428 2844 1947 2747 
L 2328 2669 
Q 3034 2534 3370 2195 
Q 3706 1856 3706 1288 
Q 3706 609 3251 259 
Q 2797 -91 1919 -91 
Q 1588 -91 1214 -16 
Q 841 59 441 206 
L 441 856 
Q 825 641 1194 531 
Q 1563 422 1919 422 
Q 2459 422 2753 634 
Q 3047 847 3047 1241 
Q 3047 1584 2836 1778 
Q 2625 1972 2144 2069 
L 1759 2144 
Q 1053 2284 737 2584 
Q 422 2884 422 3419 
Q 422 4038 858 4394 
Q 1294 4750 2059 4750 
Q 2388 4750 2728 4690 
Q 3069 4631 3425 4513 
z
" transform="scale(0.015625)"/>
      <path id="DejaVuSans-63" d="M 3122 3366 
L 3122 2828 
Q 2878 2963 2633 3030 
Q 2388 3097 2138 3097 
Q 1578 3097 1268 2742 
Q 959 2388 959 1747 
Q 959 1106 1268 751 
Q 1578 397 2138 397 
Q 2388 397 2633 464 
Q 2878 531 3122 666 
L 3122 134 
Q 2881 22 2623 -34 
Q 2366 -91 2075 -91 
Q 1284 -91 818 406 
Q 353 903 353 1747 
Q 353 2603 823 3093 
Q 1294 3584 2113 3584 
Q 2378 3584 2631 3529 
Q 2884 3475 3122 3366 
z
" transform="scale(0.015625)"/>
      <path id="DejaVuSans-61" d="M 2194 1759 
Q 1497 1759 1228 1600 
Q 959 1441 959 1056 
Q 959 750 1161 570 
Q 1363 391 1709 391 
Q 2188 391 2477 730 
Q 2766 1069 2766 1631 
L 2766 1759 
L 2194 1759 
z
M 3341 1997 
L 3341 0 
L 2766 0 
L 2766 531 
Q 2569 213 2275 61 
Q 1981 -91 1556 -91 
Q 1019 -91 701 211 
Q 384 513 384 1019 
Q 384 1609 779 1909 
Q 1175 2209 1959 2209 
L 2766 2209 
L 2766 2266 
Q 2766 2663 2505 2880 
Q 2244 3097 1772 3097 
Q 1472 3097 1187 3025 
Q 903 2953 641 2809 
L 641 3341 
Q 956 3463 1253 3523 
Q 1550 3584 1831 3584 
Q 2591 3584 2966 3190 
Q 3341 2797 3341 1997 
z
" transform="scale(0.015625)"/>
      <path id="DejaVuSans-6c" d="M 603 4863 
L 1178 4863 
L 1178 0 
L 603 0 
L 603 4863 
z
" transform="scale(0.015625)"/>
      <path id="DejaVuSans-65" d="M 3597 1894 
L 3597 1613 
L 953 1613 
Q 991 1019 1311 708 
Q 1631 397 2203 397 
Q 2534 397 2845 478 
Q 3156 559 3463 722 
L 3463 178 
Q 3153 47 2828 -22 
Q 2503 -91 2169 -91 
Q 1331 -91 842 396 
Q 353 884 353 1716 
Q 353 2575 817 3079 
Q 1281 3584 2069 3584 
Q 2775 3584 3186 3129 
Q 3597 2675 3597 1894 
z
M 3022 2063 
Q 3016 2534 2758 2815 
Q 2500 3097 2075 3097 
Q 1594 3097 1305 2825 
Q 1016 2553 972 2059 
L 3022 2063 
z
" transform="scale(0.015625)"/>
      <path id="DejaVuSans-73" d="M 2834 3397 
L 2834 2853 
Q 2591 2978 2328 3040 
Q 2066 3103 1784 3103 
Q 1356 3103 1142 2972 
Q 928 2841 928 2578 
Q 928 2378 1081 2264 
Q 1234 2150 1697 2047 
L 1894 2003 
Q 2506 1872 2764 1633 
Q 3022 1394 3022 966 
Q 3022 478 2636 193 
Q 2250 -91 1575 -91 
Q 1294 -91 989 -36 
Q 684 19 347 128 
L 347 722 
Q 666 556 975 473 
Q 1284 391 1588 391 
Q 1994 391 2212 530 
Q 2431 669 2431 922 
Q 2431 1156 2273 1281 
Q 2116 1406 1581 1522 
L 1381 1569 
Q 847 1681 609 1914 
Q 372 2147 372 2553 
Q 372 3047 722 3315 
Q 1072 3584 1716 3584 
Q 2034 3584 2315 3537 
Q 2597 3491 2834 3397 
z
" transform="scale(0.015625)"/>
      <path id="DejaVuSans-74" d="M 1172 4494 
L 1172 3500 
L 2356 3500 
L 2356 3053 
L 1172 3053 
L 1172 1153 
Q 1172 725 1289 603 
Q 1406 481 1766 481 
L 2356 481 
L 2356 0 
L 1766 0 
Q 1100 0 847 248 
Q 594 497 594 1153 
L 594 3053 
L 172 3053 
L 172 3500 
L 594 3500 
L 594 4494 
L 1172 4494 
z
" transform="scale(0.015625)"/>
      <path id="DejaVuSans-6f" d="M 1959 3097 
Q 1497 3097 1228 2736 
Q 959 2375 959 1747 
Q 959 1119 1226 758 
Q 1494 397 1959 397 
Q 2419 397 2687 759 
Q 2956 1122 2956 1747 
Q 2956 2369 2687 2733 
Q 2419 3097 1959 3097 
z
M 1959 3584 
Q 2709 3584 3137 3096 
Q 3566 2609 3566 1747 
Q 3566 888 3137 398 
Q 2709 -91 1959 -91 
Q 1206 -91 779 398 
Q 353 888 353 1747 
Q 353 2609 779 3096 
Q 1206 3584 1959 3584 
z
" transform="scale(0.015625)"/>
      <path id="DejaVuSans-31" d="M 794 531 
L 1825 531 
L 1825 4091 
L 703 3866 
L 703 4441 
L 1819 4666 
L 2450 4666 
L 2450 531 
L 3481 531 
L 3481 0 
L 794 0 
L 794 531 
z
" transform="scale(0.015625)"/>
      <path id="DejaVuSans-30" d="M 2034 4250 
Q 1547 4250 1301 3770 
Q 1056 3291 1056 2328 
Q 1056 1369 1301 889 
Q 1547 409 2034 409 
Q 2525 409 2770 889 
Q 3016 1369 3016 2328 
Q 3016 3291 2770 3770 
Q 2525 4250 2034 4250 
z
M 2034 4750 
Q 2819 4750 3233 4129 
Q 3647 3509 3647 2328 
Q 3647 1150 3233 529 
Q 2819 -91 2034 -91 
Q 1250 -91 836 529 
Q 422 1150 422 2328 
Q 422 3509 836 4129 
Q 1250 4750 2034 4750 
z
" transform="scale(0.015625)"/>
      <path id="DejaVuSans-2b" d="M 2944 4013 
L 2944 2272 
L 4684 2272 
L 4684 1741 
L 2944 1741 
L 2944 0 
L 2419 0 
L 2419 1741 
L 678 1741 
L 678 2272 
L 2419 2272 
L 2419 4013 
L 2944 4013 
z
" transform="scale(0.015625)"/>
      <path id="DejaVuSans-71" d="M 947 1747 
Q 947 1113 1208 752 
Q 1469 391 1925 391 
Q 2381 391 2643 752 
Q 2906 1113 2906 1747 
Q 2906 2381 2643 2742 
Q 2381 3103 1925 3103 
Q 1469 3103 1208 2742 
Q 947 2381 947 1747 
z
M 2906 525 
Q 2725 213 2448 61 
Q 2172 -91 1784 -91 
Q 1150 -91 751 415 
Q 353 922 353 1747 
Q 353 2572 751 3078 
Q 1150 3584 1784 3584 
Q 2172 3584 2448 3432 
Q 2725 3281 2906 2969 
L 2906 3500 
L 3481 3500 
L 3481 -1331 
L 2906 -1331 
L 2906 525 
z
" transform="scale(0.015625)"/>
      <path id="DejaVuSans-75" d="M 544 1381 
L 544 3500 
L 1119 3500 
L 1119 1403 
Q 1119 906 1312 657 
Q 1506 409 1894 409 
Q 2359 409 2629 706 
Q 2900 1003 2900 1516 
L 2900 3500 
L 3475 3500 
L 3475 0 
L 2900 0 
L 2900 538 
Q 2691 219 2414 64 
Q 2138 -91 1772 -91 
Q 1169 -91 856 284 
Q 544 659 544 1381 
z
M 1991 3584 
L 1991 3584 
z
" transform="scale(0.015625)"/>
      <path id="DejaVuSans-62" d="M 3116 1747 
Q 3116 2381 2855 2742 
Q 2594 3103 2138 3103 
Q 1681 3103 1420 2742 
Q 1159 2381 1159 1747 
Q 1159 1113 1420 752 
Q 1681 391 2138 391 
Q 2594 391 2855 752 
Q 3116 1113 3116 1747 
z
M 1159 2969 
Q 1341 3281 1617 3432 
Q 1894 3584 2278 3584 
Q 2916 3584 3314 3078 
Q 3713 2572 3713 1747 
Q 3713 922 3314 415 
Q 2916 -91 2278 -91 
Q 1894 -91 1617 61 
Q 1341 213 1159 525 
L 1159 0 
L 581 0 
L 581 4863 
L 1159 4863 
L 1159 2969 
z
" transform="scale(0.015625)"/>
      <path id="DejaVuSans-69" d="M 603 3500 
L 1178 3500 
L 1178 0 
L 603 0 
L 603 3500 
z
M 603 4863 
L 1178 4863 
L 1178 4134 
L 603 4134 
L 603 4863 
z
" transform="scale(0.015625)"/>
     </defs>
     <use xlink:href="#DejaVuSans-2022"/>
     <use xlink:href="#DejaVuSans-20" transform="translate(58.984375 0)"/>
     <use xlink:href="#DejaVuSans-53" transform="translate(90.771484 0)"/>
     <use xlink:href="#DejaVuSans-63" transform="translate(154.248047 0)"/>
     <use xlink:href="#DejaVuSans-61" transform="translate(209.228516 0)"/>
     <use xlink:href="#DejaVuSans-6c" transform="translate(270.507812 0)"/>
     <use xlink:href="#DejaVuSans-65" transform="translate(298.291016 0)"/>
     <use xlink:href="#DejaVuSans-73" transform="translate(359.814453 0)"/>
     <use xlink:href="#DejaVuSans-20" transform="translate(411.914062 0)"/>
     <use xlink:href="#DejaVuSans-74" transform="translate(443.701172 0)"/>
     <use xlink:href="#DejaVuSans-6f" transform="translate(482.910156 0)"/>
     <use xlink:href="#DejaVuSans-20" transform="translate(544.091797 0)"/>
     <use xlink:href="#DejaVuSans-31" transform="translate(575.878906 0)"/>
     <use xlink:href="#DejaVuSans-30" transform="translate(639.501953 0)"/>
     <use xlink:href="#DejaVuSans-30" transform="translate(703.125 0)"/>
     <use xlink:href="#DejaVuSans-2b" transform="translate(766.748047 0)"/>
     <use xlink:href="#DejaVuSans-20" transform="translate(850.537109 0)"/>
     <use xlink:href="#DejaVuSans-71" transform="translate(882.324219 0)"/>
     <use xlink:href="#DejaVuSans-75" transform="translate(945.800781 0)"/>
     <use xlink:href="#DejaVuSans-62" transform="translate(1009.179688 0)"/>
     <use xlink:href="#DejaVuSans-69" transform="translate(1072.65625 0)"/>
     <use xlink:href="#DejaVuSans-74" transform="translate(1100.439453 0)"/>
     <use xlink:href="#DejaVuSans-73" transform="translate(1139.648438 0)"/>
    </g>
   </g>
   <g id="text_10">
    <!-- • Captures crosstalk -->
    <g transform="translate(42.428571 404.8695) scale(0.09 -0.09)">
     <defs>
      <path id="DejaVuSans-43" d="M 4122 4306 
L 4122 3641 
Q 3803 3938 3442 4084 
Q 3081 4231 2675 4231 
Q 1875 4231 1450 3742 
Q 1025 3253 1025 2328 
Q 1025 1406 1450 917 
Q 1875 428 2675 428 
Q 3081 428 3442 575 
Q 3803 722 4122 1019 
L 4122 359 
Q 3791 134 3420 21 
Q 3050 -91 2638 -91 
Q 1578 -91 968 557 
Q 359 1206 359 2328 
Q 359 3453 968 4101 
Q 1578 4750 2638 4750 
Q 3056 4750 3426 4639 
Q 3797 4528 4122 4306 
z
" transform="scale(0.015625)"/>
      <path id="DejaVuSans-70" d="M 1159 525 
L 1159 -1331 
L 581 -1331 
L 581 3500 
L 1159 3500 
L 1159 2969 
Q 1341 3281 1617 3432 
Q 1894 3584 2278 3584 
Q 2916 3584 3314 3078 
Q 3713 2572 3713 1747 
Q 3713 922 3314 415 
Q 2916 -91 2278 -91 
Q 1894 -91 1617 61 
Q 1341 213 1159 525 
z
M 3116 1747 
Q 3116 2381 2855 2742 
Q 2594 3103 2138 3103 
Q 1681 3103 1420 2742 
Q 1159 2381 1159 1747 
Q 1159 1113 1420 752 
Q 1681 391 2138 391 
Q 2594 391 2855 752 
Q 3116 1113 3116 1747 
z
" transform="scale(0.015625)"/>
      <path id="DejaVuSans-72" d="M 2631 2963 
Q 2534 3019 2420 3045 
Q 2306 3072 2169 3072 
Q 1681 3072 1420 2755 
Q 1159 2438 1159 1844 
L 1159 0 
L 581 0 
L 581 3500 
L 1159 3500 
L 1159 2956 
Q 1341 3275 1631 3429 
Q 1922 3584 2338 3584 
Q 2397 3584 2469 3576 
Q 2541 3569 2628 3553 
L 2631 2963 
z
" transform="scale(0.015625)"/>
      <path id="DejaVuSans-6b" d="M 581 4863 
L 1159 4863 
L 1159 1991 
L 2875 3500 
L 3609 3500 
L 1753 1863 
L 3688 0 
L 2938 0 
L 1159 1709 
L 1159 0 
L 581 0 
L 581 4863 
z
" transform="scale(0.015625)"/>
     </defs>
     <use xlink:href="#DejaVuSans-2022"/>
     <use xlink:href="#DejaVuSans-20" transform="translate(58.984375 0)"/>
     <use xlink:href="#DejaVuSans-43" transform="translate(90.771484 0)"/>
     <use xlink:href="#DejaVuSans-61" transform="translate(160.595703 0)"/>
     <use xlink:href="#DejaVuSans-70" transform="translate(221.875 0)"/>
     <use xlink:href="#DejaVuSans-74" transform="translate(285.351562 0)"/>
     <use xlink:href="#DejaVuSans-75" transform="translate(324.560547 0)"/>
     <use xlink:href="#DejaVuSans-72" transform="translate(387.939453 0)"/>
     <use xlink:href="#DejaVuSans-65" transform="translate(426.802734 0)"/>
     <use xlink:href="#DejaVuSans-73" transform="translate(488.326172 0)"/>
     <use xlink:href="#DejaVuSans-20" transform="translate(540.425781 0)"/>
     <use xlink:href="#DejaVuSans-63" transform="translate(572.212891 0)"/>
     <use xlink:href="#DejaVuSans-72" transform="translate(627.193359 0)"/>
     <use xlink:href="#DejaVuSans-6f" transform="translate(666.056641 0)"/>
     <use xlink:href="#DejaVuSans-73" transform="translate(727.238281 0)"/>
     <use xlink:href="#DejaVuSans-73" transform="translate(779.337891 0)"/>
     <use xlink:href="#DejaVuSans-74" transform="translate(831.4375 0)"/>
     <use xlink:href="#DejaVuSans-61" transform="translate(870.646484 0)"/>
     <use xlink:href="#DejaVuSans-6c" transform="translate(931.925781 0)"/>
     <use xlink:href="#DejaVuSans-6b" transform="translate(959.708984 0)"/>
    </g>
   </g>
   <g id="text_11">
    <!-- • O(n·4ʷ) parameters -->
    <g transform="translate(42.428571 439.680167) scale(0.09 -0.09)">
     <defs>
      <path id="DejaVuSans-4f" d="M 2522 4238 
Q 1834 4238 1429 3725 
Q 1025 3213 1025 2328 
Q 1025 1447 1429 934 
Q 1834 422 2522 422 
Q 3209 422 3611 934 
Q 4013 1447 4013 2328 
Q 4013 3213 3611 3725 
Q 3209 4238 2522 4238 
z
M 2522 4750 
Q 3503 4750 4090 4092 
Q 4678 3434 4678 2328 
Q 4678 1225 4090 567 
Q 3503 -91 2522 -91 
Q 1538 -91 948 565 
Q 359 1222 359 2328 
Q 359 3434 948 4092 
Q 1538 4750 2522 4750 
z
" transform="scale(0.015625)"/>
      <path id="DejaVuSans-28" d="M 1984 4856 
Q 1566 4138 1362 3434 
Q 1159 2731 1159 2009 
Q 1159 1288 1364 580 
Q 1569 -128 1984 -844 
L 1484 -844 
Q 1016 -109 783 600 
Q 550 1309 550 2009 
Q 550 2706 781 3412 
Q 1013 4119 1484 4856 
L 1984 4856 
z
" transform="scale(0.015625)"/>
      <path id="DejaVuSans-6e" d="M 3513 2113 
L 3513 0 
L 2938 0 
L 2938 2094 
Q 2938 2591 2744 2837 
Q 2550 3084 2163 3084 
Q 1697 3084 1428 2787 
Q 1159 2491 1159 1978 
L 1159 0 
L 581 0 
L 581 3500 
L 1159 3500 
L 1159 2956 
Q 1366 3272 1645 3428 
Q 1925 3584 2291 3584 
Q 2894 3584 3203 3211 
Q 3513 2838 3513 2113 
z
" transform="scale(0.015625)"/>
      <path id="DejaVuSans-b7" d="M 684 2619 
L 1344 2619 
L 1344 1825 
L 684 1825 
L 684 2619 
z
" transform="scale(0.015625)"/>
      <path id="DejaVuSans-34" d="M 2419 4116 
L 825 1625 
L 2419 1625 
L 2419 4116 
z
M 2253 4666 
L 3047 4666 
L 3047 1625 
L 3713 1625 
L 3713 1100 
L 3047 1100 
L 3047 0 
L 2419 0 
L 2419 1100 
L 313 1100 
L 313 1709 
L 2253 4666 
z
" transform="scale(0.015625)"/>
      <path id="DejaVuSans-2b7" d="M 169 4047 
L 531 4047 
L 984 2519 
L 1434 4047 
L 1863 4047 
L 2316 2519 
L 2766 4047 
L 3128 4047 
L 2550 2088 
L 2125 2088 
L 1650 3694 
L 1172 2088 
L 747 2088 
L 169 4047 
z
" transform="scale(0.015625)"/>
      <path id="DejaVuSans-29" d="M 513 4856 
L 1013 4856 
Q 1481 4119 1714 3412 
Q 1947 2706 1947 2009 
Q 1947 1309 1714 600 
Q 1481 -109 1013 -844 
L 513 -844 
Q 928 -128 1133 580 
Q 1338 1288 1338 2009 
Q 1338 2731 1133 3434 
Q 928 4138 513 4856 
z
" transform="scale(0.015625)"/>
      <path id="DejaVuSans-6d" d="M 3328 2828 
Q 3544 3216 3844 3400 
Q 4144 3584 4550 3584 
Q 5097 3584 5394 3201 
Q 5691 2819 5691 2113 
L 5691 0 
L 5113 0 
L 5113 2094 
Q 5113 2597 4934 2840 
Q 4756 3084 4391 3084 
Q 3944 3084 3684 2787 
Q 3425 2491 3425 1978 
L 3425 0 
L 2847 0 
L 2847 2094 
Q 2847 2600 2669 2842 
Q 2491 3084 2119 3084 
Q 1678 3084 1418 2786 
Q 1159 2488 1159 1978 
L 1159 0 
L 581 0 
L 581 3500 
L 1159 3500 
L 1159 2956 
Q 1356 3278 1631 3431 
Q 1906 3584 2284 3584 
Q 2666 3584 2933 3390 
Q 3200 3197 3328 2828 
z
" transform="scale(0.015625)"/>
     </defs>
     <use xlink:href="#DejaVuSans-2022"/>
     <use xlink:href="#DejaVuSans-20" transform="translate(58.984375 0)"/>
     <use xlink:href="#DejaVuSans-4f" transform="translate(90.771484 0)"/>
     <use xlink:href="#DejaVuSans-28" transform="translate(169.482422 0)"/>
     <use xlink:href="#DejaVuSans-6e" transform="translate(208.496094 0)"/>
     <use xlink:href="#DejaVuSans-b7" transform="translate(271.875 0)"/>
     <use xlink:href="#DejaVuSans-34" transform="translate(303.662109 0)"/>
     <use xlink:href="#DejaVuSans-2b7" transform="translate(367.285156 0)"/>
     <use xlink:href="#DejaVuSans-29" transform="translate(418.798828 0)"/>
     <use xlink:href="#DejaVuSans-20" transform="translate(457.8125 0)"/>
     <use xlink:href="#DejaVuSans-70" transform="translate(489.599609 0)"/>
     <use xlink:href="#DejaVuSans-61" transform="translate(553.076172 0)"/>
     <use xlink:href="#DejaVuSans-72" transform="translate(614.355469 0)"/>
     <use xlink:href="#DejaVuSans-61" transform="translate(655.46875 0)"/>
     <use xlink:href="#DejaVuSans-6d" transform="translate(716.748047 0)"/>
     <use xlink:href="#DejaVuSans-65" transform="translate(814.160156 0)"/>
     <use xlink:href="#DejaVuSans-74" transform="translate(875.683594 0)"/>
     <use xlink:href="#DejaVuSans-65" transform="translate(914.892578 0)"/>
     <use xlink:href="#DejaVuSans-72" transform="translate(976.416016 0)"/>
     <use xlink:href="#DejaVuSans-73" transform="translate(1017.529297 0)"/>
    </g>
   </g>
   <g id="text_12">
    <!-- • Enabled 127-qubit demo -->
    <g style="fill: #27ae60" transform="translate(42.428571 474.490833) scale(0.09 -0.09)">
     <defs>
      <path id="DejaVuSans-Bold-2022" d="M 922 2381 
Q 922 2613 1005 2816 
Q 1088 3019 1247 3175 
Q 1413 3334 1616 3417 
Q 1819 3500 2047 3500 
Q 2275 3500 2479 3415 
Q 2684 3331 2841 3175 
Q 3003 3013 3086 2811 
Q 3169 2609 3169 2381 
Q 3169 2150 3084 1945 
Q 3000 1741 2841 1581 
Q 2681 1422 2476 1337 
Q 2272 1253 2041 1253 
Q 1813 1253 1609 1337 
Q 1406 1422 1247 1581 
Q 1091 1741 1006 1945 
Q 922 2150 922 2381 
z
" transform="scale(0.015625)"/>
      <path id="DejaVuSans-Bold-32" d="M 1844 884 
L 3897 884 
L 3897 0 
L 506 0 
L 506 884 
L 2209 2388 
Q 2438 2594 2547 2791 
Q 2656 2988 2656 3200 
Q 2656 3528 2436 3728 
Q 2216 3928 1850 3928 
Q 1569 3928 1234 3808 
Q 900 3688 519 3450 
L 519 4475 
Q 925 4609 1322 4679 
Q 1719 4750 2100 4750 
Q 2938 4750 3402 4381 
Q 3866 4013 3866 3353 
Q 3866 2972 3669 2642 
Q 3472 2313 2841 1759 
L 1844 884 
z
" transform="scale(0.015625)"/>
      <path id="DejaVuSans-Bold-37" d="M 428 4666 
L 3944 4666 
L 3944 3988 
L 2125 0 
L 953 0 
L 2675 3781 
L 428 3781 
L 428 4666 
z
" transform="scale(0.015625)"/>
      <path id="DejaVuSans-Bold-71" d="M 2181 2772 
Q 1825 2772 1636 2509 
Q 1447 2247 1447 1747 
Q 1447 1247 1636 984 
Q 1825 722 2181 722 
Q 2541 722 2730 984 
Q 2919 1247 2919 1747 
Q 2919 2247 2730 2509 
Q 2541 2772 2181 2772 
z
M 2919 506 
Q 2688 197 2409 53 
Q 2131 -91 1766 -91 
Q 1119 -91 703 423 
Q 288 938 288 1747 
Q 288 2556 703 3067 
Q 1119 3578 1766 3578 
Q 2131 3578 2409 3434 
Q 2688 3291 2919 2981 
L 2919 3500 
L 4044 3500 
L 4044 -1331 
L 2919 -1331 
L 2919 506 
z
" transform="scale(0.015625)"/>
     </defs>
     <use xlink:href="#DejaVuSans-Bold-2022"/>
     <use xlink:href="#DejaVuSans-Bold-20" transform="translate(63.916016 0)"/>
     <use xlink:href="#DejaVuSans-Bold-45" transform="translate(98.730469 0)"/>
     <use xlink:href="#DejaVuSans-Bold-6e" transform="translate(167.041016 0)"/>
     <use xlink:href="#DejaVuSans-Bold-61" transform="translate(238.232422 0)"/>
     <use xlink:href="#DejaVuSans-Bold-62" transform="translate(305.712891 0)"/>
     <use xlink:href="#DejaVuSans-Bold-6c" transform="translate(377.294922 0)"/>
     <use xlink:href="#DejaVuSans-Bold-65" transform="translate(411.572266 0)"/>
     <use xlink:href="#DejaVuSans-Bold-64" transform="translate(479.394531 0)"/>
     <use xlink:href="#DejaVuSans-Bold-20" transform="translate(550.976562 0)"/>
     <use xlink:href="#DejaVuSans-Bold-31" transform="translate(585.791016 0)"/>
     <use xlink:href="#DejaVuSans-Bold-32" transform="translate(655.371094 0)"/>
     <use xlink:href="#DejaVuSans-Bold-37" transform="translate(724.951172 0)"/>
     <use xlink:href="#DejaVuSans-Bold-2d" transform="translate(794.53125 0)"/>
     <use xlink:href="#DejaVuSans-Bold-71" transform="translate(836.035156 0)"/>
     <use xlink:href="#DejaVuSans-Bold-75" transform="translate(907.617188 0)"/>
     <use xlink:href="#DejaVuSans-Bold-62" transform="translate(978.808594 0)"/>
     <use xlink:href="#DejaVuSans-Bold-69" transform="translate(1050.390625 0)"/>
     <use xlink:href="#DejaVuSans-Bold-74" transform="translate(1084.667969 0)"/>
     <use xlink:href="#DejaVuSans-Bold-20" transform="translate(1132.470703 0)"/>
     <use xlink:href="#DejaVuSans-Bold-64" transform="translate(1167.285156 0)"/>
     <use xlink:href="#DejaVuSans-Bold-65" transform="translate(1238.867188 0)"/>
     <use xlink:href="#DejaVuSans-Bold-6d" transform="translate(1306.689453 0)"/>
     <use xlink:href="#DejaVuSans-Bold-6f" transform="translate(1410.888672 0)"/>
    </g>
   </g>
   <g id="text_13">
    <g id="patch_15">
     <path d="M 77.657143 246.991441 
L 202.286049 246.991441 
Q 204.986049 246.991441 204.986049 244.291441 
L 204.986049 225.503097 
Q 204.986049 222.803097 202.286049 222.803097 
L 77.657143 222.803097 
Q 74.957143 222.803097 74.957143 225.503097 
L 74.957143 244.291441 
Q 74.957143 246.991441 77.657143 246.991441 
z
" style="fill: #ebf5fb; stroke: #3498db; stroke-linejoin: miter"/>
    </g>
    <!-- Sparsity: weight(Pᵢ) ≤ 2 -->
    <g style="fill: #3498db" transform="translate(77.657143 232.341691) scale(0.09 -0.09)">
     <defs>
      <path id="DejaVuSans-79" d="M 2059 -325 
Q 1816 -950 1584 -1140 
Q 1353 -1331 966 -1331 
L 506 -1331 
L 506 -850 
L 844 -850 
Q 1081 -850 1212 -737 
Q 1344 -625 1503 -206 
L 1606 56 
L 191 3500 
L 800 3500 
L 1894 763 
L 2988 3500 
L 3597 3500 
L 2059 -325 
z
" transform="scale(0.015625)"/>
      <path id="DejaVuSans-3a" d="M 750 794 
L 1409 794 
L 1409 0 
L 750 0 
L 750 794 
z
M 750 3309 
L 1409 3309 
L 1409 2516 
L 750 2516 
L 750 3309 
z
" transform="scale(0.015625)"/>
      <path id="DejaVuSans-77" d="M 269 3500 
L 844 3500 
L 1563 769 
L 2278 3500 
L 2956 3500 
L 3675 769 
L 4391 3500 
L 4966 3500 
L 4050 0 
L 3372 0 
L 2619 2869 
L 1863 0 
L 1184 0 
L 269 3500 
z
" transform="scale(0.015625)"/>
      <path id="DejaVuSans-67" d="M 2906 1791 
Q 2906 2416 2648 2759 
Q 2391 3103 1925 3103 
Q 1463 3103 1205 2759 
Q 947 2416 947 1791 
Q 947 1169 1205 825 
Q 1463 481 1925 481 
Q 2391 481 2648 825 
Q 2906 1169 2906 1791 
z
M 3481 434 
Q 3481 -459 3084 -895 
Q 2688 -1331 1869 -1331 
Q 1566 -1331 1297 -1286 
Q 1028 -1241 775 -1147 
L 775 -588 
Q 1028 -725 1275 -790 
Q 1522 -856 1778 -856 
Q 2344 -856 2625 -561 
Q 2906 -266 2906 331 
L 2906 616 
Q 2728 306 2450 153 
Q 2172 0 1784 0 
Q 1141 0 747 490 
Q 353 981 353 1791 
Q 353 2603 747 3093 
Q 1141 3584 1784 3584 
Q 2172 3584 2450 3431 
Q 2728 3278 2906 2969 
L 2906 3500 
L 3481 3500 
L 3481 434 
z
" transform="scale(0.015625)"/>
      <path id="DejaVuSans-68" d="M 3513 2113 
L 3513 0 
L 2938 0 
L 2938 2094 
Q 2938 2591 2744 2837 
Q 2550 3084 2163 3084 
Q 1697 3084 1428 2787 
Q 1159 2491 1159 1978 
L 1159 0 
L 581 0 
L 581 4863 
L 1159 4863 
L 1159 2956 
Q 1366 3272 1645 3428 
Q 1925 3584 2291 3584 
Q 2894 3584 3203 3211 
Q 3513 2838 3513 2113 
z
" transform="scale(0.015625)"/>
      <path id="DejaVuSans-50" d="M 1259 4147 
L 1259 2394 
L 2053 2394 
Q 2494 2394 2734 2622 
Q 2975 2850 2975 3272 
Q 2975 3691 2734 3919 
Q 2494 4147 2053 4147 
L 1259 4147 
z
M 628 4666 
L 2053 4666 
Q 2838 4666 3239 4311 
Q 3641 3956 3641 3272 
Q 3641 2581 3239 2228 
Q 2838 1875 2053 1875 
L 1259 1875 
L 1259 0 
L 628 0 
L 628 4666 
z
" transform="scale(0.015625)"/>
      <path id="DejaVuSans-1d62" d="M 381 1935 
L 744 1935 
L 744 -24 
L 381 -24 
L 381 1935 
z
M 381 2697 
L 744 2697 
L 744 2291 
L 381 2291 
L 381 2697 
z
" transform="scale(0.015625)"/>
      <path id="DejaVuSans-2264" d="M 4684 3175 
L 1684 2309 
L 4684 1453 
L 4684 897 
L 678 2047 
L 678 2578 
L 4684 3725 
L 4684 3175 
z
M 678 531 
L 4684 531 
L 4684 0 
L 678 0 
L 678 531 
z
" transform="scale(0.015625)"/>
      <path id="DejaVuSans-32" d="M 1228 531 
L 3431 531 
L 3431 0 
L 469 0 
L 469 531 
Q 828 903 1448 1529 
Q 2069 2156 2228 2338 
Q 2531 2678 2651 2914 
Q 2772 3150 2772 3378 
Q 2772 3750 2511 3984 
Q 2250 4219 1831 4219 
Q 1534 4219 1204 4116 
Q 875 4013 500 3803 
L 500 4441 
Q 881 4594 1212 4672 
Q 1544 4750 1819 4750 
Q 2544 4750 2975 4387 
Q 3406 4025 3406 3419 
Q 3406 3131 3298 2873 
Q 3191 2616 2906 2266 
Q 2828 2175 2409 1742 
Q 1991 1309 1228 531 
z
" transform="scale(0.015625)"/>
     </defs>
     <use xlink:href="#DejaVuSans-53"/>
     <use xlink:href="#DejaVuSans-70" transform="translate(63.476562 0)"/>
     <use xlink:href="#DejaVuSans-61" transform="translate(126.953125 0)"/>
     <use xlink:href="#DejaVuSans-72" transform="translate(188.232422 0)"/>
     <use xlink:href="#DejaVuSans-73" transform="translate(229.345703 0)"/>
     <use xlink:href="#DejaVuSans-69" transform="translate(281.445312 0)"/>
     <use xlink:href="#DejaVuSans-74" transform="translate(309.228516 0)"/>
     <use xlink:href="#DejaVuSans-79" transform="translate(348.4375 0)"/>
     <use xlink:href="#DejaVuSans-3a" transform="translate(400.367188 0)"/>
     <use xlink:href="#DejaVuSans-20" transform="translate(434.058594 0)"/>
     <use xlink:href="#DejaVuSans-77" transform="translate(465.845703 0)"/>
     <use xlink:href="#DejaVuSans-65" transform="translate(547.632812 0)"/>
     <use xlink:href="#DejaVuSans-69" transform="translate(609.15625 0)"/>
     <use xlink:href="#DejaVuSans-67" transform="translate(636.939453 0)"/>
     <use xlink:href="#DejaVuSans-68" transform="translate(700.416016 0)"/>
     <use xlink:href="#DejaVuSans-74" transform="translate(763.794922 0)"/>
     <use xlink:href="#DejaVuSans-28" transform="translate(803.003906 0)"/>
     <use xlink:href="#DejaVuSans-50" transform="translate(842.017578 0)"/>
     <use xlink:href="#DejaVuSans-1d62" transform="translate(902.320312 0)"/>
     <use xlink:href="#DejaVuSans-29" transform="translate(920.191406 0)"/>
     <use xlink:href="#DejaVuSans-20" transform="translate(959.205078 0)"/>
     <use xlink:href="#DejaVuSans-2264" transform="translate(990.992188 0)"/>
     <use xlink:href="#DejaVuSans-20" transform="translate(1074.78125 0)"/>
     <use xlink:href="#DejaVuSans-32" transform="translate(1106.568359 0)"/>
    </g>
    <!-- Locality: neighboring qubits -->
    <g style="fill: #3498db" transform="translate(77.657143 242.419722) scale(0.09 -0.09)">
     <defs>
      <path id="DejaVuSans-4c" d="M 628 4666 
L 1259 4666 
L 1259 531 
L 3531 531 
L 3531 0 
L 628 0 
L 628 4666 
z
" transform="scale(0.015625)"/>
     </defs>
     <use xlink:href="#DejaVuSans-4c"/>
     <use xlink:href="#DejaVuSans-6f" transform="translate(53.962891 0)"/>
     <use xlink:href="#DejaVuSans-63" transform="translate(115.144531 0)"/>
     <use xlink:href="#DejaVuSans-61" transform="translate(170.125 0)"/>
     <use xlink:href="#DejaVuSans-6c" transform="translate(231.404297 0)"/>
     <use xlink:href="#DejaVuSans-69" transform="translate(259.1875 0)"/>
     <use xlink:href="#DejaVuSans-74" transform="translate(286.970703 0)"/>
     <use xlink:href="#DejaVuSans-79" transform="translate(326.179688 0)"/>
     <use xlink:href="#DejaVuSans-3a" transform="translate(378.109375 0)"/>
     <use xlink:href="#DejaVuSans-20" transform="translate(411.800781 0)"/>
     <use xlink:href="#DejaVuSans-6e" transform="translate(443.587891 0)"/>
     <use xlink:href="#DejaVuSans-65" transform="translate(506.966797 0)"/>
     <use xlink:href="#DejaVuSans-69" transform="translate(568.490234 0)"/>
     <use xlink:href="#DejaVuSans-67" transform="translate(596.273438 0)"/>
     <use xlink:href="#DejaVuSans-68" transform="translate(659.75 0)"/>
     <use xlink:href="#DejaVuSans-62" transform="translate(723.128906 0)"/>
     <use xlink:href="#DejaVuSans-6f" transform="translate(786.605469 0)"/>
     <use xlink:href="#DejaVuSans-72" transform="translate(847.787109 0)"/>
     <use xlink:href="#DejaVuSans-69" transform="translate(888.900391 0)"/>
     <use xlink:href="#DejaVuSans-6e" transform="translate(916.683594 0)"/>
     <use xlink:href="#DejaVuSans-67" transform="translate(980.0625 0)"/>
     <use xlink:href="#DejaVuSans-20" transform="translate(1043.539062 0)"/>
     <use xlink:href="#DejaVuSans-71" transform="translate(1075.326172 0)"/>
     <use xlink:href="#DejaVuSans-75" transform="translate(1138.802734 0)"/>
     <use xlink:href="#DejaVuSans-62" transform="translate(1202.181641 0)"/>
     <use xlink:href="#DejaVuSans-69" transform="translate(1265.658203 0)"/>
     <use xlink:href="#DejaVuSans-74" transform="translate(1293.441406 0)"/>
     <use xlink:href="#DejaVuSans-73" transform="translate(1332.650391 0)"/>
    </g>
   </g>
   <g id="text_14">
    <!-- Sparse Pauli-Lindblad Noise Learning -->
    <g transform="translate(331.77125 19.3575) scale(0.16 -0.16)">
     <use xlink:href="#DejaVuSans-Bold-53"/>
     <use xlink:href="#DejaVuSans-Bold-70" transform="translate(72.021484 0)"/>
     <use xlink:href="#DejaVuSans-Bold-61" transform="translate(143.603516 0)"/>
     <use xlink:href="#DejaVuSans-Bold-72" transform="translate(211.083984 0)"/>
     <use xlink:href="#DejaVuSans-Bold-73" transform="translate(260.400391 0)"/>
     <use xlink:href="#DejaVuSans-Bold-65" transform="translate(319.921875 0)"/>
     <use xlink:href="#DejaVuSans-Bold-20" transform="translate(387.744141 0)"/>
     <use xlink:href="#DejaVuSans-Bold-50" transform="translate(422.558594 0)"/>
     <use xlink:href="#DejaVuSans-Bold-61" transform="translate(493.224609 0)"/>
     <use xlink:href="#DejaVuSans-Bold-75" transform="translate(560.705078 0)"/>
     <use xlink:href="#DejaVuSans-Bold-6c" transform="translate(631.896484 0)"/>
     <use xlink:href="#DejaVuSans-Bold-69" transform="translate(666.173828 0)"/>
     <use xlink:href="#DejaVuSans-Bold-2d" transform="translate(700.451172 0)"/>
     <use xlink:href="#DejaVuSans-Bold-4c" transform="translate(741.955078 0)"/>
     <use xlink:href="#DejaVuSans-Bold-69" transform="translate(805.675781 0)"/>
     <use xlink:href="#DejaVuSans-Bold-6e" transform="translate(839.953125 0)"/>
     <use xlink:href="#DejaVuSans-Bold-64" transform="translate(911.144531 0)"/>
     <use xlink:href="#DejaVuSans-Bold-62" transform="translate(982.726562 0)"/>
     <use xlink:href="#DejaVuSans-Bold-6c" transform="translate(1054.308594 0)"/>
     <use xlink:href="#DejaVuSans-Bold-61" transform="translate(1088.585938 0)"/>
     <use xlink:href="#DejaVuSans-Bold-64" transform="translate(1156.066406 0)"/>
     <use xlink:href="#DejaVuSans-Bold-20" transform="translate(1227.648438 0)"/>
     <use xlink:href="#DejaVuSans-Bold-4e" transform="translate(1262.462891 0)"/>
     <use xlink:href="#DejaVuSans-Bold-6f" transform="translate(1346.154297 0)"/>
     <use xlink:href="#DejaVuSans-Bold-69" transform="translate(1414.855469 0)"/>
     <use xlink:href="#DejaVuSans-Bold-73" transform="translate(1449.132812 0)"/>
     <use xlink:href="#DejaVuSans-Bold-65" transform="translate(1508.654297 0)"/>
     <use xlink:href="#DejaVuSans-Bold-20" transform="translate(1576.476562 0)"/>
     <use xlink:href="#DejaVuSans-Bold-4c" transform="translate(1611.291016 0)"/>
     <use xlink:href="#DejaVuSans-Bold-65" transform="translate(1675.011719 0)"/>
     <use xlink:href="#DejaVuSans-Bold-61" transform="translate(1742.833984 0)"/>
     <use xlink:href="#DejaVuSans-Bold-72" transform="translate(1810.314453 0)"/>
     <use xlink:href="#DejaVuSans-Bold-6e" transform="translate(1859.630859 0)"/>
     <use xlink:href="#DejaVuSans-Bold-69" transform="translate(1930.822266 0)"/>
     <use xlink:href="#DejaVuSans-Bold-6e" transform="translate(1965.099609 0)"/>
     <use xlink:href="#DejaVuSans-Bold-67" transform="translate(2036.291016 0)"/>
    </g>
   </g>
  </g>
 </g>
 <defs>
  <clipPath id="p2a96034b8e">
   <rect x="7.2" y="39.3575" width="986.4" height="522.16"/>
  </clipPath>
 </defs>
</svg>
