<?xml version="1.0" encoding="utf-8" standalone="no"?>
<!DOCTYPE svg PUBLIC "-//W3C//DTD SVG 1.1//EN"
  "http://www.w3.org/Graphics/SVG/1.1/DTD/svg11.dtd">
<svg xmlns:xlink="http://www.w3.org/1999/xlink" width="1000.8pt" height="496.7175pt" viewBox="0 0 1000.8 496.7175" xmlns="http://www.w3.org/2000/svg" version="1.1">
 <metadata>
  <rdf:RDF xmlns:dc="http://purl.org/dc/elements/1.1/" xmlns:cc="http://creativecommons.org/ns#" xmlns:rdf="http://www.w3.org/1999/02/22-rdf-syntax-ns#">
   <cc:Work>
    <dc:type rdf:resource="http://purl.org/dc/dcmitype/StillImage"/>
    <dc:date>2026-02-08T16:04:25.867483</dc:date>
    <dc:format>image/svg+xml</dc:format>
    <dc:creator>
     <cc:Agent>
      <dc:title>Matplotlib v3.10.8, https://matplotlib.org/</dc:title>
     </cc:Agent>
    </dc:creator>
   </cc:Work>
  </rdf:RDF>
 </metadata>
 <defs>
  <style type="text/css">*{stroke-linejoin: round; stroke-linecap: butt}</style>
 </defs>
 <g id="figure_1">
  <g id="patch_1">
   <path d="M 0 496.7175 
L 1000.8 496.7175 
L 1000.8 0 
L 0 0 
z
" style="fill: #ffffff"/>
  </g>
  <g id="axes_1">
   <g id="patch_2">
    <path d="M 52.997143 182.846 
L 208.002857 182.846 
Q 222.094286 182.846 222.094286 171.592 
L 222.094286 104.068 
Q 222.094286 92.814 208.002857 92.814 
L 52.997143 92.814 
Q 38.905714 92.814 38.905714 104.068 
L 38.905714 171.592 
Q 38.905714 182.846 52.997143 182.846 
z
" clip-path="url(#p3278321746)" style="fill: #2c3e50; stroke: #000000; stroke-width: 2; stroke-linejoin: miter"/>
   </g>
   <g id="patch_3">
    <path d="M 299.597143 182.846 
L 489.831429 182.846 
Q 503.922857 182.846 503.922857 171.592 
L 503.922857 104.068 
Q 503.922857 92.814 489.831429 92.814 
L 299.597143 92.814 
Q 285.505714 92.814 285.505714 104.068 
L 285.505714 171.592 
Q 285.505714 182.846 299.597143 182.846 
z
" clip-path="url(#p3278321746)" style="fill: #3498db; stroke: #000000; stroke-width: 2; stroke-linejoin: miter"/>
   </g>
   <g id="patch_4">
    <path d="M 581.425714 182.846 
L 771.66 182.846 
Q 785.751429 182.846 785.751429 171.592 
L 785.751429 104.068 
Q 785.751429 92.814 771.66 92.814 
L 581.425714 92.814 
Q 567.334286 92.814 567.334286 104.068 
L 567.334286 171.592 
Q 567.334286 182.846 581.425714 182.846 
z
" clip-path="url(#p3278321746)" style="fill: #9b59b6; stroke: #000000; stroke-width: 2; stroke-linejoin: miter"/>
   </g>
   <g id="patch_5">
    <path d="M 757.568571 436.061 
L 947.802857 436.061 
Q 961.894286 436.061 961.894286 424.807 
L 961.894286 368.537 
Q 961.894286 357.283 947.802857 357.283 
L 757.568571 357.283 
Q 743.477143 357.283 743.477143 368.537 
L 743.477143 424.807 
Q 743.477143 436.061 757.568571 436.061 
z
" clip-path="url(#p3278321746)" style="fill: #27ae60; stroke: #000000; stroke-width: 2; stroke-linejoin: miter"/>
   </g>
   <g id="patch_6">
    <path d="M 334.825714 436.061 
L 595.517143 436.061 
Q 609.608571 436.061 609.608571 424.807 
L 609.608571 368.537 
Q 609.608571 357.283 595.517143 357.283 
L 334.825714 357.283 
Q 320.734286 357.283 320.734286 368.537 
L 320.734286 424.807 
Q 320.734286 436.061 334.825714 436.061 
z
" clip-path="url(#p3278321746)" style="fill: #f39c12; stroke: #000000; stroke-width: 2; stroke-linejoin: miter"/>
   </g>
   <g id="text_1">
    <!-- Target Op -->
    <g style="fill: #ffffff" transform="translate(102.9625 129.274375) scale(0.1 -0.1)">
     <defs>
      <path id="DejaVuSans-Bold-54" d="M 31 4666 
L 4331 4666 
L 4331 3756 
L 2784 3756 
L 2784 0 
L 1581 0 
L 1581 3756 
L 31 3756 
L 31 4666 
z
" transform="scale(0.015625)"/>
      <path id="DejaVuSans-Bold-61" d="M 2106 1575 
Q 1756 1575 1579 1456 
Q 1403 1338 1403 1106 
Q 1403 894 1545 773 
Q 1688 653 1941 653 
Q 2256 653 2472 879 
Q 2688 1106 2688 1447 
L 2688 1575 
L 2106 1575 
z
M 3816 1997 
L 3816 0 
L 2688 0 
L 2688 519 
Q 2463 200 2181 54 
Q 1900 -91 1497 -91 
Q 953 -91 614 226 
Q 275 544 275 1050 
Q 275 1666 698 1953 
Q 1122 2241 2028 2241 
L 2688 2241 
L 2688 2328 
Q 2688 2594 2478 2717 
Q 2269 2841 1825 2841 
Q 1466 2841 1156 2769 
Q 847 2697 581 2553 
L 581 3406 
Q 941 3494 1303 3539 
Q 1666 3584 2028 3584 
Q 2975 3584 3395 3211 
Q 3816 2838 3816 1997 
z
" transform="scale(0.015625)"/>
      <path id="DejaVuSans-Bold-72" d="M 3138 2547 
Q 2991 2616 2845 2648 
Q 2700 2681 2553 2681 
Q 2122 2681 1889 2404 
Q 1656 2128 1656 1613 
L 1656 0 
L 538 0 
L 538 3500 
L 1656 3500 
L 1656 2925 
Q 1872 3269 2151 3426 
Q 2431 3584 2822 3584 
Q 2878 3584 2943 3579 
Q 3009 3575 3134 3559 
L 3138 2547 
z
" transform="scale(0.015625)"/>
      <path id="DejaVuSans-Bold-67" d="M 2919 594 
Q 2688 288 2409 144 
Q 2131 0 1766 0 
Q 1125 0 706 504 
Q 288 1009 288 1791 
Q 288 2575 706 3076 
Q 1125 3578 1766 3578 
Q 2131 3578 2409 3434 
Q 2688 3291 2919 2981 
L 2919 3500 
L 4044 3500 
L 4044 353 
Q 4044 -491 3511 -936 
Q 2978 -1381 1966 -1381 
Q 1638 -1381 1331 -1331 
Q 1025 -1281 716 -1178 
L 716 -306 
Q 1009 -475 1290 -558 
Q 1572 -641 1856 -641 
Q 2406 -641 2662 -400 
Q 2919 -159 2919 353 
L 2919 594 
z
M 2181 2772 
Q 1834 2772 1640 2515 
Q 1447 2259 1447 1791 
Q 1447 1309 1634 1061 
Q 1822 813 2181 813 
Q 2531 813 2725 1069 
Q 2919 1325 2919 1791 
Q 2919 2259 2725 2515 
Q 2531 2772 2181 2772 
z
" transform="scale(0.015625)"/>
      <path id="DejaVuSans-Bold-65" d="M 4031 1759 
L 4031 1441 
L 1416 1441 
Q 1456 1047 1700 850 
Q 1944 653 2381 653 
Q 2734 653 3104 758 
Q 3475 863 3866 1075 
L 3866 213 
Q 3469 63 3072 -14 
Q 2675 -91 2278 -91 
Q 1328 -91 801 392 
Q 275 875 275 1747 
Q 275 2603 792 3093 
Q 1309 3584 2216 3584 
Q 3041 3584 3536 3087 
Q 4031 2591 4031 1759 
z
M 2881 2131 
Q 2881 2450 2695 2645 
Q 2509 2841 2209 2841 
Q 1884 2841 1681 2658 
Q 1478 2475 1428 2131 
L 2881 2131 
z
" transform="scale(0.015625)"/>
      <path id="DejaVuSans-Bold-74" d="M 1759 4494 
L 1759 3500 
L 2913 3500 
L 2913 2700 
L 1759 2700 
L 1759 1216 
Q 1759 972 1856 886 
Q 1953 800 2241 800 
L 2816 800 
L 2816 0 
L 1856 0 
Q 1194 0 917 276 
Q 641 553 641 1216 
L 641 2700 
L 84 2700 
L 84 3500 
L 641 3500 
L 641 4494 
L 1759 4494 
z
" transform="scale(0.015625)"/>
      <path id="DejaVuSans-Bold-20" transform="scale(0.015625)"/>
      <path id="DejaVuSans-Bold-4f" d="M 2719 3878 
Q 2169 3878 1866 3472 
Q 1563 3066 1563 2328 
Q 1563 1594 1866 1187 
Q 2169 781 2719 781 
Q 3272 781 3575 1187 
Q 3878 1594 3878 2328 
Q 3878 3066 3575 3472 
Q 3272 3878 2719 3878 
z
M 2719 4750 
Q 3844 4750 4481 4106 
Q 5119 3463 5119 2328 
Q 5119 1197 4481 553 
Q 3844 -91 2719 -91 
Q 1597 -91 958 553 
Q 319 1197 319 2328 
Q 319 3463 958 4106 
Q 1597 4750 2719 4750 
z
" transform="scale(0.015625)"/>
      <path id="DejaVuSans-Bold-70" d="M 1656 506 
L 1656 -1331 
L 538 -1331 
L 538 3500 
L 1656 3500 
L 1656 2988 
Q 1888 3294 2169 3439 
Q 2450 3584 2816 3584 
Q 3463 3584 3878 3070 
Q 4294 2556 4294 1747 
Q 4294 938 3878 423 
Q 3463 -91 2816 -91 
Q 2450 -91 2169 54 
Q 1888 200 1656 506 
z
M 2400 2772 
Q 2041 2772 1848 2508 
Q 1656 2244 1656 1747 
Q 1656 1250 1848 986 
Q 2041 722 2400 722 
Q 2759 722 2948 984 
Q 3138 1247 3138 1747 
Q 3138 2247 2948 2509 
Q 2759 2772 2400 2772 
z
" transform="scale(0.015625)"/>
     </defs>
     <use xlink:href="#DejaVuSans-Bold-54"/>
     <use xlink:href="#DejaVuSans-Bold-61" transform="translate(55.337891 0)"/>
     <use xlink:href="#DejaVuSans-Bold-72" transform="translate(122.818359 0)"/>
     <use xlink:href="#DejaVuSans-Bold-67" transform="translate(172.134766 0)"/>
     <use xlink:href="#DejaVuSans-Bold-65" transform="translate(243.716797 0)"/>
     <use xlink:href="#DejaVuSans-Bold-74" transform="translate(311.539062 0)"/>
     <use xlink:href="#DejaVuSans-Bold-20" transform="translate(359.341797 0)"/>
     <use xlink:href="#DejaVuSans-Bold-4f" transform="translate(394.15625 0)"/>
     <use xlink:href="#DejaVuSans-Bold-70" transform="translate(479.166016 0)"/>
    </g>
    <!-- with symmetry -->
    <g style="fill: #ffffff" transform="translate(88.314844 140.550312) scale(0.1 -0.1)">
     <defs>
      <path id="DejaVuSans-Bold-77" d="M 225 3500 
L 1313 3500 
L 1900 1088 
L 2491 3500 
L 3425 3500 
L 4013 1113 
L 4603 3500 
L 5691 3500 
L 4769 0 
L 3547 0 
L 2956 2406 
L 2369 0 
L 1147 0 
L 225 3500 
z
" transform="scale(0.015625)"/>
      <path id="DejaVuSans-Bold-69" d="M 538 3500 
L 1656 3500 
L 1656 0 
L 538 0 
L 538 3500 
z
M 538 4863 
L 1656 4863 
L 1656 3950 
L 538 3950 
L 538 4863 
z
" transform="scale(0.015625)"/>
      <path id="DejaVuSans-Bold-68" d="M 4056 2131 
L 4056 0 
L 2931 0 
L 2931 347 
L 2931 1625 
Q 2931 2084 2911 2256 
Q 2891 2428 2841 2509 
Q 2775 2619 2662 2680 
Q 2550 2741 2406 2741 
Q 2056 2741 1856 2470 
Q 1656 2200 1656 1722 
L 1656 0 
L 538 0 
L 538 4863 
L 1656 4863 
L 1656 2988 
Q 1909 3294 2193 3439 
Q 2478 3584 2822 3584 
Q 3428 3584 3742 3212 
Q 4056 2841 4056 2131 
z
" transform="scale(0.015625)"/>
      <path id="DejaVuSans-Bold-73" d="M 3272 3391 
L 3272 2541 
Q 2913 2691 2578 2766 
Q 2244 2841 1947 2841 
Q 1628 2841 1473 2761 
Q 1319 2681 1319 2516 
Q 1319 2381 1436 2309 
Q 1553 2238 1856 2203 
L 2053 2175 
Q 2913 2066 3209 1816 
Q 3506 1566 3506 1031 
Q 3506 472 3093 190 
Q 2681 -91 1863 -91 
Q 1516 -91 1145 -36 
Q 775 19 384 128 
L 384 978 
Q 719 816 1070 734 
Q 1422 653 1784 653 
Q 2113 653 2278 743 
Q 2444 834 2444 1013 
Q 2444 1163 2330 1236 
Q 2216 1309 1875 1350 
L 1678 1375 
Q 931 1469 631 1722 
Q 331 1975 331 2491 
Q 331 3047 712 3315 
Q 1094 3584 1881 3584 
Q 2191 3584 2531 3537 
Q 2872 3491 3272 3391 
z
" transform="scale(0.015625)"/>
      <path id="DejaVuSans-Bold-79" d="M 78 3500 
L 1197 3500 
L 2138 1125 
L 2938 3500 
L 4056 3500 
L 2584 -331 
Q 2363 -916 2067 -1148 
Q 1772 -1381 1288 -1381 
L 641 -1381 
L 641 -647 
L 991 -647 
Q 1275 -647 1404 -556 
Q 1534 -466 1606 -231 
L 1638 -134 
L 78 3500 
z
" transform="scale(0.015625)"/>
      <path id="DejaVuSans-Bold-6d" d="M 3781 2919 
Q 3994 3244 4286 3414 
Q 4578 3584 4928 3584 
Q 5531 3584 5847 3212 
Q 6163 2841 6163 2131 
L 6163 0 
L 5038 0 
L 5038 1825 
Q 5041 1866 5042 1909 
Q 5044 1953 5044 2034 
Q 5044 2406 4934 2573 
Q 4825 2741 4581 2741 
Q 4263 2741 4089 2478 
Q 3916 2216 3909 1719 
L 3909 0 
L 2784 0 
L 2784 1825 
Q 2784 2406 2684 2573 
Q 2584 2741 2328 2741 
Q 2006 2741 1831 2477 
Q 1656 2213 1656 1722 
L 1656 0 
L 531 0 
L 531 3500 
L 1656 3500 
L 1656 2988 
Q 1863 3284 2130 3434 
Q 2397 3584 2719 3584 
Q 3081 3584 3359 3409 
Q 3638 3234 3781 2919 
z
" transform="scale(0.015625)"/>
     </defs>
     <use xlink:href="#DejaVuSans-Bold-77"/>
     <use xlink:href="#DejaVuSans-Bold-69" transform="translate(92.382812 0)"/>
     <use xlink:href="#DejaVuSans-Bold-74" transform="translate(126.660156 0)"/>
     <use xlink:href="#DejaVuSans-Bold-68" transform="translate(174.462891 0)"/>
     <use xlink:href="#DejaVuSans-Bold-20" transform="translate(245.654297 0)"/>
     <use xlink:href="#DejaVuSans-Bold-73" transform="translate(280.46875 0)"/>
     <use xlink:href="#DejaVuSans-Bold-79" transform="translate(339.990234 0)"/>
     <use xlink:href="#DejaVuSans-Bold-6d" transform="translate(405.175781 0)"/>
     <use xlink:href="#DejaVuSans-Bold-6d" transform="translate(509.375 0)"/>
     <use xlink:href="#DejaVuSans-Bold-65" transform="translate(613.574219 0)"/>
     <use xlink:href="#DejaVuSans-Bold-74" transform="translate(681.396484 0)"/>
     <use xlink:href="#DejaVuSans-Bold-72" transform="translate(729.199219 0)"/>
     <use xlink:href="#DejaVuSans-Bold-79" transform="translate(778.515625 0)"/>
    </g>
    <!-- [G, P] = 0 -->
    <g style="fill: #ffffff" transform="translate(103.371094 151.82625) scale(0.1 -0.1)">
     <defs>
      <path id="DejaVuSans-Bold-5b" d="M 550 4863 
L 2491 4863 
L 2491 4159 
L 1613 4159 
L 1613 -141 
L 2491 -141 
L 2491 -844 
L 550 -844 
L 550 4863 
z
" transform="scale(0.015625)"/>
      <path id="DejaVuSans-Bold-47" d="M 4781 347 
Q 4331 128 3847 18 
Q 3363 -91 2847 -91 
Q 1681 -91 1000 561 
Q 319 1213 319 2328 
Q 319 3456 1012 4103 
Q 1706 4750 2913 4750 
Q 3378 4750 3804 4662 
Q 4231 4575 4609 4403 
L 4609 3438 
Q 4219 3659 3833 3768 
Q 3447 3878 3059 3878 
Q 2341 3878 1952 3476 
Q 1563 3075 1563 2328 
Q 1563 1588 1938 1184 
Q 2313 781 3003 781 
Q 3191 781 3352 804 
Q 3513 828 3641 878 
L 3641 1784 
L 2906 1784 
L 2906 2591 
L 4781 2591 
L 4781 347 
z
" transform="scale(0.015625)"/>
      <path id="DejaVuSans-Bold-2c" d="M 653 1209 
L 1778 1209 
L 1778 256 
L 1006 -909 
L 341 -909 
L 653 256 
L 653 1209 
z
" transform="scale(0.015625)"/>
      <path id="DejaVuSans-Bold-50" d="M 588 4666 
L 2584 4666 
Q 3475 4666 3951 4270 
Q 4428 3875 4428 3144 
Q 4428 2409 3951 2014 
Q 3475 1619 2584 1619 
L 1791 1619 
L 1791 0 
L 588 0 
L 588 4666 
z
M 1791 3794 
L 1791 2491 
L 2456 2491 
Q 2806 2491 2997 2661 
Q 3188 2831 3188 3144 
Q 3188 3456 2997 3625 
Q 2806 3794 2456 3794 
L 1791 3794 
z
" transform="scale(0.015625)"/>
      <path id="DejaVuSans-Bold-5d" d="M 2375 -844 
L 434 -844 
L 434 -141 
L 1313 -141 
L 1313 4159 
L 434 4159 
L 434 4863 
L 2375 4863 
L 2375 -844 
z
" transform="scale(0.015625)"/>
      <path id="DejaVuSans-Bold-3d" d="M 678 3084 
L 4684 3084 
L 4684 2350 
L 678 2350 
L 678 3084 
z
M 678 1663 
L 4684 1663 
L 4684 922 
L 678 922 
L 678 1663 
z
" transform="scale(0.015625)"/>
      <path id="DejaVuSans-Bold-30" d="M 2944 2338 
Q 2944 3213 2780 3570 
Q 2616 3928 2228 3928 
Q 1841 3928 1675 3570 
Q 1509 3213 1509 2338 
Q 1509 1453 1675 1090 
Q 1841 728 2228 728 
Q 2613 728 2778 1090 
Q 2944 1453 2944 2338 
z
M 4147 2328 
Q 4147 1169 3647 539 
Q 3147 -91 2228 -91 
Q 1306 -91 806 539 
Q 306 1169 306 2328 
Q 306 3491 806 4120 
Q 1306 4750 2228 4750 
Q 3147 4750 3647 4120 
Q 4147 3491 4147 2328 
z
" transform="scale(0.015625)"/>
     </defs>
     <use xlink:href="#DejaVuSans-Bold-5b"/>
     <use xlink:href="#DejaVuSans-Bold-47" transform="translate(45.703125 0)"/>
     <use xlink:href="#DejaVuSans-Bold-2c" transform="translate(127.783203 0)"/>
     <use xlink:href="#DejaVuSans-Bold-20" transform="translate(165.771484 0)"/>
     <use xlink:href="#DejaVuSans-Bold-50" transform="translate(200.585938 0)"/>
     <use xlink:href="#DejaVuSans-Bold-5d" transform="translate(273.876953 0)"/>
     <use xlink:href="#DejaVuSans-Bold-20" transform="translate(319.580078 0)"/>
     <use xlink:href="#DejaVuSans-Bold-3d" transform="translate(354.394531 0)"/>
     <use xlink:href="#DejaVuSans-Bold-20" transform="translate(438.183594 0)"/>
     <use xlink:href="#DejaVuSans-Bold-30" transform="translate(472.998047 0)"/>
    </g>
   </g>
   <g id="patch_7">
    <path d="M 220.571097 137.83 
Q 253.799128 137.83 284.791092 137.83 
" style="fill: none; stroke: #000000; stroke-width: 2; stroke-linecap: round"/>
    <path d="M 280.791092 135.83 
L 284.791092 137.83 
L 280.791092 139.83 
" style="fill: none; stroke: #000000; stroke-width: 2; stroke-linecap: round"/>
   </g>
   <g id="text_2">
    <!-- Symmetric Cliffords -->
    <g style="fill: #ffffff" transform="translate(338.865067 129.213437) scale(0.1 -0.1)">
     <defs>
      <path id="DejaVuSans-Bold-53" d="M 3834 4519 
L 3834 3531 
Q 3450 3703 3084 3790 
Q 2719 3878 2394 3878 
Q 1963 3878 1756 3759 
Q 1550 3641 1550 3391 
Q 1550 3203 1689 3098 
Q 1828 2994 2194 2919 
L 2706 2816 
Q 3484 2659 3812 2340 
Q 4141 2022 4141 1434 
Q 4141 663 3683 286 
Q 3225 -91 2284 -91 
Q 1841 -91 1394 -6 
Q 947 78 500 244 
L 500 1259 
Q 947 1022 1364 901 
Q 1781 781 2169 781 
Q 2563 781 2772 912 
Q 2981 1044 2981 1288 
Q 2981 1506 2839 1625 
Q 2697 1744 2272 1838 
L 1806 1941 
Q 1106 2091 782 2419 
Q 459 2747 459 3303 
Q 459 4000 909 4375 
Q 1359 4750 2203 4750 
Q 2588 4750 2994 4692 
Q 3400 4634 3834 4519 
z
" transform="scale(0.015625)"/>
      <path id="DejaVuSans-Bold-63" d="M 3366 3391 
L 3366 2478 
Q 3138 2634 2908 2709 
Q 2678 2784 2431 2784 
Q 1963 2784 1702 2511 
Q 1441 2238 1441 1747 
Q 1441 1256 1702 982 
Q 1963 709 2431 709 
Q 2694 709 2930 787 
Q 3166 866 3366 1019 
L 3366 103 
Q 3103 6 2833 -42 
Q 2563 -91 2291 -91 
Q 1344 -91 809 395 
Q 275 881 275 1747 
Q 275 2613 809 3098 
Q 1344 3584 2291 3584 
Q 2566 3584 2833 3536 
Q 3100 3488 3366 3391 
z
" transform="scale(0.015625)"/>
      <path id="DejaVuSans-Bold-43" d="M 4288 256 
Q 3956 84 3597 -3 
Q 3238 -91 2847 -91 
Q 1681 -91 1000 561 
Q 319 1213 319 2328 
Q 319 3447 1000 4098 
Q 1681 4750 2847 4750 
Q 3238 4750 3597 4662 
Q 3956 4575 4288 4403 
L 4288 3438 
Q 3953 3666 3628 3772 
Q 3303 3878 2944 3878 
Q 2300 3878 1931 3465 
Q 1563 3053 1563 2328 
Q 1563 1606 1931 1193 
Q 2300 781 2944 781 
Q 3303 781 3628 887 
Q 3953 994 4288 1222 
L 4288 256 
z
" transform="scale(0.015625)"/>
      <path id="DejaVuSans-Bold-6c" d="M 538 4863 
L 1656 4863 
L 1656 0 
L 538 0 
L 538 4863 
z
" transform="scale(0.015625)"/>
      <path id="DejaVuSans-Bold-66" d="M 2841 4863 
L 2841 4128 
L 2222 4128 
Q 1984 4128 1890 4042 
Q 1797 3956 1797 3744 
L 1797 3500 
L 2753 3500 
L 2753 2700 
L 1797 2700 
L 1797 0 
L 678 0 
L 678 2700 
L 122 2700 
L 122 3500 
L 678 3500 
L 678 3744 
Q 678 4316 997 4589 
Q 1316 4863 1984 4863 
L 2841 4863 
z
" transform="scale(0.015625)"/>
      <path id="DejaVuSans-Bold-6f" d="M 2203 2784 
Q 1831 2784 1636 2517 
Q 1441 2250 1441 1747 
Q 1441 1244 1636 976 
Q 1831 709 2203 709 
Q 2569 709 2762 976 
Q 2956 1244 2956 1747 
Q 2956 2250 2762 2517 
Q 2569 2784 2203 2784 
z
M 2203 3584 
Q 3106 3584 3614 3096 
Q 4122 2609 4122 1747 
Q 4122 884 3614 396 
Q 3106 -91 2203 -91 
Q 1297 -91 786 396 
Q 275 884 275 1747 
Q 275 2609 786 3096 
Q 1297 3584 2203 3584 
z
" transform="scale(0.015625)"/>
      <path id="DejaVuSans-Bold-64" d="M 2919 2988 
L 2919 4863 
L 4044 4863 
L 4044 0 
L 2919 0 
L 2919 506 
Q 2688 197 2409 53 
Q 2131 -91 1766 -91 
Q 1119 -91 703 423 
Q 288 938 288 1747 
Q 288 2556 703 3070 
Q 1119 3584 1766 3584 
Q 2128 3584 2408 3439 
Q 2688 3294 2919 2988 
z
M 2181 722 
Q 2541 722 2730 984 
Q 2919 1247 2919 1747 
Q 2919 2247 2730 2509 
Q 2541 2772 2181 2772 
Q 1825 2772 1636 2509 
Q 1447 2247 1447 1747 
Q 1447 1247 1636 984 
Q 1825 722 2181 722 
z
" transform="scale(0.015625)"/>
     </defs>
     <use xlink:href="#DejaVuSans-Bold-53"/>
     <use xlink:href="#DejaVuSans-Bold-79" transform="translate(72.021484 0)"/>
     <use xlink:href="#DejaVuSans-Bold-6d" transform="translate(137.207031 0)"/>
     <use xlink:href="#DejaVuSans-Bold-6d" transform="translate(241.40625 0)"/>
     <use xlink:href="#DejaVuSans-Bold-65" transform="translate(345.605469 0)"/>
     <use xlink:href="#DejaVuSans-Bold-74" transform="translate(413.427734 0)"/>
     <use xlink:href="#DejaVuSans-Bold-72" transform="translate(461.230469 0)"/>
     <use xlink:href="#DejaVuSans-Bold-69" transform="translate(510.546875 0)"/>
     <use xlink:href="#DejaVuSans-Bold-63" transform="translate(544.824219 0)"/>
     <use xlink:href="#DejaVuSans-Bold-20" transform="translate(604.101562 0)"/>
     <use xlink:href="#DejaVuSans-Bold-43" transform="translate(638.916016 0)"/>
     <use xlink:href="#DejaVuSans-Bold-6c" transform="translate(712.304688 0)"/>
     <use xlink:href="#DejaVuSans-Bold-69" transform="translate(746.582031 0)"/>
     <use xlink:href="#DejaVuSans-Bold-66" transform="translate(780.859375 0)"/>
     <use xlink:href="#DejaVuSans-Bold-66" transform="translate(824.365234 0)"/>
     <use xlink:href="#DejaVuSans-Bold-6f" transform="translate(867.871094 0)"/>
     <use xlink:href="#DejaVuSans-Bold-72" transform="translate(936.572266 0)"/>
     <use xlink:href="#DejaVuSans-Bold-64" transform="translate(985.888672 0)"/>
     <use xlink:href="#DejaVuSans-Bold-73" transform="translate(1057.470703 0)"/>
    </g>
    <!-- C in Cliff_sym -->
    <g style="fill: #ffffff" transform="translate(356.897098 140.489375) scale(0.1 -0.1)">
     <defs>
      <path id="DejaVuSans-Bold-6e" d="M 4056 2131 
L 4056 0 
L 2931 0 
L 2931 347 
L 2931 1631 
Q 2931 2084 2911 2256 
Q 2891 2428 2841 2509 
Q 2775 2619 2662 2680 
Q 2550 2741 2406 2741 
Q 2056 2741 1856 2470 
Q 1656 2200 1656 1722 
L 1656 0 
L 538 0 
L 538 3500 
L 1656 3500 
L 1656 2988 
Q 1909 3294 2193 3439 
Q 2478 3584 2822 3584 
Q 3428 3584 3742 3212 
Q 4056 2841 4056 2131 
z
" transform="scale(0.015625)"/>
      <path id="DejaVuSans-Bold-5f" d="M 3200 -916 
L 3200 -1509 
L 0 -1509 
L 0 -916 
L 3200 -916 
z
" transform="scale(0.015625)"/>
     </defs>
     <use xlink:href="#DejaVuSans-Bold-43"/>
     <use xlink:href="#DejaVuSans-Bold-20" transform="translate(73.388672 0)"/>
     <use xlink:href="#DejaVuSans-Bold-69" transform="translate(108.203125 0)"/>
     <use xlink:href="#DejaVuSans-Bold-6e" transform="translate(142.480469 0)"/>
     <use xlink:href="#DejaVuSans-Bold-20" transform="translate(213.671875 0)"/>
     <use xlink:href="#DejaVuSans-Bold-43" transform="translate(248.486328 0)"/>
     <use xlink:href="#DejaVuSans-Bold-6c" transform="translate(321.875 0)"/>
     <use xlink:href="#DejaVuSans-Bold-69" transform="translate(356.152344 0)"/>
     <use xlink:href="#DejaVuSans-Bold-66" transform="translate(390.429688 0)"/>
     <use xlink:href="#DejaVuSans-Bold-66" transform="translate(433.935547 0)"/>
     <use xlink:href="#DejaVuSans-Bold-5f" transform="translate(477.441406 0)"/>
     <use xlink:href="#DejaVuSans-Bold-73" transform="translate(527.441406 0)"/>
     <use xlink:href="#DejaVuSans-Bold-79" transform="translate(586.962891 0)"/>
     <use xlink:href="#DejaVuSans-Bold-6d" transform="translate(652.148438 0)"/>
    </g>
    <!-- [C, P] = 0 -->
    <g style="fill: #ffffff" transform="translate(368.019754 151.965312) scale(0.1 -0.1)">
     <use xlink:href="#DejaVuSans-Bold-5b"/>
     <use xlink:href="#DejaVuSans-Bold-43" transform="translate(45.703125 0)"/>
     <use xlink:href="#DejaVuSans-Bold-2c" transform="translate(119.091797 0)"/>
     <use xlink:href="#DejaVuSans-Bold-20" transform="translate(157.080078 0)"/>
     <use xlink:href="#DejaVuSans-Bold-50" transform="translate(191.894531 0)"/>
     <use xlink:href="#DejaVuSans-Bold-5d" transform="translate(265.185547 0)"/>
     <use xlink:href="#DejaVuSans-Bold-20" transform="translate(310.888672 0)"/>
     <use xlink:href="#DejaVuSans-Bold-3d" transform="translate(345.703125 0)"/>
     <use xlink:href="#DejaVuSans-Bold-20" transform="translate(429.492188 0)"/>
     <use xlink:href="#DejaVuSans-Bold-30" transform="translate(464.306641 0)"/>
    </g>
   </g>
   <g id="patch_8">
    <path d="M 502.399669 137.83 
Q 535.6277 137.83 566.619663 137.83 
" style="fill: none; stroke: #000000; stroke-width: 2; stroke-linecap: round"/>
    <path d="M 562.619663 135.83 
L 566.619663 137.83 
L 562.619663 139.83 
" style="fill: none; stroke: #000000; stroke-width: 2; stroke-linecap: round"/>
   </g>
   <g id="text_3">
    <!-- Apply -->
    <g style="fill: #ffffff" transform="translate(660.542076 134.812344) scale(0.1 -0.1)">
     <defs>
      <path id="DejaVuSans-Bold-41" d="M 3419 850 
L 1538 850 
L 1241 0 
L 31 0 
L 1759 4666 
L 3194 4666 
L 4922 0 
L 3713 0 
L 3419 850 
z
M 1838 1716 
L 3116 1716 
L 2478 3572 
L 1838 1716 
z
" transform="scale(0.015625)"/>
     </defs>
     <use xlink:href="#DejaVuSans-Bold-41"/>
     <use xlink:href="#DejaVuSans-Bold-70" transform="translate(77.392578 0)"/>
     <use xlink:href="#DejaVuSans-Bold-70" transform="translate(148.974609 0)"/>
     <use xlink:href="#DejaVuSans-Bold-6c" transform="translate(220.556641 0)"/>
     <use xlink:href="#DejaVuSans-Bold-79" transform="translate(254.833984 0)"/>
    </g>
    <!-- C_L · G · C_R -->
    <g style="fill: #ffffff" transform="translate(642.303013 146.088281) scale(0.1 -0.1)">
     <defs>
      <path id="DejaVuSans-Bold-4c" d="M 588 4666 
L 1791 4666 
L 1791 909 
L 3903 909 
L 3903 0 
L 588 0 
L 588 4666 
z
" transform="scale(0.015625)"/>
      <path id="DejaVuSans-Bold-b7" d="M 653 2828 
L 1778 2828 
L 1778 1619 
L 653 1619 
L 653 2828 
z
" transform="scale(0.015625)"/>
      <path id="DejaVuSans-Bold-52" d="M 2297 2597 
Q 2675 2597 2839 2737 
Q 3003 2878 3003 3200 
Q 3003 3519 2839 3656 
Q 2675 3794 2297 3794 
L 1791 3794 
L 1791 2597 
L 2297 2597 
z
M 1791 1766 
L 1791 0 
L 588 0 
L 588 4666 
L 2425 4666 
Q 3347 4666 3776 4356 
Q 4206 4047 4206 3378 
Q 4206 2916 3982 2619 
Q 3759 2322 3309 2181 
Q 3556 2125 3751 1926 
Q 3947 1728 4147 1325 
L 4800 0 
L 3519 0 
L 2950 1159 
Q 2778 1509 2601 1637 
Q 2425 1766 2131 1766 
L 1791 1766 
z
" transform="scale(0.015625)"/>
     </defs>
     <use xlink:href="#DejaVuSans-Bold-43"/>
     <use xlink:href="#DejaVuSans-Bold-5f" transform="translate(73.388672 0)"/>
     <use xlink:href="#DejaVuSans-Bold-4c" transform="translate(123.388672 0)"/>
     <use xlink:href="#DejaVuSans-Bold-20" transform="translate(187.109375 0)"/>
     <use xlink:href="#DejaVuSans-Bold-b7" transform="translate(221.923828 0)"/>
     <use xlink:href="#DejaVuSans-Bold-20" transform="translate(259.912109 0)"/>
     <use xlink:href="#DejaVuSans-Bold-47" transform="translate(294.726562 0)"/>
     <use xlink:href="#DejaVuSans-Bold-20" transform="translate(376.806641 0)"/>
     <use xlink:href="#DejaVuSans-Bold-b7" transform="translate(411.621094 0)"/>
     <use xlink:href="#DejaVuSans-Bold-20" transform="translate(449.609375 0)"/>
     <use xlink:href="#DejaVuSans-Bold-43" transform="translate(484.423828 0)"/>
     <use xlink:href="#DejaVuSans-Bold-5f" transform="translate(557.8125 0)"/>
     <use xlink:href="#DejaVuSans-Bold-52" transform="translate(607.8125 0)"/>
    </g>
   </g>
   <g id="patch_9">
    <path d="M 784.22824 137.83 
Q 799.842823 137.83 813.221337 137.83 
" style="fill: none; stroke: #000000; stroke-width: 2; stroke-linecap: round"/>
    <path d="M 809.221337 135.83 
L 813.221337 137.83 
L 809.221337 139.83 
" style="fill: none; stroke: #000000; stroke-width: 2; stroke-linecap: round"/>
   </g>
   <g id="patch_10">
    <path d="M 783.563834 181.525455 
Q 799.843338 199.727538 814.632178 216.262912 
" style="fill: none; stroke: #000000; stroke-width: 2; stroke-linecap: round"/>
    <path d="M 813.456346 211.948121 
L 814.632178 216.262912 
L 810.474846 214.614702 
" style="fill: none; stroke: #000000; stroke-width: 2; stroke-linecap: round"/>
   </g>
   <g id="text_4">
    <!-- Instance 1 -->
    <g transform="translate(852.685714 123.7625) scale(0.09 -0.09)">
     <defs>
      <path id="DejaVuSans-49" d="M 628 4666 
L 1259 4666 
L 1259 0 
L 628 0 
L 628 4666 
z
" transform="scale(0.015625)"/>
      <path id="DejaVuSans-6e" d="M 3513 2113 
L 3513 0 
L 2938 0 
L 2938 2094 
Q 2938 2591 2744 2837 
Q 2550 3084 2163 3084 
Q 1697 3084 1428 2787 
Q 1159 2491 1159 1978 
L 1159 0 
L 581 0 
L 581 3500 
L 1159 3500 
L 1159 2956 
Q 1366 3272 1645 3428 
Q 1925 3584 2291 3584 
Q 2894 3584 3203 3211 
Q 3513 2838 3513 2113 
z
" transform="scale(0.015625)"/>
      <path id="DejaVuSans-73" d="M 2834 3397 
L 2834 2853 
Q 2591 2978 2328 3040 
Q 2066 3103 1784 3103 
Q 1356 3103 1142 2972 
Q 928 2841 928 2578 
Q 928 2378 1081 2264 
Q 1234 2150 1697 2047 
L 1894 2003 
Q 2506 1872 2764 1633 
Q 3022 1394 3022 966 
Q 3022 478 2636 193 
Q 2250 -91 1575 -91 
Q 1294 -91 989 -36 
Q 684 19 347 128 
L 347 722 
Q 666 556 975 473 
Q 1284 391 1588 391 
Q 1994 391 2212 530 
Q 2431 669 2431 922 
Q 2431 1156 2273 1281 
Q 2116 1406 1581 1522 
L 1381 1569 
Q 847 1681 609 1914 
Q 372 2147 372 2553 
Q 372 3047 722 3315 
Q 1072 3584 1716 3584 
Q 2034 3584 2315 3537 
Q 2597 3491 2834 3397 
z
" transform="scale(0.015625)"/>
      <path id="DejaVuSans-74" d="M 1172 4494 
L 1172 3500 
L 2356 3500 
L 2356 3053 
L 1172 3053 
L 1172 1153 
Q 1172 725 1289 603 
Q 1406 481 1766 481 
L 2356 481 
L 2356 0 
L 1766 0 
Q 1100 0 847 248 
Q 594 497 594 1153 
L 594 3053 
L 172 3053 
L 172 3500 
L 594 3500 
L 594 4494 
L 1172 4494 
z
" transform="scale(0.015625)"/>
      <path id="DejaVuSans-61" d="M 2194 1759 
Q 1497 1759 1228 1600 
Q 959 1441 959 1056 
Q 959 750 1161 570 
Q 1363 391 1709 391 
Q 2188 391 2477 730 
Q 2766 1069 2766 1631 
L 2766 1759 
L 2194 1759 
z
M 3341 1997 
L 3341 0 
L 2766 0 
L 2766 531 
Q 2569 213 2275 61 
Q 1981 -91 1556 -91 
Q 1019 -91 701 211 
Q 384 513 384 1019 
Q 384 1609 779 1909 
Q 1175 2209 1959 2209 
L 2766 2209 
L 2766 2266 
Q 2766 2663 2505 2880 
Q 2244 3097 1772 3097 
Q 1472 3097 1187 3025 
Q 903 2953 641 2809 
L 641 3341 
Q 956 3463 1253 3523 
Q 1550 3584 1831 3584 
Q 2591 3584 2966 3190 
Q 3341 2797 3341 1997 
z
" transform="scale(0.015625)"/>
      <path id="DejaVuSans-63" d="M 3122 3366 
L 3122 2828 
Q 2878 2963 2633 3030 
Q 2388 3097 2138 3097 
Q 1578 3097 1268 2742 
Q 959 2388 959 1747 
Q 959 1106 1268 751 
Q 1578 397 2138 397 
Q 2388 397 2633 464 
Q 2878 531 3122 666 
L 3122 134 
Q 2881 22 2623 -34 
Q 2366 -91 2075 -91 
Q 1284 -91 818 406 
Q 353 903 353 1747 
Q 353 2603 823 3093 
Q 1294 3584 2113 3584 
Q 2378 3584 2631 3529 
Q 2884 3475 3122 3366 
z
" transform="scale(0.015625)"/>
      <path id="DejaVuSans-65" d="M 3597 1894 
L 3597 1613 
L 953 1613 
Q 991 1019 1311 708 
Q 1631 397 2203 397 
Q 2534 397 2845 478 
Q 3156 559 3463 722 
L 3463 178 
Q 3153 47 2828 -22 
Q 2503 -91 2169 -91 
Q 1331 -91 842 396 
Q 353 884 353 1716 
Q 353 2575 817 3079 
Q 1281 3584 2069 3584 
Q 2775 3584 3186 3129 
Q 3597 2675 3597 1894 
z
M 3022 2063 
Q 3016 2534 2758 2815 
Q 2500 3097 2075 3097 
Q 1594 3097 1305 2825 
Q 1016 2553 972 2059 
L 3022 2063 
z
" transform="scale(0.015625)"/>
      <path id="DejaVuSans-20" transform="scale(0.015625)"/>
      <path id="DejaVuSans-31" d="M 794 531 
L 1825 531 
L 1825 4091 
L 703 3866 
L 703 4441 
L 1819 4666 
L 2450 4666 
L 2450 531 
L 3481 531 
L 3481 0 
L 794 0 
L 794 531 
z
" transform="scale(0.015625)"/>
     </defs>
     <use xlink:href="#DejaVuSans-49"/>
     <use xlink:href="#DejaVuSans-6e" transform="translate(29.492188 0)"/>
     <use xlink:href="#DejaVuSans-73" transform="translate(92.871094 0)"/>
     <use xlink:href="#DejaVuSans-74" transform="translate(144.970703 0)"/>
     <use xlink:href="#DejaVuSans-61" transform="translate(184.179688 0)"/>
     <use xlink:href="#DejaVuSans-6e" transform="translate(245.458984 0)"/>
     <use xlink:href="#DejaVuSans-63" transform="translate(308.837891 0)"/>
     <use xlink:href="#DejaVuSans-65" transform="translate(363.818359 0)"/>
     <use xlink:href="#DejaVuSans-20" transform="translate(425.341797 0)"/>
     <use xlink:href="#DejaVuSans-31" transform="translate(457.128906 0)"/>
    </g>
   </g>
   <g id="text_5">
    <!-- Instance 2 -->
    <g transform="translate(852.685714 180.0325) scale(0.09 -0.09)">
     <defs>
      <path id="DejaVuSans-32" d="M 1228 531 
L 3431 531 
L 3431 0 
L 469 0 
L 469 531 
Q 828 903 1448 1529 
Q 2069 2156 2228 2338 
Q 2531 2678 2651 2914 
Q 2772 3150 2772 3378 
Q 2772 3750 2511 3984 
Q 2250 4219 1831 4219 
Q 1534 4219 1204 4116 
Q 875 4013 500 3803 
L 500 4441 
Q 881 4594 1212 4672 
Q 1544 4750 1819 4750 
Q 2544 4750 2975 4387 
Q 3406 4025 3406 3419 
Q 3406 3131 3298 2873 
Q 3191 2616 2906 2266 
Q 2828 2175 2409 1742 
Q 1991 1309 1228 531 
z
" transform="scale(0.015625)"/>
     </defs>
     <use xlink:href="#DejaVuSans-49"/>
     <use xlink:href="#DejaVuSans-6e" transform="translate(29.492188 0)"/>
     <use xlink:href="#DejaVuSans-73" transform="translate(92.871094 0)"/>
     <use xlink:href="#DejaVuSans-74" transform="translate(144.970703 0)"/>
     <use xlink:href="#DejaVuSans-61" transform="translate(184.179688 0)"/>
     <use xlink:href="#DejaVuSans-6e" transform="translate(245.458984 0)"/>
     <use xlink:href="#DejaVuSans-63" transform="translate(308.837891 0)"/>
     <use xlink:href="#DejaVuSans-65" transform="translate(363.818359 0)"/>
     <use xlink:href="#DejaVuSans-20" transform="translate(425.341797 0)"/>
     <use xlink:href="#DejaVuSans-32" transform="translate(457.128906 0)"/>
    </g>
   </g>
   <g id="text_6">
    <!-- ... -->
    <g transform="translate(852.685714 236.3025) scale(0.12 -0.12)">
     <defs>
      <path id="DejaVuSans-2e" d="M 684 794 
L 1344 794 
L 1344 0 
L 684 0 
L 684 794 
z
" transform="scale(0.015625)"/>
     </defs>
     <use xlink:href="#DejaVuSans-2e"/>
     <use xlink:href="#DejaVuSans-2e" transform="translate(31.787109 0)"/>
     <use xlink:href="#DejaVuSans-2e" transform="translate(63.574219 0)"/>
    </g>
   </g>
   <g id="text_7">
    <!-- Instance N -->
    <g transform="translate(852.685714 292.5725) scale(0.09 -0.09)">
     <defs>
      <path id="DejaVuSans-4e" d="M 628 4666 
L 1478 4666 
L 3547 763 
L 3547 4666 
L 4159 4666 
L 4159 0 
L 3309 0 
L 1241 3903 
L 1241 0 
L 628 0 
L 628 4666 
z
" transform="scale(0.015625)"/>
     </defs>
     <use xlink:href="#DejaVuSans-49"/>
     <use xlink:href="#DejaVuSans-6e" transform="translate(29.492188 0)"/>
     <use xlink:href="#DejaVuSans-73" transform="translate(92.871094 0)"/>
     <use xlink:href="#DejaVuSans-74" transform="translate(144.970703 0)"/>
     <use xlink:href="#DejaVuSans-61" transform="translate(184.179688 0)"/>
     <use xlink:href="#DejaVuSans-6e" transform="translate(245.458984 0)"/>
     <use xlink:href="#DejaVuSans-63" transform="translate(308.837891 0)"/>
     <use xlink:href="#DejaVuSans-65" transform="translate(363.818359 0)"/>
     <use xlink:href="#DejaVuSans-20" transform="translate(425.341797 0)"/>
     <use xlink:href="#DejaVuSans-4e" transform="translate(457.128906 0)"/>
    </g>
   </g>
   <g id="patch_11">
    <path d="M 887.914286 294.574783 
Q 887.914286 320.710002 887.914286 344.609152 
" style="fill: none; stroke: #000000; stroke-width: 2; stroke-linecap: round"/>
    <path d="M 889.914286 340.609152 
L 887.914286 344.609152 
L 885.914286 340.609152 
" style="fill: none; stroke: #000000; stroke-width: 2; stroke-linecap: round"/>
   </g>
   <g id="text_8">
    <!-- ≈ Global White -->
    <g style="fill: #ffffff" transform="translate(810.524777 393.832469) scale(0.1 -0.1)">
     <defs>
      <path id="DejaVuSans-Bold-2248" d="M 4684 3309 
L 4684 2547 
Q 4353 2297 4073 2189 
Q 3794 2081 3494 2081 
Q 3159 2081 2713 2263 
Q 2669 2281 2644 2291 
Q 2622 2300 2575 2319 
Q 2091 2509 1797 2509 
Q 1522 2509 1253 2389 
Q 984 2269 678 2009 
L 678 2772 
Q 1006 3016 1286 3123 
Q 1566 3231 1869 3231 
Q 2213 3231 2672 3047 
Q 2703 3034 2719 3028 
Q 2744 3019 2788 3000 
Q 3272 2809 3566 2809 
Q 3834 2809 4098 2926 
Q 4363 3044 4684 3309 
z
M 4684 2003 
L 4684 1241 
Q 4353 991 4073 883 
Q 3794 775 3494 775 
Q 3159 775 2713 956 
Q 2669 975 2641 988 
Q 2622 994 2575 1013 
Q 2091 1203 1797 1203 
Q 1522 1203 1253 1084 
Q 984 966 678 703 
L 678 1466 
Q 1013 1716 1291 1823 
Q 1569 1931 1869 1931 
Q 2203 1931 2650 1750 
Q 2697 1731 2719 1722 
Q 2744 1713 2788 1697 
Q 3272 1503 3566 1503 
Q 3834 1503 4098 1620 
Q 4363 1738 4684 2003 
z
" transform="scale(0.015625)"/>
      <path id="DejaVuSans-Bold-62" d="M 2400 722 
Q 2759 722 2948 984 
Q 3138 1247 3138 1747 
Q 3138 2247 2948 2509 
Q 2759 2772 2400 2772 
Q 2041 2772 1848 2508 
Q 1656 2244 1656 1747 
Q 1656 1250 1848 986 
Q 2041 722 2400 722 
z
M 1656 2988 
Q 1888 3294 2169 3439 
Q 2450 3584 2816 3584 
Q 3463 3584 3878 3070 
Q 4294 2556 4294 1747 
Q 4294 938 3878 423 
Q 3463 -91 2816 -91 
Q 2450 -91 2169 54 
Q 1888 200 1656 506 
L 1656 0 
L 538 0 
L 538 4863 
L 1656 4863 
L 1656 2988 
z
" transform="scale(0.015625)"/>
      <path id="DejaVuSans-Bold-57" d="M 191 4666 
L 1344 4666 
L 2150 1275 
L 2950 4666 
L 4109 4666 
L 4909 1275 
L 5716 4666 
L 6859 4666 
L 5759 0 
L 4372 0 
L 3525 3547 
L 2688 0 
L 1300 0 
L 191 4666 
z
" transform="scale(0.015625)"/>
     </defs>
     <use xlink:href="#DejaVuSans-Bold-2248"/>
     <use xlink:href="#DejaVuSans-Bold-20" transform="translate(83.789062 0)"/>
     <use xlink:href="#DejaVuSans-Bold-47" transform="translate(118.603516 0)"/>
     <use xlink:href="#DejaVuSans-Bold-6c" transform="translate(200.683594 0)"/>
     <use xlink:href="#DejaVuSans-Bold-6f" transform="translate(234.960938 0)"/>
     <use xlink:href="#DejaVuSans-Bold-62" transform="translate(303.662109 0)"/>
     <use xlink:href="#DejaVuSans-Bold-61" transform="translate(375.244141 0)"/>
     <use xlink:href="#DejaVuSans-Bold-6c" transform="translate(442.724609 0)"/>
     <use xlink:href="#DejaVuSans-Bold-20" transform="translate(477.001953 0)"/>
     <use xlink:href="#DejaVuSans-Bold-57" transform="translate(511.816406 0)"/>
     <use xlink:href="#DejaVuSans-Bold-68" transform="translate(622.119141 0)"/>
     <use xlink:href="#DejaVuSans-Bold-69" transform="translate(693.310547 0)"/>
     <use xlink:href="#DejaVuSans-Bold-74" transform="translate(727.587891 0)"/>
     <use xlink:href="#DejaVuSans-Bold-65" transform="translate(775.390625 0)"/>
    </g>
    <!-- Noise + O(e⁻ⁿ) -->
    <g style="fill: #ffffff" transform="translate(812.184152 405.030281) scale(0.1 -0.1)">
     <defs>
      <path id="DejaVuSans-Bold-4e" d="M 588 4666 
L 1931 4666 
L 3628 1466 
L 3628 4666 
L 4769 4666 
L 4769 0 
L 3425 0 
L 1728 3200 
L 1728 0 
L 588 0 
L 588 4666 
z
" transform="scale(0.015625)"/>
      <path id="DejaVuSans-Bold-2b" d="M 3053 4013 
L 3053 2375 
L 4684 2375 
L 4684 1638 
L 3053 1638 
L 3053 0 
L 2309 0 
L 2309 1638 
L 678 1638 
L 678 2375 
L 2309 2375 
L 2309 4013 
L 3053 4013 
z
" transform="scale(0.015625)"/>
      <path id="DejaVuSans-Bold-28" d="M 2413 -844 
L 1484 -844 
Q 1006 -72 778 623 
Q 550 1319 550 2003 
Q 550 2688 779 3389 
Q 1009 4091 1484 4856 
L 2413 4856 
Q 2013 4116 1813 3408 
Q 1613 2700 1613 2009 
Q 1613 1319 1811 609 
Q 2009 -100 2413 -844 
z
" transform="scale(0.015625)"/>
      <path id="DejaVuSans-Bold-207b" d="M 428 3419 
L 2950 3419 
L 2950 3003 
L 428 3003 
L 428 3419 
z
" transform="scale(0.015625)"/>
      <path id="DejaVuSans-Bold-207f" d="M 2597 3281 
L 2597 2088 
L 1875 2088 
L 1875 2281 
L 1875 3000 
Q 1875 3256 1863 3350 
Q 1850 3447 1819 3494 
Q 1775 3553 1703 3587 
Q 1631 3622 1541 3622 
Q 1316 3622 1188 3472 
Q 1059 3319 1059 3053 
L 1059 2088 
L 344 2088 
L 344 4047 
L 1059 4047 
L 1059 3759 
Q 1222 3931 1403 4013 
Q 1588 4094 1806 4094 
Q 2194 4094 2394 3888 
Q 2597 3678 2597 3281 
z
" transform="scale(0.015625)"/>
      <path id="DejaVuSans-Bold-29" d="M 513 -844 
Q 913 -100 1113 609 
Q 1313 1319 1313 2009 
Q 1313 2700 1113 3408 
Q 913 4116 513 4856 
L 1441 4856 
Q 1916 4091 2145 3389 
Q 2375 2688 2375 2003 
Q 2375 1319 2147 623 
Q 1919 -72 1441 -844 
L 513 -844 
z
" transform="scale(0.015625)"/>
     </defs>
     <use xlink:href="#DejaVuSans-Bold-4e"/>
     <use xlink:href="#DejaVuSans-Bold-6f" transform="translate(83.691406 0)"/>
     <use xlink:href="#DejaVuSans-Bold-69" transform="translate(152.392578 0)"/>
     <use xlink:href="#DejaVuSans-Bold-73" transform="translate(186.669922 0)"/>
     <use xlink:href="#DejaVuSans-Bold-65" transform="translate(246.191406 0)"/>
     <use xlink:href="#DejaVuSans-Bold-20" transform="translate(314.013672 0)"/>
     <use xlink:href="#DejaVuSans-Bold-2b" transform="translate(348.828125 0)"/>
     <use xlink:href="#DejaVuSans-Bold-20" transform="translate(432.617188 0)"/>
     <use xlink:href="#DejaVuSans-Bold-4f" transform="translate(467.431641 0)"/>
     <use xlink:href="#DejaVuSans-Bold-28" transform="translate(552.441406 0)"/>
     <use xlink:href="#DejaVuSans-Bold-65" transform="translate(598.144531 0)"/>
     <use xlink:href="#DejaVuSans-Bold-207b" transform="translate(665.966797 0)"/>
     <use xlink:href="#DejaVuSans-Bold-207f" transform="translate(718.75 0)"/>
     <use xlink:href="#DejaVuSans-Bold-29" transform="translate(764.306641 0)"/>
    </g>
   </g>
   <g id="text_9">
    <!-- Key insight: -->
    <g style="fill: #2c3e50" transform="translate(42.428571 292.5725) scale(0.1 -0.1)">
     <defs>
      <path id="DejaVuSans-Bold-4b" d="M 588 4666 
L 1791 4666 
L 1791 2963 
L 3525 4666 
L 4922 4666 
L 2675 2456 
L 5153 0 
L 3647 0 
L 1791 1838 
L 1791 0 
L 588 0 
L 588 4666 
z
" transform="scale(0.015625)"/>
      <path id="DejaVuSans-Bold-3a" d="M 716 3500 
L 1844 3500 
L 1844 2291 
L 716 2291 
L 716 3500 
z
M 716 1209 
L 1844 1209 
L 1844 0 
L 716 0 
L 716 1209 
z
" transform="scale(0.015625)"/>
     </defs>
     <use xlink:href="#DejaVuSans-Bold-4b"/>
     <use xlink:href="#DejaVuSans-Bold-65" transform="translate(75.740234 0)"/>
     <use xlink:href="#DejaVuSans-Bold-79" transform="translate(143.5625 0)"/>
     <use xlink:href="#DejaVuSans-Bold-20" transform="translate(208.748047 0)"/>
     <use xlink:href="#DejaVuSans-Bold-69" transform="translate(243.5625 0)"/>
     <use xlink:href="#DejaVuSans-Bold-6e" transform="translate(277.839844 0)"/>
     <use xlink:href="#DejaVuSans-Bold-73" transform="translate(349.03125 0)"/>
     <use xlink:href="#DejaVuSans-Bold-69" transform="translate(408.552734 0)"/>
     <use xlink:href="#DejaVuSans-Bold-67" transform="translate(442.830078 0)"/>
     <use xlink:href="#DejaVuSans-Bold-68" transform="translate(514.412109 0)"/>
     <use xlink:href="#DejaVuSans-Bold-74" transform="translate(585.603516 0)"/>
     <use xlink:href="#DejaVuSans-Bold-3a" transform="translate(633.40625 0)"/>
    </g>
   </g>
   <g id="text_10">
    <g id="patch_12">
     <path d="M 42.428571 336.533219 
L 155.64154 336.533219 
Q 158.34154 336.533219 158.34154 333.833219 
L 158.34154 315.044875 
Q 158.34154 312.344875 155.64154 312.344875 
L 42.428571 312.344875 
Q 39.728571 312.344875 39.728571 315.044875 
L 39.728571 333.833219 
Q 39.728571 336.533219 42.428571 336.533219 
z
" style="fill: #ebf5fb; stroke: #3498db; stroke-linejoin: miter"/>
    </g>
    <!-- Only use Cliffords that -->
    <g style="fill: #3498db" transform="translate(42.428571 321.883469) scale(0.09 -0.09)">
     <defs>
      <path id="DejaVuSans-4f" d="M 2522 4238 
Q 1834 4238 1429 3725 
Q 1025 3213 1025 2328 
Q 1025 1447 1429 934 
Q 1834 422 2522 422 
Q 3209 422 3611 934 
Q 4013 1447 4013 2328 
Q 4013 3213 3611 3725 
Q 3209 4238 2522 4238 
z
M 2522 4750 
Q 3503 4750 4090 4092 
Q 4678 3434 4678 2328 
Q 4678 1225 4090 567 
Q 3503 -91 2522 -91 
Q 1538 -91 948 565 
Q 359 1222 359 2328 
Q 359 3434 948 4092 
Q 1538 4750 2522 4750 
z
" transform="scale(0.015625)"/>
      <path id="DejaVuSans-6c" d="M 603 4863 
L 1178 4863 
L 1178 0 
L 603 0 
L 603 4863 
z
" transform="scale(0.015625)"/>
      <path id="DejaVuSans-79" d="M 2059 -325 
Q 1816 -950 1584 -1140 
Q 1353 -1331 966 -1331 
L 506 -1331 
L 506 -850 
L 844 -850 
Q 1081 -850 1212 -737 
Q 1344 -625 1503 -206 
L 1606 56 
L 191 3500 
L 800 3500 
L 1894 763 
L 2988 3500 
L 3597 3500 
L 2059 -325 
z
" transform="scale(0.015625)"/>
      <path id="DejaVuSans-75" d="M 544 1381 
L 544 3500 
L 1119 3500 
L 1119 1403 
Q 1119 906 1312 657 
Q 1506 409 1894 409 
Q 2359 409 2629 706 
Q 2900 1003 2900 1516 
L 2900 3500 
L 3475 3500 
L 3475 0 
L 2900 0 
L 2900 538 
Q 2691 219 2414 64 
Q 2138 -91 1772 -91 
Q 1169 -91 856 284 
Q 544 659 544 1381 
z
M 1991 3584 
L 1991 3584 
z
" transform="scale(0.015625)"/>
      <path id="DejaVuSans-43" d="M 4122 4306 
L 4122 3641 
Q 3803 3938 3442 4084 
Q 3081 4231 2675 4231 
Q 1875 4231 1450 3742 
Q 1025 3253 1025 2328 
Q 1025 1406 1450 917 
Q 1875 428 2675 428 
Q 3081 428 3442 575 
Q 3803 722 4122 1019 
L 4122 359 
Q 3791 134 3420 21 
Q 3050 -91 2638 -91 
Q 1578 -91 968 557 
Q 359 1206 359 2328 
Q 359 3453 968 4101 
Q 1578 4750 2638 4750 
Q 3056 4750 3426 4639 
Q 3797 4528 4122 4306 
z
" transform="scale(0.015625)"/>
      <path id="DejaVuSans-69" d="M 603 3500 
L 1178 3500 
L 1178 0 
L 603 0 
L 603 3500 
z
M 603 4863 
L 1178 4863 
L 1178 4134 
L 603 4134 
L 603 4863 
z
" transform="scale(0.015625)"/>
      <path id="DejaVuSans-66" d="M 2375 4863 
L 2375 4384 
L 1825 4384 
Q 1516 4384 1395 4259 
Q 1275 4134 1275 3809 
L 1275 3500 
L 2222 3500 
L 2222 3053 
L 1275 3053 
L 1275 0 
L 697 0 
L 697 3053 
L 147 3053 
L 147 3500 
L 697 3500 
L 697 3744 
Q 697 4328 969 4595 
Q 1241 4863 1831 4863 
L 2375 4863 
z
" transform="scale(0.015625)"/>
      <path id="DejaVuSans-6f" d="M 1959 3097 
Q 1497 3097 1228 2736 
Q 959 2375 959 1747 
Q 959 1119 1226 758 
Q 1494 397 1959 397 
Q 2419 397 2687 759 
Q 2956 1122 2956 1747 
Q 2956 2369 2687 2733 
Q 2419 3097 1959 3097 
z
M 1959 3584 
Q 2709 3584 3137 3096 
Q 3566 2609 3566 1747 
Q 3566 888 3137 398 
Q 2709 -91 1959 -91 
Q 1206 -91 779 398 
Q 353 888 353 1747 
Q 353 2609 779 3096 
Q 1206 3584 1959 3584 
z
" transform="scale(0.015625)"/>
      <path id="DejaVuSans-72" d="M 2631 2963 
Q 2534 3019 2420 3045 
Q 2306 3072 2169 3072 
Q 1681 3072 1420 2755 
Q 1159 2438 1159 1844 
L 1159 0 
L 581 0 
L 581 3500 
L 1159 3500 
L 1159 2956 
Q 1341 3275 1631 3429 
Q 1922 3584 2338 3584 
Q 2397 3584 2469 3576 
Q 2541 3569 2628 3553 
L 2631 2963 
z
" transform="scale(0.015625)"/>
      <path id="DejaVuSans-64" d="M 2906 2969 
L 2906 4863 
L 3481 4863 
L 3481 0 
L 2906 0 
L 2906 525 
Q 2725 213 2448 61 
Q 2172 -91 1784 -91 
Q 1150 -91 751 415 
Q 353 922 353 1747 
Q 353 2572 751 3078 
Q 1150 3584 1784 3584 
Q 2172 3584 2448 3432 
Q 2725 3281 2906 2969 
z
M 947 1747 
Q 947 1113 1208 752 
Q 1469 391 1925 391 
Q 2381 391 2643 752 
Q 2906 1113 2906 1747 
Q 2906 2381 2643 2742 
Q 2381 3103 1925 3103 
Q 1469 3103 1208 2742 
Q 947 2381 947 1747 
z
" transform="scale(0.015625)"/>
      <path id="DejaVuSans-68" d="M 3513 2113 
L 3513 0 
L 2938 0 
L 2938 2094 
Q 2938 2591 2744 2837 
Q 2550 3084 2163 3084 
Q 1697 3084 1428 2787 
Q 1159 2491 1159 1978 
L 1159 0 
L 581 0 
L 581 4863 
L 1159 4863 
L 1159 2956 
Q 1366 3272 1645 3428 
Q 1925 3584 2291 3584 
Q 2894 3584 3203 3211 
Q 3513 2838 3513 2113 
z
" transform="scale(0.015625)"/>
     </defs>
     <use xlink:href="#DejaVuSans-4f"/>
     <use xlink:href="#DejaVuSans-6e" transform="translate(78.710938 0)"/>
     <use xlink:href="#DejaVuSans-6c" transform="translate(142.089844 0)"/>
     <use xlink:href="#DejaVuSans-79" transform="translate(169.873047 0)"/>
     <use xlink:href="#DejaVuSans-20" transform="translate(229.052734 0)"/>
     <use xlink:href="#DejaVuSans-75" transform="translate(260.839844 0)"/>
     <use xlink:href="#DejaVuSans-73" transform="translate(324.21875 0)"/>
     <use xlink:href="#DejaVuSans-65" transform="translate(376.318359 0)"/>
     <use xlink:href="#DejaVuSans-20" transform="translate(437.841797 0)"/>
     <use xlink:href="#DejaVuSans-43" transform="translate(469.628906 0)"/>
     <use xlink:href="#DejaVuSans-6c" transform="translate(539.453125 0)"/>
     <use xlink:href="#DejaVuSans-69" transform="translate(567.236328 0)"/>
     <use xlink:href="#DejaVuSans-66" transform="translate(595.019531 0)"/>
     <use xlink:href="#DejaVuSans-66" transform="translate(630.224609 0)"/>
     <use xlink:href="#DejaVuSans-6f" transform="translate(665.429688 0)"/>
     <use xlink:href="#DejaVuSans-72" transform="translate(726.611328 0)"/>
     <use xlink:href="#DejaVuSans-64" transform="translate(765.974609 0)"/>
     <use xlink:href="#DejaVuSans-73" transform="translate(829.451172 0)"/>
     <use xlink:href="#DejaVuSans-20" transform="translate(881.550781 0)"/>
     <use xlink:href="#DejaVuSans-74" transform="translate(913.337891 0)"/>
     <use xlink:href="#DejaVuSans-68" transform="translate(952.546875 0)"/>
     <use xlink:href="#DejaVuSans-61" transform="translate(1015.925781 0)"/>
     <use xlink:href="#DejaVuSans-74" transform="translate(1077.205078 0)"/>
    </g>
    <!-- commute with symmetry -->
    <g style="fill: #3498db" transform="translate(42.428571 331.9615) scale(0.09 -0.09)">
     <defs>
      <path id="DejaVuSans-6d" d="M 3328 2828 
Q 3544 3216 3844 3400 
Q 4144 3584 4550 3584 
Q 5097 3584 5394 3201 
Q 5691 2819 5691 2113 
L 5691 0 
L 5113 0 
L 5113 2094 
Q 5113 2597 4934 2840 
Q 4756 3084 4391 3084 
Q 3944 3084 3684 2787 
Q 3425 2491 3425 1978 
L 3425 0 
L 2847 0 
L 2847 2094 
Q 2847 2600 2669 2842 
Q 2491 3084 2119 3084 
Q 1678 3084 1418 2786 
Q 1159 2488 1159 1978 
L 1159 0 
L 581 0 
L 581 3500 
L 1159 3500 
L 1159 2956 
Q 1356 3278 1631 3431 
Q 1906 3584 2284 3584 
Q 2666 3584 2933 3390 
Q 3200 3197 3328 2828 
z
" transform="scale(0.015625)"/>
      <path id="DejaVuSans-77" d="M 269 3500 
L 844 3500 
L 1563 769 
L 2278 3500 
L 2956 3500 
L 3675 769 
L 4391 3500 
L 4966 3500 
L 4050 0 
L 3372 0 
L 2619 2869 
L 1863 0 
L 1184 0 
L 269 3500 
z
" transform="scale(0.015625)"/>
     </defs>
     <use xlink:href="#DejaVuSans-63"/>
     <use xlink:href="#DejaVuSans-6f" transform="translate(54.980469 0)"/>
     <use xlink:href="#DejaVuSans-6d" transform="translate(116.162109 0)"/>
     <use xlink:href="#DejaVuSans-6d" transform="translate(213.574219 0)"/>
     <use xlink:href="#DejaVuSans-75" transform="translate(310.986328 0)"/>
     <use xlink:href="#DejaVuSans-74" transform="translate(374.365234 0)"/>
     <use xlink:href="#DejaVuSans-65" transform="translate(413.574219 0)"/>
     <use xlink:href="#DejaVuSans-20" transform="translate(475.097656 0)"/>
     <use xlink:href="#DejaVuSans-77" transform="translate(506.884766 0)"/>
     <use xlink:href="#DejaVuSans-69" transform="translate(588.671875 0)"/>
     <use xlink:href="#DejaVuSans-74" transform="translate(616.455078 0)"/>
     <use xlink:href="#DejaVuSans-68" transform="translate(655.664062 0)"/>
     <use xlink:href="#DejaVuSans-20" transform="translate(719.042969 0)"/>
     <use xlink:href="#DejaVuSans-73" transform="translate(750.830078 0)"/>
     <use xlink:href="#DejaVuSans-79" transform="translate(802.929688 0)"/>
     <use xlink:href="#DejaVuSans-6d" transform="translate(862.109375 0)"/>
     <use xlink:href="#DejaVuSans-6d" transform="translate(959.521484 0)"/>
     <use xlink:href="#DejaVuSans-65" transform="translate(1056.933594 0)"/>
     <use xlink:href="#DejaVuSans-74" transform="translate(1118.457031 0)"/>
     <use xlink:href="#DejaVuSans-72" transform="translate(1157.666016 0)"/>
     <use xlink:href="#DejaVuSans-79" transform="translate(1198.779297 0)"/>
    </g>
   </g>
   <g id="text_11">
    <g id="patch_13">
     <path d="M 42.428571 409.684219 
L 142.80529 409.684219 
Q 145.50529 409.684219 145.50529 406.984219 
L 145.50529 388.195875 
Q 145.50529 385.495875 142.80529 385.495875 
L 42.428571 385.495875 
Q 39.728571 385.495875 39.728571 388.195875 
L 39.728571 406.984219 
Q 39.728571 409.684219 42.428571 409.684219 
z
" style="fill: #e8f8f5; stroke: #27ae60; stroke-linejoin: miter"/>
    </g>
    <!-- Structure preserved + -->
    <g style="fill: #27ae60" transform="translate(42.428571 395.034469) scale(0.09 -0.09)">
     <defs>
      <path id="DejaVuSans-53" d="M 3425 4513 
L 3425 3897 
Q 3066 4069 2747 4153 
Q 2428 4238 2131 4238 
Q 1616 4238 1336 4038 
Q 1056 3838 1056 3469 
Q 1056 3159 1242 3001 
Q 1428 2844 1947 2747 
L 2328 2669 
Q 3034 2534 3370 2195 
Q 3706 1856 3706 1288 
Q 3706 609 3251 259 
Q 2797 -91 1919 -91 
Q 1588 -91 1214 -16 
Q 841 59 441 206 
L 441 856 
Q 825 641 1194 531 
Q 1563 422 1919 422 
Q 2459 422 2753 634 
Q 3047 847 3047 1241 
Q 3047 1584 2836 1778 
Q 2625 1972 2144 2069 
L 1759 2144 
Q 1053 2284 737 2584 
Q 422 2884 422 3419 
Q 422 4038 858 4394 
Q 1294 4750 2059 4750 
Q 2388 4750 2728 4690 
Q 3069 4631 3425 4513 
z
" transform="scale(0.015625)"/>
      <path id="DejaVuSans-70" d="M 1159 525 
L 1159 -1331 
L 581 -1331 
L 581 3500 
L 1159 3500 
L 1159 2969 
Q 1341 3281 1617 3432 
Q 1894 3584 2278 3584 
Q 2916 3584 3314 3078 
Q 3713 2572 3713 1747 
Q 3713 922 3314 415 
Q 2916 -91 2278 -91 
Q 1894 -91 1617 61 
Q 1341 213 1159 525 
z
M 3116 1747 
Q 3116 2381 2855 2742 
Q 2594 3103 2138 3103 
Q 1681 3103 1420 2742 
Q 1159 2381 1159 1747 
Q 1159 1113 1420 752 
Q 1681 391 2138 391 
Q 2594 391 2855 752 
Q 3116 1113 3116 1747 
z
" transform="scale(0.015625)"/>
      <path id="DejaVuSans-76" d="M 191 3500 
L 800 3500 
L 1894 563 
L 2988 3500 
L 3597 3500 
L 2284 0 
L 1503 0 
L 191 3500 
z
" transform="scale(0.015625)"/>
      <path id="DejaVuSans-2b" d="M 2944 4013 
L 2944 2272 
L 4684 2272 
L 4684 1741 
L 2944 1741 
L 2944 0 
L 2419 0 
L 2419 1741 
L 678 1741 
L 678 2272 
L 2419 2272 
L 2419 4013 
L 2944 4013 
z
" transform="scale(0.015625)"/>
     </defs>
     <use xlink:href="#DejaVuSans-53"/>
     <use xlink:href="#DejaVuSans-74" transform="translate(63.476562 0)"/>
     <use xlink:href="#DejaVuSans-72" transform="translate(102.685547 0)"/>
     <use xlink:href="#DejaVuSans-75" transform="translate(143.798828 0)"/>
     <use xlink:href="#DejaVuSans-63" transform="translate(207.177734 0)"/>
     <use xlink:href="#DejaVuSans-74" transform="translate(262.158203 0)"/>
     <use xlink:href="#DejaVuSans-75" transform="translate(301.367188 0)"/>
     <use xlink:href="#DejaVuSans-72" transform="translate(364.746094 0)"/>
     <use xlink:href="#DejaVuSans-65" transform="translate(403.609375 0)"/>
     <use xlink:href="#DejaVuSans-20" transform="translate(465.132812 0)"/>
     <use xlink:href="#DejaVuSans-70" transform="translate(496.919922 0)"/>
     <use xlink:href="#DejaVuSans-72" transform="translate(560.396484 0)"/>
     <use xlink:href="#DejaVuSans-65" transform="translate(599.259766 0)"/>
     <use xlink:href="#DejaVuSans-73" transform="translate(660.783203 0)"/>
     <use xlink:href="#DejaVuSans-65" transform="translate(712.882812 0)"/>
     <use xlink:href="#DejaVuSans-72" transform="translate(774.40625 0)"/>
     <use xlink:href="#DejaVuSans-76" transform="translate(815.519531 0)"/>
     <use xlink:href="#DejaVuSans-65" transform="translate(874.699219 0)"/>
     <use xlink:href="#DejaVuSans-64" transform="translate(936.222656 0)"/>
     <use xlink:href="#DejaVuSans-20" transform="translate(999.699219 0)"/>
     <use xlink:href="#DejaVuSans-2b" transform="translate(1031.486328 0)"/>
    </g>
    <!-- Noise scrambled -->
    <g style="fill: #27ae60" transform="translate(42.428571 405.1125) scale(0.09 -0.09)">
     <defs>
      <path id="DejaVuSans-62" d="M 3116 1747 
Q 3116 2381 2855 2742 
Q 2594 3103 2138 3103 
Q 1681 3103 1420 2742 
Q 1159 2381 1159 1747 
Q 1159 1113 1420 752 
Q 1681 391 2138 391 
Q 2594 391 2855 752 
Q 3116 1113 3116 1747 
z
M 1159 2969 
Q 1341 3281 1617 3432 
Q 1894 3584 2278 3584 
Q 2916 3584 3314 3078 
Q 3713 2572 3713 1747 
Q 3713 922 3314 415 
Q 2916 -91 2278 -91 
Q 1894 -91 1617 61 
Q 1341 213 1159 525 
L 1159 0 
L 581 0 
L 581 4863 
L 1159 4863 
L 1159 2969 
z
" transform="scale(0.015625)"/>
     </defs>
     <use xlink:href="#DejaVuSans-4e"/>
     <use xlink:href="#DejaVuSans-6f" transform="translate(74.804688 0)"/>
     <use xlink:href="#DejaVuSans-69" transform="translate(135.986328 0)"/>
     <use xlink:href="#DejaVuSans-73" transform="translate(163.769531 0)"/>
     <use xlink:href="#DejaVuSans-65" transform="translate(215.869141 0)"/>
     <use xlink:href="#DejaVuSans-20" transform="translate(277.392578 0)"/>
     <use xlink:href="#DejaVuSans-73" transform="translate(309.179688 0)"/>
     <use xlink:href="#DejaVuSans-63" transform="translate(361.279297 0)"/>
     <use xlink:href="#DejaVuSans-72" transform="translate(416.259766 0)"/>
     <use xlink:href="#DejaVuSans-61" transform="translate(457.373047 0)"/>
     <use xlink:href="#DejaVuSans-6d" transform="translate(518.652344 0)"/>
     <use xlink:href="#DejaVuSans-62" transform="translate(616.064453 0)"/>
     <use xlink:href="#DejaVuSans-6c" transform="translate(679.541016 0)"/>
     <use xlink:href="#DejaVuSans-65" transform="translate(707.324219 0)"/>
     <use xlink:href="#DejaVuSans-64" transform="translate(768.847656 0)"/>
    </g>
   </g>
   <g id="text_12">
    <!-- Hardware-efficient: -->
    <g style="fill: #ffffff" transform="translate(410.169085 393.793406) scale(0.1 -0.1)">
     <defs>
      <path id="DejaVuSans-Bold-48" d="M 588 4666 
L 1791 4666 
L 1791 2888 
L 3566 2888 
L 3566 4666 
L 4769 4666 
L 4769 0 
L 3566 0 
L 3566 1978 
L 1791 1978 
L 1791 0 
L 588 0 
L 588 4666 
z
" transform="scale(0.015625)"/>
      <path id="DejaVuSans-Bold-2d" d="M 347 2297 
L 2309 2297 
L 2309 1388 
L 347 1388 
L 347 2297 
z
" transform="scale(0.015625)"/>
     </defs>
     <use xlink:href="#DejaVuSans-Bold-48"/>
     <use xlink:href="#DejaVuSans-Bold-61" transform="translate(83.691406 0)"/>
     <use xlink:href="#DejaVuSans-Bold-72" transform="translate(151.171875 0)"/>
     <use xlink:href="#DejaVuSans-Bold-64" transform="translate(200.488281 0)"/>
     <use xlink:href="#DejaVuSans-Bold-77" transform="translate(272.070312 0)"/>
     <use xlink:href="#DejaVuSans-Bold-61" transform="translate(364.453125 0)"/>
     <use xlink:href="#DejaVuSans-Bold-72" transform="translate(431.933594 0)"/>
     <use xlink:href="#DejaVuSans-Bold-65" transform="translate(481.25 0)"/>
     <use xlink:href="#DejaVuSans-Bold-2d" transform="translate(549.072266 0)"/>
     <use xlink:href="#DejaVuSans-Bold-65" transform="translate(590.576172 0)"/>
     <use xlink:href="#DejaVuSans-Bold-66" transform="translate(658.398438 0)"/>
     <use xlink:href="#DejaVuSans-Bold-66" transform="translate(701.904297 0)"/>
     <use xlink:href="#DejaVuSans-Bold-69" transform="translate(745.410156 0)"/>
     <use xlink:href="#DejaVuSans-Bold-63" transform="translate(779.6875 0)"/>
     <use xlink:href="#DejaVuSans-Bold-69" transform="translate(838.964844 0)"/>
     <use xlink:href="#DejaVuSans-Bold-65" transform="translate(873.242188 0)"/>
     <use xlink:href="#DejaVuSans-Bold-6e" transform="translate(941.064453 0)"/>
     <use xlink:href="#DejaVuSans-Bold-74" transform="translate(1012.255859 0)"/>
     <use xlink:href="#DejaVuSans-Bold-3a" transform="translate(1060.058594 0)"/>
    </g>
    <!-- Local symmetric Cliffords -->
    <g style="fill: #ffffff" transform="translate(393.533147 404.991219) scale(0.1 -0.1)">
     <use xlink:href="#DejaVuSans-Bold-4c"/>
     <use xlink:href="#DejaVuSans-Bold-6f" transform="translate(63.720703 0)"/>
     <use xlink:href="#DejaVuSans-Bold-63" transform="translate(132.421875 0)"/>
     <use xlink:href="#DejaVuSans-Bold-61" transform="translate(191.699219 0)"/>
     <use xlink:href="#DejaVuSans-Bold-6c" transform="translate(259.179688 0)"/>
     <use xlink:href="#DejaVuSans-Bold-20" transform="translate(293.457031 0)"/>
     <use xlink:href="#DejaVuSans-Bold-73" transform="translate(328.271484 0)"/>
     <use xlink:href="#DejaVuSans-Bold-79" transform="translate(387.792969 0)"/>
     <use xlink:href="#DejaVuSans-Bold-6d" transform="translate(452.978516 0)"/>
     <use xlink:href="#DejaVuSans-Bold-6d" transform="translate(557.177734 0)"/>
     <use xlink:href="#DejaVuSans-Bold-65" transform="translate(661.376953 0)"/>
     <use xlink:href="#DejaVuSans-Bold-74" transform="translate(729.199219 0)"/>
     <use xlink:href="#DejaVuSans-Bold-72" transform="translate(777.001953 0)"/>
     <use xlink:href="#DejaVuSans-Bold-69" transform="translate(826.318359 0)"/>
     <use xlink:href="#DejaVuSans-Bold-63" transform="translate(860.595703 0)"/>
     <use xlink:href="#DejaVuSans-Bold-20" transform="translate(919.873047 0)"/>
     <use xlink:href="#DejaVuSans-Bold-43" transform="translate(954.6875 0)"/>
     <use xlink:href="#DejaVuSans-Bold-6c" transform="translate(1028.076172 0)"/>
     <use xlink:href="#DejaVuSans-Bold-69" transform="translate(1062.353516 0)"/>
     <use xlink:href="#DejaVuSans-Bold-66" transform="translate(1096.630859 0)"/>
     <use xlink:href="#DejaVuSans-Bold-66" transform="translate(1140.136719 0)"/>
     <use xlink:href="#DejaVuSans-Bold-6f" transform="translate(1183.642578 0)"/>
     <use xlink:href="#DejaVuSans-Bold-72" transform="translate(1252.34375 0)"/>
     <use xlink:href="#DejaVuSans-Bold-64" transform="translate(1301.660156 0)"/>
     <use xlink:href="#DejaVuSans-Bold-73" transform="translate(1373.242188 0)"/>
    </g>
   </g>
   <g id="text_13">
    <!-- Reduces gate overhead -->
    <g style="fill: #f39c12" transform="translate(324.257143 472.6365) scale(0.09 -0.09)">
     <defs>
      <path id="DejaVuSans-52" d="M 2841 2188 
Q 3044 2119 3236 1894 
Q 3428 1669 3622 1275 
L 4263 0 
L 3584 0 
L 2988 1197 
Q 2756 1666 2539 1819 
Q 2322 1972 1947 1972 
L 1259 1972 
L 1259 0 
L 628 0 
L 628 4666 
L 2053 4666 
Q 2853 4666 3247 4331 
Q 3641 3997 3641 3322 
Q 3641 2881 3436 2590 
Q 3231 2300 2841 2188 
z
M 1259 4147 
L 1259 2491 
L 2053 2491 
Q 2509 2491 2742 2702 
Q 2975 2913 2975 3322 
Q 2975 3731 2742 3939 
Q 2509 4147 2053 4147 
L 1259 4147 
z
" transform="scale(0.015625)"/>
      <path id="DejaVuSans-67" d="M 2906 1791 
Q 2906 2416 2648 2759 
Q 2391 3103 1925 3103 
Q 1463 3103 1205 2759 
Q 947 2416 947 1791 
Q 947 1169 1205 825 
Q 1463 481 1925 481 
Q 2391 481 2648 825 
Q 2906 1169 2906 1791 
z
M 3481 434 
Q 3481 -459 3084 -895 
Q 2688 -1331 1869 -1331 
Q 1566 -1331 1297 -1286 
Q 1028 -1241 775 -1147 
L 775 -588 
Q 1028 -725 1275 -790 
Q 1522 -856 1778 -856 
Q 2344 -856 2625 -561 
Q 2906 -266 2906 331 
L 2906 616 
Q 2728 306 2450 153 
Q 2172 0 1784 0 
Q 1141 0 747 490 
Q 353 981 353 1791 
Q 353 2603 747 3093 
Q 1141 3584 1784 3584 
Q 2172 3584 2450 3431 
Q 2728 3278 2906 2969 
L 2906 3500 
L 3481 3500 
L 3481 434 
z
" transform="scale(0.015625)"/>
     </defs>
     <use xlink:href="#DejaVuSans-52"/>
     <use xlink:href="#DejaVuSans-65" transform="translate(64.982422 0)"/>
     <use xlink:href="#DejaVuSans-64" transform="translate(126.505859 0)"/>
     <use xlink:href="#DejaVuSans-75" transform="translate(189.982422 0)"/>
     <use xlink:href="#DejaVuSans-63" transform="translate(253.361328 0)"/>
     <use xlink:href="#DejaVuSans-65" transform="translate(308.341797 0)"/>
     <use xlink:href="#DejaVuSans-73" transform="translate(369.865234 0)"/>
     <use xlink:href="#DejaVuSans-20" transform="translate(421.964844 0)"/>
     <use xlink:href="#DejaVuSans-67" transform="translate(453.751953 0)"/>
     <use xlink:href="#DejaVuSans-61" transform="translate(517.228516 0)"/>
     <use xlink:href="#DejaVuSans-74" transform="translate(578.507812 0)"/>
     <use xlink:href="#DejaVuSans-65" transform="translate(617.716797 0)"/>
     <use xlink:href="#DejaVuSans-20" transform="translate(679.240234 0)"/>
     <use xlink:href="#DejaVuSans-6f" transform="translate(711.027344 0)"/>
     <use xlink:href="#DejaVuSans-76" transform="translate(772.208984 0)"/>
     <use xlink:href="#DejaVuSans-65" transform="translate(831.388672 0)"/>
     <use xlink:href="#DejaVuSans-72" transform="translate(892.912109 0)"/>
     <use xlink:href="#DejaVuSans-68" transform="translate(932.275391 0)"/>
     <use xlink:href="#DejaVuSans-65" transform="translate(995.654297 0)"/>
     <use xlink:href="#DejaVuSans-61" transform="translate(1057.177734 0)"/>
     <use xlink:href="#DejaVuSans-64" transform="translate(1118.457031 0)"/>
    </g>
   </g>
   <g id="text_14">
    <!-- Symmetric Clifford Twirling -->
    <g transform="translate(377.455 19.3575) scale(0.16 -0.16)">
     <use xlink:href="#DejaVuSans-Bold-53"/>
     <use xlink:href="#DejaVuSans-Bold-79" transform="translate(72.021484 0)"/>
     <use xlink:href="#DejaVuSans-Bold-6d" transform="translate(137.207031 0)"/>
     <use xlink:href="#DejaVuSans-Bold-6d" transform="translate(241.40625 0)"/>
     <use xlink:href="#DejaVuSans-Bold-65" transform="translate(345.605469 0)"/>
     <use xlink:href="#DejaVuSans-Bold-74" transform="translate(413.427734 0)"/>
     <use xlink:href="#DejaVuSans-Bold-72" transform="translate(461.230469 0)"/>
     <use xlink:href="#DejaVuSans-Bold-69" transform="translate(510.546875 0)"/>
     <use xlink:href="#DejaVuSans-Bold-63" transform="translate(544.824219 0)"/>
     <use xlink:href="#DejaVuSans-Bold-20" transform="translate(604.101562 0)"/>
     <use xlink:href="#DejaVuSans-Bold-43" transform="translate(638.916016 0)"/>
     <use xlink:href="#DejaVuSans-Bold-6c" transform="translate(712.304688 0)"/>
     <use xlink:href="#DejaVuSans-Bold-69" transform="translate(746.582031 0)"/>
     <use xlink:href="#DejaVuSans-Bold-66" transform="translate(780.859375 0)"/>
     <use xlink:href="#DejaVuSans-Bold-66" transform="translate(824.365234 0)"/>
     <use xlink:href="#DejaVuSans-Bold-6f" transform="translate(867.871094 0)"/>
     <use xlink:href="#DejaVuSans-Bold-72" transform="translate(936.572266 0)"/>
     <use xlink:href="#DejaVuSans-Bold-64" transform="translate(985.888672 0)"/>
     <use xlink:href="#DejaVuSans-Bold-20" transform="translate(1057.470703 0)"/>
     <use xlink:href="#DejaVuSans-Bold-54" transform="translate(1092.285156 0)"/>
     <use xlink:href="#DejaVuSans-Bold-77" transform="translate(1149.498047 0)"/>
     <use xlink:href="#DejaVuSans-Bold-69" transform="translate(1241.880859 0)"/>
     <use xlink:href="#DejaVuSans-Bold-72" transform="translate(1276.158203 0)"/>
     <use xlink:href="#DejaVuSans-Bold-6c" transform="translate(1325.474609 0)"/>
     <use xlink:href="#DejaVuSans-Bold-69" transform="translate(1359.751953 0)"/>
     <use xlink:href="#DejaVuSans-Bold-6e" transform="translate(1394.029297 0)"/>
     <use xlink:href="#DejaVuSans-Bold-67" transform="translate(1465.220703 0)"/>
    </g>
   </g>
  </g>
 </g>
 <defs>
  <clipPath id="p3278321746">
   <rect x="7.2" y="39.3575" width="986.4" height="450.16"/>
  </clipPath>
 </defs>
</svg>
