<?xml version="1.0" encoding="utf-8" standalone="no"?>
<!DOCTYPE svg PUBLIC "-//W3C//DTD SVG 1.1//EN"
  "http://www.w3.org/Graphics/SVG/1.1/DTD/svg11.dtd">
<svg xmlns:xlink="http://www.w3.org/1999/xlink" width="856.8pt" height="496.7175pt" viewBox="0 0 856.8 496.7175" xmlns="http://www.w3.org/2000/svg" version="1.1">
 <metadata>
  <rdf:RDF xmlns:dc="http://purl.org/dc/elements/1.1/" xmlns:cc="http://creativecommons.org/ns#" xmlns:rdf="http://www.w3.org/1999/02/22-rdf-syntax-ns#">
   <cc:Work>
    <dc:type rdf:resource="http://purl.org/dc/dcmitype/StillImage"/>
    <dc:date>2026-02-08T15:51:28.736427</dc:date>
    <dc:format>image/svg+xml</dc:format>
    <dc:creator>
     <cc:Agent>
      <dc:title>Matplotlib v3.10.8, https://matplotlib.org/</dc:title>
     </cc:Agent>
    </dc:creator>
   </cc:Work>
  </rdf:RDF>
 </metadata>
 <defs>
  <style type="text/css">*{stroke-linejoin: round; stroke-linecap: butt}</style>
 </defs>
 <g id="figure_1">
  <g id="patch_1">
   <path d="M 0 496.7175 
L 856.8 496.7175 
L 856.8 0 
L 0 0 
z
" style="fill: #ffffff"/>
  </g>
  <g id="axes_1">
   <g id="patch_2">
    <path d="M 52.83 154.711 
L 207.27 154.711 
Q 221.31 154.711 221.31 143.457 
L 221.31 92.814 
Q 221.31 81.56 207.27 81.56 
L 52.83 81.56 
Q 38.79 81.56 38.79 92.814 
L 38.79 143.457 
Q 38.79 154.711 52.83 154.711 
z
" clip-path="url(#pcf23ea2a68)" style="fill: #2c3e50; stroke: #000000; stroke-width: 2; stroke-linejoin: miter"/>
   </g>
   <g id="patch_3">
    <path d="M 284.49 154.711 
L 438.93 154.711 
Q 452.97 154.711 452.97 143.457 
L 452.97 92.814 
Q 452.97 81.56 438.93 81.56 
L 284.49 81.56 
Q 270.45 81.56 270.45 92.814 
L 270.45 143.457 
Q 270.45 154.711 284.49 154.711 
z
" clip-path="url(#pcf23ea2a68)" style="fill: #e74c3c; stroke: #000000; stroke-width: 2; stroke-linejoin: miter"/>
   </g>
   <g id="patch_4">
    <path d="M 516.15 154.711 
L 670.59 154.711 
Q 684.63 154.711 684.63 143.457 
L 684.63 92.814 
Q 684.63 81.56 670.59 81.56 
L 516.15 81.56 
Q 502.11 81.56 502.11 92.814 
L 502.11 143.457 
Q 502.11 154.711 516.15 154.711 
z
" clip-path="url(#pcf23ea2a68)" style="fill: #9b59b6; stroke: #000000; stroke-width: 2; stroke-linejoin: miter"/>
   </g>
   <g id="patch_5">
    <path d="M 516.15 261.624 
L 670.59 261.624 
Q 684.63 261.624 684.63 250.37 
L 684.63 199.727 
Q 684.63 188.473 670.59 188.473 
L 516.15 188.473 
Q 502.11 188.473 502.11 199.727 
L 502.11 250.37 
Q 502.11 261.624 516.15 261.624 
z
" clip-path="url(#pcf23ea2a68)" style="fill: #34495e; stroke: #000000; stroke-width: 2; stroke-linejoin: miter"/>
   </g>
   <g id="patch_6">
    <path d="M 193.23 261.624 
L 382.77 261.624 
Q 396.81 261.624 396.81 250.37 
L 396.81 199.727 
Q 396.81 188.473 382.77 188.473 
L 193.23 188.473 
Q 179.19 188.473 179.19 199.727 
L 179.19 250.37 
Q 179.19 261.624 193.23 261.624 
z
" clip-path="url(#pcf23ea2a68)" style="fill: #bdc3c7; stroke: #000000; stroke-width: 2; stroke-linejoin: miter"/>
   </g>
   <g id="patch_7">
    <path d="M 719.73 239.116 
L 825.03 239.116 
Q 839.07 239.116 839.07 227.862 
L 839.07 188.473 
Q 839.07 177.219 825.03 177.219 
L 719.73 177.219 
Q 705.69 177.219 705.69 188.473 
L 705.69 227.862 
Q 705.69 239.116 719.73 239.116 
z
" clip-path="url(#pcf23ea2a68)" style="fill: #27ae60; stroke: #000000; stroke-width: 2; stroke-linejoin: miter"/>
   </g>
   <g id="patch_8">
    <path d="M 474.03 374.164 
L 712.71 374.164 
Q 726.75 374.164 726.75 362.91 
L 726.75 312.267 
Q 726.75 301.013 712.71 301.013 
L 474.03 301.013 
Q 459.99 301.013 459.99 312.267 
L 459.99 362.91 
Q 459.99 374.164 474.03 374.164 
z
" clip-path="url(#pcf23ea2a68)" style="fill: #27ae60; stroke: #000000; stroke-width: 2; stroke-linejoin: miter"/>
   </g>
   <g id="patch_9">
    <path d="M 474.03 481.077 
L 712.71 481.077 
Q 726.75 481.077 726.75 469.823 
L 726.75 424.807 
Q 726.75 413.553 712.71 413.553 
L 474.03 413.553 
Q 459.99 413.553 459.99 424.807 
L 459.99 469.823 
Q 459.99 481.077 474.03 481.077 
z
" clip-path="url(#pcf23ea2a68)" style="fill: #2980b9; stroke: #000000; stroke-width: 2; stroke-linejoin: miter"/>
   </g>
   <g id="line2d_1">
    <path d="M 393.3 292.5725 
L 463.5 337.5885 
" clip-path="url(#pcf23ea2a68)" style="fill: none; stroke-dasharray: 5.55,2.4; stroke-dashoffset: 0; stroke: #000000; stroke-opacity: 0.3; stroke-width: 1.5"/>
   </g>
   <g id="text_1">
    <!-- Target State ρ -->
    <g style="fill: #ffffff" transform="translate(89.876562 115.178781) scale(0.1 -0.1)">
     <defs>
      <path id="DejaVuSans-Bold-54" d="M 31 4666 
L 4331 4666 
L 4331 3756 
L 2784 3756 
L 2784 0 
L 1581 0 
L 1581 3756 
L 31 3756 
L 31 4666 
z
" transform="scale(0.015625)"/>
      <path id="DejaVuSans-Bold-61" d="M 2106 1575 
Q 1756 1575 1579 1456 
Q 1403 1338 1403 1106 
Q 1403 894 1545 773 
Q 1688 653 1941 653 
Q 2256 653 2472 879 
Q 2688 1106 2688 1447 
L 2688 1575 
L 2106 1575 
z
M 3816 1997 
L 3816 0 
L 2688 0 
L 2688 519 
Q 2463 200 2181 54 
Q 1900 -91 1497 -91 
Q 953 -91 614 226 
Q 275 544 275 1050 
Q 275 1666 698 1953 
Q 1122 2241 2028 2241 
L 2688 2241 
L 2688 2328 
Q 2688 2594 2478 2717 
Q 2269 2841 1825 2841 
Q 1466 2841 1156 2769 
Q 847 2697 581 2553 
L 581 3406 
Q 941 3494 1303 3539 
Q 1666 3584 2028 3584 
Q 2975 3584 3395 3211 
Q 3816 2838 3816 1997 
z
" transform="scale(0.015625)"/>
      <path id="DejaVuSans-Bold-72" d="M 3138 2547 
Q 2991 2616 2845 2648 
Q 2700 2681 2553 2681 
Q 2122 2681 1889 2404 
Q 1656 2128 1656 1613 
L 1656 0 
L 538 0 
L 538 3500 
L 1656 3500 
L 1656 2925 
Q 1872 3269 2151 3426 
Q 2431 3584 2822 3584 
Q 2878 3584 2943 3579 
Q 3009 3575 3134 3559 
L 3138 2547 
z
" transform="scale(0.015625)"/>
      <path id="DejaVuSans-Bold-67" d="M 2919 594 
Q 2688 288 2409 144 
Q 2131 0 1766 0 
Q 1125 0 706 504 
Q 288 1009 288 1791 
Q 288 2575 706 3076 
Q 1125 3578 1766 3578 
Q 2131 3578 2409 3434 
Q 2688 3291 2919 2981 
L 2919 3500 
L 4044 3500 
L 4044 353 
Q 4044 -491 3511 -936 
Q 2978 -1381 1966 -1381 
Q 1638 -1381 1331 -1331 
Q 1025 -1281 716 -1178 
L 716 -306 
Q 1009 -475 1290 -558 
Q 1572 -641 1856 -641 
Q 2406 -641 2662 -400 
Q 2919 -159 2919 353 
L 2919 594 
z
M 2181 2772 
Q 1834 2772 1640 2515 
Q 1447 2259 1447 1791 
Q 1447 1309 1634 1061 
Q 1822 813 2181 813 
Q 2531 813 2725 1069 
Q 2919 1325 2919 1791 
Q 2919 2259 2725 2515 
Q 2531 2772 2181 2772 
z
" transform="scale(0.015625)"/>
      <path id="DejaVuSans-Bold-65" d="M 4031 1759 
L 4031 1441 
L 1416 1441 
Q 1456 1047 1700 850 
Q 1944 653 2381 653 
Q 2734 653 3104 758 
Q 3475 863 3866 1075 
L 3866 213 
Q 3469 63 3072 -14 
Q 2675 -91 2278 -91 
Q 1328 -91 801 392 
Q 275 875 275 1747 
Q 275 2603 792 3093 
Q 1309 3584 2216 3584 
Q 3041 3584 3536 3087 
Q 4031 2591 4031 1759 
z
M 2881 2131 
Q 2881 2450 2695 2645 
Q 2509 2841 2209 2841 
Q 1884 2841 1681 2658 
Q 1478 2475 1428 2131 
L 2881 2131 
z
" transform="scale(0.015625)"/>
      <path id="DejaVuSans-Bold-74" d="M 1759 4494 
L 1759 3500 
L 2913 3500 
L 2913 2700 
L 1759 2700 
L 1759 1216 
Q 1759 972 1856 886 
Q 1953 800 2241 800 
L 2816 800 
L 2816 0 
L 1856 0 
Q 1194 0 917 276 
Q 641 553 641 1216 
L 641 2700 
L 84 2700 
L 84 3500 
L 641 3500 
L 641 4494 
L 1759 4494 
z
" transform="scale(0.015625)"/>
      <path id="DejaVuSans-Bold-20" transform="scale(0.015625)"/>
      <path id="DejaVuSans-Bold-53" d="M 3834 4519 
L 3834 3531 
Q 3450 3703 3084 3790 
Q 2719 3878 2394 3878 
Q 1963 3878 1756 3759 
Q 1550 3641 1550 3391 
Q 1550 3203 1689 3098 
Q 1828 2994 2194 2919 
L 2706 2816 
Q 3484 2659 3812 2340 
Q 4141 2022 4141 1434 
Q 4141 663 3683 286 
Q 3225 -91 2284 -91 
Q 1841 -91 1394 -6 
Q 947 78 500 244 
L 500 1259 
Q 947 1022 1364 901 
Q 1781 781 2169 781 
Q 2563 781 2772 912 
Q 2981 1044 2981 1288 
Q 2981 1506 2839 1625 
Q 2697 1744 2272 1838 
L 1806 1941 
Q 1106 2091 782 2419 
Q 459 2747 459 3303 
Q 459 4000 909 4375 
Q 1359 4750 2203 4750 
Q 2588 4750 2994 4692 
Q 3400 4634 3834 4519 
z
" transform="scale(0.015625)"/>
      <path id="DejaVuSans-Bold-3c1" d="M 1003 3013 
Q 1425 3413 1809 3500 
Q 2203 3594 2581 3594 
Q 2700 3594 2816 3584 
Q 3425 3538 3878 3069 
Q 4294 2631 4294 1747 
Q 4294 938 3878 423 
Q 3463 -91 2816 -91 
Q 2450 -91 2169 54 
Q 1888 200 1656 506 
L 1656 -1331 
L 538 -1331 
L 538 1688 
Q 538 2566 1003 3013 
z
M 2400 2772 
Q 2041 2772 1848 2508 
Q 1656 2244 1656 1747 
Q 1656 1250 1848 986 
Q 2041 722 2400 722 
Q 2759 722 2948 984 
Q 3138 1247 3138 1747 
Q 3138 2247 2948 2509 
Q 2759 2772 2400 2772 
z
" transform="scale(0.015625)"/>
     </defs>
     <use xlink:href="#DejaVuSans-Bold-54"/>
     <use xlink:href="#DejaVuSans-Bold-61" transform="translate(55.337891 0)"/>
     <use xlink:href="#DejaVuSans-Bold-72" transform="translate(122.818359 0)"/>
     <use xlink:href="#DejaVuSans-Bold-67" transform="translate(172.134766 0)"/>
     <use xlink:href="#DejaVuSans-Bold-65" transform="translate(243.716797 0)"/>
     <use xlink:href="#DejaVuSans-Bold-74" transform="translate(311.539062 0)"/>
     <use xlink:href="#DejaVuSans-Bold-20" transform="translate(359.341797 0)"/>
     <use xlink:href="#DejaVuSans-Bold-53" transform="translate(394.15625 0)"/>
     <use xlink:href="#DejaVuSans-Bold-74" transform="translate(466.177734 0)"/>
     <use xlink:href="#DejaVuSans-Bold-61" transform="translate(513.980469 0)"/>
     <use xlink:href="#DejaVuSans-Bold-74" transform="translate(581.460938 0)"/>
     <use xlink:href="#DejaVuSans-Bold-65" transform="translate(629.263672 0)"/>
     <use xlink:href="#DejaVuSans-Bold-20" transform="translate(697.085938 0)"/>
     <use xlink:href="#DejaVuSans-Bold-3c1" transform="translate(731.900391 0)"/>
    </g>
    <!-- with symmetry Sλ -->
    <g style="fill: #ffffff" transform="translate(79.359375 126.454719) scale(0.1 -0.1)">
     <defs>
      <path id="DejaVuSans-Bold-77" d="M 225 3500 
L 1313 3500 
L 1900 1088 
L 2491 3500 
L 3425 3500 
L 4013 1113 
L 4603 3500 
L 5691 3500 
L 4769 0 
L 3547 0 
L 2956 2406 
L 2369 0 
L 1147 0 
L 225 3500 
z
" transform="scale(0.015625)"/>
      <path id="DejaVuSans-Bold-69" d="M 538 3500 
L 1656 3500 
L 1656 0 
L 538 0 
L 538 3500 
z
M 538 4863 
L 1656 4863 
L 1656 3950 
L 538 3950 
L 538 4863 
z
" transform="scale(0.015625)"/>
      <path id="DejaVuSans-Bold-68" d="M 4056 2131 
L 4056 0 
L 2931 0 
L 2931 347 
L 2931 1625 
Q 2931 2084 2911 2256 
Q 2891 2428 2841 2509 
Q 2775 2619 2662 2680 
Q 2550 2741 2406 2741 
Q 2056 2741 1856 2470 
Q 1656 2200 1656 1722 
L 1656 0 
L 538 0 
L 538 4863 
L 1656 4863 
L 1656 2988 
Q 1909 3294 2193 3439 
Q 2478 3584 2822 3584 
Q 3428 3584 3742 3212 
Q 4056 2841 4056 2131 
z
" transform="scale(0.015625)"/>
      <path id="DejaVuSans-Bold-73" d="M 3272 3391 
L 3272 2541 
Q 2913 2691 2578 2766 
Q 2244 2841 1947 2841 
Q 1628 2841 1473 2761 
Q 1319 2681 1319 2516 
Q 1319 2381 1436 2309 
Q 1553 2238 1856 2203 
L 2053 2175 
Q 2913 2066 3209 1816 
Q 3506 1566 3506 1031 
Q 3506 472 3093 190 
Q 2681 -91 1863 -91 
Q 1516 -91 1145 -36 
Q 775 19 384 128 
L 384 978 
Q 719 816 1070 734 
Q 1422 653 1784 653 
Q 2113 653 2278 743 
Q 2444 834 2444 1013 
Q 2444 1163 2330 1236 
Q 2216 1309 1875 1350 
L 1678 1375 
Q 931 1469 631 1722 
Q 331 1975 331 2491 
Q 331 3047 712 3315 
Q 1094 3584 1881 3584 
Q 2191 3584 2531 3537 
Q 2872 3491 3272 3391 
z
" transform="scale(0.015625)"/>
      <path id="DejaVuSans-Bold-79" d="M 78 3500 
L 1197 3500 
L 2138 1125 
L 2938 3500 
L 4056 3500 
L 2584 -331 
Q 2363 -916 2067 -1148 
Q 1772 -1381 1288 -1381 
L 641 -1381 
L 641 -647 
L 991 -647 
Q 1275 -647 1404 -556 
Q 1534 -466 1606 -231 
L 1638 -134 
L 78 3500 
z
" transform="scale(0.015625)"/>
      <path id="DejaVuSans-Bold-6d" d="M 3781 2919 
Q 3994 3244 4286 3414 
Q 4578 3584 4928 3584 
Q 5531 3584 5847 3212 
Q 6163 2841 6163 2131 
L 6163 0 
L 5038 0 
L 5038 1825 
Q 5041 1866 5042 1909 
Q 5044 1953 5044 2034 
Q 5044 2406 4934 2573 
Q 4825 2741 4581 2741 
Q 4263 2741 4089 2478 
Q 3916 2216 3909 1719 
L 3909 0 
L 2784 0 
L 2784 1825 
Q 2784 2406 2684 2573 
Q 2584 2741 2328 2741 
Q 2006 2741 1831 2477 
Q 1656 2213 1656 1722 
L 1656 0 
L 531 0 
L 531 3500 
L 1656 3500 
L 1656 2988 
Q 1863 3284 2130 3434 
Q 2397 3584 2719 3584 
Q 3081 3584 3359 3409 
Q 3638 3234 3781 2919 
z
" transform="scale(0.015625)"/>
      <path id="DejaVuSans-Bold-3bb" d="M 1544 3188 
L 1350 3713 
Q 1263 3953 1145 4040 
Q 1028 4128 734 4128 
L 384 4128 
L 384 4863 
L 1031 4863 
Q 1600 4863 1908 4622 
Q 2216 4381 2428 3813 
L 3859 0 
L 2741 0 
L 2044 1838 
L 1309 0 
L 191 0 
L 1544 3188 
z
" transform="scale(0.015625)"/>
     </defs>
     <use xlink:href="#DejaVuSans-Bold-77"/>
     <use xlink:href="#DejaVuSans-Bold-69" transform="translate(92.382812 0)"/>
     <use xlink:href="#DejaVuSans-Bold-74" transform="translate(126.660156 0)"/>
     <use xlink:href="#DejaVuSans-Bold-68" transform="translate(174.462891 0)"/>
     <use xlink:href="#DejaVuSans-Bold-20" transform="translate(245.654297 0)"/>
     <use xlink:href="#DejaVuSans-Bold-73" transform="translate(280.46875 0)"/>
     <use xlink:href="#DejaVuSans-Bold-79" transform="translate(339.990234 0)"/>
     <use xlink:href="#DejaVuSans-Bold-6d" transform="translate(405.175781 0)"/>
     <use xlink:href="#DejaVuSans-Bold-6d" transform="translate(509.375 0)"/>
     <use xlink:href="#DejaVuSans-Bold-65" transform="translate(613.574219 0)"/>
     <use xlink:href="#DejaVuSans-Bold-74" transform="translate(681.396484 0)"/>
     <use xlink:href="#DejaVuSans-Bold-72" transform="translate(729.199219 0)"/>
     <use xlink:href="#DejaVuSans-Bold-79" transform="translate(778.515625 0)"/>
     <use xlink:href="#DejaVuSans-Bold-20" transform="translate(843.701172 0)"/>
     <use xlink:href="#DejaVuSans-Bold-53" transform="translate(878.515625 0)"/>
     <use xlink:href="#DejaVuSans-Bold-3bb" transform="translate(950.537109 0)"/>
    </g>
   </g>
   <g id="patch_10">
    <path d="M 219.798369 118.1355 
Q 245.879191 118.1355 269.723945 118.1355 
" style="fill: none; stroke: #000000; stroke-width: 2; stroke-linecap: round"/>
    <path d="M 265.723945 116.1355 
L 269.723945 118.1355 
L 265.723945 120.1355 
" style="fill: none; stroke: #000000; stroke-width: 2; stroke-linecap: round"/>
   </g>
   <g id="text_2">
    <!-- Noisy Circuit -->
    <g style="fill: #ffffff" transform="translate(325.924062 114.715969) scale(0.1 -0.1)">
     <defs>
      <path id="DejaVuSans-Bold-4e" d="M 588 4666 
L 1931 4666 
L 3628 1466 
L 3628 4666 
L 4769 4666 
L 4769 0 
L 3425 0 
L 1728 3200 
L 1728 0 
L 588 0 
L 588 4666 
z
" transform="scale(0.015625)"/>
      <path id="DejaVuSans-Bold-6f" d="M 2203 2784 
Q 1831 2784 1636 2517 
Q 1441 2250 1441 1747 
Q 1441 1244 1636 976 
Q 1831 709 2203 709 
Q 2569 709 2762 976 
Q 2956 1244 2956 1747 
Q 2956 2250 2762 2517 
Q 2569 2784 2203 2784 
z
M 2203 3584 
Q 3106 3584 3614 3096 
Q 4122 2609 4122 1747 
Q 4122 884 3614 396 
Q 3106 -91 2203 -91 
Q 1297 -91 786 396 
Q 275 884 275 1747 
Q 275 2609 786 3096 
Q 1297 3584 2203 3584 
z
" transform="scale(0.015625)"/>
      <path id="DejaVuSans-Bold-43" d="M 4288 256 
Q 3956 84 3597 -3 
Q 3238 -91 2847 -91 
Q 1681 -91 1000 561 
Q 319 1213 319 2328 
Q 319 3447 1000 4098 
Q 1681 4750 2847 4750 
Q 3238 4750 3597 4662 
Q 3956 4575 4288 4403 
L 4288 3438 
Q 3953 3666 3628 3772 
Q 3303 3878 2944 3878 
Q 2300 3878 1931 3465 
Q 1563 3053 1563 2328 
Q 1563 1606 1931 1193 
Q 2300 781 2944 781 
Q 3303 781 3628 887 
Q 3953 994 4288 1222 
L 4288 256 
z
" transform="scale(0.015625)"/>
      <path id="DejaVuSans-Bold-63" d="M 3366 3391 
L 3366 2478 
Q 3138 2634 2908 2709 
Q 2678 2784 2431 2784 
Q 1963 2784 1702 2511 
Q 1441 2238 1441 1747 
Q 1441 1256 1702 982 
Q 1963 709 2431 709 
Q 2694 709 2930 787 
Q 3166 866 3366 1019 
L 3366 103 
Q 3103 6 2833 -42 
Q 2563 -91 2291 -91 
Q 1344 -91 809 395 
Q 275 881 275 1747 
Q 275 2613 809 3098 
Q 1344 3584 2291 3584 
Q 2566 3584 2833 3536 
Q 3100 3488 3366 3391 
z
" transform="scale(0.015625)"/>
      <path id="DejaVuSans-Bold-75" d="M 500 1363 
L 500 3500 
L 1625 3500 
L 1625 3150 
Q 1625 2866 1622 2436 
Q 1619 2006 1619 1863 
Q 1619 1441 1641 1255 
Q 1663 1069 1716 984 
Q 1784 875 1895 815 
Q 2006 756 2150 756 
Q 2500 756 2700 1025 
Q 2900 1294 2900 1772 
L 2900 3500 
L 4019 3500 
L 4019 0 
L 2900 0 
L 2900 506 
Q 2647 200 2364 54 
Q 2081 -91 1741 -91 
Q 1134 -91 817 281 
Q 500 653 500 1363 
z
" transform="scale(0.015625)"/>
     </defs>
     <use xlink:href="#DejaVuSans-Bold-4e"/>
     <use xlink:href="#DejaVuSans-Bold-6f" transform="translate(83.691406 0)"/>
     <use xlink:href="#DejaVuSans-Bold-69" transform="translate(152.392578 0)"/>
     <use xlink:href="#DejaVuSans-Bold-73" transform="translate(186.669922 0)"/>
     <use xlink:href="#DejaVuSans-Bold-79" transform="translate(246.191406 0)"/>
     <use xlink:href="#DejaVuSans-Bold-20" transform="translate(311.376953 0)"/>
     <use xlink:href="#DejaVuSans-Bold-43" transform="translate(346.191406 0)"/>
     <use xlink:href="#DejaVuSans-Bold-69" transform="translate(419.580078 0)"/>
     <use xlink:href="#DejaVuSans-Bold-72" transform="translate(453.857422 0)"/>
     <use xlink:href="#DejaVuSans-Bold-63" transform="translate(503.173828 0)"/>
     <use xlink:href="#DejaVuSans-Bold-75" transform="translate(562.451172 0)"/>
     <use xlink:href="#DejaVuSans-Bold-69" transform="translate(633.642578 0)"/>
     <use xlink:href="#DejaVuSans-Bold-74" transform="translate(667.919922 0)"/>
    </g>
    <!-- Ũ (with errors) -->
    <g style="fill: #ffffff" transform="translate(320.11625 127.073781) scale(0.1 -0.1)">
     <defs>
      <path id="DejaVuSans-Bold-168" d="M 2606 5249 
L 2431 5358 
Q 2422 5365 2400 5377 
Q 2259 5458 2172 5458 
Q 2072 5458 2009 5364 
Q 1947 5271 1947 5115 
L 1947 5096 
L 1513 5096 
Q 1513 5111 1516 5142 
Q 1519 5174 1519 5190 
Q 1519 5521 1686 5724 
Q 1853 5927 2125 5927 
Q 2241 5927 2356 5888 
Q 2472 5849 2594 5774 
L 2778 5652 
Q 2844 5608 2905 5584 
Q 2966 5561 3016 5561 
Q 3131 5561 3192 5655 
Q 3253 5749 3253 5927 
L 3688 5927 
Q 3688 5908 3684 5877 
Q 3681 5846 3681 5830 
Q 3681 5499 3514 5297 
Q 3347 5096 3075 5096 
Q 2956 5096 2847 5130 
Q 2738 5165 2606 5249 
z
M 588 4666 
L 1791 4666 
L 1791 1869 
Q 1791 1291 1980 1042 
Q 2169 794 2597 794 
Q 3028 794 3217 1042 
Q 3406 1291 3406 1869 
L 3406 4666 
L 4609 4666 
L 4609 1869 
Q 4609 878 4112 393 
Q 3616 -91 2597 -91 
Q 1581 -91 1084 393 
Q 588 878 588 1869 
L 588 4666 
z
" transform="scale(0.015625)"/>
      <path id="DejaVuSans-Bold-28" d="M 2413 -844 
L 1484 -844 
Q 1006 -72 778 623 
Q 550 1319 550 2003 
Q 550 2688 779 3389 
Q 1009 4091 1484 4856 
L 2413 4856 
Q 2013 4116 1813 3408 
Q 1613 2700 1613 2009 
Q 1613 1319 1811 609 
Q 2009 -100 2413 -844 
z
" transform="scale(0.015625)"/>
      <path id="DejaVuSans-Bold-29" d="M 513 -844 
Q 913 -100 1113 609 
Q 1313 1319 1313 2009 
Q 1313 2700 1113 3408 
Q 913 4116 513 4856 
L 1441 4856 
Q 1916 4091 2145 3389 
Q 2375 2688 2375 2003 
Q 2375 1319 2147 623 
Q 1919 -72 1441 -844 
L 513 -844 
z
" transform="scale(0.015625)"/>
     </defs>
     <use xlink:href="#DejaVuSans-Bold-168"/>
     <use xlink:href="#DejaVuSans-Bold-20" transform="translate(81.201172 0)"/>
     <use xlink:href="#DejaVuSans-Bold-28" transform="translate(116.015625 0)"/>
     <use xlink:href="#DejaVuSans-Bold-77" transform="translate(161.71875 0)"/>
     <use xlink:href="#DejaVuSans-Bold-69" transform="translate(254.101562 0)"/>
     <use xlink:href="#DejaVuSans-Bold-74" transform="translate(288.378906 0)"/>
     <use xlink:href="#DejaVuSans-Bold-68" transform="translate(336.181641 0)"/>
     <use xlink:href="#DejaVuSans-Bold-20" transform="translate(407.373047 0)"/>
     <use xlink:href="#DejaVuSans-Bold-65" transform="translate(442.1875 0)"/>
     <use xlink:href="#DejaVuSans-Bold-72" transform="translate(510.009766 0)"/>
     <use xlink:href="#DejaVuSans-Bold-72" transform="translate(559.326172 0)"/>
     <use xlink:href="#DejaVuSans-Bold-6f" transform="translate(608.642578 0)"/>
     <use xlink:href="#DejaVuSans-Bold-72" transform="translate(677.34375 0)"/>
     <use xlink:href="#DejaVuSans-Bold-73" transform="translate(726.660156 0)"/>
     <use xlink:href="#DejaVuSans-Bold-29" transform="translate(786.181641 0)"/>
    </g>
   </g>
   <g id="patch_11">
    <path d="M 451.458369 118.1355 
Q 477.539191 118.1355 501.383945 118.1355 
" style="fill: none; stroke: #000000; stroke-width: 2; stroke-linecap: round"/>
    <path d="M 497.383945 116.1355 
L 501.383945 118.1355 
L 497.383945 120.1355 
" style="fill: none; stroke: #000000; stroke-width: 2; stroke-linecap: round"/>
   </g>
   <g id="text_3">
    <!-- Randomized -->
    <g style="fill: #ffffff" transform="translate(558.767656 115.295969) scale(0.1 -0.1)">
     <defs>
      <path id="DejaVuSans-Bold-52" d="M 2297 2597 
Q 2675 2597 2839 2737 
Q 3003 2878 3003 3200 
Q 3003 3519 2839 3656 
Q 2675 3794 2297 3794 
L 1791 3794 
L 1791 2597 
L 2297 2597 
z
M 1791 1766 
L 1791 0 
L 588 0 
L 588 4666 
L 2425 4666 
Q 3347 4666 3776 4356 
Q 4206 4047 4206 3378 
Q 4206 2916 3982 2619 
Q 3759 2322 3309 2181 
Q 3556 2125 3751 1926 
Q 3947 1728 4147 1325 
L 4800 0 
L 3519 0 
L 2950 1159 
Q 2778 1509 2601 1637 
Q 2425 1766 2131 1766 
L 1791 1766 
z
" transform="scale(0.015625)"/>
      <path id="DejaVuSans-Bold-6e" d="M 4056 2131 
L 4056 0 
L 2931 0 
L 2931 347 
L 2931 1631 
Q 2931 2084 2911 2256 
Q 2891 2428 2841 2509 
Q 2775 2619 2662 2680 
Q 2550 2741 2406 2741 
Q 2056 2741 1856 2470 
Q 1656 2200 1656 1722 
L 1656 0 
L 538 0 
L 538 3500 
L 1656 3500 
L 1656 2988 
Q 1909 3294 2193 3439 
Q 2478 3584 2822 3584 
Q 3428 3584 3742 3212 
Q 4056 2841 4056 2131 
z
" transform="scale(0.015625)"/>
      <path id="DejaVuSans-Bold-64" d="M 2919 2988 
L 2919 4863 
L 4044 4863 
L 4044 0 
L 2919 0 
L 2919 506 
Q 2688 197 2409 53 
Q 2131 -91 1766 -91 
Q 1119 -91 703 423 
Q 288 938 288 1747 
Q 288 2556 703 3070 
Q 1119 3584 1766 3584 
Q 2128 3584 2408 3439 
Q 2688 3294 2919 2988 
z
M 2181 722 
Q 2541 722 2730 984 
Q 2919 1247 2919 1747 
Q 2919 2247 2730 2509 
Q 2541 2772 2181 2772 
Q 1825 2772 1636 2509 
Q 1447 2247 1447 1747 
Q 1447 1247 1636 984 
Q 1825 722 2181 722 
z
" transform="scale(0.015625)"/>
      <path id="DejaVuSans-Bold-7a" d="M 366 3500 
L 3419 3500 
L 3419 2719 
L 1575 800 
L 3419 800 
L 3419 0 
L 288 0 
L 288 781 
L 2131 2700 
L 366 2700 
L 366 3500 
z
" transform="scale(0.015625)"/>
     </defs>
     <use xlink:href="#DejaVuSans-Bold-52"/>
     <use xlink:href="#DejaVuSans-Bold-61" transform="translate(77.001953 0)"/>
     <use xlink:href="#DejaVuSans-Bold-6e" transform="translate(144.482422 0)"/>
     <use xlink:href="#DejaVuSans-Bold-64" transform="translate(215.673828 0)"/>
     <use xlink:href="#DejaVuSans-Bold-6f" transform="translate(287.255859 0)"/>
     <use xlink:href="#DejaVuSans-Bold-6d" transform="translate(355.957031 0)"/>
     <use xlink:href="#DejaVuSans-Bold-69" transform="translate(460.15625 0)"/>
     <use xlink:href="#DejaVuSans-Bold-7a" transform="translate(494.433594 0)"/>
     <use xlink:href="#DejaVuSans-Bold-65" transform="translate(552.636719 0)"/>
     <use xlink:href="#DejaVuSans-Bold-64" transform="translate(620.458984 0)"/>
    </g>
    <!-- Measurements -->
    <g style="fill: #ffffff" transform="translate(551.709844 126.493781) scale(0.1 -0.1)">
     <defs>
      <path id="DejaVuSans-Bold-4d" d="M 588 4666 
L 2119 4666 
L 3181 2169 
L 4250 4666 
L 5778 4666 
L 5778 0 
L 4641 0 
L 4641 3413 
L 3566 897 
L 2803 897 
L 1728 3413 
L 1728 0 
L 588 0 
L 588 4666 
z
" transform="scale(0.015625)"/>
     </defs>
     <use xlink:href="#DejaVuSans-Bold-4d"/>
     <use xlink:href="#DejaVuSans-Bold-65" transform="translate(99.511719 0)"/>
     <use xlink:href="#DejaVuSans-Bold-61" transform="translate(167.333984 0)"/>
     <use xlink:href="#DejaVuSans-Bold-73" transform="translate(234.814453 0)"/>
     <use xlink:href="#DejaVuSans-Bold-75" transform="translate(294.335938 0)"/>
     <use xlink:href="#DejaVuSans-Bold-72" transform="translate(365.527344 0)"/>
     <use xlink:href="#DejaVuSans-Bold-65" transform="translate(414.84375 0)"/>
     <use xlink:href="#DejaVuSans-Bold-6d" transform="translate(482.666016 0)"/>
     <use xlink:href="#DejaVuSans-Bold-65" transform="translate(586.865234 0)"/>
     <use xlink:href="#DejaVuSans-Bold-6e" transform="translate(654.6875 0)"/>
     <use xlink:href="#DejaVuSans-Bold-74" transform="translate(725.878906 0)"/>
     <use xlink:href="#DejaVuSans-Bold-73" transform="translate(773.681641 0)"/>
    </g>
   </g>
   <g id="patch_12">
    <path d="M 593.37 153.892914 
Q 593.37 171.587767 593.37 187.046552 
" style="fill: none; stroke: #000000; stroke-width: 2; stroke-linecap: round"/>
    <path d="M 595.37 183.046552 
L 593.37 187.046552 
L 591.37 183.046552 
" style="fill: none; stroke: #000000; stroke-width: 2; stroke-linecap: round"/>
   </g>
   <g id="text_4">
    <!-- Shadow -->
    <g style="fill: #ffffff" transform="translate(571.202031 221.968969) scale(0.1 -0.1)">
     <use xlink:href="#DejaVuSans-Bold-53"/>
     <use xlink:href="#DejaVuSans-Bold-68" transform="translate(72.021484 0)"/>
     <use xlink:href="#DejaVuSans-Bold-61" transform="translate(143.212891 0)"/>
     <use xlink:href="#DejaVuSans-Bold-64" transform="translate(210.693359 0)"/>
     <use xlink:href="#DejaVuSans-Bold-6f" transform="translate(282.275391 0)"/>
     <use xlink:href="#DejaVuSans-Bold-77" transform="translate(350.976562 0)"/>
    </g>
    <!-- Snapshots {σ̂} -->
    <g style="fill: #ffffff" transform="translate(551.167656 233.646781) scale(0.1 -0.1)">
     <defs>
      <path id="DejaVuSans-Bold-70" d="M 1656 506 
L 1656 -1331 
L 538 -1331 
L 538 3500 
L 1656 3500 
L 1656 2988 
Q 1888 3294 2169 3439 
Q 2450 3584 2816 3584 
Q 3463 3584 3878 3070 
Q 4294 2556 4294 1747 
Q 4294 938 3878 423 
Q 3463 -91 2816 -91 
Q 2450 -91 2169 54 
Q 1888 200 1656 506 
z
M 2400 2772 
Q 2041 2772 1848 2508 
Q 1656 2244 1656 1747 
Q 1656 1250 1848 986 
Q 2041 722 2400 722 
Q 2759 722 2948 984 
Q 3138 1247 3138 1747 
Q 3138 2247 2948 2509 
Q 2759 2772 2400 2772 
z
" transform="scale(0.015625)"/>
      <path id="DejaVuSans-Bold-7b" d="M 3756 -341 
L 3756 -1044 
L 3078 -1044 
Q 2397 -1044 2084 -769 
Q 1772 -494 1772 109 
L 1772 709 
Q 1772 1178 1603 1361 
Q 1434 1544 991 1544 
L 800 1544 
L 800 2241 
L 991 2241 
Q 1434 2241 1603 2422 
Q 1772 2603 1772 3072 
L 1772 3713 
Q 1772 4316 2084 4589 
Q 2397 4863 3078 4863 
L 3756 4863 
L 3756 4159 
L 3541 4159 
Q 3100 4159 2967 4023 
Q 2834 3888 2834 3444 
L 2834 2925 
Q 2834 2434 2693 2212 
Q 2553 1991 2209 1913 
Q 2556 1828 2695 1606 
Q 2834 1384 2834 897 
L 2834 378 
Q 2834 -69 2967 -205 
Q 3100 -341 3541 -341 
L 3756 -341 
z
" transform="scale(0.015625)"/>
      <path id="DejaVuSans-Bold-3c3" d="M 2200 2784 
Q 1831 2784 1636 2517 
Q 1441 2250 1441 1747 
Q 1441 1244 1636 976 
Q 1831 709 2200 709 
Q 2569 709 2762 976 
Q 2956 1244 2956 1747 
Q 2956 2250 2762 2517 
Q 2569 2784 2200 2784 
z
M 4650 2700 
L 3916 2700 
Q 4122 2291 4122 1747 
Q 4122 884 3614 396 
Q 3106 -91 2203 -91 
Q 1297 -91 786 396 
Q 275 884 275 1747 
Q 275 2609 788 3097 
Q 1209 3500 2203 3500 
L 4650 3500 
L 4650 2700 
z
" transform="scale(0.015625)"/>
      <path id="DejaVuSans-Bold-302" d="M -1986 5119 
L -1230 5119 
L -430 3944 
L -986 3944 
L -1608 4647 
L -2230 3944 
L -2786 3944 
L -1986 5119 
z
" transform="scale(0.015625)"/>
      <path id="DejaVuSans-Bold-7d" d="M 800 -341 
L 1019 -341 
Q 1456 -341 1589 -205 
Q 1722 -69 1722 378 
L 1722 897 
Q 1722 1384 1862 1606 
Q 2003 1828 2350 1913 
Q 2003 1991 1862 2212 
Q 1722 2434 1722 2925 
L 1722 3444 
Q 1722 3888 1589 4023 
Q 1456 4159 1019 4159 
L 800 4159 
L 800 4863 
L 1478 4863 
Q 2159 4863 2471 4589 
Q 2784 4316 2784 3713 
L 2784 3072 
Q 2784 2603 2953 2422 
Q 3122 2241 3566 2241 
L 3756 2241 
L 3756 1544 
L 3566 1544 
Q 3122 1544 2953 1361 
Q 2784 1178 2784 709 
L 2784 109 
Q 2784 -494 2471 -769 
Q 2159 -1044 1478 -1044 
L 800 -1044 
L 800 -341 
z
" transform="scale(0.015625)"/>
     </defs>
     <use xlink:href="#DejaVuSans-Bold-53"/>
     <use xlink:href="#DejaVuSans-Bold-6e" transform="translate(72.021484 0)"/>
     <use xlink:href="#DejaVuSans-Bold-61" transform="translate(143.212891 0)"/>
     <use xlink:href="#DejaVuSans-Bold-70" transform="translate(210.693359 0)"/>
     <use xlink:href="#DejaVuSans-Bold-73" transform="translate(282.275391 0)"/>
     <use xlink:href="#DejaVuSans-Bold-68" transform="translate(341.796875 0)"/>
     <use xlink:href="#DejaVuSans-Bold-6f" transform="translate(412.988281 0)"/>
     <use xlink:href="#DejaVuSans-Bold-74" transform="translate(481.689453 0)"/>
     <use xlink:href="#DejaVuSans-Bold-73" transform="translate(529.492188 0)"/>
     <use xlink:href="#DejaVuSans-Bold-20" transform="translate(589.013672 0)"/>
     <use xlink:href="#DejaVuSans-Bold-7b" transform="translate(623.828125 0)"/>
     <use xlink:href="#DejaVuSans-Bold-3c3" transform="translate(695.019531 0)"/>
     <use xlink:href="#DejaVuSans-Bold-302" transform="translate(772.900391 0)"/>
     <use xlink:href="#DejaVuSans-Bold-7d" transform="translate(772.900391 0)"/>
    </g>
   </g>
   <g id="patch_13">
    <path d="M 503.621631 225.0485 
Q 449.462423 225.0485 397.539284 225.0485 
" style="fill: none; stroke: #000000; stroke-width: 2; stroke-linecap: round"/>
    <path d="M 401.539284 227.0485 
L 397.539284 225.0485 
L 401.539284 223.0485 
" style="fill: none; stroke: #000000; stroke-width: 2; stroke-linecap: round"/>
   </g>
   <g id="text_5">
    <!-- Standard Inversion -->
    <g style="fill: #7f8c8d" transform="translate(234.117187 222.169906) scale(0.1 -0.1)">
     <defs>
      <path id="DejaVuSans-Bold-49" d="M 588 4666 
L 1791 4666 
L 1791 0 
L 588 0 
L 588 4666 
z
" transform="scale(0.015625)"/>
      <path id="DejaVuSans-Bold-76" d="M 97 3500 
L 1216 3500 
L 2088 1081 
L 2956 3500 
L 4078 3500 
L 2700 0 
L 1472 0 
L 97 3500 
z
" transform="scale(0.015625)"/>
     </defs>
     <use xlink:href="#DejaVuSans-Bold-53"/>
     <use xlink:href="#DejaVuSans-Bold-74" transform="translate(72.021484 0)"/>
     <use xlink:href="#DejaVuSans-Bold-61" transform="translate(119.824219 0)"/>
     <use xlink:href="#DejaVuSans-Bold-6e" transform="translate(187.304688 0)"/>
     <use xlink:href="#DejaVuSans-Bold-64" transform="translate(258.496094 0)"/>
     <use xlink:href="#DejaVuSans-Bold-61" transform="translate(330.078125 0)"/>
     <use xlink:href="#DejaVuSans-Bold-72" transform="translate(397.558594 0)"/>
     <use xlink:href="#DejaVuSans-Bold-64" transform="translate(446.875 0)"/>
     <use xlink:href="#DejaVuSans-Bold-20" transform="translate(518.457031 0)"/>
     <use xlink:href="#DejaVuSans-Bold-49" transform="translate(553.271484 0)"/>
     <use xlink:href="#DejaVuSans-Bold-6e" transform="translate(590.478516 0)"/>
     <use xlink:href="#DejaVuSans-Bold-76" transform="translate(661.669922 0)"/>
     <use xlink:href="#DejaVuSans-Bold-65" transform="translate(726.855469 0)"/>
     <use xlink:href="#DejaVuSans-Bold-72" transform="translate(794.677734 0)"/>
     <use xlink:href="#DejaVuSans-Bold-73" transform="translate(843.994141 0)"/>
     <use xlink:href="#DejaVuSans-Bold-69" transform="translate(903.515625 0)"/>
     <use xlink:href="#DejaVuSans-Bold-6f" transform="translate(937.792969 0)"/>
     <use xlink:href="#DejaVuSans-Bold-6e" transform="translate(1006.494141 0)"/>
    </g>
    <!-- M⁻¹ (no mitigation) -->
    <g style="fill: #7f8c8d" transform="translate(234.069531 233.367719) scale(0.1 -0.1)">
     <defs>
      <path id="DejaVuSans-Bold-207b" d="M 428 3419 
L 2950 3419 
L 2950 3003 
L 428 3003 
L 428 3419 
z
" transform="scale(0.015625)"/>
      <path id="DejaVuSans-Bold-b9" d="M 441 2578 
L 1088 2578 
L 1088 4206 
L 384 4044 
L 384 4544 
L 1100 4697 
L 1806 4697 
L 1806 2578 
L 2444 2578 
L 2444 2088 
L 441 2088 
L 441 2578 
z
" transform="scale(0.015625)"/>
     </defs>
     <use xlink:href="#DejaVuSans-Bold-4d"/>
     <use xlink:href="#DejaVuSans-Bold-207b" transform="translate(99.511719 0)"/>
     <use xlink:href="#DejaVuSans-Bold-b9" transform="translate(152.294922 0)"/>
     <use xlink:href="#DejaVuSans-Bold-20" transform="translate(196.09375 0)"/>
     <use xlink:href="#DejaVuSans-Bold-28" transform="translate(230.908203 0)"/>
     <use xlink:href="#DejaVuSans-Bold-6e" transform="translate(276.611328 0)"/>
     <use xlink:href="#DejaVuSans-Bold-6f" transform="translate(347.802734 0)"/>
     <use xlink:href="#DejaVuSans-Bold-20" transform="translate(416.503906 0)"/>
     <use xlink:href="#DejaVuSans-Bold-6d" transform="translate(451.318359 0)"/>
     <use xlink:href="#DejaVuSans-Bold-69" transform="translate(555.517578 0)"/>
     <use xlink:href="#DejaVuSans-Bold-74" transform="translate(589.794922 0)"/>
     <use xlink:href="#DejaVuSans-Bold-69" transform="translate(637.597656 0)"/>
     <use xlink:href="#DejaVuSans-Bold-67" transform="translate(671.875 0)"/>
     <use xlink:href="#DejaVuSans-Bold-61" transform="translate(743.457031 0)"/>
     <use xlink:href="#DejaVuSans-Bold-74" transform="translate(810.9375 0)"/>
     <use xlink:href="#DejaVuSans-Bold-69" transform="translate(858.740234 0)"/>
     <use xlink:href="#DejaVuSans-Bold-6f" transform="translate(893.017578 0)"/>
     <use xlink:href="#DejaVuSans-Bold-6e" transform="translate(961.71875 0)"/>
     <use xlink:href="#DejaVuSans-Bold-29" transform="translate(1032.910156 0)"/>
    </g>
   </g>
   <g id="patch_14">
    <path d="M 593.37 260.807975 
Q 593.37 281.318181 593.37 299.592318 
" style="fill: none; stroke: #000000; stroke-width: 2; stroke-linecap: round"/>
    <path d="M 595.37 295.592318 
L 593.37 299.592318 
L 591.37 295.592318 
" style="fill: none; stroke: #000000; stroke-width: 2; stroke-linecap: round"/>
   </g>
   <g id="text_6">
    <!-- Symmetry -->
    <g style="fill: #ffffff" transform="translate(743.593281 205.249844) scale(0.1 -0.1)">
     <use xlink:href="#DejaVuSans-Bold-53"/>
     <use xlink:href="#DejaVuSans-Bold-79" transform="translate(72.021484 0)"/>
     <use xlink:href="#DejaVuSans-Bold-6d" transform="translate(137.207031 0)"/>
     <use xlink:href="#DejaVuSans-Bold-6d" transform="translate(241.40625 0)"/>
     <use xlink:href="#DejaVuSans-Bold-65" transform="translate(345.605469 0)"/>
     <use xlink:href="#DejaVuSans-Bold-74" transform="translate(413.427734 0)"/>
     <use xlink:href="#DejaVuSans-Bold-72" transform="translate(461.230469 0)"/>
     <use xlink:href="#DejaVuSans-Bold-79" transform="translate(510.546875 0)"/>
    </g>
    <!-- Group G -->
    <g style="fill: #ffffff" transform="translate(749.3925 216.525781) scale(0.1 -0.1)">
     <defs>
      <path id="DejaVuSans-Bold-47" d="M 4781 347 
Q 4331 128 3847 18 
Q 3363 -91 2847 -91 
Q 1681 -91 1000 561 
Q 319 1213 319 2328 
Q 319 3456 1012 4103 
Q 1706 4750 2913 4750 
Q 3378 4750 3804 4662 
Q 4231 4575 4609 4403 
L 4609 3438 
Q 4219 3659 3833 3768 
Q 3447 3878 3059 3878 
Q 2341 3878 1952 3476 
Q 1563 3075 1563 2328 
Q 1563 1588 1938 1184 
Q 2313 781 3003 781 
Q 3191 781 3352 804 
Q 3513 828 3641 878 
L 3641 1784 
L 2906 1784 
L 2906 2591 
L 4781 2591 
L 4781 347 
z
" transform="scale(0.015625)"/>
     </defs>
     <use xlink:href="#DejaVuSans-Bold-47"/>
     <use xlink:href="#DejaVuSans-Bold-72" transform="translate(82.080078 0)"/>
     <use xlink:href="#DejaVuSans-Bold-6f" transform="translate(131.396484 0)"/>
     <use xlink:href="#DejaVuSans-Bold-75" transform="translate(200.097656 0)"/>
     <use xlink:href="#DejaVuSans-Bold-70" transform="translate(271.289062 0)"/>
     <use xlink:href="#DejaVuSans-Bold-20" transform="translate(342.871094 0)"/>
     <use xlink:href="#DejaVuSans-Bold-47" transform="translate(377.685547 0)"/>
    </g>
   </g>
   <g id="patch_15">
    <path d="M 708.430474 210.017981 
Q 695.159457 241.930806 682.747033 271.778971 
" style="fill: none; stroke: #000000; stroke-width: 2; stroke-linecap: round"/>
    <path d="M 686.129619 268.853545 
L 682.747033 271.778971 
L 682.436244 267.317648 
" style="fill: none; stroke: #000000; stroke-width: 2; stroke-linecap: round"/>
   </g>
   <g id="text_7">
    <!-- Symmetry-Adjusted -->
    <g style="fill: #ffffff" transform="translate(537.450469 334.670844) scale(0.1 -0.1)">
     <defs>
      <path id="DejaVuSans-Bold-2d" d="M 347 2297 
L 2309 2297 
L 2309 1388 
L 347 1388 
L 347 2297 
z
" transform="scale(0.015625)"/>
      <path id="DejaVuSans-Bold-41" d="M 3419 850 
L 1538 850 
L 1241 0 
L 31 0 
L 1759 4666 
L 3194 4666 
L 4922 0 
L 3713 0 
L 3419 850 
z
M 1838 1716 
L 3116 1716 
L 2478 3572 
L 1838 1716 
z
" transform="scale(0.015625)"/>
      <path id="DejaVuSans-Bold-6a" d="M 538 3500 
L 1656 3500 
L 1656 63 
Q 1656 -641 1318 -1011 
Q 981 -1381 341 -1381 
L -213 -1381 
L -213 -647 
L -19 -647 
Q 300 -647 419 -503 
Q 538 -359 538 63 
L 538 3500 
z
M 538 4863 
L 1656 4863 
L 1656 3950 
L 538 3950 
L 538 4863 
z
" transform="scale(0.015625)"/>
     </defs>
     <use xlink:href="#DejaVuSans-Bold-53"/>
     <use xlink:href="#DejaVuSans-Bold-79" transform="translate(72.021484 0)"/>
     <use xlink:href="#DejaVuSans-Bold-6d" transform="translate(137.207031 0)"/>
     <use xlink:href="#DejaVuSans-Bold-6d" transform="translate(241.40625 0)"/>
     <use xlink:href="#DejaVuSans-Bold-65" transform="translate(345.605469 0)"/>
     <use xlink:href="#DejaVuSans-Bold-74" transform="translate(413.427734 0)"/>
     <use xlink:href="#DejaVuSans-Bold-72" transform="translate(461.230469 0)"/>
     <use xlink:href="#DejaVuSans-Bold-79" transform="translate(510.546875 0)"/>
     <use xlink:href="#DejaVuSans-Bold-2d" transform="translate(575.732422 0)"/>
     <use xlink:href="#DejaVuSans-Bold-41" transform="translate(617.236328 0)"/>
     <use xlink:href="#DejaVuSans-Bold-64" transform="translate(694.628906 0)"/>
     <use xlink:href="#DejaVuSans-Bold-6a" transform="translate(766.210938 0)"/>
     <use xlink:href="#DejaVuSans-Bold-75" transform="translate(800.488281 0)"/>
     <use xlink:href="#DejaVuSans-Bold-73" transform="translate(871.679688 0)"/>
     <use xlink:href="#DejaVuSans-Bold-74" transform="translate(931.201172 0)"/>
     <use xlink:href="#DejaVuSans-Bold-65" transform="translate(979.003906 0)"/>
     <use xlink:href="#DejaVuSans-Bold-64" transform="translate(1046.826172 0)"/>
    </g>
    <!-- Inversion (group-theoretic) -->
    <g style="fill: #ffffff" transform="translate(516.445 345.946781) scale(0.1 -0.1)">
     <use xlink:href="#DejaVuSans-Bold-49"/>
     <use xlink:href="#DejaVuSans-Bold-6e" transform="translate(37.207031 0)"/>
     <use xlink:href="#DejaVuSans-Bold-76" transform="translate(108.398438 0)"/>
     <use xlink:href="#DejaVuSans-Bold-65" transform="translate(173.583984 0)"/>
     <use xlink:href="#DejaVuSans-Bold-72" transform="translate(241.40625 0)"/>
     <use xlink:href="#DejaVuSans-Bold-73" transform="translate(290.722656 0)"/>
     <use xlink:href="#DejaVuSans-Bold-69" transform="translate(350.244141 0)"/>
     <use xlink:href="#DejaVuSans-Bold-6f" transform="translate(384.521484 0)"/>
     <use xlink:href="#DejaVuSans-Bold-6e" transform="translate(453.222656 0)"/>
     <use xlink:href="#DejaVuSans-Bold-20" transform="translate(524.414062 0)"/>
     <use xlink:href="#DejaVuSans-Bold-28" transform="translate(559.228516 0)"/>
     <use xlink:href="#DejaVuSans-Bold-67" transform="translate(604.931641 0)"/>
     <use xlink:href="#DejaVuSans-Bold-72" transform="translate(676.513672 0)"/>
     <use xlink:href="#DejaVuSans-Bold-6f" transform="translate(725.830078 0)"/>
     <use xlink:href="#DejaVuSans-Bold-75" transform="translate(794.53125 0)"/>
     <use xlink:href="#DejaVuSans-Bold-70" transform="translate(865.722656 0)"/>
     <use xlink:href="#DejaVuSans-Bold-2d" transform="translate(937.304688 0)"/>
     <use xlink:href="#DejaVuSans-Bold-74" transform="translate(978.808594 0)"/>
     <use xlink:href="#DejaVuSans-Bold-68" transform="translate(1026.611328 0)"/>
     <use xlink:href="#DejaVuSans-Bold-65" transform="translate(1097.802734 0)"/>
     <use xlink:href="#DejaVuSans-Bold-6f" transform="translate(1165.625 0)"/>
     <use xlink:href="#DejaVuSans-Bold-72" transform="translate(1234.326172 0)"/>
     <use xlink:href="#DejaVuSans-Bold-65" transform="translate(1283.642578 0)"/>
     <use xlink:href="#DejaVuSans-Bold-74" transform="translate(1351.464844 0)"/>
     <use xlink:href="#DejaVuSans-Bold-69" transform="translate(1399.267578 0)"/>
     <use xlink:href="#DejaVuSans-Bold-63" transform="translate(1433.544922 0)"/>
     <use xlink:href="#DejaVuSans-Bold-29" transform="translate(1492.822266 0)"/>
    </g>
   </g>
   <g id="patch_16">
    <path d="M 593.37 373.347975 
Q 593.37 393.858181 593.37 412.132318 
" style="fill: none; stroke: #000000; stroke-width: 2; stroke-linecap: round"/>
    <path d="M 595.37 408.132318 
L 593.37 412.132318 
L 591.37 408.132318 
" style="fill: none; stroke: #000000; stroke-width: 2; stroke-linecap: round"/>
   </g>
   <g id="text_8">
    <!-- Error-Mitigated -->
    <g style="fill: #ffffff" transform="translate(549.940312 444.297344) scale(0.1 -0.1)">
     <defs>
      <path id="DejaVuSans-Bold-45" d="M 588 4666 
L 3834 4666 
L 3834 3756 
L 1791 3756 
L 1791 2888 
L 3713 2888 
L 3713 1978 
L 1791 1978 
L 1791 909 
L 3903 909 
L 3903 0 
L 588 0 
L 588 4666 
z
" transform="scale(0.015625)"/>
     </defs>
     <use xlink:href="#DejaVuSans-Bold-45"/>
     <use xlink:href="#DejaVuSans-Bold-72" transform="translate(68.310547 0)"/>
     <use xlink:href="#DejaVuSans-Bold-72" transform="translate(117.626953 0)"/>
     <use xlink:href="#DejaVuSans-Bold-6f" transform="translate(166.943359 0)"/>
     <use xlink:href="#DejaVuSans-Bold-72" transform="translate(235.644531 0)"/>
     <use xlink:href="#DejaVuSans-Bold-2d" transform="translate(284.960938 0)"/>
     <use xlink:href="#DejaVuSans-Bold-4d" transform="translate(326.464844 0)"/>
     <use xlink:href="#DejaVuSans-Bold-69" transform="translate(425.976562 0)"/>
     <use xlink:href="#DejaVuSans-Bold-74" transform="translate(460.253906 0)"/>
     <use xlink:href="#DejaVuSans-Bold-69" transform="translate(508.056641 0)"/>
     <use xlink:href="#DejaVuSans-Bold-67" transform="translate(542.333984 0)"/>
     <use xlink:href="#DejaVuSans-Bold-61" transform="translate(613.916016 0)"/>
     <use xlink:href="#DejaVuSans-Bold-74" transform="translate(681.396484 0)"/>
     <use xlink:href="#DejaVuSans-Bold-65" transform="translate(729.199219 0)"/>
     <use xlink:href="#DejaVuSans-Bold-64" transform="translate(797.021484 0)"/>
    </g>
    <!-- Estimate ⟨O⟩_SAS -->
    <g style="fill: #ffffff" transform="translate(544.37625 455.573281) scale(0.1 -0.1)">
     <defs>
      <path id="DejaVuSans-Bold-27e8" d="M 672 2006 
L 1563 4856 
L 2413 4856 
L 1519 2006 
L 2413 -844 
L 1563 -844 
L 672 2006 
z
" transform="scale(0.015625)"/>
      <path id="DejaVuSans-Bold-4f" d="M 2719 3878 
Q 2169 3878 1866 3472 
Q 1563 3066 1563 2328 
Q 1563 1594 1866 1187 
Q 2169 781 2719 781 
Q 3272 781 3575 1187 
Q 3878 1594 3878 2328 
Q 3878 3066 3575 3472 
Q 3272 3878 2719 3878 
z
M 2719 4750 
Q 3844 4750 4481 4106 
Q 5119 3463 5119 2328 
Q 5119 1197 4481 553 
Q 3844 -91 2719 -91 
Q 1597 -91 958 553 
Q 319 1197 319 2328 
Q 319 3463 958 4106 
Q 1597 4750 2719 4750 
z
" transform="scale(0.015625)"/>
      <path id="DejaVuSans-Bold-27e9" d="M 2253 2006 
L 1363 -844 
L 513 -844 
L 1406 2006 
L 513 4856 
L 1363 4856 
L 2253 2006 
z
" transform="scale(0.015625)"/>
      <path id="DejaVuSans-Bold-5f" d="M 3200 -916 
L 3200 -1509 
L 0 -1509 
L 0 -916 
L 3200 -916 
z
" transform="scale(0.015625)"/>
     </defs>
     <use xlink:href="#DejaVuSans-Bold-45"/>
     <use xlink:href="#DejaVuSans-Bold-73" transform="translate(68.310547 0)"/>
     <use xlink:href="#DejaVuSans-Bold-74" transform="translate(127.832031 0)"/>
     <use xlink:href="#DejaVuSans-Bold-69" transform="translate(175.634766 0)"/>
     <use xlink:href="#DejaVuSans-Bold-6d" transform="translate(209.912109 0)"/>
     <use xlink:href="#DejaVuSans-Bold-61" transform="translate(314.111328 0)"/>
     <use xlink:href="#DejaVuSans-Bold-74" transform="translate(381.591797 0)"/>
     <use xlink:href="#DejaVuSans-Bold-65" transform="translate(429.394531 0)"/>
     <use xlink:href="#DejaVuSans-Bold-20" transform="translate(497.216797 0)"/>
     <use xlink:href="#DejaVuSans-Bold-27e8" transform="translate(532.03125 0)"/>
     <use xlink:href="#DejaVuSans-Bold-4f" transform="translate(577.734375 0)"/>
     <use xlink:href="#DejaVuSans-Bold-27e9" transform="translate(662.744141 0)"/>
     <use xlink:href="#DejaVuSans-Bold-5f" transform="translate(708.447266 0)"/>
     <use xlink:href="#DejaVuSans-Bold-53" transform="translate(758.447266 0)"/>
     <use xlink:href="#DejaVuSans-Bold-41" transform="translate(830.46875 0)"/>
     <use xlink:href="#DejaVuSans-Bold-53" transform="translate(907.861328 0)"/>
    </g>
   </g>
   <g id="text_9">
    <g id="patch_17">
     <path d="M 42.3 297.144219 
L 143.869219 297.144219 
Q 146.569219 297.144219 146.569219 294.444219 
L 146.569219 275.655875 
Q 146.569219 272.955875 143.869219 272.955875 
L 42.3 272.955875 
Q 39.6 272.955875 39.6 275.655875 
L 39.6 294.444219 
Q 39.6 297.144219 42.3 297.144219 
z
" style="fill: #e8f8f5; opacity: 0.8; stroke: #27ae60; stroke-linejoin: miter"/>
    </g>
    <!-- ✓ No calibration -->
    <g style="fill: #27ae60" transform="translate(42.3 282.494469) scale(0.09 -0.09)">
     <defs>
      <path id="DejaVuSans-2713" d="M 1416 2044 
Q 1538 2044 1600 1844 
Q 1725 1469 1778 1469 
Q 1819 1469 1863 1531 
Q 2741 2938 3488 3806 
Q 3681 4031 4103 4031 
Q 4203 4031 4237 4012 
Q 4272 3994 4272 3966 
Q 4272 3922 4169 3794 
Q 2963 2344 1931 731 
Q 1859 619 1638 619 
Q 1413 619 1372 638 
Q 1266 684 1122 1116 
Q 959 1594 959 1716 
Q 959 1847 1178 1969 
Q 1313 2044 1416 2044 
z
" transform="scale(0.015625)"/>
      <path id="DejaVuSans-20" transform="scale(0.015625)"/>
      <path id="DejaVuSans-4e" d="M 628 4666 
L 1478 4666 
L 3547 763 
L 3547 4666 
L 4159 4666 
L 4159 0 
L 3309 0 
L 1241 3903 
L 1241 0 
L 628 0 
L 628 4666 
z
" transform="scale(0.015625)"/>
      <path id="DejaVuSans-6f" d="M 1959 3097 
Q 1497 3097 1228 2736 
Q 959 2375 959 1747 
Q 959 1119 1226 758 
Q 1494 397 1959 397 
Q 2419 397 2687 759 
Q 2956 1122 2956 1747 
Q 2956 2369 2687 2733 
Q 2419 3097 1959 3097 
z
M 1959 3584 
Q 2709 3584 3137 3096 
Q 3566 2609 3566 1747 
Q 3566 888 3137 398 
Q 2709 -91 1959 -91 
Q 1206 -91 779 398 
Q 353 888 353 1747 
Q 353 2609 779 3096 
Q 1206 3584 1959 3584 
z
" transform="scale(0.015625)"/>
      <path id="DejaVuSans-63" d="M 3122 3366 
L 3122 2828 
Q 2878 2963 2633 3030 
Q 2388 3097 2138 3097 
Q 1578 3097 1268 2742 
Q 959 2388 959 1747 
Q 959 1106 1268 751 
Q 1578 397 2138 397 
Q 2388 397 2633 464 
Q 2878 531 3122 666 
L 3122 134 
Q 2881 22 2623 -34 
Q 2366 -91 2075 -91 
Q 1284 -91 818 406 
Q 353 903 353 1747 
Q 353 2603 823 3093 
Q 1294 3584 2113 3584 
Q 2378 3584 2631 3529 
Q 2884 3475 3122 3366 
z
" transform="scale(0.015625)"/>
      <path id="DejaVuSans-61" d="M 2194 1759 
Q 1497 1759 1228 1600 
Q 959 1441 959 1056 
Q 959 750 1161 570 
Q 1363 391 1709 391 
Q 2188 391 2477 730 
Q 2766 1069 2766 1631 
L 2766 1759 
L 2194 1759 
z
M 3341 1997 
L 3341 0 
L 2766 0 
L 2766 531 
Q 2569 213 2275 61 
Q 1981 -91 1556 -91 
Q 1019 -91 701 211 
Q 384 513 384 1019 
Q 384 1609 779 1909 
Q 1175 2209 1959 2209 
L 2766 2209 
L 2766 2266 
Q 2766 2663 2505 2880 
Q 2244 3097 1772 3097 
Q 1472 3097 1187 3025 
Q 903 2953 641 2809 
L 641 3341 
Q 956 3463 1253 3523 
Q 1550 3584 1831 3584 
Q 2591 3584 2966 3190 
Q 3341 2797 3341 1997 
z
" transform="scale(0.015625)"/>
      <path id="DejaVuSans-6c" d="M 603 4863 
L 1178 4863 
L 1178 0 
L 603 0 
L 603 4863 
z
" transform="scale(0.015625)"/>
      <path id="DejaVuSans-69" d="M 603 3500 
L 1178 3500 
L 1178 0 
L 603 0 
L 603 3500 
z
M 603 4863 
L 1178 4863 
L 1178 4134 
L 603 4134 
L 603 4863 
z
" transform="scale(0.015625)"/>
      <path id="DejaVuSans-62" d="M 3116 1747 
Q 3116 2381 2855 2742 
Q 2594 3103 2138 3103 
Q 1681 3103 1420 2742 
Q 1159 2381 1159 1747 
Q 1159 1113 1420 752 
Q 1681 391 2138 391 
Q 2594 391 2855 752 
Q 3116 1113 3116 1747 
z
M 1159 2969 
Q 1341 3281 1617 3432 
Q 1894 3584 2278 3584 
Q 2916 3584 3314 3078 
Q 3713 2572 3713 1747 
Q 3713 922 3314 415 
Q 2916 -91 2278 -91 
Q 1894 -91 1617 61 
Q 1341 213 1159 525 
L 1159 0 
L 581 0 
L 581 4863 
L 1159 4863 
L 1159 2969 
z
" transform="scale(0.015625)"/>
      <path id="DejaVuSans-72" d="M 2631 2963 
Q 2534 3019 2420 3045 
Q 2306 3072 2169 3072 
Q 1681 3072 1420 2755 
Q 1159 2438 1159 1844 
L 1159 0 
L 581 0 
L 581 3500 
L 1159 3500 
L 1159 2956 
Q 1341 3275 1631 3429 
Q 1922 3584 2338 3584 
Q 2397 3584 2469 3576 
Q 2541 3569 2628 3553 
L 2631 2963 
z
" transform="scale(0.015625)"/>
      <path id="DejaVuSans-74" d="M 1172 4494 
L 1172 3500 
L 2356 3500 
L 2356 3053 
L 1172 3053 
L 1172 1153 
Q 1172 725 1289 603 
Q 1406 481 1766 481 
L 2356 481 
L 2356 0 
L 1766 0 
Q 1100 0 847 248 
Q 594 497 594 1153 
L 594 3053 
L 172 3053 
L 172 3500 
L 594 3500 
L 594 4494 
L 1172 4494 
z
" transform="scale(0.015625)"/>
      <path id="DejaVuSans-6e" d="M 3513 2113 
L 3513 0 
L 2938 0 
L 2938 2094 
Q 2938 2591 2744 2837 
Q 2550 3084 2163 3084 
Q 1697 3084 1428 2787 
Q 1159 2491 1159 1978 
L 1159 0 
L 581 0 
L 581 3500 
L 1159 3500 
L 1159 2956 
Q 1366 3272 1645 3428 
Q 1925 3584 2291 3584 
Q 2894 3584 3203 3211 
Q 3513 2838 3513 2113 
z
" transform="scale(0.015625)"/>
     </defs>
     <use xlink:href="#DejaVuSans-2713"/>
     <use xlink:href="#DejaVuSans-20" transform="translate(83.789062 0)"/>
     <use xlink:href="#DejaVuSans-4e" transform="translate(115.576172 0)"/>
     <use xlink:href="#DejaVuSans-6f" transform="translate(190.380859 0)"/>
     <use xlink:href="#DejaVuSans-20" transform="translate(251.5625 0)"/>
     <use xlink:href="#DejaVuSans-63" transform="translate(283.349609 0)"/>
     <use xlink:href="#DejaVuSans-61" transform="translate(338.330078 0)"/>
     <use xlink:href="#DejaVuSans-6c" transform="translate(399.609375 0)"/>
     <use xlink:href="#DejaVuSans-69" transform="translate(427.392578 0)"/>
     <use xlink:href="#DejaVuSans-62" transform="translate(455.175781 0)"/>
     <use xlink:href="#DejaVuSans-72" transform="translate(518.652344 0)"/>
     <use xlink:href="#DejaVuSans-61" transform="translate(559.765625 0)"/>
     <use xlink:href="#DejaVuSans-74" transform="translate(621.044922 0)"/>
     <use xlink:href="#DejaVuSans-69" transform="translate(660.253906 0)"/>
     <use xlink:href="#DejaVuSans-6f" transform="translate(688.037109 0)"/>
     <use xlink:href="#DejaVuSans-6e" transform="translate(749.21875 0)"/>
    </g>
    <!--    experiments needed -->
    <g style="fill: #27ae60" transform="translate(42.3 292.5725) scale(0.09 -0.09)">
     <defs>
      <path id="DejaVuSans-65" d="M 3597 1894 
L 3597 1613 
L 953 1613 
Q 991 1019 1311 708 
Q 1631 397 2203 397 
Q 2534 397 2845 478 
Q 3156 559 3463 722 
L 3463 178 
Q 3153 47 2828 -22 
Q 2503 -91 2169 -91 
Q 1331 -91 842 396 
Q 353 884 353 1716 
Q 353 2575 817 3079 
Q 1281 3584 2069 3584 
Q 2775 3584 3186 3129 
Q 3597 2675 3597 1894 
z
M 3022 2063 
Q 3016 2534 2758 2815 
Q 2500 3097 2075 3097 
Q 1594 3097 1305 2825 
Q 1016 2553 972 2059 
L 3022 2063 
z
" transform="scale(0.015625)"/>
      <path id="DejaVuSans-78" d="M 3513 3500 
L 2247 1797 
L 3578 0 
L 2900 0 
L 1881 1375 
L 863 0 
L 184 0 
L 1544 1831 
L 300 3500 
L 978 3500 
L 1906 2253 
L 2834 3500 
L 3513 3500 
z
" transform="scale(0.015625)"/>
      <path id="DejaVuSans-70" d="M 1159 525 
L 1159 -1331 
L 581 -1331 
L 581 3500 
L 1159 3500 
L 1159 2969 
Q 1341 3281 1617 3432 
Q 1894 3584 2278 3584 
Q 2916 3584 3314 3078 
Q 3713 2572 3713 1747 
Q 3713 922 3314 415 
Q 2916 -91 2278 -91 
Q 1894 -91 1617 61 
Q 1341 213 1159 525 
z
M 3116 1747 
Q 3116 2381 2855 2742 
Q 2594 3103 2138 3103 
Q 1681 3103 1420 2742 
Q 1159 2381 1159 1747 
Q 1159 1113 1420 752 
Q 1681 391 2138 391 
Q 2594 391 2855 752 
Q 3116 1113 3116 1747 
z
" transform="scale(0.015625)"/>
      <path id="DejaVuSans-6d" d="M 3328 2828 
Q 3544 3216 3844 3400 
Q 4144 3584 4550 3584 
Q 5097 3584 5394 3201 
Q 5691 2819 5691 2113 
L 5691 0 
L 5113 0 
L 5113 2094 
Q 5113 2597 4934 2840 
Q 4756 3084 4391 3084 
Q 3944 3084 3684 2787 
Q 3425 2491 3425 1978 
L 3425 0 
L 2847 0 
L 2847 2094 
Q 2847 2600 2669 2842 
Q 2491 3084 2119 3084 
Q 1678 3084 1418 2786 
Q 1159 2488 1159 1978 
L 1159 0 
L 581 0 
L 581 3500 
L 1159 3500 
L 1159 2956 
Q 1356 3278 1631 3431 
Q 1906 3584 2284 3584 
Q 2666 3584 2933 3390 
Q 3200 3197 3328 2828 
z
" transform="scale(0.015625)"/>
      <path id="DejaVuSans-73" d="M 2834 3397 
L 2834 2853 
Q 2591 2978 2328 3040 
Q 2066 3103 1784 3103 
Q 1356 3103 1142 2972 
Q 928 2841 928 2578 
Q 928 2378 1081 2264 
Q 1234 2150 1697 2047 
L 1894 2003 
Q 2506 1872 2764 1633 
Q 3022 1394 3022 966 
Q 3022 478 2636 193 
Q 2250 -91 1575 -91 
Q 1294 -91 989 -36 
Q 684 19 347 128 
L 347 722 
Q 666 556 975 473 
Q 1284 391 1588 391 
Q 1994 391 2212 530 
Q 2431 669 2431 922 
Q 2431 1156 2273 1281 
Q 2116 1406 1581 1522 
L 1381 1569 
Q 847 1681 609 1914 
Q 372 2147 372 2553 
Q 372 3047 722 3315 
Q 1072 3584 1716 3584 
Q 2034 3584 2315 3537 
Q 2597 3491 2834 3397 
z
" transform="scale(0.015625)"/>
      <path id="DejaVuSans-64" d="M 2906 2969 
L 2906 4863 
L 3481 4863 
L 3481 0 
L 2906 0 
L 2906 525 
Q 2725 213 2448 61 
Q 2172 -91 1784 -91 
Q 1150 -91 751 415 
Q 353 922 353 1747 
Q 353 2572 751 3078 
Q 1150 3584 1784 3584 
Q 2172 3584 2448 3432 
Q 2725 3281 2906 2969 
z
M 947 1747 
Q 947 1113 1208 752 
Q 1469 391 1925 391 
Q 2381 391 2643 752 
Q 2906 1113 2906 1747 
Q 2906 2381 2643 2742 
Q 2381 3103 1925 3103 
Q 1469 3103 1208 2742 
Q 947 2381 947 1747 
z
" transform="scale(0.015625)"/>
     </defs>
     <use xlink:href="#DejaVuSans-20"/>
     <use xlink:href="#DejaVuSans-20" transform="translate(31.787109 0)"/>
     <use xlink:href="#DejaVuSans-20" transform="translate(63.574219 0)"/>
     <use xlink:href="#DejaVuSans-65" transform="translate(95.361328 0)"/>
     <use xlink:href="#DejaVuSans-78" transform="translate(155.134766 0)"/>
     <use xlink:href="#DejaVuSans-70" transform="translate(214.314453 0)"/>
     <use xlink:href="#DejaVuSans-65" transform="translate(277.791016 0)"/>
     <use xlink:href="#DejaVuSans-72" transform="translate(339.314453 0)"/>
     <use xlink:href="#DejaVuSans-69" transform="translate(380.427734 0)"/>
     <use xlink:href="#DejaVuSans-6d" transform="translate(408.210938 0)"/>
     <use xlink:href="#DejaVuSans-65" transform="translate(505.623047 0)"/>
     <use xlink:href="#DejaVuSans-6e" transform="translate(567.146484 0)"/>
     <use xlink:href="#DejaVuSans-74" transform="translate(630.525391 0)"/>
     <use xlink:href="#DejaVuSans-73" transform="translate(669.734375 0)"/>
     <use xlink:href="#DejaVuSans-20" transform="translate(721.833984 0)"/>
     <use xlink:href="#DejaVuSans-6e" transform="translate(753.621094 0)"/>
     <use xlink:href="#DejaVuSans-65" transform="translate(817 0)"/>
     <use xlink:href="#DejaVuSans-65" transform="translate(878.523438 0)"/>
     <use xlink:href="#DejaVuSans-64" transform="translate(940.046875 0)"/>
     <use xlink:href="#DejaVuSans-65" transform="translate(1003.523438 0)"/>
     <use xlink:href="#DejaVuSans-64" transform="translate(1065.046875 0)"/>
    </g>
   </g>
   <g id="text_10">
    <g id="patch_18">
     <path d="M 42.3 364.668219 
L 137.633906 364.668219 
Q 140.333906 364.668219 140.333906 361.968219 
L 140.333906 333.101844 
Q 140.333906 330.401844 137.633906 330.401844 
L 42.3 330.401844 
Q 39.6 330.401844 39.6 333.101844 
L 39.6 361.968219 
Q 39.6 364.668219 42.3 364.668219 
z
" style="fill: #e8f8f5; opacity: 0.8; stroke: #27ae60; stroke-linejoin: miter"/>
    </g>
    <!-- ✓ Mitigates errors in -->
    <g style="fill: #27ae60" transform="translate(42.3 339.940438) scale(0.09 -0.09)">
     <defs>
      <path id="DejaVuSans-4d" d="M 628 4666 
L 1569 4666 
L 2759 1491 
L 3956 4666 
L 4897 4666 
L 4897 0 
L 4281 0 
L 4281 4097 
L 3078 897 
L 2444 897 
L 1241 4097 
L 1241 0 
L 628 0 
L 628 4666 
z
" transform="scale(0.015625)"/>
      <path id="DejaVuSans-67" d="M 2906 1791 
Q 2906 2416 2648 2759 
Q 2391 3103 1925 3103 
Q 1463 3103 1205 2759 
Q 947 2416 947 1791 
Q 947 1169 1205 825 
Q 1463 481 1925 481 
Q 2391 481 2648 825 
Q 2906 1169 2906 1791 
z
M 3481 434 
Q 3481 -459 3084 -895 
Q 2688 -1331 1869 -1331 
Q 1566 -1331 1297 -1286 
Q 1028 -1241 775 -1147 
L 775 -588 
Q 1028 -725 1275 -790 
Q 1522 -856 1778 -856 
Q 2344 -856 2625 -561 
Q 2906 -266 2906 331 
L 2906 616 
Q 2728 306 2450 153 
Q 2172 0 1784 0 
Q 1141 0 747 490 
Q 353 981 353 1791 
Q 353 2603 747 3093 
Q 1141 3584 1784 3584 
Q 2172 3584 2450 3431 
Q 2728 3278 2906 2969 
L 2906 3500 
L 3481 3500 
L 3481 434 
z
" transform="scale(0.015625)"/>
     </defs>
     <use xlink:href="#DejaVuSans-2713"/>
     <use xlink:href="#DejaVuSans-20" transform="translate(83.789062 0)"/>
     <use xlink:href="#DejaVuSans-4d" transform="translate(115.576172 0)"/>
     <use xlink:href="#DejaVuSans-69" transform="translate(201.855469 0)"/>
     <use xlink:href="#DejaVuSans-74" transform="translate(229.638672 0)"/>
     <use xlink:href="#DejaVuSans-69" transform="translate(268.847656 0)"/>
     <use xlink:href="#DejaVuSans-67" transform="translate(296.630859 0)"/>
     <use xlink:href="#DejaVuSans-61" transform="translate(360.107422 0)"/>
     <use xlink:href="#DejaVuSans-74" transform="translate(421.386719 0)"/>
     <use xlink:href="#DejaVuSans-65" transform="translate(460.595703 0)"/>
     <use xlink:href="#DejaVuSans-73" transform="translate(522.119141 0)"/>
     <use xlink:href="#DejaVuSans-20" transform="translate(574.21875 0)"/>
     <use xlink:href="#DejaVuSans-65" transform="translate(606.005859 0)"/>
     <use xlink:href="#DejaVuSans-72" transform="translate(667.529297 0)"/>
     <use xlink:href="#DejaVuSans-72" transform="translate(706.892578 0)"/>
     <use xlink:href="#DejaVuSans-6f" transform="translate(745.755859 0)"/>
     <use xlink:href="#DejaVuSans-72" transform="translate(806.9375 0)"/>
     <use xlink:href="#DejaVuSans-73" transform="translate(848.050781 0)"/>
     <use xlink:href="#DejaVuSans-20" transform="translate(900.150391 0)"/>
     <use xlink:href="#DejaVuSans-69" transform="translate(931.9375 0)"/>
     <use xlink:href="#DejaVuSans-6e" transform="translate(959.720703 0)"/>
    </g>
    <!--    full circuit, not -->
    <g style="fill: #27ae60" transform="translate(42.3 350.018469) scale(0.09 -0.09)">
     <defs>
      <path id="DejaVuSans-66" d="M 2375 4863 
L 2375 4384 
L 1825 4384 
Q 1516 4384 1395 4259 
Q 1275 4134 1275 3809 
L 1275 3500 
L 2222 3500 
L 2222 3053 
L 1275 3053 
L 1275 0 
L 697 0 
L 697 3053 
L 147 3053 
L 147 3500 
L 697 3500 
L 697 3744 
Q 697 4328 969 4595 
Q 1241 4863 1831 4863 
L 2375 4863 
z
" transform="scale(0.015625)"/>
      <path id="DejaVuSans-75" d="M 544 1381 
L 544 3500 
L 1119 3500 
L 1119 1403 
Q 1119 906 1312 657 
Q 1506 409 1894 409 
Q 2359 409 2629 706 
Q 2900 1003 2900 1516 
L 2900 3500 
L 3475 3500 
L 3475 0 
L 2900 0 
L 2900 538 
Q 2691 219 2414 64 
Q 2138 -91 1772 -91 
Q 1169 -91 856 284 
Q 544 659 544 1381 
z
M 1991 3584 
L 1991 3584 
z
" transform="scale(0.015625)"/>
      <path id="DejaVuSans-2c" d="M 750 794 
L 1409 794 
L 1409 256 
L 897 -744 
L 494 -744 
L 750 256 
L 750 794 
z
" transform="scale(0.015625)"/>
     </defs>
     <use xlink:href="#DejaVuSans-20"/>
     <use xlink:href="#DejaVuSans-20" transform="translate(31.787109 0)"/>
     <use xlink:href="#DejaVuSans-20" transform="translate(63.574219 0)"/>
     <use xlink:href="#DejaVuSans-66" transform="translate(95.361328 0)"/>
     <use xlink:href="#DejaVuSans-75" transform="translate(130.566406 0)"/>
     <use xlink:href="#DejaVuSans-6c" transform="translate(193.945312 0)"/>
     <use xlink:href="#DejaVuSans-6c" transform="translate(221.728516 0)"/>
     <use xlink:href="#DejaVuSans-20" transform="translate(249.511719 0)"/>
     <use xlink:href="#DejaVuSans-63" transform="translate(281.298828 0)"/>
     <use xlink:href="#DejaVuSans-69" transform="translate(336.279297 0)"/>
     <use xlink:href="#DejaVuSans-72" transform="translate(364.0625 0)"/>
     <use xlink:href="#DejaVuSans-63" transform="translate(402.925781 0)"/>
     <use xlink:href="#DejaVuSans-75" transform="translate(457.90625 0)"/>
     <use xlink:href="#DejaVuSans-69" transform="translate(521.285156 0)"/>
     <use xlink:href="#DejaVuSans-74" transform="translate(549.068359 0)"/>
     <use xlink:href="#DejaVuSans-2c" transform="translate(588.277344 0)"/>
     <use xlink:href="#DejaVuSans-20" transform="translate(620.064453 0)"/>
     <use xlink:href="#DejaVuSans-6e" transform="translate(651.851562 0)"/>
     <use xlink:href="#DejaVuSans-6f" transform="translate(715.230469 0)"/>
     <use xlink:href="#DejaVuSans-74" transform="translate(776.412109 0)"/>
    </g>
    <!--    just measurements -->
    <g style="fill: #27ae60" transform="translate(42.3 360.0965) scale(0.09 -0.09)">
     <defs>
      <path id="DejaVuSans-6a" d="M 603 3500 
L 1178 3500 
L 1178 -63 
Q 1178 -731 923 -1031 
Q 669 -1331 103 -1331 
L -116 -1331 
L -116 -844 
L 38 -844 
Q 366 -844 484 -692 
Q 603 -541 603 -63 
L 603 3500 
z
M 603 4863 
L 1178 4863 
L 1178 4134 
L 603 4134 
L 603 4863 
z
" transform="scale(0.015625)"/>
     </defs>
     <use xlink:href="#DejaVuSans-20"/>
     <use xlink:href="#DejaVuSans-20" transform="translate(31.787109 0)"/>
     <use xlink:href="#DejaVuSans-20" transform="translate(63.574219 0)"/>
     <use xlink:href="#DejaVuSans-6a" transform="translate(95.361328 0)"/>
     <use xlink:href="#DejaVuSans-75" transform="translate(123.144531 0)"/>
     <use xlink:href="#DejaVuSans-73" transform="translate(186.523438 0)"/>
     <use xlink:href="#DejaVuSans-74" transform="translate(238.623047 0)"/>
     <use xlink:href="#DejaVuSans-20" transform="translate(277.832031 0)"/>
     <use xlink:href="#DejaVuSans-6d" transform="translate(309.619141 0)"/>
     <use xlink:href="#DejaVuSans-65" transform="translate(407.03125 0)"/>
     <use xlink:href="#DejaVuSans-61" transform="translate(468.554688 0)"/>
     <use xlink:href="#DejaVuSans-73" transform="translate(529.833984 0)"/>
     <use xlink:href="#DejaVuSans-75" transform="translate(581.933594 0)"/>
     <use xlink:href="#DejaVuSans-72" transform="translate(645.3125 0)"/>
     <use xlink:href="#DejaVuSans-65" transform="translate(684.175781 0)"/>
     <use xlink:href="#DejaVuSans-6d" transform="translate(745.699219 0)"/>
     <use xlink:href="#DejaVuSans-65" transform="translate(843.111328 0)"/>
     <use xlink:href="#DejaVuSans-6e" transform="translate(904.634766 0)"/>
     <use xlink:href="#DejaVuSans-74" transform="translate(968.013672 0)"/>
     <use xlink:href="#DejaVuSans-73" transform="translate(1007.222656 0)"/>
    </g>
   </g>
   <g id="text_11">
    <g id="patch_19">
     <path d="M 42.3 437.819219 
L 150.731719 437.819219 
Q 153.431719 437.819219 153.431719 435.119219 
L 153.431719 416.330875 
Q 153.431719 413.630875 150.731719 413.630875 
L 42.3 413.630875 
Q 39.6 413.630875 39.6 416.330875 
L 39.6 435.119219 
Q 39.6 437.819219 42.3 437.819219 
z
" style="fill: #e8f8f5; opacity: 0.8; stroke: #27ae60; stroke-linejoin: miter"/>
    </g>
    <!-- ✓ No data discarded -->
    <g style="fill: #27ae60" transform="translate(42.3 423.169469) scale(0.09 -0.09)">
     <use xlink:href="#DejaVuSans-2713"/>
     <use xlink:href="#DejaVuSans-20" transform="translate(83.789062 0)"/>
     <use xlink:href="#DejaVuSans-4e" transform="translate(115.576172 0)"/>
     <use xlink:href="#DejaVuSans-6f" transform="translate(190.380859 0)"/>
     <use xlink:href="#DejaVuSans-20" transform="translate(251.5625 0)"/>
     <use xlink:href="#DejaVuSans-64" transform="translate(283.349609 0)"/>
     <use xlink:href="#DejaVuSans-61" transform="translate(346.826172 0)"/>
     <use xlink:href="#DejaVuSans-74" transform="translate(408.105469 0)"/>
     <use xlink:href="#DejaVuSans-61" transform="translate(447.314453 0)"/>
     <use xlink:href="#DejaVuSans-20" transform="translate(508.59375 0)"/>
     <use xlink:href="#DejaVuSans-64" transform="translate(540.380859 0)"/>
     <use xlink:href="#DejaVuSans-69" transform="translate(603.857422 0)"/>
     <use xlink:href="#DejaVuSans-73" transform="translate(631.640625 0)"/>
     <use xlink:href="#DejaVuSans-63" transform="translate(683.740234 0)"/>
     <use xlink:href="#DejaVuSans-61" transform="translate(738.720703 0)"/>
     <use xlink:href="#DejaVuSans-72" transform="translate(800 0)"/>
     <use xlink:href="#DejaVuSans-64" transform="translate(839.363281 0)"/>
     <use xlink:href="#DejaVuSans-65" transform="translate(902.839844 0)"/>
     <use xlink:href="#DejaVuSans-64" transform="translate(964.363281 0)"/>
    </g>
    <!--    (unlike post-selection) -->
    <g style="fill: #27ae60" transform="translate(42.3 433.2475) scale(0.09 -0.09)">
     <defs>
      <path id="DejaVuSans-28" d="M 1984 4856 
Q 1566 4138 1362 3434 
Q 1159 2731 1159 2009 
Q 1159 1288 1364 580 
Q 1569 -128 1984 -844 
L 1484 -844 
Q 1016 -109 783 600 
Q 550 1309 550 2009 
Q 550 2706 781 3412 
Q 1013 4119 1484 4856 
L 1984 4856 
z
" transform="scale(0.015625)"/>
      <path id="DejaVuSans-6b" d="M 581 4863 
L 1159 4863 
L 1159 1991 
L 2875 3500 
L 3609 3500 
L 1753 1863 
L 3688 0 
L 2938 0 
L 1159 1709 
L 1159 0 
L 581 0 
L 581 4863 
z
" transform="scale(0.015625)"/>
      <path id="DejaVuSans-2d" d="M 313 2009 
L 1997 2009 
L 1997 1497 
L 313 1497 
L 313 2009 
z
" transform="scale(0.015625)"/>
      <path id="DejaVuSans-29" d="M 513 4856 
L 1013 4856 
Q 1481 4119 1714 3412 
Q 1947 2706 1947 2009 
Q 1947 1309 1714 600 
Q 1481 -109 1013 -844 
L 513 -844 
Q 928 -128 1133 580 
Q 1338 1288 1338 2009 
Q 1338 2731 1133 3434 
Q 928 4138 513 4856 
z
" transform="scale(0.015625)"/>
     </defs>
     <use xlink:href="#DejaVuSans-20"/>
     <use xlink:href="#DejaVuSans-20" transform="translate(31.787109 0)"/>
     <use xlink:href="#DejaVuSans-20" transform="translate(63.574219 0)"/>
     <use xlink:href="#DejaVuSans-28" transform="translate(95.361328 0)"/>
     <use xlink:href="#DejaVuSans-75" transform="translate(134.375 0)"/>
     <use xlink:href="#DejaVuSans-6e" transform="translate(197.753906 0)"/>
     <use xlink:href="#DejaVuSans-6c" transform="translate(261.132812 0)"/>
     <use xlink:href="#DejaVuSans-69" transform="translate(288.916016 0)"/>
     <use xlink:href="#DejaVuSans-6b" transform="translate(316.699219 0)"/>
     <use xlink:href="#DejaVuSans-65" transform="translate(370.984375 0)"/>
     <use xlink:href="#DejaVuSans-20" transform="translate(432.507812 0)"/>
     <use xlink:href="#DejaVuSans-70" transform="translate(464.294922 0)"/>
     <use xlink:href="#DejaVuSans-6f" transform="translate(527.771484 0)"/>
     <use xlink:href="#DejaVuSans-73" transform="translate(588.953125 0)"/>
     <use xlink:href="#DejaVuSans-74" transform="translate(641.052734 0)"/>
     <use xlink:href="#DejaVuSans-2d" transform="translate(680.261719 0)"/>
     <use xlink:href="#DejaVuSans-73" transform="translate(716.345703 0)"/>
     <use xlink:href="#DejaVuSans-65" transform="translate(768.445312 0)"/>
     <use xlink:href="#DejaVuSans-6c" transform="translate(829.96875 0)"/>
     <use xlink:href="#DejaVuSans-65" transform="translate(857.751953 0)"/>
     <use xlink:href="#DejaVuSans-63" transform="translate(919.275391 0)"/>
     <use xlink:href="#DejaVuSans-74" transform="translate(974.255859 0)"/>
     <use xlink:href="#DejaVuSans-69" transform="translate(1013.464844 0)"/>
     <use xlink:href="#DejaVuSans-6f" transform="translate(1041.248047 0)"/>
     <use xlink:href="#DejaVuSans-6e" transform="translate(1102.429688 0)"/>
     <use xlink:href="#DejaVuSans-29" transform="translate(1165.808594 0)"/>
    </g>
   </g>
   <g id="text_12">
    <!-- vs -->
    <g style="fill: #7f8c8d" transform="translate(280.517812 295.88375) scale(0.12 -0.12)">
     <use xlink:href="#DejaVuSans-Bold-76"/>
     <use xlink:href="#DejaVuSans-Bold-73" transform="translate(65.185547 0)"/>
    </g>
   </g>
   <g id="text_13">
    <!-- Symmetry-Adjusted Classical Shadows -->
    <g transform="translate(253.9675 19.3575) scale(0.16 -0.16)">
     <defs>
      <path id="DejaVuSans-Bold-6c" d="M 538 4863 
L 1656 4863 
L 1656 0 
L 538 0 
L 538 4863 
z
" transform="scale(0.015625)"/>
     </defs>
     <use xlink:href="#DejaVuSans-Bold-53"/>
     <use xlink:href="#DejaVuSans-Bold-79" transform="translate(72.021484 0)"/>
     <use xlink:href="#DejaVuSans-Bold-6d" transform="translate(137.207031 0)"/>
     <use xlink:href="#DejaVuSans-Bold-6d" transform="translate(241.40625 0)"/>
     <use xlink:href="#DejaVuSans-Bold-65" transform="translate(345.605469 0)"/>
     <use xlink:href="#DejaVuSans-Bold-74" transform="translate(413.427734 0)"/>
     <use xlink:href="#DejaVuSans-Bold-72" transform="translate(461.230469 0)"/>
     <use xlink:href="#DejaVuSans-Bold-79" transform="translate(510.546875 0)"/>
     <use xlink:href="#DejaVuSans-Bold-2d" transform="translate(575.732422 0)"/>
     <use xlink:href="#DejaVuSans-Bold-41" transform="translate(617.236328 0)"/>
     <use xlink:href="#DejaVuSans-Bold-64" transform="translate(694.628906 0)"/>
     <use xlink:href="#DejaVuSans-Bold-6a" transform="translate(766.210938 0)"/>
     <use xlink:href="#DejaVuSans-Bold-75" transform="translate(800.488281 0)"/>
     <use xlink:href="#DejaVuSans-Bold-73" transform="translate(871.679688 0)"/>
     <use xlink:href="#DejaVuSans-Bold-74" transform="translate(931.201172 0)"/>
     <use xlink:href="#DejaVuSans-Bold-65" transform="translate(979.003906 0)"/>
     <use xlink:href="#DejaVuSans-Bold-64" transform="translate(1046.826172 0)"/>
     <use xlink:href="#DejaVuSans-Bold-20" transform="translate(1118.408203 0)"/>
     <use xlink:href="#DejaVuSans-Bold-43" transform="translate(1153.222656 0)"/>
     <use xlink:href="#DejaVuSans-Bold-6c" transform="translate(1226.611328 0)"/>
     <use xlink:href="#DejaVuSans-Bold-61" transform="translate(1260.888672 0)"/>
     <use xlink:href="#DejaVuSans-Bold-73" transform="translate(1328.369141 0)"/>
     <use xlink:href="#DejaVuSans-Bold-73" transform="translate(1387.890625 0)"/>
     <use xlink:href="#DejaVuSans-Bold-69" transform="translate(1447.412109 0)"/>
     <use xlink:href="#DejaVuSans-Bold-63" transform="translate(1481.689453 0)"/>
     <use xlink:href="#DejaVuSans-Bold-61" transform="translate(1540.966797 0)"/>
     <use xlink:href="#DejaVuSans-Bold-6c" transform="translate(1608.447266 0)"/>
     <use xlink:href="#DejaVuSans-Bold-20" transform="translate(1642.724609 0)"/>
     <use xlink:href="#DejaVuSans-Bold-53" transform="translate(1677.539062 0)"/>
     <use xlink:href="#DejaVuSans-Bold-68" transform="translate(1749.560547 0)"/>
     <use xlink:href="#DejaVuSans-Bold-61" transform="translate(1820.751953 0)"/>
     <use xlink:href="#DejaVuSans-Bold-64" transform="translate(1888.232422 0)"/>
     <use xlink:href="#DejaVuSans-Bold-6f" transform="translate(1959.814453 0)"/>
     <use xlink:href="#DejaVuSans-Bold-77" transform="translate(2028.515625 0)"/>
     <use xlink:href="#DejaVuSans-Bold-73" transform="translate(2120.898438 0)"/>
    </g>
   </g>
  </g>
 </g>
 <defs>
  <clipPath id="pcf23ea2a68">
   <rect x="7.2" y="39.3575" width="842.4" height="450.16"/>
  </clipPath>
 </defs>
</svg>
